%TF.GenerationSoftware,KiCad,Pcbnew,8.0.6*%
%TF.CreationDate,2024-11-14T02:25:25-08:00*%
%TF.ProjectId,project1,70726f6a-6563-4743-912e-6b696361645f,REV1*%
%TF.SameCoordinates,Original*%
%TF.FileFunction,Copper,L2,Bot*%
%TF.FilePolarity,Positive*%
%FSLAX46Y46*%
G04 Gerber Fmt 4.6, Leading zero omitted, Abs format (unit mm)*
G04 Created by KiCad (PCBNEW 8.0.6) date 2024-11-14 02:25:25*
%MOMM*%
%LPD*%
G01*
G04 APERTURE LIST*
G04 Aperture macros list*
%AMRoundRect*
0 Rectangle with rounded corners*
0 $1 Rounding radius*
0 $2 $3 $4 $5 $6 $7 $8 $9 X,Y pos of 4 corners*
0 Add a 4 corners polygon primitive as box body*
4,1,4,$2,$3,$4,$5,$6,$7,$8,$9,$2,$3,0*
0 Add four circle primitives for the rounded corners*
1,1,$1+$1,$2,$3*
1,1,$1+$1,$4,$5*
1,1,$1+$1,$6,$7*
1,1,$1+$1,$8,$9*
0 Add four rect primitives between the rounded corners*
20,1,$1+$1,$2,$3,$4,$5,0*
20,1,$1+$1,$4,$5,$6,$7,0*
20,1,$1+$1,$6,$7,$8,$9,0*
20,1,$1+$1,$8,$9,$2,$3,0*%
G04 Aperture macros list end*
%TA.AperFunction,ComponentPad*%
%ADD10RoundRect,0.250000X-0.725000X0.600000X-0.725000X-0.600000X0.725000X-0.600000X0.725000X0.600000X0*%
%TD*%
%TA.AperFunction,ComponentPad*%
%ADD11O,1.950000X1.700000*%
%TD*%
%TA.AperFunction,ComponentPad*%
%ADD12O,2.100000X1.000000*%
%TD*%
%TA.AperFunction,ComponentPad*%
%ADD13O,1.800000X1.000000*%
%TD*%
%TA.AperFunction,ComponentPad*%
%ADD14O,2.200000X2.200000*%
%TD*%
%TA.AperFunction,ComponentPad*%
%ADD15R,2.200000X2.200000*%
%TD*%
%TA.AperFunction,ComponentPad*%
%ADD16R,4.500000X2.000000*%
%TD*%
%TA.AperFunction,ComponentPad*%
%ADD17O,4.000000X2.000000*%
%TD*%
%TA.AperFunction,ComponentPad*%
%ADD18O,2.000000X4.000000*%
%TD*%
%TA.AperFunction,ViaPad*%
%ADD19C,0.600000*%
%TD*%
G04 APERTURE END LIST*
D10*
%TO.P,J5,1,Pin_1*%
%TO.N,Net-(J5-Pin_1)*%
X49800000Y-101750000D03*
D11*
%TO.P,J5,2,Pin_2*%
%TO.N,+5V_WALL*%
X49800000Y-104250000D03*
%TD*%
D10*
%TO.P,J6,1,Pin_1*%
%TO.N,Net-(J6-Pin_1)*%
X49800000Y-114850000D03*
D11*
%TO.P,J6,2,Pin_2*%
%TO.N,+5V_WALL*%
X49800000Y-117350000D03*
%TD*%
D10*
%TO.P,J2,1,Pin_1*%
%TO.N,Net-(J2-Pin_1)*%
X49900000Y-141250000D03*
D11*
%TO.P,J2,2,Pin_2*%
%TO.N,GND*%
X49900000Y-143750000D03*
%TO.P,J2,3,Pin_3*%
%TO.N,Net-(J2-Pin_3)*%
X49900000Y-146250000D03*
%TO.P,J2,4,Pin_4*%
%TO.N,Net-(J2-Pin_4)*%
X49900000Y-148750000D03*
%TD*%
D12*
%TO.P,J8,S1,SHIELD*%
%TO.N,GND*%
X118875000Y-94320000D03*
D13*
X123075000Y-94320000D03*
D12*
X118875000Y-85680000D03*
D13*
X123075000Y-85680000D03*
%TD*%
D10*
%TO.P,J4,1,Pin_1*%
%TO.N,Net-(J4-Pin_1)*%
X49650000Y-89000000D03*
D11*
%TO.P,J4,2,Pin_2*%
%TO.N,+5V_WALL*%
X49650000Y-91500000D03*
%TD*%
D10*
%TO.P,J3,1,Pin_1*%
%TO.N,Net-(J3-Pin_1)*%
X49900000Y-75750000D03*
D11*
%TO.P,J3,2,Pin_2*%
%TO.N,+5V_WALL*%
X49900000Y-78250000D03*
%TD*%
D14*
%TO.P,D1,2,A*%
%TO.N,Net-(D1-A)*%
X112000000Y-95920000D03*
D15*
%TO.P,D1,1,K*%
%TO.N,+5VUSB*%
X112000000Y-106080000D03*
%TD*%
D16*
%TO.P,J1,1*%
%TO.N,Net-(J7-Pin_1)*%
X88500000Y-60000000D03*
D17*
%TO.P,J1,2*%
%TO.N,GND*%
X88500000Y-53800000D03*
D18*
%TO.P,J1,3*%
X83800000Y-56800000D03*
%TD*%
D10*
%TO.P,J7,1,Pin_1*%
%TO.N,Net-(J7-Pin_1)*%
X49900000Y-60750000D03*
D11*
%TO.P,J7,2,Pin_2*%
%TO.N,+5V_WALL*%
X49900000Y-63250000D03*
%TD*%
D19*
%TO.N,GND*%
X106500000Y-83000000D03*
%TD*%
%TA.AperFunction,Conductor*%
%TO.N,GND*%
G36*
X125442539Y-51020185D02*
G01*
X125488294Y-51072989D01*
X125499500Y-51124500D01*
X125499500Y-158875500D01*
X125479815Y-158942539D01*
X125427011Y-158988294D01*
X125375500Y-158999500D01*
X97024000Y-158999500D01*
X96956961Y-158979815D01*
X96911206Y-158927011D01*
X96900000Y-158875500D01*
X96900000Y-153655000D01*
X78900000Y-153655000D01*
X78900000Y-158875500D01*
X78880315Y-158942539D01*
X78827511Y-158988294D01*
X78776000Y-158999500D01*
X40624500Y-158999500D01*
X40557461Y-158979815D01*
X40511706Y-158927011D01*
X40500500Y-158875500D01*
X40500500Y-140599983D01*
X48424500Y-140599983D01*
X48424500Y-141900001D01*
X48424501Y-141900018D01*
X48435000Y-142002796D01*
X48435001Y-142002799D01*
X48490185Y-142169331D01*
X48490187Y-142169336D01*
X48582289Y-142318657D01*
X48706344Y-142442712D01*
X48861558Y-142538448D01*
X48908283Y-142590396D01*
X48919506Y-142659358D01*
X48891663Y-142723441D01*
X48884144Y-142731668D01*
X48745271Y-142870541D01*
X48620379Y-143042442D01*
X48523904Y-143231782D01*
X48458242Y-143433870D01*
X48458242Y-143433873D01*
X48447769Y-143500000D01*
X49495854Y-143500000D01*
X49457370Y-143566657D01*
X49425000Y-143687465D01*
X49425000Y-143812535D01*
X49457370Y-143933343D01*
X49495854Y-144000000D01*
X48447769Y-144000000D01*
X48458242Y-144066126D01*
X48458242Y-144066129D01*
X48523904Y-144268217D01*
X48620379Y-144457557D01*
X48745272Y-144629459D01*
X48745276Y-144629464D01*
X48895535Y-144779723D01*
X48895540Y-144779727D01*
X49060218Y-144899372D01*
X49102884Y-144954701D01*
X49108863Y-145024315D01*
X49076258Y-145086110D01*
X49060218Y-145100008D01*
X48895214Y-145219890D01*
X48895209Y-145219894D01*
X48744890Y-145370213D01*
X48619951Y-145542179D01*
X48523444Y-145731585D01*
X48457753Y-145933760D01*
X48424500Y-146143713D01*
X48424500Y-146356286D01*
X48457753Y-146566239D01*
X48523444Y-146768414D01*
X48619951Y-146957820D01*
X48744890Y-147129786D01*
X48895209Y-147280105D01*
X48895214Y-147280109D01*
X49059793Y-147399682D01*
X49102459Y-147455011D01*
X49108438Y-147524625D01*
X49075833Y-147586420D01*
X49059793Y-147600318D01*
X48895214Y-147719890D01*
X48895209Y-147719894D01*
X48744890Y-147870213D01*
X48619951Y-148042179D01*
X48523444Y-148231585D01*
X48457753Y-148433760D01*
X48424500Y-148643713D01*
X48424500Y-148856286D01*
X48457753Y-149066239D01*
X48523444Y-149268414D01*
X48619951Y-149457820D01*
X48744890Y-149629786D01*
X48895213Y-149780109D01*
X49067179Y-149905048D01*
X49067181Y-149905049D01*
X49067184Y-149905051D01*
X49256588Y-150001557D01*
X49458757Y-150067246D01*
X49668713Y-150100500D01*
X49668714Y-150100500D01*
X50131286Y-150100500D01*
X50131287Y-150100500D01*
X50341243Y-150067246D01*
X50543412Y-150001557D01*
X50732816Y-149905051D01*
X50754789Y-149889086D01*
X50904786Y-149780109D01*
X50904788Y-149780106D01*
X50904792Y-149780104D01*
X51055104Y-149629792D01*
X51055106Y-149629788D01*
X51055109Y-149629786D01*
X51180048Y-149457820D01*
X51180047Y-149457820D01*
X51180051Y-149457816D01*
X51276557Y-149268412D01*
X51342246Y-149066243D01*
X51375500Y-148856287D01*
X51375500Y-148643713D01*
X51342246Y-148433757D01*
X51276557Y-148231588D01*
X51180051Y-148042184D01*
X51180049Y-148042181D01*
X51180048Y-148042179D01*
X51055109Y-147870213D01*
X50904792Y-147719896D01*
X50904784Y-147719890D01*
X50740204Y-147600316D01*
X50697540Y-147544989D01*
X50691561Y-147475376D01*
X50724166Y-147413580D01*
X50740199Y-147399686D01*
X50904792Y-147280104D01*
X51055104Y-147129792D01*
X51055106Y-147129788D01*
X51055109Y-147129786D01*
X51180048Y-146957820D01*
X51180047Y-146957820D01*
X51180051Y-146957816D01*
X51276557Y-146768412D01*
X51342246Y-146566243D01*
X51375500Y-146356287D01*
X51375500Y-146143713D01*
X51342246Y-145933757D01*
X51276557Y-145731588D01*
X51180051Y-145542184D01*
X51180049Y-145542181D01*
X51180048Y-145542179D01*
X51055109Y-145370213D01*
X50904790Y-145219894D01*
X50904785Y-145219890D01*
X50739781Y-145100008D01*
X50697115Y-145044678D01*
X50691136Y-144975065D01*
X50723741Y-144913270D01*
X50739781Y-144899371D01*
X50904466Y-144779721D01*
X51054723Y-144629464D01*
X51054727Y-144629459D01*
X51179620Y-144457557D01*
X51276095Y-144268217D01*
X51341757Y-144066129D01*
X51341757Y-144066126D01*
X51352231Y-144000000D01*
X50304146Y-144000000D01*
X50342630Y-143933343D01*
X50375000Y-143812535D01*
X50375000Y-143687465D01*
X50342630Y-143566657D01*
X50304146Y-143500000D01*
X51352231Y-143500000D01*
X51341757Y-143433873D01*
X51341757Y-143433870D01*
X51276095Y-143231782D01*
X51179620Y-143042442D01*
X51054727Y-142870540D01*
X51054723Y-142870535D01*
X50915856Y-142731668D01*
X50882371Y-142670345D01*
X50887355Y-142600653D01*
X50929227Y-142544720D01*
X50938441Y-142538448D01*
X50944331Y-142534814D01*
X50944334Y-142534814D01*
X51093656Y-142442712D01*
X51217712Y-142318656D01*
X51309814Y-142169334D01*
X51364999Y-142002797D01*
X51375500Y-141900009D01*
X51375499Y-140599992D01*
X51364999Y-140497203D01*
X51309814Y-140330666D01*
X51217712Y-140181344D01*
X51093656Y-140057288D01*
X50944334Y-139965186D01*
X50777797Y-139910001D01*
X50777795Y-139910000D01*
X50675010Y-139899500D01*
X49124998Y-139899500D01*
X49124981Y-139899501D01*
X49022203Y-139910000D01*
X49022200Y-139910001D01*
X48855668Y-139965185D01*
X48855663Y-139965187D01*
X48706342Y-140057289D01*
X48582289Y-140181342D01*
X48490187Y-140330663D01*
X48490186Y-140330666D01*
X48435001Y-140497203D01*
X48435001Y-140497204D01*
X48435000Y-140497204D01*
X48424500Y-140599983D01*
X40500500Y-140599983D01*
X40500500Y-122468995D01*
X123299499Y-122468995D01*
X123326418Y-122604322D01*
X123326421Y-122604332D01*
X123379221Y-122731804D01*
X123379228Y-122731817D01*
X123455885Y-122846541D01*
X123455888Y-122846545D01*
X123553454Y-122944111D01*
X123553458Y-122944114D01*
X123668182Y-123020771D01*
X123668195Y-123020778D01*
X123795667Y-123073578D01*
X123795672Y-123073580D01*
X123795676Y-123073580D01*
X123795677Y-123073581D01*
X123931004Y-123100500D01*
X123931007Y-123100500D01*
X124068995Y-123100500D01*
X124160041Y-123082389D01*
X124204328Y-123073580D01*
X124331811Y-123020775D01*
X124446542Y-122944114D01*
X124544114Y-122846542D01*
X124620775Y-122731811D01*
X124673580Y-122604328D01*
X124700500Y-122468993D01*
X124700500Y-122331007D01*
X124700500Y-122331004D01*
X124673581Y-122195677D01*
X124673580Y-122195676D01*
X124673580Y-122195672D01*
X124673578Y-122195667D01*
X124620778Y-122068195D01*
X124620771Y-122068182D01*
X124544114Y-121953458D01*
X124544111Y-121953454D01*
X124446545Y-121855888D01*
X124446541Y-121855885D01*
X124331817Y-121779228D01*
X124331804Y-121779221D01*
X124204332Y-121726421D01*
X124204322Y-121726418D01*
X124068995Y-121699500D01*
X124068993Y-121699500D01*
X123931007Y-121699500D01*
X123931005Y-121699500D01*
X123795677Y-121726418D01*
X123795667Y-121726421D01*
X123668195Y-121779221D01*
X123668182Y-121779228D01*
X123553458Y-121855885D01*
X123553454Y-121855888D01*
X123455888Y-121953454D01*
X123455885Y-121953458D01*
X123379228Y-122068182D01*
X123379221Y-122068195D01*
X123326421Y-122195667D01*
X123326418Y-122195677D01*
X123299500Y-122331004D01*
X123299500Y-122331007D01*
X123299500Y-122468993D01*
X123299500Y-122468995D01*
X123299499Y-122468995D01*
X40500500Y-122468995D01*
X40500500Y-114199983D01*
X48324500Y-114199983D01*
X48324500Y-115500001D01*
X48324501Y-115500018D01*
X48335000Y-115602796D01*
X48335001Y-115602799D01*
X48390185Y-115769331D01*
X48390187Y-115769336D01*
X48482289Y-115918657D01*
X48606344Y-116042712D01*
X48761120Y-116138178D01*
X48807845Y-116190126D01*
X48819068Y-116259088D01*
X48791224Y-116323171D01*
X48783706Y-116331398D01*
X48644889Y-116470215D01*
X48519951Y-116642179D01*
X48423444Y-116831585D01*
X48357753Y-117033760D01*
X48324500Y-117243713D01*
X48324500Y-117456286D01*
X48357753Y-117666239D01*
X48423444Y-117868414D01*
X48519951Y-118057820D01*
X48644890Y-118229786D01*
X48795213Y-118380109D01*
X48967179Y-118505048D01*
X48967181Y-118505049D01*
X48967184Y-118505051D01*
X49156588Y-118601557D01*
X49358757Y-118667246D01*
X49568713Y-118700500D01*
X49568714Y-118700500D01*
X50031286Y-118700500D01*
X50031287Y-118700500D01*
X50241243Y-118667246D01*
X50443412Y-118601557D01*
X50632816Y-118505051D01*
X50654789Y-118489086D01*
X50804786Y-118380109D01*
X50804788Y-118380106D01*
X50804792Y-118380104D01*
X50955104Y-118229792D01*
X50955106Y-118229788D01*
X50955109Y-118229786D01*
X51080048Y-118057820D01*
X51080047Y-118057820D01*
X51080051Y-118057816D01*
X51176557Y-117868412D01*
X51242246Y-117666243D01*
X51275500Y-117456287D01*
X51275500Y-117243713D01*
X51242246Y-117033757D01*
X51176557Y-116831588D01*
X51080051Y-116642184D01*
X51080049Y-116642181D01*
X51080048Y-116642179D01*
X50955109Y-116470213D01*
X50816294Y-116331398D01*
X50782809Y-116270075D01*
X50787793Y-116200383D01*
X50829665Y-116144450D01*
X50838879Y-116138178D01*
X50844331Y-116134814D01*
X50844334Y-116134814D01*
X50993656Y-116042712D01*
X51117712Y-115918656D01*
X51209814Y-115769334D01*
X51243063Y-115668995D01*
X123299499Y-115668995D01*
X123326418Y-115804322D01*
X123326421Y-115804332D01*
X123379221Y-115931804D01*
X123379228Y-115931817D01*
X123455885Y-116046541D01*
X123455888Y-116046545D01*
X123553454Y-116144111D01*
X123553458Y-116144114D01*
X123668182Y-116220771D01*
X123668195Y-116220778D01*
X123760685Y-116259088D01*
X123795672Y-116273580D01*
X123795676Y-116273580D01*
X123795677Y-116273581D01*
X123931004Y-116300500D01*
X123931007Y-116300500D01*
X124068995Y-116300500D01*
X124160041Y-116282389D01*
X124204328Y-116273580D01*
X124331811Y-116220775D01*
X124446542Y-116144114D01*
X124544114Y-116046542D01*
X124620775Y-115931811D01*
X124673580Y-115804328D01*
X124700500Y-115668993D01*
X124700500Y-115531007D01*
X124700500Y-115531004D01*
X124673581Y-115395677D01*
X124673580Y-115395676D01*
X124673580Y-115395672D01*
X124673578Y-115395667D01*
X124620778Y-115268195D01*
X124620771Y-115268182D01*
X124544114Y-115153458D01*
X124544111Y-115153454D01*
X124446545Y-115055888D01*
X124446541Y-115055885D01*
X124331817Y-114979228D01*
X124331804Y-114979221D01*
X124204332Y-114926421D01*
X124204322Y-114926418D01*
X124068995Y-114899500D01*
X124068993Y-114899500D01*
X123931007Y-114899500D01*
X123931005Y-114899500D01*
X123795677Y-114926418D01*
X123795667Y-114926421D01*
X123668195Y-114979221D01*
X123668182Y-114979228D01*
X123553458Y-115055885D01*
X123553454Y-115055888D01*
X123455888Y-115153454D01*
X123455885Y-115153458D01*
X123379228Y-115268182D01*
X123379221Y-115268195D01*
X123326421Y-115395667D01*
X123326418Y-115395677D01*
X123299500Y-115531004D01*
X123299500Y-115531007D01*
X123299500Y-115668993D01*
X123299500Y-115668995D01*
X123299499Y-115668995D01*
X51243063Y-115668995D01*
X51264999Y-115602797D01*
X51275500Y-115500009D01*
X51275499Y-114199992D01*
X51264999Y-114097203D01*
X51209814Y-113930666D01*
X51117712Y-113781344D01*
X50993656Y-113657288D01*
X50844334Y-113565186D01*
X50677797Y-113510001D01*
X50677795Y-113510000D01*
X50575010Y-113499500D01*
X49024998Y-113499500D01*
X49024981Y-113499501D01*
X48922203Y-113510000D01*
X48922200Y-113510001D01*
X48755668Y-113565185D01*
X48755663Y-113565187D01*
X48606342Y-113657289D01*
X48482289Y-113781342D01*
X48390187Y-113930663D01*
X48390186Y-113930666D01*
X48335001Y-114097203D01*
X48335001Y-114097204D01*
X48335000Y-114097204D01*
X48324500Y-114199983D01*
X40500500Y-114199983D01*
X40500500Y-101099983D01*
X48324500Y-101099983D01*
X48324500Y-102400001D01*
X48324501Y-102400018D01*
X48335000Y-102502796D01*
X48335001Y-102502799D01*
X48390185Y-102669331D01*
X48390187Y-102669336D01*
X48482289Y-102818657D01*
X48606344Y-102942712D01*
X48761120Y-103038178D01*
X48807845Y-103090126D01*
X48819068Y-103159088D01*
X48791224Y-103223171D01*
X48783706Y-103231398D01*
X48644889Y-103370215D01*
X48519951Y-103542179D01*
X48423444Y-103731585D01*
X48357753Y-103933760D01*
X48324500Y-104143713D01*
X48324500Y-104356286D01*
X48352996Y-104536206D01*
X48357754Y-104566243D01*
X48413452Y-104737664D01*
X48423444Y-104768414D01*
X48519951Y-104957820D01*
X48644890Y-105129786D01*
X48795213Y-105280109D01*
X48967179Y-105405048D01*
X48967181Y-105405049D01*
X48967184Y-105405051D01*
X49156588Y-105501557D01*
X49358757Y-105567246D01*
X49568713Y-105600500D01*
X49568714Y-105600500D01*
X50031286Y-105600500D01*
X50031287Y-105600500D01*
X50241243Y-105567246D01*
X50443412Y-105501557D01*
X50632816Y-105405051D01*
X50654789Y-105389086D01*
X50804786Y-105280109D01*
X50804788Y-105280106D01*
X50804792Y-105280104D01*
X50955104Y-105129792D01*
X50955106Y-105129788D01*
X50955109Y-105129786D01*
X51080048Y-104957820D01*
X51080047Y-104957820D01*
X51080051Y-104957816D01*
X51093136Y-104932135D01*
X110399500Y-104932135D01*
X110399500Y-107227870D01*
X110399501Y-107227876D01*
X110405908Y-107287483D01*
X110456202Y-107422328D01*
X110456206Y-107422335D01*
X110542452Y-107537544D01*
X110542455Y-107537547D01*
X110657664Y-107623793D01*
X110657671Y-107623797D01*
X110792517Y-107674091D01*
X110792516Y-107674091D01*
X110799444Y-107674835D01*
X110852127Y-107680500D01*
X113147872Y-107680499D01*
X113207483Y-107674091D01*
X113342331Y-107623796D01*
X113457546Y-107537546D01*
X113543796Y-107422331D01*
X113594091Y-107287483D01*
X113600500Y-107227873D01*
X113600499Y-104932128D01*
X113594091Y-104872517D01*
X113555262Y-104768412D01*
X113543797Y-104737671D01*
X113543793Y-104737664D01*
X113457547Y-104622455D01*
X113457544Y-104622452D01*
X113342335Y-104536206D01*
X113342328Y-104536202D01*
X113207482Y-104485908D01*
X113207483Y-104485908D01*
X113147883Y-104479501D01*
X113147881Y-104479500D01*
X113147873Y-104479500D01*
X113147864Y-104479500D01*
X110852129Y-104479500D01*
X110852123Y-104479501D01*
X110792516Y-104485908D01*
X110657671Y-104536202D01*
X110657664Y-104536206D01*
X110542455Y-104622452D01*
X110542452Y-104622455D01*
X110456206Y-104737664D01*
X110456202Y-104737671D01*
X110405908Y-104872517D01*
X110399501Y-104932116D01*
X110399501Y-104932123D01*
X110399500Y-104932135D01*
X51093136Y-104932135D01*
X51176557Y-104768412D01*
X51242246Y-104566243D01*
X51275500Y-104356287D01*
X51275500Y-104143713D01*
X51242246Y-103933757D01*
X51176557Y-103731588D01*
X51080051Y-103542184D01*
X51080049Y-103542181D01*
X51080048Y-103542179D01*
X50955109Y-103370213D01*
X50816294Y-103231398D01*
X50782809Y-103170075D01*
X50787793Y-103100383D01*
X50829665Y-103044450D01*
X50838879Y-103038178D01*
X50844331Y-103034814D01*
X50844334Y-103034814D01*
X50993656Y-102942712D01*
X51117712Y-102818656D01*
X51209814Y-102669334D01*
X51264999Y-102502797D01*
X51275500Y-102400009D01*
X51275499Y-101099992D01*
X51264999Y-100997203D01*
X51209814Y-100830666D01*
X51117712Y-100681344D01*
X50993656Y-100557288D01*
X50844334Y-100465186D01*
X50677797Y-100410001D01*
X50677795Y-100410000D01*
X50575010Y-100399500D01*
X49024998Y-100399500D01*
X49024981Y-100399501D01*
X48922203Y-100410000D01*
X48922200Y-100410001D01*
X48755668Y-100465185D01*
X48755663Y-100465187D01*
X48606342Y-100557289D01*
X48482289Y-100681342D01*
X48390187Y-100830663D01*
X48390186Y-100830666D01*
X48335001Y-100997203D01*
X48335001Y-100997204D01*
X48335000Y-100997204D01*
X48324500Y-101099983D01*
X40500500Y-101099983D01*
X40500500Y-95920000D01*
X110394551Y-95920000D01*
X110414317Y-96171151D01*
X110473126Y-96416110D01*
X110569533Y-96648859D01*
X110701160Y-96863653D01*
X110701161Y-96863656D01*
X110701164Y-96863659D01*
X110864776Y-97055224D01*
X111013066Y-97181875D01*
X111056343Y-97218838D01*
X111056346Y-97218839D01*
X111271140Y-97350466D01*
X111503889Y-97446873D01*
X111748852Y-97505683D01*
X112000000Y-97525449D01*
X112251148Y-97505683D01*
X112496111Y-97446873D01*
X112728859Y-97350466D01*
X112943659Y-97218836D01*
X113135224Y-97055224D01*
X113298836Y-96863659D01*
X113430466Y-96648859D01*
X113526873Y-96416111D01*
X113585683Y-96171148D01*
X113605449Y-95920000D01*
X113585683Y-95668852D01*
X113526873Y-95423889D01*
X113467924Y-95281572D01*
X113430466Y-95191140D01*
X113298839Y-94976346D01*
X113298838Y-94976343D01*
X113261875Y-94933066D01*
X113135224Y-94784776D01*
X113008571Y-94676604D01*
X112943656Y-94621161D01*
X112943653Y-94621160D01*
X112728859Y-94489533D01*
X112496110Y-94393126D01*
X112251151Y-94334317D01*
X112000000Y-94314551D01*
X111748848Y-94334317D01*
X111503889Y-94393126D01*
X111271140Y-94489533D01*
X111056346Y-94621160D01*
X111056343Y-94621161D01*
X110864776Y-94784776D01*
X110701161Y-94976343D01*
X110701160Y-94976346D01*
X110569533Y-95191140D01*
X110473126Y-95423889D01*
X110414317Y-95668848D01*
X110394551Y-95920000D01*
X40500500Y-95920000D01*
X40500500Y-94070000D01*
X117355138Y-94070000D01*
X118158012Y-94070000D01*
X118140795Y-94079940D01*
X118084940Y-94135795D01*
X118045444Y-94204204D01*
X118025000Y-94280504D01*
X118025000Y-94359496D01*
X118045444Y-94435796D01*
X118084940Y-94504205D01*
X118140795Y-94560060D01*
X118158012Y-94570000D01*
X117355138Y-94570000D01*
X117363430Y-94611690D01*
X117363430Y-94611692D01*
X117438807Y-94793671D01*
X117438814Y-94793684D01*
X117548248Y-94957462D01*
X117548251Y-94957466D01*
X117687533Y-95096748D01*
X117687537Y-95096751D01*
X117851315Y-95206185D01*
X117851328Y-95206192D01*
X118033306Y-95281569D01*
X118033318Y-95281572D01*
X118226504Y-95319999D01*
X118226508Y-95320000D01*
X118625000Y-95320000D01*
X118625000Y-94620000D01*
X119125000Y-94620000D01*
X119125000Y-95320000D01*
X119523492Y-95320000D01*
X119523495Y-95319999D01*
X119716681Y-95281572D01*
X119716693Y-95281569D01*
X119898671Y-95206192D01*
X119898684Y-95206185D01*
X120062462Y-95096751D01*
X120062466Y-95096748D01*
X120201748Y-94957466D01*
X120201751Y-94957462D01*
X120311185Y-94793684D01*
X120311192Y-94793671D01*
X120386569Y-94611692D01*
X120386569Y-94611690D01*
X120394862Y-94570000D01*
X119591988Y-94570000D01*
X119609205Y-94560060D01*
X119665060Y-94504205D01*
X119704556Y-94435796D01*
X119725000Y-94359496D01*
X119725000Y-94280504D01*
X119704556Y-94204204D01*
X119665060Y-94135795D01*
X119609205Y-94079940D01*
X119591988Y-94070000D01*
X120394862Y-94070000D01*
X121705138Y-94070000D01*
X122508012Y-94070000D01*
X122490795Y-94079940D01*
X122434940Y-94135795D01*
X122395444Y-94204204D01*
X122375000Y-94280504D01*
X122375000Y-94359496D01*
X122395444Y-94435796D01*
X122434940Y-94504205D01*
X122490795Y-94560060D01*
X122508012Y-94570000D01*
X121705138Y-94570000D01*
X121713430Y-94611690D01*
X121713430Y-94611692D01*
X121788807Y-94793671D01*
X121788814Y-94793684D01*
X121898248Y-94957462D01*
X121898251Y-94957466D01*
X122037533Y-95096748D01*
X122037537Y-95096751D01*
X122201315Y-95206185D01*
X122201328Y-95206192D01*
X122383306Y-95281569D01*
X122383318Y-95281572D01*
X122576504Y-95319999D01*
X122576508Y-95320000D01*
X122825000Y-95320000D01*
X122825000Y-94620000D01*
X123325000Y-94620000D01*
X123325000Y-95320000D01*
X123573492Y-95320000D01*
X123573495Y-95319999D01*
X123766681Y-95281572D01*
X123766693Y-95281569D01*
X123948671Y-95206192D01*
X123948684Y-95206185D01*
X124112462Y-95096751D01*
X124112466Y-95096748D01*
X124251748Y-94957466D01*
X124251751Y-94957462D01*
X124361185Y-94793684D01*
X124361192Y-94793671D01*
X124436569Y-94611692D01*
X124436569Y-94611690D01*
X124444862Y-94570000D01*
X123641988Y-94570000D01*
X123659205Y-94560060D01*
X123715060Y-94504205D01*
X123754556Y-94435796D01*
X123775000Y-94359496D01*
X123775000Y-94280504D01*
X123754556Y-94204204D01*
X123715060Y-94135795D01*
X123659205Y-94079940D01*
X123641988Y-94070000D01*
X124444862Y-94070000D01*
X124436569Y-94028309D01*
X124436569Y-94028307D01*
X124361192Y-93846328D01*
X124361185Y-93846315D01*
X124251751Y-93682537D01*
X124251748Y-93682533D01*
X124112466Y-93543251D01*
X124112462Y-93543248D01*
X123948684Y-93433814D01*
X123948671Y-93433807D01*
X123766693Y-93358430D01*
X123766681Y-93358427D01*
X123573495Y-93320000D01*
X123325000Y-93320000D01*
X123325000Y-94020000D01*
X122825000Y-94020000D01*
X122825000Y-93320000D01*
X122576504Y-93320000D01*
X122383318Y-93358427D01*
X122383306Y-93358430D01*
X122201328Y-93433807D01*
X122201315Y-93433814D01*
X122037537Y-93543248D01*
X122037533Y-93543251D01*
X121898251Y-93682533D01*
X121898248Y-93682537D01*
X121788814Y-93846315D01*
X121788807Y-93846328D01*
X121713430Y-94028307D01*
X121713430Y-94028309D01*
X121705138Y-94070000D01*
X120394862Y-94070000D01*
X120386569Y-94028309D01*
X120386569Y-94028307D01*
X120311192Y-93846328D01*
X120311185Y-93846315D01*
X120201751Y-93682537D01*
X120201748Y-93682533D01*
X120062466Y-93543251D01*
X120062462Y-93543248D01*
X119898680Y-93433812D01*
X119893335Y-93430955D01*
X119843489Y-93381994D01*
X119828027Y-93313857D01*
X119851856Y-93248177D01*
X119853412Y-93246105D01*
X119855506Y-93243373D01*
X119855515Y-93243365D01*
X119931281Y-93112135D01*
X119970500Y-92965766D01*
X119970500Y-92814234D01*
X119931281Y-92667865D01*
X119855515Y-92536635D01*
X119748365Y-92429485D01*
X119662284Y-92379786D01*
X119617136Y-92353719D01*
X119543950Y-92334109D01*
X119470766Y-92314500D01*
X119319234Y-92314500D01*
X119172863Y-92353719D01*
X119041635Y-92429485D01*
X119041632Y-92429487D01*
X118934487Y-92536632D01*
X118934485Y-92536635D01*
X118858719Y-92667863D01*
X118819500Y-92814234D01*
X118819500Y-92965765D01*
X118858720Y-93112137D01*
X118858720Y-93112138D01*
X118871342Y-93134000D01*
X118887815Y-93201901D01*
X118864962Y-93267927D01*
X118810041Y-93311118D01*
X118763955Y-93320000D01*
X118226504Y-93320000D01*
X118033318Y-93358427D01*
X118033306Y-93358430D01*
X117851328Y-93433807D01*
X117851315Y-93433814D01*
X117687537Y-93543248D01*
X117687533Y-93543251D01*
X117548251Y-93682533D01*
X117548248Y-93682537D01*
X117438814Y-93846315D01*
X117438807Y-93846328D01*
X117363430Y-94028307D01*
X117363430Y-94028309D01*
X117355138Y-94070000D01*
X40500500Y-94070000D01*
X40500500Y-88349983D01*
X48174500Y-88349983D01*
X48174500Y-89650001D01*
X48174501Y-89650018D01*
X48185000Y-89752796D01*
X48185001Y-89752799D01*
X48240185Y-89919331D01*
X48240187Y-89919336D01*
X48332289Y-90068657D01*
X48456344Y-90192712D01*
X48611120Y-90288178D01*
X48657845Y-90340126D01*
X48669068Y-90409088D01*
X48641224Y-90473171D01*
X48633706Y-90481398D01*
X48494889Y-90620215D01*
X48369951Y-90792179D01*
X48273444Y-90981585D01*
X48207753Y-91183760D01*
X48174500Y-91393713D01*
X48174500Y-91606286D01*
X48207753Y-91816239D01*
X48273444Y-92018414D01*
X48369951Y-92207820D01*
X48494890Y-92379786D01*
X48645213Y-92530109D01*
X48817179Y-92655048D01*
X48817181Y-92655049D01*
X48817184Y-92655051D01*
X49006588Y-92751557D01*
X49208757Y-92817246D01*
X49418713Y-92850500D01*
X49418714Y-92850500D01*
X49881286Y-92850500D01*
X49881287Y-92850500D01*
X50091243Y-92817246D01*
X50293412Y-92751557D01*
X50482816Y-92655051D01*
X50504789Y-92639086D01*
X50654786Y-92530109D01*
X50654788Y-92530106D01*
X50654792Y-92530104D01*
X50805104Y-92379792D01*
X50805106Y-92379788D01*
X50805109Y-92379786D01*
X50930048Y-92207820D01*
X50930047Y-92207820D01*
X50930051Y-92207816D01*
X51026557Y-92018412D01*
X51092246Y-91816243D01*
X51125500Y-91606287D01*
X51125500Y-91393713D01*
X51092246Y-91183757D01*
X51026557Y-90981588D01*
X50930051Y-90792184D01*
X50930049Y-90792181D01*
X50930048Y-90792179D01*
X50805109Y-90620213D01*
X50666294Y-90481398D01*
X50632809Y-90420075D01*
X50637793Y-90350383D01*
X50679665Y-90294450D01*
X50688879Y-90288178D01*
X50694331Y-90284814D01*
X50694334Y-90284814D01*
X50843656Y-90192712D01*
X50967712Y-90068656D01*
X51059814Y-89919334D01*
X51114999Y-89752797D01*
X51125500Y-89650009D01*
X51125499Y-88349992D01*
X51114999Y-88247203D01*
X51059814Y-88080666D01*
X50967712Y-87931344D01*
X50843656Y-87807288D01*
X50694334Y-87715186D01*
X50527797Y-87660001D01*
X50527795Y-87660000D01*
X50425010Y-87649500D01*
X48874998Y-87649500D01*
X48874981Y-87649501D01*
X48772203Y-87660000D01*
X48772200Y-87660001D01*
X48605668Y-87715185D01*
X48605663Y-87715187D01*
X48456342Y-87807289D01*
X48332289Y-87931342D01*
X48240187Y-88080663D01*
X48240186Y-88080666D01*
X48185001Y-88247203D01*
X48185001Y-88247204D01*
X48185000Y-88247204D01*
X48174500Y-88349983D01*
X40500500Y-88349983D01*
X40500500Y-85430000D01*
X117355138Y-85430000D01*
X118158012Y-85430000D01*
X118140795Y-85439940D01*
X118084940Y-85495795D01*
X118045444Y-85564204D01*
X118025000Y-85640504D01*
X118025000Y-85719496D01*
X118045444Y-85795796D01*
X118084940Y-85864205D01*
X118140795Y-85920060D01*
X118158012Y-85930000D01*
X117355138Y-85930000D01*
X117363430Y-85971690D01*
X117363430Y-85971692D01*
X117438807Y-86153671D01*
X117438814Y-86153684D01*
X117548248Y-86317462D01*
X117548251Y-86317466D01*
X117687533Y-86456748D01*
X117687537Y-86456751D01*
X117851315Y-86566185D01*
X117851328Y-86566192D01*
X118033306Y-86641569D01*
X118033318Y-86641572D01*
X118226504Y-86679999D01*
X118226508Y-86680000D01*
X118763955Y-86680000D01*
X118830994Y-86699685D01*
X118876749Y-86752489D01*
X118886693Y-86821647D01*
X118871342Y-86866000D01*
X118858720Y-86887861D01*
X118858720Y-86887862D01*
X118819500Y-87034234D01*
X118819500Y-87185765D01*
X118858719Y-87332136D01*
X118896602Y-87397750D01*
X118934485Y-87463365D01*
X119041635Y-87570515D01*
X119172865Y-87646281D01*
X119319234Y-87685500D01*
X119319236Y-87685500D01*
X119470764Y-87685500D01*
X119470766Y-87685500D01*
X119617135Y-87646281D01*
X119748365Y-87570515D01*
X119855515Y-87463365D01*
X119931281Y-87332135D01*
X119970500Y-87185766D01*
X119970500Y-87034234D01*
X119931281Y-86887865D01*
X119855515Y-86756635D01*
X119855513Y-86756633D01*
X119853412Y-86753895D01*
X119852356Y-86751165D01*
X119851451Y-86749597D01*
X119851695Y-86749455D01*
X119828214Y-86688727D01*
X119842249Y-86620282D01*
X119891061Y-86570290D01*
X119893346Y-86569037D01*
X119898690Y-86566181D01*
X120062462Y-86456751D01*
X120062466Y-86456748D01*
X120201748Y-86317466D01*
X120201751Y-86317462D01*
X120311185Y-86153684D01*
X120311192Y-86153671D01*
X120386569Y-85971692D01*
X120386569Y-85971690D01*
X120394862Y-85930000D01*
X119591988Y-85930000D01*
X119609205Y-85920060D01*
X119665060Y-85864205D01*
X119704556Y-85795796D01*
X119725000Y-85719496D01*
X119725000Y-85640504D01*
X119704556Y-85564204D01*
X119665060Y-85495795D01*
X119609205Y-85439940D01*
X119591988Y-85430000D01*
X120394862Y-85430000D01*
X121705138Y-85430000D01*
X122508012Y-85430000D01*
X122490795Y-85439940D01*
X122434940Y-85495795D01*
X122395444Y-85564204D01*
X122375000Y-85640504D01*
X122375000Y-85719496D01*
X122395444Y-85795796D01*
X122434940Y-85864205D01*
X122490795Y-85920060D01*
X122508012Y-85930000D01*
X121705138Y-85930000D01*
X121713430Y-85971690D01*
X121713430Y-85971692D01*
X121788807Y-86153671D01*
X121788814Y-86153684D01*
X121898248Y-86317462D01*
X121898251Y-86317466D01*
X122037533Y-86456748D01*
X122037537Y-86456751D01*
X122201315Y-86566185D01*
X122201328Y-86566192D01*
X122383306Y-86641569D01*
X122383318Y-86641572D01*
X122576504Y-86679999D01*
X122576508Y-86680000D01*
X122825000Y-86680000D01*
X122825000Y-85980000D01*
X123325000Y-85980000D01*
X123325000Y-86680000D01*
X123573492Y-86680000D01*
X123573495Y-86679999D01*
X123766681Y-86641572D01*
X123766693Y-86641569D01*
X123948671Y-86566192D01*
X123948684Y-86566185D01*
X124112462Y-86456751D01*
X124112466Y-86456748D01*
X124251748Y-86317466D01*
X124251751Y-86317462D01*
X124361185Y-86153684D01*
X124361192Y-86153671D01*
X124436569Y-85971692D01*
X124436569Y-85971690D01*
X124444862Y-85930000D01*
X123641988Y-85930000D01*
X123659205Y-85920060D01*
X123715060Y-85864205D01*
X123754556Y-85795796D01*
X123775000Y-85719496D01*
X123775000Y-85640504D01*
X123754556Y-85564204D01*
X123715060Y-85495795D01*
X123659205Y-85439940D01*
X123641988Y-85430000D01*
X124444862Y-85430000D01*
X124436569Y-85388309D01*
X124436569Y-85388307D01*
X124361192Y-85206328D01*
X124361185Y-85206315D01*
X124251751Y-85042537D01*
X124251748Y-85042533D01*
X124112466Y-84903251D01*
X124112462Y-84903248D01*
X123948684Y-84793814D01*
X123948671Y-84793807D01*
X123766693Y-84718430D01*
X123766681Y-84718427D01*
X123573495Y-84680000D01*
X123325000Y-84680000D01*
X123325000Y-85380000D01*
X122825000Y-85380000D01*
X122825000Y-84680000D01*
X122576504Y-84680000D01*
X122383318Y-84718427D01*
X122383306Y-84718430D01*
X122201328Y-84793807D01*
X122201315Y-84793814D01*
X122037537Y-84903248D01*
X122037533Y-84903251D01*
X121898251Y-85042533D01*
X121898248Y-85042537D01*
X121788814Y-85206315D01*
X121788807Y-85206328D01*
X121713430Y-85388307D01*
X121713430Y-85388309D01*
X121705138Y-85430000D01*
X120394862Y-85430000D01*
X120386569Y-85388309D01*
X120386569Y-85388307D01*
X120311192Y-85206328D01*
X120311185Y-85206315D01*
X120201751Y-85042537D01*
X120201748Y-85042533D01*
X120062466Y-84903251D01*
X120062462Y-84903248D01*
X119898684Y-84793814D01*
X119898671Y-84793807D01*
X119716693Y-84718430D01*
X119716681Y-84718427D01*
X119523495Y-84680000D01*
X119125000Y-84680000D01*
X119125000Y-85380000D01*
X118625000Y-85380000D01*
X118625000Y-84680000D01*
X118226504Y-84680000D01*
X118033318Y-84718427D01*
X118033306Y-84718430D01*
X117851328Y-84793807D01*
X117851315Y-84793814D01*
X117687537Y-84903248D01*
X117687533Y-84903251D01*
X117548251Y-85042533D01*
X117548248Y-85042537D01*
X117438814Y-85206315D01*
X117438807Y-85206328D01*
X117363430Y-85388307D01*
X117363430Y-85388309D01*
X117355138Y-85430000D01*
X40500500Y-85430000D01*
X40500500Y-75099983D01*
X48424500Y-75099983D01*
X48424500Y-76400001D01*
X48424501Y-76400018D01*
X48435000Y-76502796D01*
X48435001Y-76502799D01*
X48490185Y-76669331D01*
X48490187Y-76669336D01*
X48582289Y-76818657D01*
X48706344Y-76942712D01*
X48861120Y-77038178D01*
X48907845Y-77090126D01*
X48919068Y-77159088D01*
X48891224Y-77223171D01*
X48883706Y-77231398D01*
X48744889Y-77370215D01*
X48619951Y-77542179D01*
X48523444Y-77731585D01*
X48457753Y-77933760D01*
X48424500Y-78143713D01*
X48424500Y-78356286D01*
X48457753Y-78566239D01*
X48523444Y-78768414D01*
X48619951Y-78957820D01*
X48744890Y-79129786D01*
X48895213Y-79280109D01*
X49067179Y-79405048D01*
X49067181Y-79405049D01*
X49067184Y-79405051D01*
X49256588Y-79501557D01*
X49458757Y-79567246D01*
X49668713Y-79600500D01*
X49668714Y-79600500D01*
X50131286Y-79600500D01*
X50131287Y-79600500D01*
X50341243Y-79567246D01*
X50543412Y-79501557D01*
X50732816Y-79405051D01*
X50754789Y-79389086D01*
X50904786Y-79280109D01*
X50904788Y-79280106D01*
X50904792Y-79280104D01*
X51055104Y-79129792D01*
X51055106Y-79129788D01*
X51055109Y-79129786D01*
X51180048Y-78957820D01*
X51180047Y-78957820D01*
X51180051Y-78957816D01*
X51276557Y-78768412D01*
X51342246Y-78566243D01*
X51375500Y-78356287D01*
X51375500Y-78143713D01*
X51342246Y-77933757D01*
X51276557Y-77731588D01*
X51180051Y-77542184D01*
X51180049Y-77542181D01*
X51180048Y-77542179D01*
X51055109Y-77370213D01*
X50916294Y-77231398D01*
X50882809Y-77170075D01*
X50887793Y-77100383D01*
X50929665Y-77044450D01*
X50938879Y-77038178D01*
X50944331Y-77034814D01*
X50944334Y-77034814D01*
X51093656Y-76942712D01*
X51217712Y-76818656D01*
X51309814Y-76669334D01*
X51364999Y-76502797D01*
X51375500Y-76400009D01*
X51375499Y-75099992D01*
X51364999Y-74997203D01*
X51309814Y-74830666D01*
X51217712Y-74681344D01*
X51093656Y-74557288D01*
X50944334Y-74465186D01*
X50777797Y-74410001D01*
X50777795Y-74410000D01*
X50675010Y-74399500D01*
X49124998Y-74399500D01*
X49124981Y-74399501D01*
X49022203Y-74410000D01*
X49022200Y-74410001D01*
X48855668Y-74465185D01*
X48855663Y-74465187D01*
X48706342Y-74557289D01*
X48582289Y-74681342D01*
X48490187Y-74830663D01*
X48490186Y-74830666D01*
X48435001Y-74997203D01*
X48435001Y-74997204D01*
X48435000Y-74997204D01*
X48424500Y-75099983D01*
X40500500Y-75099983D01*
X40500500Y-60099983D01*
X48424500Y-60099983D01*
X48424500Y-61400001D01*
X48424501Y-61400018D01*
X48435000Y-61502796D01*
X48435001Y-61502799D01*
X48490185Y-61669331D01*
X48490187Y-61669336D01*
X48582289Y-61818657D01*
X48706344Y-61942712D01*
X48861120Y-62038178D01*
X48907845Y-62090126D01*
X48919068Y-62159088D01*
X48891224Y-62223171D01*
X48883706Y-62231398D01*
X48744889Y-62370215D01*
X48619951Y-62542179D01*
X48523444Y-62731585D01*
X48457753Y-62933760D01*
X48424500Y-63143713D01*
X48424500Y-63356286D01*
X48457753Y-63566239D01*
X48523444Y-63768414D01*
X48619951Y-63957820D01*
X48744890Y-64129786D01*
X48895213Y-64280109D01*
X49067179Y-64405048D01*
X49067181Y-64405049D01*
X49067184Y-64405051D01*
X49256588Y-64501557D01*
X49458757Y-64567246D01*
X49668713Y-64600500D01*
X49668714Y-64600500D01*
X50131286Y-64600500D01*
X50131287Y-64600500D01*
X50341243Y-64567246D01*
X50543412Y-64501557D01*
X50732816Y-64405051D01*
X50754789Y-64389086D01*
X50904786Y-64280109D01*
X50904788Y-64280106D01*
X50904792Y-64280104D01*
X51055104Y-64129792D01*
X51055106Y-64129788D01*
X51055109Y-64129786D01*
X51180048Y-63957820D01*
X51180047Y-63957820D01*
X51180051Y-63957816D01*
X51276557Y-63768412D01*
X51342246Y-63566243D01*
X51375500Y-63356287D01*
X51375500Y-63143713D01*
X51342246Y-62933757D01*
X51276557Y-62731588D01*
X51180051Y-62542184D01*
X51180049Y-62542181D01*
X51180048Y-62542179D01*
X51055109Y-62370213D01*
X50916294Y-62231398D01*
X50882809Y-62170075D01*
X50887793Y-62100383D01*
X50929665Y-62044450D01*
X50938879Y-62038178D01*
X50944331Y-62034814D01*
X50944334Y-62034814D01*
X51093656Y-61942712D01*
X51217712Y-61818656D01*
X51309814Y-61669334D01*
X51364999Y-61502797D01*
X51375500Y-61400009D01*
X51375499Y-60099992D01*
X51364999Y-59997203D01*
X51309814Y-59830666D01*
X51217712Y-59681344D01*
X51093656Y-59557288D01*
X50944334Y-59465186D01*
X50777797Y-59410001D01*
X50777795Y-59410000D01*
X50675010Y-59399500D01*
X49124998Y-59399500D01*
X49124981Y-59399501D01*
X49022203Y-59410000D01*
X49022200Y-59410001D01*
X48855668Y-59465185D01*
X48855663Y-59465187D01*
X48706342Y-59557289D01*
X48582289Y-59681342D01*
X48490187Y-59830663D01*
X48490186Y-59830666D01*
X48435001Y-59997203D01*
X48435001Y-59997204D01*
X48435000Y-59997204D01*
X48424500Y-60099983D01*
X40500500Y-60099983D01*
X40500500Y-55681947D01*
X82300000Y-55681947D01*
X82300000Y-56550000D01*
X83300000Y-56550000D01*
X83300000Y-57050000D01*
X82300000Y-57050000D01*
X82300000Y-57918052D01*
X82336934Y-58151247D01*
X82409897Y-58375802D01*
X82517085Y-58586171D01*
X82655866Y-58777186D01*
X82822813Y-58944133D01*
X83013828Y-59082914D01*
X83224195Y-59190102D01*
X83448744Y-59263063D01*
X83448750Y-59263065D01*
X83550000Y-59279101D01*
X83550000Y-58233012D01*
X83607007Y-58265925D01*
X83734174Y-58300000D01*
X83865826Y-58300000D01*
X83992993Y-58265925D01*
X84050000Y-58233012D01*
X84050000Y-59279100D01*
X84151249Y-59263065D01*
X84151255Y-59263063D01*
X84375804Y-59190102D01*
X84586171Y-59082914D01*
X84766172Y-58952135D01*
X85749500Y-58952135D01*
X85749500Y-61047870D01*
X85749501Y-61047876D01*
X85755908Y-61107483D01*
X85806202Y-61242328D01*
X85806206Y-61242335D01*
X85892452Y-61357544D01*
X85892455Y-61357547D01*
X86007664Y-61443793D01*
X86007671Y-61443797D01*
X86142517Y-61494091D01*
X86142516Y-61494091D01*
X86149444Y-61494835D01*
X86202127Y-61500500D01*
X90797872Y-61500499D01*
X90857483Y-61494091D01*
X90992331Y-61443796D01*
X91107546Y-61357546D01*
X91193796Y-61242331D01*
X91244091Y-61107483D01*
X91250500Y-61047873D01*
X91250499Y-58952128D01*
X91244091Y-58892517D01*
X91201075Y-58777186D01*
X91193797Y-58757671D01*
X91193793Y-58757664D01*
X91107547Y-58642455D01*
X91107544Y-58642452D01*
X90992335Y-58556206D01*
X90992328Y-58556202D01*
X90857482Y-58505908D01*
X90857483Y-58505908D01*
X90797883Y-58499501D01*
X90797881Y-58499500D01*
X90797873Y-58499500D01*
X90797864Y-58499500D01*
X86202129Y-58499500D01*
X86202123Y-58499501D01*
X86142516Y-58505908D01*
X86007671Y-58556202D01*
X86007664Y-58556206D01*
X85892455Y-58642452D01*
X85892452Y-58642455D01*
X85806206Y-58757664D01*
X85806202Y-58757671D01*
X85755908Y-58892517D01*
X85750359Y-58944133D01*
X85749501Y-58952123D01*
X85749500Y-58952135D01*
X84766172Y-58952135D01*
X84777186Y-58944133D01*
X84944133Y-58777186D01*
X85082914Y-58586171D01*
X85190102Y-58375802D01*
X85263065Y-58151247D01*
X85300000Y-57918052D01*
X85300000Y-57050000D01*
X84300000Y-57050000D01*
X84300000Y-56550000D01*
X85300000Y-56550000D01*
X85300000Y-55681947D01*
X85263065Y-55448752D01*
X85190102Y-55224197D01*
X85082914Y-55013828D01*
X84944133Y-54822813D01*
X84777186Y-54655866D01*
X84586171Y-54517085D01*
X84375802Y-54409897D01*
X84151247Y-54336934D01*
X84050000Y-54320897D01*
X84050000Y-55366988D01*
X83992993Y-55334075D01*
X83865826Y-55300000D01*
X83734174Y-55300000D01*
X83607007Y-55334075D01*
X83550000Y-55366988D01*
X83550000Y-54320897D01*
X83448752Y-54336934D01*
X83224197Y-54409897D01*
X83013828Y-54517085D01*
X82822813Y-54655866D01*
X82655866Y-54822813D01*
X82517085Y-55013828D01*
X82409897Y-55224197D01*
X82336934Y-55448752D01*
X82300000Y-55681947D01*
X40500500Y-55681947D01*
X40500500Y-53550000D01*
X86020898Y-53550000D01*
X87066988Y-53550000D01*
X87034075Y-53607007D01*
X87000000Y-53734174D01*
X87000000Y-53865826D01*
X87034075Y-53992993D01*
X87066988Y-54050000D01*
X86020898Y-54050000D01*
X86036934Y-54151247D01*
X86109897Y-54375802D01*
X86217085Y-54586171D01*
X86355866Y-54777186D01*
X86522813Y-54944133D01*
X86713828Y-55082914D01*
X86924197Y-55190102D01*
X87148752Y-55263065D01*
X87148751Y-55263065D01*
X87381948Y-55300000D01*
X88250000Y-55300000D01*
X88250000Y-54300000D01*
X88750000Y-54300000D01*
X88750000Y-55300000D01*
X89618052Y-55300000D01*
X89851247Y-55263065D01*
X90075802Y-55190102D01*
X90286171Y-55082914D01*
X90477186Y-54944133D01*
X90644133Y-54777186D01*
X90782914Y-54586171D01*
X90890102Y-54375802D01*
X90963065Y-54151247D01*
X90979102Y-54050000D01*
X89933012Y-54050000D01*
X89965925Y-53992993D01*
X90000000Y-53865826D01*
X90000000Y-53734174D01*
X89965925Y-53607007D01*
X89933012Y-53550000D01*
X90979102Y-53550000D01*
X90963065Y-53448752D01*
X90890102Y-53224197D01*
X90782914Y-53013828D01*
X90644133Y-52822813D01*
X90477186Y-52655866D01*
X90286171Y-52517085D01*
X90075802Y-52409897D01*
X89851247Y-52336934D01*
X89851248Y-52336934D01*
X89618052Y-52300000D01*
X88750000Y-52300000D01*
X88750000Y-53300000D01*
X88250000Y-53300000D01*
X88250000Y-52300000D01*
X87381948Y-52300000D01*
X87148752Y-52336934D01*
X86924197Y-52409897D01*
X86713828Y-52517085D01*
X86522813Y-52655866D01*
X86355866Y-52822813D01*
X86217085Y-53013828D01*
X86109897Y-53224197D01*
X86036934Y-53448752D01*
X86020898Y-53550000D01*
X40500500Y-53550000D01*
X40500500Y-51124500D01*
X40520185Y-51057461D01*
X40572989Y-51011706D01*
X40624500Y-51000500D01*
X125375500Y-51000500D01*
X125442539Y-51020185D01*
G37*
%TD.AperFunction*%
%TD*%
M02*
