%TF.GenerationSoftware,KiCad,Pcbnew,8.0.6*%
%TF.CreationDate,2024-11-14T02:25:25-08:00*%
%TF.ProjectId,project1,70726f6a-6563-4743-912e-6b696361645f,REV1*%
%TF.SameCoordinates,Original*%
%TF.FileFunction,Legend,Top*%
%TF.FilePolarity,Positive*%
%FSLAX46Y46*%
G04 Gerber Fmt 4.6, Leading zero omitted, Abs format (unit mm)*
G04 Created by KiCad (PCBNEW 8.0.6) date 2024-11-14 02:25:25*
%MOMM*%
%LPD*%
G01*
G04 APERTURE LIST*
%ADD10C,0.150000*%
%ADD11C,0.120000*%
%ADD12C,0.127000*%
%ADD13C,0.200000*%
G04 APERTURE END LIST*
D10*
X53854819Y-103333333D02*
X54569104Y-103333333D01*
X54569104Y-103333333D02*
X54711961Y-103380952D01*
X54711961Y-103380952D02*
X54807200Y-103476190D01*
X54807200Y-103476190D02*
X54854819Y-103619047D01*
X54854819Y-103619047D02*
X54854819Y-103714285D01*
X53854819Y-102380952D02*
X53854819Y-102857142D01*
X53854819Y-102857142D02*
X54331009Y-102904761D01*
X54331009Y-102904761D02*
X54283390Y-102857142D01*
X54283390Y-102857142D02*
X54235771Y-102761904D01*
X54235771Y-102761904D02*
X54235771Y-102523809D01*
X54235771Y-102523809D02*
X54283390Y-102428571D01*
X54283390Y-102428571D02*
X54331009Y-102380952D01*
X54331009Y-102380952D02*
X54426247Y-102333333D01*
X54426247Y-102333333D02*
X54664342Y-102333333D01*
X54664342Y-102333333D02*
X54759580Y-102380952D01*
X54759580Y-102380952D02*
X54807200Y-102428571D01*
X54807200Y-102428571D02*
X54854819Y-102523809D01*
X54854819Y-102523809D02*
X54854819Y-102761904D01*
X54854819Y-102761904D02*
X54807200Y-102857142D01*
X54807200Y-102857142D02*
X54759580Y-102904761D01*
X100954819Y-127761904D02*
X101764342Y-127761904D01*
X101764342Y-127761904D02*
X101859580Y-127714285D01*
X101859580Y-127714285D02*
X101907200Y-127666666D01*
X101907200Y-127666666D02*
X101954819Y-127571428D01*
X101954819Y-127571428D02*
X101954819Y-127380952D01*
X101954819Y-127380952D02*
X101907200Y-127285714D01*
X101907200Y-127285714D02*
X101859580Y-127238095D01*
X101859580Y-127238095D02*
X101764342Y-127190476D01*
X101764342Y-127190476D02*
X100954819Y-127190476D01*
X100954819Y-126285714D02*
X100954819Y-126476190D01*
X100954819Y-126476190D02*
X101002438Y-126571428D01*
X101002438Y-126571428D02*
X101050057Y-126619047D01*
X101050057Y-126619047D02*
X101192914Y-126714285D01*
X101192914Y-126714285D02*
X101383390Y-126761904D01*
X101383390Y-126761904D02*
X101764342Y-126761904D01*
X101764342Y-126761904D02*
X101859580Y-126714285D01*
X101859580Y-126714285D02*
X101907200Y-126666666D01*
X101907200Y-126666666D02*
X101954819Y-126571428D01*
X101954819Y-126571428D02*
X101954819Y-126380952D01*
X101954819Y-126380952D02*
X101907200Y-126285714D01*
X101907200Y-126285714D02*
X101859580Y-126238095D01*
X101859580Y-126238095D02*
X101764342Y-126190476D01*
X101764342Y-126190476D02*
X101526247Y-126190476D01*
X101526247Y-126190476D02*
X101431009Y-126238095D01*
X101431009Y-126238095D02*
X101383390Y-126285714D01*
X101383390Y-126285714D02*
X101335771Y-126380952D01*
X101335771Y-126380952D02*
X101335771Y-126571428D01*
X101335771Y-126571428D02*
X101383390Y-126666666D01*
X101383390Y-126666666D02*
X101431009Y-126714285D01*
X101431009Y-126714285D02*
X101526247Y-126761904D01*
X89954819Y-77761904D02*
X90764342Y-77761904D01*
X90764342Y-77761904D02*
X90859580Y-77714285D01*
X90859580Y-77714285D02*
X90907200Y-77666666D01*
X90907200Y-77666666D02*
X90954819Y-77571428D01*
X90954819Y-77571428D02*
X90954819Y-77380952D01*
X90954819Y-77380952D02*
X90907200Y-77285714D01*
X90907200Y-77285714D02*
X90859580Y-77238095D01*
X90859580Y-77238095D02*
X90764342Y-77190476D01*
X90764342Y-77190476D02*
X89954819Y-77190476D01*
X89954819Y-76809523D02*
X89954819Y-76190476D01*
X89954819Y-76190476D02*
X90335771Y-76523809D01*
X90335771Y-76523809D02*
X90335771Y-76380952D01*
X90335771Y-76380952D02*
X90383390Y-76285714D01*
X90383390Y-76285714D02*
X90431009Y-76238095D01*
X90431009Y-76238095D02*
X90526247Y-76190476D01*
X90526247Y-76190476D02*
X90764342Y-76190476D01*
X90764342Y-76190476D02*
X90859580Y-76238095D01*
X90859580Y-76238095D02*
X90907200Y-76285714D01*
X90907200Y-76285714D02*
X90954819Y-76380952D01*
X90954819Y-76380952D02*
X90954819Y-76666666D01*
X90954819Y-76666666D02*
X90907200Y-76761904D01*
X90907200Y-76761904D02*
X90859580Y-76809523D01*
X91238095Y-88174819D02*
X91238095Y-88984342D01*
X91238095Y-88984342D02*
X91285714Y-89079580D01*
X91285714Y-89079580D02*
X91333333Y-89127200D01*
X91333333Y-89127200D02*
X91428571Y-89174819D01*
X91428571Y-89174819D02*
X91619047Y-89174819D01*
X91619047Y-89174819D02*
X91714285Y-89127200D01*
X91714285Y-89127200D02*
X91761904Y-89079580D01*
X91761904Y-89079580D02*
X91809523Y-88984342D01*
X91809523Y-88984342D02*
X91809523Y-88174819D01*
X92238095Y-88270057D02*
X92285714Y-88222438D01*
X92285714Y-88222438D02*
X92380952Y-88174819D01*
X92380952Y-88174819D02*
X92619047Y-88174819D01*
X92619047Y-88174819D02*
X92714285Y-88222438D01*
X92714285Y-88222438D02*
X92761904Y-88270057D01*
X92761904Y-88270057D02*
X92809523Y-88365295D01*
X92809523Y-88365295D02*
X92809523Y-88460533D01*
X92809523Y-88460533D02*
X92761904Y-88603390D01*
X92761904Y-88603390D02*
X92190476Y-89174819D01*
X92190476Y-89174819D02*
X92809523Y-89174819D01*
X102024819Y-147642857D02*
X101548628Y-147976190D01*
X102024819Y-148214285D02*
X101024819Y-148214285D01*
X101024819Y-148214285D02*
X101024819Y-147833333D01*
X101024819Y-147833333D02*
X101072438Y-147738095D01*
X101072438Y-147738095D02*
X101120057Y-147690476D01*
X101120057Y-147690476D02*
X101215295Y-147642857D01*
X101215295Y-147642857D02*
X101358152Y-147642857D01*
X101358152Y-147642857D02*
X101453390Y-147690476D01*
X101453390Y-147690476D02*
X101501009Y-147738095D01*
X101501009Y-147738095D02*
X101548628Y-147833333D01*
X101548628Y-147833333D02*
X101548628Y-148214285D01*
X102024819Y-146690476D02*
X102024819Y-147261904D01*
X102024819Y-146976190D02*
X101024819Y-146976190D01*
X101024819Y-146976190D02*
X101167676Y-147071428D01*
X101167676Y-147071428D02*
X101262914Y-147166666D01*
X101262914Y-147166666D02*
X101310533Y-147261904D01*
X101024819Y-145785714D02*
X101024819Y-146261904D01*
X101024819Y-146261904D02*
X101501009Y-146309523D01*
X101501009Y-146309523D02*
X101453390Y-146261904D01*
X101453390Y-146261904D02*
X101405771Y-146166666D01*
X101405771Y-146166666D02*
X101405771Y-145928571D01*
X101405771Y-145928571D02*
X101453390Y-145833333D01*
X101453390Y-145833333D02*
X101501009Y-145785714D01*
X101501009Y-145785714D02*
X101596247Y-145738095D01*
X101596247Y-145738095D02*
X101834342Y-145738095D01*
X101834342Y-145738095D02*
X101929580Y-145785714D01*
X101929580Y-145785714D02*
X101977200Y-145833333D01*
X101977200Y-145833333D02*
X102024819Y-145928571D01*
X102024819Y-145928571D02*
X102024819Y-146166666D01*
X102024819Y-146166666D02*
X101977200Y-146261904D01*
X101977200Y-146261904D02*
X101929580Y-146309523D01*
X118357142Y-144024819D02*
X118023809Y-143548628D01*
X117785714Y-144024819D02*
X117785714Y-143024819D01*
X117785714Y-143024819D02*
X118166666Y-143024819D01*
X118166666Y-143024819D02*
X118261904Y-143072438D01*
X118261904Y-143072438D02*
X118309523Y-143120057D01*
X118309523Y-143120057D02*
X118357142Y-143215295D01*
X118357142Y-143215295D02*
X118357142Y-143358152D01*
X118357142Y-143358152D02*
X118309523Y-143453390D01*
X118309523Y-143453390D02*
X118261904Y-143501009D01*
X118261904Y-143501009D02*
X118166666Y-143548628D01*
X118166666Y-143548628D02*
X117785714Y-143548628D01*
X119309523Y-144024819D02*
X118738095Y-144024819D01*
X119023809Y-144024819D02*
X119023809Y-143024819D01*
X119023809Y-143024819D02*
X118928571Y-143167676D01*
X118928571Y-143167676D02*
X118833333Y-143262914D01*
X118833333Y-143262914D02*
X118738095Y-143310533D01*
X120166666Y-143358152D02*
X120166666Y-144024819D01*
X119928571Y-142977200D02*
X119690476Y-143691485D01*
X119690476Y-143691485D02*
X120309523Y-143691485D01*
X88357142Y-117024819D02*
X88023809Y-116548628D01*
X87785714Y-117024819D02*
X87785714Y-116024819D01*
X87785714Y-116024819D02*
X88166666Y-116024819D01*
X88166666Y-116024819D02*
X88261904Y-116072438D01*
X88261904Y-116072438D02*
X88309523Y-116120057D01*
X88309523Y-116120057D02*
X88357142Y-116215295D01*
X88357142Y-116215295D02*
X88357142Y-116358152D01*
X88357142Y-116358152D02*
X88309523Y-116453390D01*
X88309523Y-116453390D02*
X88261904Y-116501009D01*
X88261904Y-116501009D02*
X88166666Y-116548628D01*
X88166666Y-116548628D02*
X87785714Y-116548628D01*
X89309523Y-117024819D02*
X88738095Y-117024819D01*
X89023809Y-117024819D02*
X89023809Y-116024819D01*
X89023809Y-116024819D02*
X88928571Y-116167676D01*
X88928571Y-116167676D02*
X88833333Y-116262914D01*
X88833333Y-116262914D02*
X88738095Y-116310533D01*
X89642857Y-116024819D02*
X90261904Y-116024819D01*
X90261904Y-116024819D02*
X89928571Y-116405771D01*
X89928571Y-116405771D02*
X90071428Y-116405771D01*
X90071428Y-116405771D02*
X90166666Y-116453390D01*
X90166666Y-116453390D02*
X90214285Y-116501009D01*
X90214285Y-116501009D02*
X90261904Y-116596247D01*
X90261904Y-116596247D02*
X90261904Y-116834342D01*
X90261904Y-116834342D02*
X90214285Y-116929580D01*
X90214285Y-116929580D02*
X90166666Y-116977200D01*
X90166666Y-116977200D02*
X90071428Y-117024819D01*
X90071428Y-117024819D02*
X89785714Y-117024819D01*
X89785714Y-117024819D02*
X89690476Y-116977200D01*
X89690476Y-116977200D02*
X89642857Y-116929580D01*
X107357142Y-92024819D02*
X107023809Y-91548628D01*
X106785714Y-92024819D02*
X106785714Y-91024819D01*
X106785714Y-91024819D02*
X107166666Y-91024819D01*
X107166666Y-91024819D02*
X107261904Y-91072438D01*
X107261904Y-91072438D02*
X107309523Y-91120057D01*
X107309523Y-91120057D02*
X107357142Y-91215295D01*
X107357142Y-91215295D02*
X107357142Y-91358152D01*
X107357142Y-91358152D02*
X107309523Y-91453390D01*
X107309523Y-91453390D02*
X107261904Y-91501009D01*
X107261904Y-91501009D02*
X107166666Y-91548628D01*
X107166666Y-91548628D02*
X106785714Y-91548628D01*
X108309523Y-92024819D02*
X107738095Y-92024819D01*
X108023809Y-92024819D02*
X108023809Y-91024819D01*
X108023809Y-91024819D02*
X107928571Y-91167676D01*
X107928571Y-91167676D02*
X107833333Y-91262914D01*
X107833333Y-91262914D02*
X107738095Y-91310533D01*
X108690476Y-91120057D02*
X108738095Y-91072438D01*
X108738095Y-91072438D02*
X108833333Y-91024819D01*
X108833333Y-91024819D02*
X109071428Y-91024819D01*
X109071428Y-91024819D02*
X109166666Y-91072438D01*
X109166666Y-91072438D02*
X109214285Y-91120057D01*
X109214285Y-91120057D02*
X109261904Y-91215295D01*
X109261904Y-91215295D02*
X109261904Y-91310533D01*
X109261904Y-91310533D02*
X109214285Y-91453390D01*
X109214285Y-91453390D02*
X108642857Y-92024819D01*
X108642857Y-92024819D02*
X109261904Y-92024819D01*
X58833333Y-150884819D02*
X58500000Y-150408628D01*
X58261905Y-150884819D02*
X58261905Y-149884819D01*
X58261905Y-149884819D02*
X58642857Y-149884819D01*
X58642857Y-149884819D02*
X58738095Y-149932438D01*
X58738095Y-149932438D02*
X58785714Y-149980057D01*
X58785714Y-149980057D02*
X58833333Y-150075295D01*
X58833333Y-150075295D02*
X58833333Y-150218152D01*
X58833333Y-150218152D02*
X58785714Y-150313390D01*
X58785714Y-150313390D02*
X58738095Y-150361009D01*
X58738095Y-150361009D02*
X58642857Y-150408628D01*
X58642857Y-150408628D02*
X58261905Y-150408628D01*
X59166667Y-149884819D02*
X59833333Y-149884819D01*
X59833333Y-149884819D02*
X59404762Y-150884819D01*
X57420833Y-143884819D02*
X57087500Y-143408628D01*
X56849405Y-143884819D02*
X56849405Y-142884819D01*
X56849405Y-142884819D02*
X57230357Y-142884819D01*
X57230357Y-142884819D02*
X57325595Y-142932438D01*
X57325595Y-142932438D02*
X57373214Y-142980057D01*
X57373214Y-142980057D02*
X57420833Y-143075295D01*
X57420833Y-143075295D02*
X57420833Y-143218152D01*
X57420833Y-143218152D02*
X57373214Y-143313390D01*
X57373214Y-143313390D02*
X57325595Y-143361009D01*
X57325595Y-143361009D02*
X57230357Y-143408628D01*
X57230357Y-143408628D02*
X56849405Y-143408628D01*
X58277976Y-142884819D02*
X58087500Y-142884819D01*
X58087500Y-142884819D02*
X57992262Y-142932438D01*
X57992262Y-142932438D02*
X57944643Y-142980057D01*
X57944643Y-142980057D02*
X57849405Y-143122914D01*
X57849405Y-143122914D02*
X57801786Y-143313390D01*
X57801786Y-143313390D02*
X57801786Y-143694342D01*
X57801786Y-143694342D02*
X57849405Y-143789580D01*
X57849405Y-143789580D02*
X57897024Y-143837200D01*
X57897024Y-143837200D02*
X57992262Y-143884819D01*
X57992262Y-143884819D02*
X58182738Y-143884819D01*
X58182738Y-143884819D02*
X58277976Y-143837200D01*
X58277976Y-143837200D02*
X58325595Y-143789580D01*
X58325595Y-143789580D02*
X58373214Y-143694342D01*
X58373214Y-143694342D02*
X58373214Y-143456247D01*
X58373214Y-143456247D02*
X58325595Y-143361009D01*
X58325595Y-143361009D02*
X58277976Y-143313390D01*
X58277976Y-143313390D02*
X58182738Y-143265771D01*
X58182738Y-143265771D02*
X57992262Y-143265771D01*
X57992262Y-143265771D02*
X57897024Y-143313390D01*
X57897024Y-143313390D02*
X57849405Y-143361009D01*
X57849405Y-143361009D02*
X57801786Y-143456247D01*
X60833333Y-136024819D02*
X60500000Y-135548628D01*
X60261905Y-136024819D02*
X60261905Y-135024819D01*
X60261905Y-135024819D02*
X60642857Y-135024819D01*
X60642857Y-135024819D02*
X60738095Y-135072438D01*
X60738095Y-135072438D02*
X60785714Y-135120057D01*
X60785714Y-135120057D02*
X60833333Y-135215295D01*
X60833333Y-135215295D02*
X60833333Y-135358152D01*
X60833333Y-135358152D02*
X60785714Y-135453390D01*
X60785714Y-135453390D02*
X60738095Y-135501009D01*
X60738095Y-135501009D02*
X60642857Y-135548628D01*
X60642857Y-135548628D02*
X60261905Y-135548628D01*
X61738095Y-135024819D02*
X61261905Y-135024819D01*
X61261905Y-135024819D02*
X61214286Y-135501009D01*
X61214286Y-135501009D02*
X61261905Y-135453390D01*
X61261905Y-135453390D02*
X61357143Y-135405771D01*
X61357143Y-135405771D02*
X61595238Y-135405771D01*
X61595238Y-135405771D02*
X61690476Y-135453390D01*
X61690476Y-135453390D02*
X61738095Y-135501009D01*
X61738095Y-135501009D02*
X61785714Y-135596247D01*
X61785714Y-135596247D02*
X61785714Y-135834342D01*
X61785714Y-135834342D02*
X61738095Y-135929580D01*
X61738095Y-135929580D02*
X61690476Y-135977200D01*
X61690476Y-135977200D02*
X61595238Y-136024819D01*
X61595238Y-136024819D02*
X61357143Y-136024819D01*
X61357143Y-136024819D02*
X61261905Y-135977200D01*
X61261905Y-135977200D02*
X61214286Y-135929580D01*
X58833333Y-131884819D02*
X58500000Y-131408628D01*
X58261905Y-131884819D02*
X58261905Y-130884819D01*
X58261905Y-130884819D02*
X58642857Y-130884819D01*
X58642857Y-130884819D02*
X58738095Y-130932438D01*
X58738095Y-130932438D02*
X58785714Y-130980057D01*
X58785714Y-130980057D02*
X58833333Y-131075295D01*
X58833333Y-131075295D02*
X58833333Y-131218152D01*
X58833333Y-131218152D02*
X58785714Y-131313390D01*
X58785714Y-131313390D02*
X58738095Y-131361009D01*
X58738095Y-131361009D02*
X58642857Y-131408628D01*
X58642857Y-131408628D02*
X58261905Y-131408628D01*
X59690476Y-131218152D02*
X59690476Y-131884819D01*
X59452381Y-130837200D02*
X59214286Y-131551485D01*
X59214286Y-131551485D02*
X59833333Y-131551485D01*
X93024819Y-81166666D02*
X92548628Y-81499999D01*
X93024819Y-81738094D02*
X92024819Y-81738094D01*
X92024819Y-81738094D02*
X92024819Y-81357142D01*
X92024819Y-81357142D02*
X92072438Y-81261904D01*
X92072438Y-81261904D02*
X92120057Y-81214285D01*
X92120057Y-81214285D02*
X92215295Y-81166666D01*
X92215295Y-81166666D02*
X92358152Y-81166666D01*
X92358152Y-81166666D02*
X92453390Y-81214285D01*
X92453390Y-81214285D02*
X92501009Y-81261904D01*
X92501009Y-81261904D02*
X92548628Y-81357142D01*
X92548628Y-81357142D02*
X92548628Y-81738094D01*
X92024819Y-80833332D02*
X92024819Y-80214285D01*
X92024819Y-80214285D02*
X92405771Y-80547618D01*
X92405771Y-80547618D02*
X92405771Y-80404761D01*
X92405771Y-80404761D02*
X92453390Y-80309523D01*
X92453390Y-80309523D02*
X92501009Y-80261904D01*
X92501009Y-80261904D02*
X92596247Y-80214285D01*
X92596247Y-80214285D02*
X92834342Y-80214285D01*
X92834342Y-80214285D02*
X92929580Y-80261904D01*
X92929580Y-80261904D02*
X92977200Y-80309523D01*
X92977200Y-80309523D02*
X93024819Y-80404761D01*
X93024819Y-80404761D02*
X93024819Y-80690475D01*
X93024819Y-80690475D02*
X92977200Y-80785713D01*
X92977200Y-80785713D02*
X92929580Y-80833332D01*
X108833333Y-82024819D02*
X108500000Y-81548628D01*
X108261905Y-82024819D02*
X108261905Y-81024819D01*
X108261905Y-81024819D02*
X108642857Y-81024819D01*
X108642857Y-81024819D02*
X108738095Y-81072438D01*
X108738095Y-81072438D02*
X108785714Y-81120057D01*
X108785714Y-81120057D02*
X108833333Y-81215295D01*
X108833333Y-81215295D02*
X108833333Y-81358152D01*
X108833333Y-81358152D02*
X108785714Y-81453390D01*
X108785714Y-81453390D02*
X108738095Y-81501009D01*
X108738095Y-81501009D02*
X108642857Y-81548628D01*
X108642857Y-81548628D02*
X108261905Y-81548628D01*
X109214286Y-81120057D02*
X109261905Y-81072438D01*
X109261905Y-81072438D02*
X109357143Y-81024819D01*
X109357143Y-81024819D02*
X109595238Y-81024819D01*
X109595238Y-81024819D02*
X109690476Y-81072438D01*
X109690476Y-81072438D02*
X109738095Y-81120057D01*
X109738095Y-81120057D02*
X109785714Y-81215295D01*
X109785714Y-81215295D02*
X109785714Y-81310533D01*
X109785714Y-81310533D02*
X109738095Y-81453390D01*
X109738095Y-81453390D02*
X109166667Y-82024819D01*
X109166667Y-82024819D02*
X109785714Y-82024819D01*
X90833333Y-85024819D02*
X90500000Y-84548628D01*
X90261905Y-85024819D02*
X90261905Y-84024819D01*
X90261905Y-84024819D02*
X90642857Y-84024819D01*
X90642857Y-84024819D02*
X90738095Y-84072438D01*
X90738095Y-84072438D02*
X90785714Y-84120057D01*
X90785714Y-84120057D02*
X90833333Y-84215295D01*
X90833333Y-84215295D02*
X90833333Y-84358152D01*
X90833333Y-84358152D02*
X90785714Y-84453390D01*
X90785714Y-84453390D02*
X90738095Y-84501009D01*
X90738095Y-84501009D02*
X90642857Y-84548628D01*
X90642857Y-84548628D02*
X90261905Y-84548628D01*
X91785714Y-85024819D02*
X91214286Y-85024819D01*
X91500000Y-85024819D02*
X91500000Y-84024819D01*
X91500000Y-84024819D02*
X91404762Y-84167676D01*
X91404762Y-84167676D02*
X91309524Y-84262914D01*
X91309524Y-84262914D02*
X91214286Y-84310533D01*
X53854819Y-116433333D02*
X54569104Y-116433333D01*
X54569104Y-116433333D02*
X54711961Y-116480952D01*
X54711961Y-116480952D02*
X54807200Y-116576190D01*
X54807200Y-116576190D02*
X54854819Y-116719047D01*
X54854819Y-116719047D02*
X54854819Y-116814285D01*
X53854819Y-115528571D02*
X53854819Y-115719047D01*
X53854819Y-115719047D02*
X53902438Y-115814285D01*
X53902438Y-115814285D02*
X53950057Y-115861904D01*
X53950057Y-115861904D02*
X54092914Y-115957142D01*
X54092914Y-115957142D02*
X54283390Y-116004761D01*
X54283390Y-116004761D02*
X54664342Y-116004761D01*
X54664342Y-116004761D02*
X54759580Y-115957142D01*
X54759580Y-115957142D02*
X54807200Y-115909523D01*
X54807200Y-115909523D02*
X54854819Y-115814285D01*
X54854819Y-115814285D02*
X54854819Y-115623809D01*
X54854819Y-115623809D02*
X54807200Y-115528571D01*
X54807200Y-115528571D02*
X54759580Y-115480952D01*
X54759580Y-115480952D02*
X54664342Y-115433333D01*
X54664342Y-115433333D02*
X54426247Y-115433333D01*
X54426247Y-115433333D02*
X54331009Y-115480952D01*
X54331009Y-115480952D02*
X54283390Y-115528571D01*
X54283390Y-115528571D02*
X54235771Y-115623809D01*
X54235771Y-115623809D02*
X54235771Y-115814285D01*
X54235771Y-115814285D02*
X54283390Y-115909523D01*
X54283390Y-115909523D02*
X54331009Y-115957142D01*
X54331009Y-115957142D02*
X54426247Y-116004761D01*
X53954819Y-145333333D02*
X54669104Y-145333333D01*
X54669104Y-145333333D02*
X54811961Y-145380952D01*
X54811961Y-145380952D02*
X54907200Y-145476190D01*
X54907200Y-145476190D02*
X54954819Y-145619047D01*
X54954819Y-145619047D02*
X54954819Y-145714285D01*
X54050057Y-144904761D02*
X54002438Y-144857142D01*
X54002438Y-144857142D02*
X53954819Y-144761904D01*
X53954819Y-144761904D02*
X53954819Y-144523809D01*
X53954819Y-144523809D02*
X54002438Y-144428571D01*
X54002438Y-144428571D02*
X54050057Y-144380952D01*
X54050057Y-144380952D02*
X54145295Y-144333333D01*
X54145295Y-144333333D02*
X54240533Y-144333333D01*
X54240533Y-144333333D02*
X54383390Y-144380952D01*
X54383390Y-144380952D02*
X54954819Y-144952380D01*
X54954819Y-144952380D02*
X54954819Y-144333333D01*
X102357142Y-139789580D02*
X102309523Y-139837200D01*
X102309523Y-139837200D02*
X102166666Y-139884819D01*
X102166666Y-139884819D02*
X102071428Y-139884819D01*
X102071428Y-139884819D02*
X101928571Y-139837200D01*
X101928571Y-139837200D02*
X101833333Y-139741961D01*
X101833333Y-139741961D02*
X101785714Y-139646723D01*
X101785714Y-139646723D02*
X101738095Y-139456247D01*
X101738095Y-139456247D02*
X101738095Y-139313390D01*
X101738095Y-139313390D02*
X101785714Y-139122914D01*
X101785714Y-139122914D02*
X101833333Y-139027676D01*
X101833333Y-139027676D02*
X101928571Y-138932438D01*
X101928571Y-138932438D02*
X102071428Y-138884819D01*
X102071428Y-138884819D02*
X102166666Y-138884819D01*
X102166666Y-138884819D02*
X102309523Y-138932438D01*
X102309523Y-138932438D02*
X102357142Y-138980057D01*
X103309523Y-139884819D02*
X102738095Y-139884819D01*
X103023809Y-139884819D02*
X103023809Y-138884819D01*
X103023809Y-138884819D02*
X102928571Y-139027676D01*
X102928571Y-139027676D02*
X102833333Y-139122914D01*
X102833333Y-139122914D02*
X102738095Y-139170533D01*
X103880952Y-139313390D02*
X103785714Y-139265771D01*
X103785714Y-139265771D02*
X103738095Y-139218152D01*
X103738095Y-139218152D02*
X103690476Y-139122914D01*
X103690476Y-139122914D02*
X103690476Y-139075295D01*
X103690476Y-139075295D02*
X103738095Y-138980057D01*
X103738095Y-138980057D02*
X103785714Y-138932438D01*
X103785714Y-138932438D02*
X103880952Y-138884819D01*
X103880952Y-138884819D02*
X104071428Y-138884819D01*
X104071428Y-138884819D02*
X104166666Y-138932438D01*
X104166666Y-138932438D02*
X104214285Y-138980057D01*
X104214285Y-138980057D02*
X104261904Y-139075295D01*
X104261904Y-139075295D02*
X104261904Y-139122914D01*
X104261904Y-139122914D02*
X104214285Y-139218152D01*
X104214285Y-139218152D02*
X104166666Y-139265771D01*
X104166666Y-139265771D02*
X104071428Y-139313390D01*
X104071428Y-139313390D02*
X103880952Y-139313390D01*
X103880952Y-139313390D02*
X103785714Y-139361009D01*
X103785714Y-139361009D02*
X103738095Y-139408628D01*
X103738095Y-139408628D02*
X103690476Y-139503866D01*
X103690476Y-139503866D02*
X103690476Y-139694342D01*
X103690476Y-139694342D02*
X103738095Y-139789580D01*
X103738095Y-139789580D02*
X103785714Y-139837200D01*
X103785714Y-139837200D02*
X103880952Y-139884819D01*
X103880952Y-139884819D02*
X104071428Y-139884819D01*
X104071428Y-139884819D02*
X104166666Y-139837200D01*
X104166666Y-139837200D02*
X104214285Y-139789580D01*
X104214285Y-139789580D02*
X104261904Y-139694342D01*
X104261904Y-139694342D02*
X104261904Y-139503866D01*
X104261904Y-139503866D02*
X104214285Y-139408628D01*
X104214285Y-139408628D02*
X104166666Y-139361009D01*
X104166666Y-139361009D02*
X104071428Y-139313390D01*
X102357142Y-135789580D02*
X102309523Y-135837200D01*
X102309523Y-135837200D02*
X102166666Y-135884819D01*
X102166666Y-135884819D02*
X102071428Y-135884819D01*
X102071428Y-135884819D02*
X101928571Y-135837200D01*
X101928571Y-135837200D02*
X101833333Y-135741961D01*
X101833333Y-135741961D02*
X101785714Y-135646723D01*
X101785714Y-135646723D02*
X101738095Y-135456247D01*
X101738095Y-135456247D02*
X101738095Y-135313390D01*
X101738095Y-135313390D02*
X101785714Y-135122914D01*
X101785714Y-135122914D02*
X101833333Y-135027676D01*
X101833333Y-135027676D02*
X101928571Y-134932438D01*
X101928571Y-134932438D02*
X102071428Y-134884819D01*
X102071428Y-134884819D02*
X102166666Y-134884819D01*
X102166666Y-134884819D02*
X102309523Y-134932438D01*
X102309523Y-134932438D02*
X102357142Y-134980057D01*
X103309523Y-135884819D02*
X102738095Y-135884819D01*
X103023809Y-135884819D02*
X103023809Y-134884819D01*
X103023809Y-134884819D02*
X102928571Y-135027676D01*
X102928571Y-135027676D02*
X102833333Y-135122914D01*
X102833333Y-135122914D02*
X102738095Y-135170533D01*
X103642857Y-134884819D02*
X104309523Y-134884819D01*
X104309523Y-134884819D02*
X103880952Y-135884819D01*
X108357142Y-132929580D02*
X108309523Y-132977200D01*
X108309523Y-132977200D02*
X108166666Y-133024819D01*
X108166666Y-133024819D02*
X108071428Y-133024819D01*
X108071428Y-133024819D02*
X107928571Y-132977200D01*
X107928571Y-132977200D02*
X107833333Y-132881961D01*
X107833333Y-132881961D02*
X107785714Y-132786723D01*
X107785714Y-132786723D02*
X107738095Y-132596247D01*
X107738095Y-132596247D02*
X107738095Y-132453390D01*
X107738095Y-132453390D02*
X107785714Y-132262914D01*
X107785714Y-132262914D02*
X107833333Y-132167676D01*
X107833333Y-132167676D02*
X107928571Y-132072438D01*
X107928571Y-132072438D02*
X108071428Y-132024819D01*
X108071428Y-132024819D02*
X108166666Y-132024819D01*
X108166666Y-132024819D02*
X108309523Y-132072438D01*
X108309523Y-132072438D02*
X108357142Y-132120057D01*
X109309523Y-133024819D02*
X108738095Y-133024819D01*
X109023809Y-133024819D02*
X109023809Y-132024819D01*
X109023809Y-132024819D02*
X108928571Y-132167676D01*
X108928571Y-132167676D02*
X108833333Y-132262914D01*
X108833333Y-132262914D02*
X108738095Y-132310533D01*
X110166666Y-132024819D02*
X109976190Y-132024819D01*
X109976190Y-132024819D02*
X109880952Y-132072438D01*
X109880952Y-132072438D02*
X109833333Y-132120057D01*
X109833333Y-132120057D02*
X109738095Y-132262914D01*
X109738095Y-132262914D02*
X109690476Y-132453390D01*
X109690476Y-132453390D02*
X109690476Y-132834342D01*
X109690476Y-132834342D02*
X109738095Y-132929580D01*
X109738095Y-132929580D02*
X109785714Y-132977200D01*
X109785714Y-132977200D02*
X109880952Y-133024819D01*
X109880952Y-133024819D02*
X110071428Y-133024819D01*
X110071428Y-133024819D02*
X110166666Y-132977200D01*
X110166666Y-132977200D02*
X110214285Y-132929580D01*
X110214285Y-132929580D02*
X110261904Y-132834342D01*
X110261904Y-132834342D02*
X110261904Y-132596247D01*
X110261904Y-132596247D02*
X110214285Y-132501009D01*
X110214285Y-132501009D02*
X110166666Y-132453390D01*
X110166666Y-132453390D02*
X110071428Y-132405771D01*
X110071428Y-132405771D02*
X109880952Y-132405771D01*
X109880952Y-132405771D02*
X109785714Y-132453390D01*
X109785714Y-132453390D02*
X109738095Y-132501009D01*
X109738095Y-132501009D02*
X109690476Y-132596247D01*
X108357142Y-136929580D02*
X108309523Y-136977200D01*
X108309523Y-136977200D02*
X108166666Y-137024819D01*
X108166666Y-137024819D02*
X108071428Y-137024819D01*
X108071428Y-137024819D02*
X107928571Y-136977200D01*
X107928571Y-136977200D02*
X107833333Y-136881961D01*
X107833333Y-136881961D02*
X107785714Y-136786723D01*
X107785714Y-136786723D02*
X107738095Y-136596247D01*
X107738095Y-136596247D02*
X107738095Y-136453390D01*
X107738095Y-136453390D02*
X107785714Y-136262914D01*
X107785714Y-136262914D02*
X107833333Y-136167676D01*
X107833333Y-136167676D02*
X107928571Y-136072438D01*
X107928571Y-136072438D02*
X108071428Y-136024819D01*
X108071428Y-136024819D02*
X108166666Y-136024819D01*
X108166666Y-136024819D02*
X108309523Y-136072438D01*
X108309523Y-136072438D02*
X108357142Y-136120057D01*
X109309523Y-137024819D02*
X108738095Y-137024819D01*
X109023809Y-137024819D02*
X109023809Y-136024819D01*
X109023809Y-136024819D02*
X108928571Y-136167676D01*
X108928571Y-136167676D02*
X108833333Y-136262914D01*
X108833333Y-136262914D02*
X108738095Y-136310533D01*
X110214285Y-136024819D02*
X109738095Y-136024819D01*
X109738095Y-136024819D02*
X109690476Y-136501009D01*
X109690476Y-136501009D02*
X109738095Y-136453390D01*
X109738095Y-136453390D02*
X109833333Y-136405771D01*
X109833333Y-136405771D02*
X110071428Y-136405771D01*
X110071428Y-136405771D02*
X110166666Y-136453390D01*
X110166666Y-136453390D02*
X110214285Y-136501009D01*
X110214285Y-136501009D02*
X110261904Y-136596247D01*
X110261904Y-136596247D02*
X110261904Y-136834342D01*
X110261904Y-136834342D02*
X110214285Y-136929580D01*
X110214285Y-136929580D02*
X110166666Y-136977200D01*
X110166666Y-136977200D02*
X110071428Y-137024819D01*
X110071428Y-137024819D02*
X109833333Y-137024819D01*
X109833333Y-137024819D02*
X109738095Y-136977200D01*
X109738095Y-136977200D02*
X109690476Y-136929580D01*
X115359580Y-114642857D02*
X115407200Y-114690476D01*
X115407200Y-114690476D02*
X115454819Y-114833333D01*
X115454819Y-114833333D02*
X115454819Y-114928571D01*
X115454819Y-114928571D02*
X115407200Y-115071428D01*
X115407200Y-115071428D02*
X115311961Y-115166666D01*
X115311961Y-115166666D02*
X115216723Y-115214285D01*
X115216723Y-115214285D02*
X115026247Y-115261904D01*
X115026247Y-115261904D02*
X114883390Y-115261904D01*
X114883390Y-115261904D02*
X114692914Y-115214285D01*
X114692914Y-115214285D02*
X114597676Y-115166666D01*
X114597676Y-115166666D02*
X114502438Y-115071428D01*
X114502438Y-115071428D02*
X114454819Y-114928571D01*
X114454819Y-114928571D02*
X114454819Y-114833333D01*
X114454819Y-114833333D02*
X114502438Y-114690476D01*
X114502438Y-114690476D02*
X114550057Y-114642857D01*
X115454819Y-113690476D02*
X115454819Y-114261904D01*
X115454819Y-113976190D02*
X114454819Y-113976190D01*
X114454819Y-113976190D02*
X114597676Y-114071428D01*
X114597676Y-114071428D02*
X114692914Y-114166666D01*
X114692914Y-114166666D02*
X114740533Y-114261904D01*
X114788152Y-112833333D02*
X115454819Y-112833333D01*
X114407200Y-113071428D02*
X115121485Y-113309523D01*
X115121485Y-113309523D02*
X115121485Y-112690476D01*
X111929580Y-114642857D02*
X111977200Y-114690476D01*
X111977200Y-114690476D02*
X112024819Y-114833333D01*
X112024819Y-114833333D02*
X112024819Y-114928571D01*
X112024819Y-114928571D02*
X111977200Y-115071428D01*
X111977200Y-115071428D02*
X111881961Y-115166666D01*
X111881961Y-115166666D02*
X111786723Y-115214285D01*
X111786723Y-115214285D02*
X111596247Y-115261904D01*
X111596247Y-115261904D02*
X111453390Y-115261904D01*
X111453390Y-115261904D02*
X111262914Y-115214285D01*
X111262914Y-115214285D02*
X111167676Y-115166666D01*
X111167676Y-115166666D02*
X111072438Y-115071428D01*
X111072438Y-115071428D02*
X111024819Y-114928571D01*
X111024819Y-114928571D02*
X111024819Y-114833333D01*
X111024819Y-114833333D02*
X111072438Y-114690476D01*
X111072438Y-114690476D02*
X111120057Y-114642857D01*
X112024819Y-113690476D02*
X112024819Y-114261904D01*
X112024819Y-113976190D02*
X111024819Y-113976190D01*
X111024819Y-113976190D02*
X111167676Y-114071428D01*
X111167676Y-114071428D02*
X111262914Y-114166666D01*
X111262914Y-114166666D02*
X111310533Y-114261904D01*
X111024819Y-113357142D02*
X111024819Y-112738095D01*
X111024819Y-112738095D02*
X111405771Y-113071428D01*
X111405771Y-113071428D02*
X111405771Y-112928571D01*
X111405771Y-112928571D02*
X111453390Y-112833333D01*
X111453390Y-112833333D02*
X111501009Y-112785714D01*
X111501009Y-112785714D02*
X111596247Y-112738095D01*
X111596247Y-112738095D02*
X111834342Y-112738095D01*
X111834342Y-112738095D02*
X111929580Y-112785714D01*
X111929580Y-112785714D02*
X111977200Y-112833333D01*
X111977200Y-112833333D02*
X112024819Y-112928571D01*
X112024819Y-112928571D02*
X112024819Y-113214285D01*
X112024819Y-113214285D02*
X111977200Y-113309523D01*
X111977200Y-113309523D02*
X111929580Y-113357142D01*
X105929580Y-147642857D02*
X105977200Y-147690476D01*
X105977200Y-147690476D02*
X106024819Y-147833333D01*
X106024819Y-147833333D02*
X106024819Y-147928571D01*
X106024819Y-147928571D02*
X105977200Y-148071428D01*
X105977200Y-148071428D02*
X105881961Y-148166666D01*
X105881961Y-148166666D02*
X105786723Y-148214285D01*
X105786723Y-148214285D02*
X105596247Y-148261904D01*
X105596247Y-148261904D02*
X105453390Y-148261904D01*
X105453390Y-148261904D02*
X105262914Y-148214285D01*
X105262914Y-148214285D02*
X105167676Y-148166666D01*
X105167676Y-148166666D02*
X105072438Y-148071428D01*
X105072438Y-148071428D02*
X105024819Y-147928571D01*
X105024819Y-147928571D02*
X105024819Y-147833333D01*
X105024819Y-147833333D02*
X105072438Y-147690476D01*
X105072438Y-147690476D02*
X105120057Y-147642857D01*
X106024819Y-146690476D02*
X106024819Y-147261904D01*
X106024819Y-146976190D02*
X105024819Y-146976190D01*
X105024819Y-146976190D02*
X105167676Y-147071428D01*
X105167676Y-147071428D02*
X105262914Y-147166666D01*
X105262914Y-147166666D02*
X105310533Y-147261904D01*
X105120057Y-146309523D02*
X105072438Y-146261904D01*
X105072438Y-146261904D02*
X105024819Y-146166666D01*
X105024819Y-146166666D02*
X105024819Y-145928571D01*
X105024819Y-145928571D02*
X105072438Y-145833333D01*
X105072438Y-145833333D02*
X105120057Y-145785714D01*
X105120057Y-145785714D02*
X105215295Y-145738095D01*
X105215295Y-145738095D02*
X105310533Y-145738095D01*
X105310533Y-145738095D02*
X105453390Y-145785714D01*
X105453390Y-145785714D02*
X106024819Y-146357142D01*
X106024819Y-146357142D02*
X106024819Y-145738095D01*
X112357142Y-143929580D02*
X112309523Y-143977200D01*
X112309523Y-143977200D02*
X112166666Y-144024819D01*
X112166666Y-144024819D02*
X112071428Y-144024819D01*
X112071428Y-144024819D02*
X111928571Y-143977200D01*
X111928571Y-143977200D02*
X111833333Y-143881961D01*
X111833333Y-143881961D02*
X111785714Y-143786723D01*
X111785714Y-143786723D02*
X111738095Y-143596247D01*
X111738095Y-143596247D02*
X111738095Y-143453390D01*
X111738095Y-143453390D02*
X111785714Y-143262914D01*
X111785714Y-143262914D02*
X111833333Y-143167676D01*
X111833333Y-143167676D02*
X111928571Y-143072438D01*
X111928571Y-143072438D02*
X112071428Y-143024819D01*
X112071428Y-143024819D02*
X112166666Y-143024819D01*
X112166666Y-143024819D02*
X112309523Y-143072438D01*
X112309523Y-143072438D02*
X112357142Y-143120057D01*
X113309523Y-144024819D02*
X112738095Y-144024819D01*
X113023809Y-144024819D02*
X113023809Y-143024819D01*
X113023809Y-143024819D02*
X112928571Y-143167676D01*
X112928571Y-143167676D02*
X112833333Y-143262914D01*
X112833333Y-143262914D02*
X112738095Y-143310533D01*
X114261904Y-144024819D02*
X113690476Y-144024819D01*
X113976190Y-144024819D02*
X113976190Y-143024819D01*
X113976190Y-143024819D02*
X113880952Y-143167676D01*
X113880952Y-143167676D02*
X113785714Y-143262914D01*
X113785714Y-143262914D02*
X113690476Y-143310533D01*
X83357142Y-116929580D02*
X83309523Y-116977200D01*
X83309523Y-116977200D02*
X83166666Y-117024819D01*
X83166666Y-117024819D02*
X83071428Y-117024819D01*
X83071428Y-117024819D02*
X82928571Y-116977200D01*
X82928571Y-116977200D02*
X82833333Y-116881961D01*
X82833333Y-116881961D02*
X82785714Y-116786723D01*
X82785714Y-116786723D02*
X82738095Y-116596247D01*
X82738095Y-116596247D02*
X82738095Y-116453390D01*
X82738095Y-116453390D02*
X82785714Y-116262914D01*
X82785714Y-116262914D02*
X82833333Y-116167676D01*
X82833333Y-116167676D02*
X82928571Y-116072438D01*
X82928571Y-116072438D02*
X83071428Y-116024819D01*
X83071428Y-116024819D02*
X83166666Y-116024819D01*
X83166666Y-116024819D02*
X83309523Y-116072438D01*
X83309523Y-116072438D02*
X83357142Y-116120057D01*
X84309523Y-117024819D02*
X83738095Y-117024819D01*
X84023809Y-117024819D02*
X84023809Y-116024819D01*
X84023809Y-116024819D02*
X83928571Y-116167676D01*
X83928571Y-116167676D02*
X83833333Y-116262914D01*
X83833333Y-116262914D02*
X83738095Y-116310533D01*
X84928571Y-116024819D02*
X85023809Y-116024819D01*
X85023809Y-116024819D02*
X85119047Y-116072438D01*
X85119047Y-116072438D02*
X85166666Y-116120057D01*
X85166666Y-116120057D02*
X85214285Y-116215295D01*
X85214285Y-116215295D02*
X85261904Y-116405771D01*
X85261904Y-116405771D02*
X85261904Y-116643866D01*
X85261904Y-116643866D02*
X85214285Y-116834342D01*
X85214285Y-116834342D02*
X85166666Y-116929580D01*
X85166666Y-116929580D02*
X85119047Y-116977200D01*
X85119047Y-116977200D02*
X85023809Y-117024819D01*
X85023809Y-117024819D02*
X84928571Y-117024819D01*
X84928571Y-117024819D02*
X84833333Y-116977200D01*
X84833333Y-116977200D02*
X84785714Y-116929580D01*
X84785714Y-116929580D02*
X84738095Y-116834342D01*
X84738095Y-116834342D02*
X84690476Y-116643866D01*
X84690476Y-116643866D02*
X84690476Y-116405771D01*
X84690476Y-116405771D02*
X84738095Y-116215295D01*
X84738095Y-116215295D02*
X84785714Y-116120057D01*
X84785714Y-116120057D02*
X84833333Y-116072438D01*
X84833333Y-116072438D02*
X84928571Y-116024819D01*
X114833333Y-125929580D02*
X114785714Y-125977200D01*
X114785714Y-125977200D02*
X114642857Y-126024819D01*
X114642857Y-126024819D02*
X114547619Y-126024819D01*
X114547619Y-126024819D02*
X114404762Y-125977200D01*
X114404762Y-125977200D02*
X114309524Y-125881961D01*
X114309524Y-125881961D02*
X114261905Y-125786723D01*
X114261905Y-125786723D02*
X114214286Y-125596247D01*
X114214286Y-125596247D02*
X114214286Y-125453390D01*
X114214286Y-125453390D02*
X114261905Y-125262914D01*
X114261905Y-125262914D02*
X114309524Y-125167676D01*
X114309524Y-125167676D02*
X114404762Y-125072438D01*
X114404762Y-125072438D02*
X114547619Y-125024819D01*
X114547619Y-125024819D02*
X114642857Y-125024819D01*
X114642857Y-125024819D02*
X114785714Y-125072438D01*
X114785714Y-125072438D02*
X114833333Y-125120057D01*
X115309524Y-126024819D02*
X115500000Y-126024819D01*
X115500000Y-126024819D02*
X115595238Y-125977200D01*
X115595238Y-125977200D02*
X115642857Y-125929580D01*
X115642857Y-125929580D02*
X115738095Y-125786723D01*
X115738095Y-125786723D02*
X115785714Y-125596247D01*
X115785714Y-125596247D02*
X115785714Y-125215295D01*
X115785714Y-125215295D02*
X115738095Y-125120057D01*
X115738095Y-125120057D02*
X115690476Y-125072438D01*
X115690476Y-125072438D02*
X115595238Y-125024819D01*
X115595238Y-125024819D02*
X115404762Y-125024819D01*
X115404762Y-125024819D02*
X115309524Y-125072438D01*
X115309524Y-125072438D02*
X115261905Y-125120057D01*
X115261905Y-125120057D02*
X115214286Y-125215295D01*
X115214286Y-125215295D02*
X115214286Y-125453390D01*
X115214286Y-125453390D02*
X115261905Y-125548628D01*
X115261905Y-125548628D02*
X115309524Y-125596247D01*
X115309524Y-125596247D02*
X115404762Y-125643866D01*
X115404762Y-125643866D02*
X115595238Y-125643866D01*
X115595238Y-125643866D02*
X115690476Y-125596247D01*
X115690476Y-125596247D02*
X115738095Y-125548628D01*
X115738095Y-125548628D02*
X115785714Y-125453390D01*
X90929580Y-67166666D02*
X90977200Y-67214285D01*
X90977200Y-67214285D02*
X91024819Y-67357142D01*
X91024819Y-67357142D02*
X91024819Y-67452380D01*
X91024819Y-67452380D02*
X90977200Y-67595237D01*
X90977200Y-67595237D02*
X90881961Y-67690475D01*
X90881961Y-67690475D02*
X90786723Y-67738094D01*
X90786723Y-67738094D02*
X90596247Y-67785713D01*
X90596247Y-67785713D02*
X90453390Y-67785713D01*
X90453390Y-67785713D02*
X90262914Y-67738094D01*
X90262914Y-67738094D02*
X90167676Y-67690475D01*
X90167676Y-67690475D02*
X90072438Y-67595237D01*
X90072438Y-67595237D02*
X90024819Y-67452380D01*
X90024819Y-67452380D02*
X90024819Y-67357142D01*
X90024819Y-67357142D02*
X90072438Y-67214285D01*
X90072438Y-67214285D02*
X90120057Y-67166666D01*
X90453390Y-66595237D02*
X90405771Y-66690475D01*
X90405771Y-66690475D02*
X90358152Y-66738094D01*
X90358152Y-66738094D02*
X90262914Y-66785713D01*
X90262914Y-66785713D02*
X90215295Y-66785713D01*
X90215295Y-66785713D02*
X90120057Y-66738094D01*
X90120057Y-66738094D02*
X90072438Y-66690475D01*
X90072438Y-66690475D02*
X90024819Y-66595237D01*
X90024819Y-66595237D02*
X90024819Y-66404761D01*
X90024819Y-66404761D02*
X90072438Y-66309523D01*
X90072438Y-66309523D02*
X90120057Y-66261904D01*
X90120057Y-66261904D02*
X90215295Y-66214285D01*
X90215295Y-66214285D02*
X90262914Y-66214285D01*
X90262914Y-66214285D02*
X90358152Y-66261904D01*
X90358152Y-66261904D02*
X90405771Y-66309523D01*
X90405771Y-66309523D02*
X90453390Y-66404761D01*
X90453390Y-66404761D02*
X90453390Y-66595237D01*
X90453390Y-66595237D02*
X90501009Y-66690475D01*
X90501009Y-66690475D02*
X90548628Y-66738094D01*
X90548628Y-66738094D02*
X90643866Y-66785713D01*
X90643866Y-66785713D02*
X90834342Y-66785713D01*
X90834342Y-66785713D02*
X90929580Y-66738094D01*
X90929580Y-66738094D02*
X90977200Y-66690475D01*
X90977200Y-66690475D02*
X91024819Y-66595237D01*
X91024819Y-66595237D02*
X91024819Y-66404761D01*
X91024819Y-66404761D02*
X90977200Y-66309523D01*
X90977200Y-66309523D02*
X90929580Y-66261904D01*
X90929580Y-66261904D02*
X90834342Y-66214285D01*
X90834342Y-66214285D02*
X90643866Y-66214285D01*
X90643866Y-66214285D02*
X90548628Y-66261904D01*
X90548628Y-66261904D02*
X90501009Y-66309523D01*
X90501009Y-66309523D02*
X90453390Y-66404761D01*
X87529580Y-67166666D02*
X87577200Y-67214285D01*
X87577200Y-67214285D02*
X87624819Y-67357142D01*
X87624819Y-67357142D02*
X87624819Y-67452380D01*
X87624819Y-67452380D02*
X87577200Y-67595237D01*
X87577200Y-67595237D02*
X87481961Y-67690475D01*
X87481961Y-67690475D02*
X87386723Y-67738094D01*
X87386723Y-67738094D02*
X87196247Y-67785713D01*
X87196247Y-67785713D02*
X87053390Y-67785713D01*
X87053390Y-67785713D02*
X86862914Y-67738094D01*
X86862914Y-67738094D02*
X86767676Y-67690475D01*
X86767676Y-67690475D02*
X86672438Y-67595237D01*
X86672438Y-67595237D02*
X86624819Y-67452380D01*
X86624819Y-67452380D02*
X86624819Y-67357142D01*
X86624819Y-67357142D02*
X86672438Y-67214285D01*
X86672438Y-67214285D02*
X86720057Y-67166666D01*
X86624819Y-66833332D02*
X86624819Y-66166666D01*
X86624819Y-66166666D02*
X87624819Y-66595237D01*
X81929580Y-67166666D02*
X81977200Y-67214285D01*
X81977200Y-67214285D02*
X82024819Y-67357142D01*
X82024819Y-67357142D02*
X82024819Y-67452380D01*
X82024819Y-67452380D02*
X81977200Y-67595237D01*
X81977200Y-67595237D02*
X81881961Y-67690475D01*
X81881961Y-67690475D02*
X81786723Y-67738094D01*
X81786723Y-67738094D02*
X81596247Y-67785713D01*
X81596247Y-67785713D02*
X81453390Y-67785713D01*
X81453390Y-67785713D02*
X81262914Y-67738094D01*
X81262914Y-67738094D02*
X81167676Y-67690475D01*
X81167676Y-67690475D02*
X81072438Y-67595237D01*
X81072438Y-67595237D02*
X81024819Y-67452380D01*
X81024819Y-67452380D02*
X81024819Y-67357142D01*
X81024819Y-67357142D02*
X81072438Y-67214285D01*
X81072438Y-67214285D02*
X81120057Y-67166666D01*
X81024819Y-66309523D02*
X81024819Y-66499999D01*
X81024819Y-66499999D02*
X81072438Y-66595237D01*
X81072438Y-66595237D02*
X81120057Y-66642856D01*
X81120057Y-66642856D02*
X81262914Y-66738094D01*
X81262914Y-66738094D02*
X81453390Y-66785713D01*
X81453390Y-66785713D02*
X81834342Y-66785713D01*
X81834342Y-66785713D02*
X81929580Y-66738094D01*
X81929580Y-66738094D02*
X81977200Y-66690475D01*
X81977200Y-66690475D02*
X82024819Y-66595237D01*
X82024819Y-66595237D02*
X82024819Y-66404761D01*
X82024819Y-66404761D02*
X81977200Y-66309523D01*
X81977200Y-66309523D02*
X81929580Y-66261904D01*
X81929580Y-66261904D02*
X81834342Y-66214285D01*
X81834342Y-66214285D02*
X81596247Y-66214285D01*
X81596247Y-66214285D02*
X81501009Y-66261904D01*
X81501009Y-66261904D02*
X81453390Y-66309523D01*
X81453390Y-66309523D02*
X81405771Y-66404761D01*
X81405771Y-66404761D02*
X81405771Y-66595237D01*
X81405771Y-66595237D02*
X81453390Y-66690475D01*
X81453390Y-66690475D02*
X81501009Y-66738094D01*
X81501009Y-66738094D02*
X81596247Y-66785713D01*
X77929580Y-67166666D02*
X77977200Y-67214285D01*
X77977200Y-67214285D02*
X78024819Y-67357142D01*
X78024819Y-67357142D02*
X78024819Y-67452380D01*
X78024819Y-67452380D02*
X77977200Y-67595237D01*
X77977200Y-67595237D02*
X77881961Y-67690475D01*
X77881961Y-67690475D02*
X77786723Y-67738094D01*
X77786723Y-67738094D02*
X77596247Y-67785713D01*
X77596247Y-67785713D02*
X77453390Y-67785713D01*
X77453390Y-67785713D02*
X77262914Y-67738094D01*
X77262914Y-67738094D02*
X77167676Y-67690475D01*
X77167676Y-67690475D02*
X77072438Y-67595237D01*
X77072438Y-67595237D02*
X77024819Y-67452380D01*
X77024819Y-67452380D02*
X77024819Y-67357142D01*
X77024819Y-67357142D02*
X77072438Y-67214285D01*
X77072438Y-67214285D02*
X77120057Y-67166666D01*
X77024819Y-66261904D02*
X77024819Y-66738094D01*
X77024819Y-66738094D02*
X77501009Y-66785713D01*
X77501009Y-66785713D02*
X77453390Y-66738094D01*
X77453390Y-66738094D02*
X77405771Y-66642856D01*
X77405771Y-66642856D02*
X77405771Y-66404761D01*
X77405771Y-66404761D02*
X77453390Y-66309523D01*
X77453390Y-66309523D02*
X77501009Y-66261904D01*
X77501009Y-66261904D02*
X77596247Y-66214285D01*
X77596247Y-66214285D02*
X77834342Y-66214285D01*
X77834342Y-66214285D02*
X77929580Y-66261904D01*
X77929580Y-66261904D02*
X77977200Y-66309523D01*
X77977200Y-66309523D02*
X78024819Y-66404761D01*
X78024819Y-66404761D02*
X78024819Y-66642856D01*
X78024819Y-66642856D02*
X77977200Y-66738094D01*
X77977200Y-66738094D02*
X77929580Y-66785713D01*
X61929580Y-145304166D02*
X61977200Y-145351785D01*
X61977200Y-145351785D02*
X62024819Y-145494642D01*
X62024819Y-145494642D02*
X62024819Y-145589880D01*
X62024819Y-145589880D02*
X61977200Y-145732737D01*
X61977200Y-145732737D02*
X61881961Y-145827975D01*
X61881961Y-145827975D02*
X61786723Y-145875594D01*
X61786723Y-145875594D02*
X61596247Y-145923213D01*
X61596247Y-145923213D02*
X61453390Y-145923213D01*
X61453390Y-145923213D02*
X61262914Y-145875594D01*
X61262914Y-145875594D02*
X61167676Y-145827975D01*
X61167676Y-145827975D02*
X61072438Y-145732737D01*
X61072438Y-145732737D02*
X61024819Y-145589880D01*
X61024819Y-145589880D02*
X61024819Y-145494642D01*
X61024819Y-145494642D02*
X61072438Y-145351785D01*
X61072438Y-145351785D02*
X61120057Y-145304166D01*
X61358152Y-144447023D02*
X62024819Y-144447023D01*
X60977200Y-144685118D02*
X61691485Y-144923213D01*
X61691485Y-144923213D02*
X61691485Y-144304166D01*
X63929580Y-133166666D02*
X63977200Y-133214285D01*
X63977200Y-133214285D02*
X64024819Y-133357142D01*
X64024819Y-133357142D02*
X64024819Y-133452380D01*
X64024819Y-133452380D02*
X63977200Y-133595237D01*
X63977200Y-133595237D02*
X63881961Y-133690475D01*
X63881961Y-133690475D02*
X63786723Y-133738094D01*
X63786723Y-133738094D02*
X63596247Y-133785713D01*
X63596247Y-133785713D02*
X63453390Y-133785713D01*
X63453390Y-133785713D02*
X63262914Y-133738094D01*
X63262914Y-133738094D02*
X63167676Y-133690475D01*
X63167676Y-133690475D02*
X63072438Y-133595237D01*
X63072438Y-133595237D02*
X63024819Y-133452380D01*
X63024819Y-133452380D02*
X63024819Y-133357142D01*
X63024819Y-133357142D02*
X63072438Y-133214285D01*
X63072438Y-133214285D02*
X63120057Y-133166666D01*
X63024819Y-132833332D02*
X63024819Y-132214285D01*
X63024819Y-132214285D02*
X63405771Y-132547618D01*
X63405771Y-132547618D02*
X63405771Y-132404761D01*
X63405771Y-132404761D02*
X63453390Y-132309523D01*
X63453390Y-132309523D02*
X63501009Y-132261904D01*
X63501009Y-132261904D02*
X63596247Y-132214285D01*
X63596247Y-132214285D02*
X63834342Y-132214285D01*
X63834342Y-132214285D02*
X63929580Y-132261904D01*
X63929580Y-132261904D02*
X63977200Y-132309523D01*
X63977200Y-132309523D02*
X64024819Y-132404761D01*
X64024819Y-132404761D02*
X64024819Y-132690475D01*
X64024819Y-132690475D02*
X63977200Y-132785713D01*
X63977200Y-132785713D02*
X63929580Y-132833332D01*
X54929580Y-136166666D02*
X54977200Y-136214285D01*
X54977200Y-136214285D02*
X55024819Y-136357142D01*
X55024819Y-136357142D02*
X55024819Y-136452380D01*
X55024819Y-136452380D02*
X54977200Y-136595237D01*
X54977200Y-136595237D02*
X54881961Y-136690475D01*
X54881961Y-136690475D02*
X54786723Y-136738094D01*
X54786723Y-136738094D02*
X54596247Y-136785713D01*
X54596247Y-136785713D02*
X54453390Y-136785713D01*
X54453390Y-136785713D02*
X54262914Y-136738094D01*
X54262914Y-136738094D02*
X54167676Y-136690475D01*
X54167676Y-136690475D02*
X54072438Y-136595237D01*
X54072438Y-136595237D02*
X54024819Y-136452380D01*
X54024819Y-136452380D02*
X54024819Y-136357142D01*
X54024819Y-136357142D02*
X54072438Y-136214285D01*
X54072438Y-136214285D02*
X54120057Y-136166666D01*
X54120057Y-135785713D02*
X54072438Y-135738094D01*
X54072438Y-135738094D02*
X54024819Y-135642856D01*
X54024819Y-135642856D02*
X54024819Y-135404761D01*
X54024819Y-135404761D02*
X54072438Y-135309523D01*
X54072438Y-135309523D02*
X54120057Y-135261904D01*
X54120057Y-135261904D02*
X54215295Y-135214285D01*
X54215295Y-135214285D02*
X54310533Y-135214285D01*
X54310533Y-135214285D02*
X54453390Y-135261904D01*
X54453390Y-135261904D02*
X55024819Y-135833332D01*
X55024819Y-135833332D02*
X55024819Y-135214285D01*
X65789580Y-124304166D02*
X65837200Y-124351785D01*
X65837200Y-124351785D02*
X65884819Y-124494642D01*
X65884819Y-124494642D02*
X65884819Y-124589880D01*
X65884819Y-124589880D02*
X65837200Y-124732737D01*
X65837200Y-124732737D02*
X65741961Y-124827975D01*
X65741961Y-124827975D02*
X65646723Y-124875594D01*
X65646723Y-124875594D02*
X65456247Y-124923213D01*
X65456247Y-124923213D02*
X65313390Y-124923213D01*
X65313390Y-124923213D02*
X65122914Y-124875594D01*
X65122914Y-124875594D02*
X65027676Y-124827975D01*
X65027676Y-124827975D02*
X64932438Y-124732737D01*
X64932438Y-124732737D02*
X64884819Y-124589880D01*
X64884819Y-124589880D02*
X64884819Y-124494642D01*
X64884819Y-124494642D02*
X64932438Y-124351785D01*
X64932438Y-124351785D02*
X64980057Y-124304166D01*
X65884819Y-123351785D02*
X65884819Y-123923213D01*
X65884819Y-123637499D02*
X64884819Y-123637499D01*
X64884819Y-123637499D02*
X65027676Y-123732737D01*
X65027676Y-123732737D02*
X65122914Y-123827975D01*
X65122914Y-123827975D02*
X65170533Y-123923213D01*
X112563095Y-148022200D02*
X112705952Y-148069819D01*
X112705952Y-148069819D02*
X112944047Y-148069819D01*
X112944047Y-148069819D02*
X113039285Y-148022200D01*
X113039285Y-148022200D02*
X113086904Y-147974580D01*
X113086904Y-147974580D02*
X113134523Y-147879342D01*
X113134523Y-147879342D02*
X113134523Y-147784104D01*
X113134523Y-147784104D02*
X113086904Y-147688866D01*
X113086904Y-147688866D02*
X113039285Y-147641247D01*
X113039285Y-147641247D02*
X112944047Y-147593628D01*
X112944047Y-147593628D02*
X112753571Y-147546009D01*
X112753571Y-147546009D02*
X112658333Y-147498390D01*
X112658333Y-147498390D02*
X112610714Y-147450771D01*
X112610714Y-147450771D02*
X112563095Y-147355533D01*
X112563095Y-147355533D02*
X112563095Y-147260295D01*
X112563095Y-147260295D02*
X112610714Y-147165057D01*
X112610714Y-147165057D02*
X112658333Y-147117438D01*
X112658333Y-147117438D02*
X112753571Y-147069819D01*
X112753571Y-147069819D02*
X112991666Y-147069819D01*
X112991666Y-147069819D02*
X113134523Y-147117438D01*
X113515476Y-147165057D02*
X113563095Y-147117438D01*
X113563095Y-147117438D02*
X113658333Y-147069819D01*
X113658333Y-147069819D02*
X113896428Y-147069819D01*
X113896428Y-147069819D02*
X113991666Y-147117438D01*
X113991666Y-147117438D02*
X114039285Y-147165057D01*
X114039285Y-147165057D02*
X114086904Y-147260295D01*
X114086904Y-147260295D02*
X114086904Y-147355533D01*
X114086904Y-147355533D02*
X114039285Y-147498390D01*
X114039285Y-147498390D02*
X113467857Y-148069819D01*
X113467857Y-148069819D02*
X114086904Y-148069819D01*
X56704819Y-75845238D02*
X56228628Y-76178571D01*
X56704819Y-76416666D02*
X55704819Y-76416666D01*
X55704819Y-76416666D02*
X55704819Y-76035714D01*
X55704819Y-76035714D02*
X55752438Y-75940476D01*
X55752438Y-75940476D02*
X55800057Y-75892857D01*
X55800057Y-75892857D02*
X55895295Y-75845238D01*
X55895295Y-75845238D02*
X56038152Y-75845238D01*
X56038152Y-75845238D02*
X56133390Y-75892857D01*
X56133390Y-75892857D02*
X56181009Y-75940476D01*
X56181009Y-75940476D02*
X56228628Y-76035714D01*
X56228628Y-76035714D02*
X56228628Y-76416666D01*
X55704819Y-75559523D02*
X56704819Y-75226190D01*
X56704819Y-75226190D02*
X55704819Y-74892857D01*
X56704819Y-74035714D02*
X56704819Y-74607142D01*
X56704819Y-74321428D02*
X55704819Y-74321428D01*
X55704819Y-74321428D02*
X55847676Y-74416666D01*
X55847676Y-74416666D02*
X55942914Y-74511904D01*
X55942914Y-74511904D02*
X55990533Y-74607142D01*
X115954819Y-90333333D02*
X116669104Y-90333333D01*
X116669104Y-90333333D02*
X116811961Y-90380952D01*
X116811961Y-90380952D02*
X116907200Y-90476190D01*
X116907200Y-90476190D02*
X116954819Y-90619047D01*
X116954819Y-90619047D02*
X116954819Y-90714285D01*
X116383390Y-89714285D02*
X116335771Y-89809523D01*
X116335771Y-89809523D02*
X116288152Y-89857142D01*
X116288152Y-89857142D02*
X116192914Y-89904761D01*
X116192914Y-89904761D02*
X116145295Y-89904761D01*
X116145295Y-89904761D02*
X116050057Y-89857142D01*
X116050057Y-89857142D02*
X116002438Y-89809523D01*
X116002438Y-89809523D02*
X115954819Y-89714285D01*
X115954819Y-89714285D02*
X115954819Y-89523809D01*
X115954819Y-89523809D02*
X116002438Y-89428571D01*
X116002438Y-89428571D02*
X116050057Y-89380952D01*
X116050057Y-89380952D02*
X116145295Y-89333333D01*
X116145295Y-89333333D02*
X116192914Y-89333333D01*
X116192914Y-89333333D02*
X116288152Y-89380952D01*
X116288152Y-89380952D02*
X116335771Y-89428571D01*
X116335771Y-89428571D02*
X116383390Y-89523809D01*
X116383390Y-89523809D02*
X116383390Y-89714285D01*
X116383390Y-89714285D02*
X116431009Y-89809523D01*
X116431009Y-89809523D02*
X116478628Y-89857142D01*
X116478628Y-89857142D02*
X116573866Y-89904761D01*
X116573866Y-89904761D02*
X116764342Y-89904761D01*
X116764342Y-89904761D02*
X116859580Y-89857142D01*
X116859580Y-89857142D02*
X116907200Y-89809523D01*
X116907200Y-89809523D02*
X116954819Y-89714285D01*
X116954819Y-89714285D02*
X116954819Y-89523809D01*
X116954819Y-89523809D02*
X116907200Y-89428571D01*
X116907200Y-89428571D02*
X116859580Y-89380952D01*
X116859580Y-89380952D02*
X116764342Y-89333333D01*
X116764342Y-89333333D02*
X116573866Y-89333333D01*
X116573866Y-89333333D02*
X116478628Y-89380952D01*
X116478628Y-89380952D02*
X116431009Y-89428571D01*
X116431009Y-89428571D02*
X116383390Y-89523809D01*
X56704819Y-114695238D02*
X56228628Y-115028571D01*
X56704819Y-115266666D02*
X55704819Y-115266666D01*
X55704819Y-115266666D02*
X55704819Y-114885714D01*
X55704819Y-114885714D02*
X55752438Y-114790476D01*
X55752438Y-114790476D02*
X55800057Y-114742857D01*
X55800057Y-114742857D02*
X55895295Y-114695238D01*
X55895295Y-114695238D02*
X56038152Y-114695238D01*
X56038152Y-114695238D02*
X56133390Y-114742857D01*
X56133390Y-114742857D02*
X56181009Y-114790476D01*
X56181009Y-114790476D02*
X56228628Y-114885714D01*
X56228628Y-114885714D02*
X56228628Y-115266666D01*
X55704819Y-114409523D02*
X56704819Y-114076190D01*
X56704819Y-114076190D02*
X55704819Y-113742857D01*
X56038152Y-112980952D02*
X56704819Y-112980952D01*
X55657200Y-113219047D02*
X56371485Y-113457142D01*
X56371485Y-113457142D02*
X56371485Y-112838095D01*
X58767261Y-128000057D02*
X58672023Y-127952438D01*
X58672023Y-127952438D02*
X58576785Y-127857200D01*
X58576785Y-127857200D02*
X58433928Y-127714342D01*
X58433928Y-127714342D02*
X58338690Y-127666723D01*
X58338690Y-127666723D02*
X58243452Y-127666723D01*
X58291071Y-127904819D02*
X58195833Y-127857200D01*
X58195833Y-127857200D02*
X58100595Y-127761961D01*
X58100595Y-127761961D02*
X58052976Y-127571485D01*
X58052976Y-127571485D02*
X58052976Y-127238152D01*
X58052976Y-127238152D02*
X58100595Y-127047676D01*
X58100595Y-127047676D02*
X58195833Y-126952438D01*
X58195833Y-126952438D02*
X58291071Y-126904819D01*
X58291071Y-126904819D02*
X58481547Y-126904819D01*
X58481547Y-126904819D02*
X58576785Y-126952438D01*
X58576785Y-126952438D02*
X58672023Y-127047676D01*
X58672023Y-127047676D02*
X58719642Y-127238152D01*
X58719642Y-127238152D02*
X58719642Y-127571485D01*
X58719642Y-127571485D02*
X58672023Y-127761961D01*
X58672023Y-127761961D02*
X58576785Y-127857200D01*
X58576785Y-127857200D02*
X58481547Y-127904819D01*
X58481547Y-127904819D02*
X58291071Y-127904819D01*
X59100595Y-127000057D02*
X59148214Y-126952438D01*
X59148214Y-126952438D02*
X59243452Y-126904819D01*
X59243452Y-126904819D02*
X59481547Y-126904819D01*
X59481547Y-126904819D02*
X59576785Y-126952438D01*
X59576785Y-126952438D02*
X59624404Y-127000057D01*
X59624404Y-127000057D02*
X59672023Y-127095295D01*
X59672023Y-127095295D02*
X59672023Y-127190533D01*
X59672023Y-127190533D02*
X59624404Y-127333390D01*
X59624404Y-127333390D02*
X59052976Y-127904819D01*
X59052976Y-127904819D02*
X59672023Y-127904819D01*
X53704819Y-90583333D02*
X54419104Y-90583333D01*
X54419104Y-90583333D02*
X54561961Y-90630952D01*
X54561961Y-90630952D02*
X54657200Y-90726190D01*
X54657200Y-90726190D02*
X54704819Y-90869047D01*
X54704819Y-90869047D02*
X54704819Y-90964285D01*
X54038152Y-89678571D02*
X54704819Y-89678571D01*
X53657200Y-89916666D02*
X54371485Y-90154761D01*
X54371485Y-90154761D02*
X54371485Y-89535714D01*
X53954819Y-77333333D02*
X54669104Y-77333333D01*
X54669104Y-77333333D02*
X54811961Y-77380952D01*
X54811961Y-77380952D02*
X54907200Y-77476190D01*
X54907200Y-77476190D02*
X54954819Y-77619047D01*
X54954819Y-77619047D02*
X54954819Y-77714285D01*
X53954819Y-76952380D02*
X53954819Y-76333333D01*
X53954819Y-76333333D02*
X54335771Y-76666666D01*
X54335771Y-76666666D02*
X54335771Y-76523809D01*
X54335771Y-76523809D02*
X54383390Y-76428571D01*
X54383390Y-76428571D02*
X54431009Y-76380952D01*
X54431009Y-76380952D02*
X54526247Y-76333333D01*
X54526247Y-76333333D02*
X54764342Y-76333333D01*
X54764342Y-76333333D02*
X54859580Y-76380952D01*
X54859580Y-76380952D02*
X54907200Y-76428571D01*
X54907200Y-76428571D02*
X54954819Y-76523809D01*
X54954819Y-76523809D02*
X54954819Y-76809523D01*
X54954819Y-76809523D02*
X54907200Y-76904761D01*
X54907200Y-76904761D02*
X54859580Y-76952380D01*
X87138095Y-160359819D02*
X87138095Y-161169342D01*
X87138095Y-161169342D02*
X87185714Y-161264580D01*
X87185714Y-161264580D02*
X87233333Y-161312200D01*
X87233333Y-161312200D02*
X87328571Y-161359819D01*
X87328571Y-161359819D02*
X87519047Y-161359819D01*
X87519047Y-161359819D02*
X87614285Y-161312200D01*
X87614285Y-161312200D02*
X87661904Y-161264580D01*
X87661904Y-161264580D02*
X87709523Y-161169342D01*
X87709523Y-161169342D02*
X87709523Y-160359819D01*
X88661904Y-160359819D02*
X88185714Y-160359819D01*
X88185714Y-160359819D02*
X88138095Y-160836009D01*
X88138095Y-160836009D02*
X88185714Y-160788390D01*
X88185714Y-160788390D02*
X88280952Y-160740771D01*
X88280952Y-160740771D02*
X88519047Y-160740771D01*
X88519047Y-160740771D02*
X88614285Y-160788390D01*
X88614285Y-160788390D02*
X88661904Y-160836009D01*
X88661904Y-160836009D02*
X88709523Y-160931247D01*
X88709523Y-160931247D02*
X88709523Y-161169342D01*
X88709523Y-161169342D02*
X88661904Y-161264580D01*
X88661904Y-161264580D02*
X88614285Y-161312200D01*
X88614285Y-161312200D02*
X88519047Y-161359819D01*
X88519047Y-161359819D02*
X88280952Y-161359819D01*
X88280952Y-161359819D02*
X88185714Y-161312200D01*
X88185714Y-161312200D02*
X88138095Y-161264580D01*
X83138094Y-156774104D02*
X83614284Y-156774104D01*
X83042856Y-157059819D02*
X83376189Y-156059819D01*
X83376189Y-156059819D02*
X83709522Y-157059819D01*
X84042856Y-156393152D02*
X84042856Y-157059819D01*
X84042856Y-156488390D02*
X84090475Y-156440771D01*
X84090475Y-156440771D02*
X84185713Y-156393152D01*
X84185713Y-156393152D02*
X84328570Y-156393152D01*
X84328570Y-156393152D02*
X84423808Y-156440771D01*
X84423808Y-156440771D02*
X84471427Y-156536009D01*
X84471427Y-156536009D02*
X84471427Y-157059819D01*
X84804761Y-156393152D02*
X85185713Y-156393152D01*
X84947618Y-156059819D02*
X84947618Y-156916961D01*
X84947618Y-156916961D02*
X84995237Y-157012200D01*
X84995237Y-157012200D02*
X85090475Y-157059819D01*
X85090475Y-157059819D02*
X85185713Y-157059819D01*
X85899999Y-157012200D02*
X85804761Y-157059819D01*
X85804761Y-157059819D02*
X85614285Y-157059819D01*
X85614285Y-157059819D02*
X85519047Y-157012200D01*
X85519047Y-157012200D02*
X85471428Y-156916961D01*
X85471428Y-156916961D02*
X85471428Y-156536009D01*
X85471428Y-156536009D02*
X85519047Y-156440771D01*
X85519047Y-156440771D02*
X85614285Y-156393152D01*
X85614285Y-156393152D02*
X85804761Y-156393152D01*
X85804761Y-156393152D02*
X85899999Y-156440771D01*
X85899999Y-156440771D02*
X85947618Y-156536009D01*
X85947618Y-156536009D02*
X85947618Y-156631247D01*
X85947618Y-156631247D02*
X85471428Y-156726485D01*
X86376190Y-156393152D02*
X86376190Y-157059819D01*
X86376190Y-156488390D02*
X86423809Y-156440771D01*
X86423809Y-156440771D02*
X86519047Y-156393152D01*
X86519047Y-156393152D02*
X86661904Y-156393152D01*
X86661904Y-156393152D02*
X86757142Y-156440771D01*
X86757142Y-156440771D02*
X86804761Y-156536009D01*
X86804761Y-156536009D02*
X86804761Y-157059819D01*
X87280952Y-156393152D02*
X87280952Y-157059819D01*
X87280952Y-156488390D02*
X87328571Y-156440771D01*
X87328571Y-156440771D02*
X87423809Y-156393152D01*
X87423809Y-156393152D02*
X87566666Y-156393152D01*
X87566666Y-156393152D02*
X87661904Y-156440771D01*
X87661904Y-156440771D02*
X87709523Y-156536009D01*
X87709523Y-156536009D02*
X87709523Y-157059819D01*
X88614285Y-157059819D02*
X88614285Y-156536009D01*
X88614285Y-156536009D02*
X88566666Y-156440771D01*
X88566666Y-156440771D02*
X88471428Y-156393152D01*
X88471428Y-156393152D02*
X88280952Y-156393152D01*
X88280952Y-156393152D02*
X88185714Y-156440771D01*
X88614285Y-157012200D02*
X88519047Y-157059819D01*
X88519047Y-157059819D02*
X88280952Y-157059819D01*
X88280952Y-157059819D02*
X88185714Y-157012200D01*
X88185714Y-157012200D02*
X88138095Y-156916961D01*
X88138095Y-156916961D02*
X88138095Y-156821723D01*
X88138095Y-156821723D02*
X88185714Y-156726485D01*
X88185714Y-156726485D02*
X88280952Y-156678866D01*
X88280952Y-156678866D02*
X88519047Y-156678866D01*
X88519047Y-156678866D02*
X88614285Y-156631247D01*
X89804762Y-156774104D02*
X90280952Y-156774104D01*
X89709524Y-157059819D02*
X90042857Y-156059819D01*
X90042857Y-156059819D02*
X90376190Y-157059819D01*
X90709524Y-157059819D02*
X90709524Y-156393152D01*
X90709524Y-156583628D02*
X90757143Y-156488390D01*
X90757143Y-156488390D02*
X90804762Y-156440771D01*
X90804762Y-156440771D02*
X90900000Y-156393152D01*
X90900000Y-156393152D02*
X90995238Y-156393152D01*
X91709524Y-157012200D02*
X91614286Y-157059819D01*
X91614286Y-157059819D02*
X91423810Y-157059819D01*
X91423810Y-157059819D02*
X91328572Y-157012200D01*
X91328572Y-157012200D02*
X91280953Y-156916961D01*
X91280953Y-156916961D02*
X91280953Y-156536009D01*
X91280953Y-156536009D02*
X91328572Y-156440771D01*
X91328572Y-156440771D02*
X91423810Y-156393152D01*
X91423810Y-156393152D02*
X91614286Y-156393152D01*
X91614286Y-156393152D02*
X91709524Y-156440771D01*
X91709524Y-156440771D02*
X91757143Y-156536009D01*
X91757143Y-156536009D02*
X91757143Y-156631247D01*
X91757143Y-156631247D02*
X91280953Y-156726485D01*
X92614286Y-157059819D02*
X92614286Y-156536009D01*
X92614286Y-156536009D02*
X92566667Y-156440771D01*
X92566667Y-156440771D02*
X92471429Y-156393152D01*
X92471429Y-156393152D02*
X92280953Y-156393152D01*
X92280953Y-156393152D02*
X92185715Y-156440771D01*
X92614286Y-157012200D02*
X92519048Y-157059819D01*
X92519048Y-157059819D02*
X92280953Y-157059819D01*
X92280953Y-157059819D02*
X92185715Y-157012200D01*
X92185715Y-157012200D02*
X92138096Y-156916961D01*
X92138096Y-156916961D02*
X92138096Y-156821723D01*
X92138096Y-156821723D02*
X92185715Y-156726485D01*
X92185715Y-156726485D02*
X92280953Y-156678866D01*
X92280953Y-156678866D02*
X92519048Y-156678866D01*
X92519048Y-156678866D02*
X92614286Y-156631247D01*
X115454819Y-106738094D02*
X114454819Y-106738094D01*
X114454819Y-106738094D02*
X114454819Y-106499999D01*
X114454819Y-106499999D02*
X114502438Y-106357142D01*
X114502438Y-106357142D02*
X114597676Y-106261904D01*
X114597676Y-106261904D02*
X114692914Y-106214285D01*
X114692914Y-106214285D02*
X114883390Y-106166666D01*
X114883390Y-106166666D02*
X115026247Y-106166666D01*
X115026247Y-106166666D02*
X115216723Y-106214285D01*
X115216723Y-106214285D02*
X115311961Y-106261904D01*
X115311961Y-106261904D02*
X115407200Y-106357142D01*
X115407200Y-106357142D02*
X115454819Y-106499999D01*
X115454819Y-106499999D02*
X115454819Y-106738094D01*
X115454819Y-105214285D02*
X115454819Y-105785713D01*
X115454819Y-105499999D02*
X114454819Y-105499999D01*
X114454819Y-105499999D02*
X114597676Y-105595237D01*
X114597676Y-105595237D02*
X114692914Y-105690475D01*
X114692914Y-105690475D02*
X114740533Y-105785713D01*
X110454819Y-106261904D02*
X109454819Y-106261904D01*
X110454819Y-105690476D02*
X109883390Y-106119047D01*
X109454819Y-105690476D02*
X110026247Y-106261904D01*
X95045180Y-59666666D02*
X94330895Y-59666666D01*
X94330895Y-59666666D02*
X94188038Y-59619047D01*
X94188038Y-59619047D02*
X94092800Y-59523809D01*
X94092800Y-59523809D02*
X94045180Y-59380952D01*
X94045180Y-59380952D02*
X94045180Y-59285714D01*
X94045180Y-60666666D02*
X94045180Y-60095238D01*
X94045180Y-60380952D02*
X95045180Y-60380952D01*
X95045180Y-60380952D02*
X94902323Y-60285714D01*
X94902323Y-60285714D02*
X94807085Y-60190476D01*
X94807085Y-60190476D02*
X94759466Y-60095238D01*
X56704819Y-88845238D02*
X56228628Y-89178571D01*
X56704819Y-89416666D02*
X55704819Y-89416666D01*
X55704819Y-89416666D02*
X55704819Y-89035714D01*
X55704819Y-89035714D02*
X55752438Y-88940476D01*
X55752438Y-88940476D02*
X55800057Y-88892857D01*
X55800057Y-88892857D02*
X55895295Y-88845238D01*
X55895295Y-88845238D02*
X56038152Y-88845238D01*
X56038152Y-88845238D02*
X56133390Y-88892857D01*
X56133390Y-88892857D02*
X56181009Y-88940476D01*
X56181009Y-88940476D02*
X56228628Y-89035714D01*
X56228628Y-89035714D02*
X56228628Y-89416666D01*
X55704819Y-88559523D02*
X56704819Y-88226190D01*
X56704819Y-88226190D02*
X55704819Y-87892857D01*
X55800057Y-87607142D02*
X55752438Y-87559523D01*
X55752438Y-87559523D02*
X55704819Y-87464285D01*
X55704819Y-87464285D02*
X55704819Y-87226190D01*
X55704819Y-87226190D02*
X55752438Y-87130952D01*
X55752438Y-87130952D02*
X55800057Y-87083333D01*
X55800057Y-87083333D02*
X55895295Y-87035714D01*
X55895295Y-87035714D02*
X55990533Y-87035714D01*
X55990533Y-87035714D02*
X56133390Y-87083333D01*
X56133390Y-87083333D02*
X56704819Y-87654761D01*
X56704819Y-87654761D02*
X56704819Y-87035714D01*
X119607200Y-120333332D02*
X119654819Y-120190475D01*
X119654819Y-120190475D02*
X119654819Y-119952380D01*
X119654819Y-119952380D02*
X119607200Y-119857142D01*
X119607200Y-119857142D02*
X119559580Y-119809523D01*
X119559580Y-119809523D02*
X119464342Y-119761904D01*
X119464342Y-119761904D02*
X119369104Y-119761904D01*
X119369104Y-119761904D02*
X119273866Y-119809523D01*
X119273866Y-119809523D02*
X119226247Y-119857142D01*
X119226247Y-119857142D02*
X119178628Y-119952380D01*
X119178628Y-119952380D02*
X119131009Y-120142856D01*
X119131009Y-120142856D02*
X119083390Y-120238094D01*
X119083390Y-120238094D02*
X119035771Y-120285713D01*
X119035771Y-120285713D02*
X118940533Y-120333332D01*
X118940533Y-120333332D02*
X118845295Y-120333332D01*
X118845295Y-120333332D02*
X118750057Y-120285713D01*
X118750057Y-120285713D02*
X118702438Y-120238094D01*
X118702438Y-120238094D02*
X118654819Y-120142856D01*
X118654819Y-120142856D02*
X118654819Y-119904761D01*
X118654819Y-119904761D02*
X118702438Y-119761904D01*
X118654819Y-119428570D02*
X119654819Y-119190475D01*
X119654819Y-119190475D02*
X118940533Y-118999999D01*
X118940533Y-118999999D02*
X119654819Y-118809523D01*
X119654819Y-118809523D02*
X118654819Y-118571428D01*
X119654819Y-117666666D02*
X119654819Y-118238094D01*
X119654819Y-117952380D02*
X118654819Y-117952380D01*
X118654819Y-117952380D02*
X118797676Y-118047618D01*
X118797676Y-118047618D02*
X118892914Y-118142856D01*
X118892914Y-118142856D02*
X118940533Y-118238094D01*
X113254819Y-82738094D02*
X112254819Y-82738094D01*
X112254819Y-82738094D02*
X112254819Y-82499999D01*
X112254819Y-82499999D02*
X112302438Y-82357142D01*
X112302438Y-82357142D02*
X112397676Y-82261904D01*
X112397676Y-82261904D02*
X112492914Y-82214285D01*
X112492914Y-82214285D02*
X112683390Y-82166666D01*
X112683390Y-82166666D02*
X112826247Y-82166666D01*
X112826247Y-82166666D02*
X113016723Y-82214285D01*
X113016723Y-82214285D02*
X113111961Y-82261904D01*
X113111961Y-82261904D02*
X113207200Y-82357142D01*
X113207200Y-82357142D02*
X113254819Y-82499999D01*
X113254819Y-82499999D02*
X113254819Y-82738094D01*
X112350057Y-81785713D02*
X112302438Y-81738094D01*
X112302438Y-81738094D02*
X112254819Y-81642856D01*
X112254819Y-81642856D02*
X112254819Y-81404761D01*
X112254819Y-81404761D02*
X112302438Y-81309523D01*
X112302438Y-81309523D02*
X112350057Y-81261904D01*
X112350057Y-81261904D02*
X112445295Y-81214285D01*
X112445295Y-81214285D02*
X112540533Y-81214285D01*
X112540533Y-81214285D02*
X112683390Y-81261904D01*
X112683390Y-81261904D02*
X113254819Y-81833332D01*
X113254819Y-81833332D02*
X113254819Y-81214285D01*
X53954819Y-62333333D02*
X54669104Y-62333333D01*
X54669104Y-62333333D02*
X54811961Y-62380952D01*
X54811961Y-62380952D02*
X54907200Y-62476190D01*
X54907200Y-62476190D02*
X54954819Y-62619047D01*
X54954819Y-62619047D02*
X54954819Y-62714285D01*
X53954819Y-61952380D02*
X53954819Y-61285714D01*
X53954819Y-61285714D02*
X54954819Y-61714285D01*
X99854761Y-77300057D02*
X99759523Y-77252438D01*
X99759523Y-77252438D02*
X99664285Y-77157200D01*
X99664285Y-77157200D02*
X99521428Y-77014342D01*
X99521428Y-77014342D02*
X99426190Y-76966723D01*
X99426190Y-76966723D02*
X99330952Y-76966723D01*
X99378571Y-77204819D02*
X99283333Y-77157200D01*
X99283333Y-77157200D02*
X99188095Y-77061961D01*
X99188095Y-77061961D02*
X99140476Y-76871485D01*
X99140476Y-76871485D02*
X99140476Y-76538152D01*
X99140476Y-76538152D02*
X99188095Y-76347676D01*
X99188095Y-76347676D02*
X99283333Y-76252438D01*
X99283333Y-76252438D02*
X99378571Y-76204819D01*
X99378571Y-76204819D02*
X99569047Y-76204819D01*
X99569047Y-76204819D02*
X99664285Y-76252438D01*
X99664285Y-76252438D02*
X99759523Y-76347676D01*
X99759523Y-76347676D02*
X99807142Y-76538152D01*
X99807142Y-76538152D02*
X99807142Y-76871485D01*
X99807142Y-76871485D02*
X99759523Y-77061961D01*
X99759523Y-77061961D02*
X99664285Y-77157200D01*
X99664285Y-77157200D02*
X99569047Y-77204819D01*
X99569047Y-77204819D02*
X99378571Y-77204819D01*
X100759523Y-77204819D02*
X100188095Y-77204819D01*
X100473809Y-77204819D02*
X100473809Y-76204819D01*
X100473809Y-76204819D02*
X100378571Y-76347676D01*
X100378571Y-76347676D02*
X100283333Y-76442914D01*
X100283333Y-76442914D02*
X100188095Y-76490533D01*
X80734819Y-94761904D02*
X81544342Y-94761904D01*
X81544342Y-94761904D02*
X81639580Y-94714285D01*
X81639580Y-94714285D02*
X81687200Y-94666666D01*
X81687200Y-94666666D02*
X81734819Y-94571428D01*
X81734819Y-94571428D02*
X81734819Y-94380952D01*
X81734819Y-94380952D02*
X81687200Y-94285714D01*
X81687200Y-94285714D02*
X81639580Y-94238095D01*
X81639580Y-94238095D02*
X81544342Y-94190476D01*
X81544342Y-94190476D02*
X80734819Y-94190476D01*
X81068152Y-93285714D02*
X81734819Y-93285714D01*
X80687200Y-93523809D02*
X81401485Y-93761904D01*
X81401485Y-93761904D02*
X81401485Y-93142857D01*
X113261905Y-90654819D02*
X113261905Y-89654819D01*
X113261905Y-89654819D02*
X113500000Y-89654819D01*
X113500000Y-89654819D02*
X113642857Y-89702438D01*
X113642857Y-89702438D02*
X113738095Y-89797676D01*
X113738095Y-89797676D02*
X113785714Y-89892914D01*
X113785714Y-89892914D02*
X113833333Y-90083390D01*
X113833333Y-90083390D02*
X113833333Y-90226247D01*
X113833333Y-90226247D02*
X113785714Y-90416723D01*
X113785714Y-90416723D02*
X113738095Y-90511961D01*
X113738095Y-90511961D02*
X113642857Y-90607200D01*
X113642857Y-90607200D02*
X113500000Y-90654819D01*
X113500000Y-90654819D02*
X113261905Y-90654819D01*
X114690476Y-89988152D02*
X114690476Y-90654819D01*
X114452381Y-89607200D02*
X114214286Y-90321485D01*
X114214286Y-90321485D02*
X114833333Y-90321485D01*
X70738095Y-124919819D02*
X70738095Y-125729342D01*
X70738095Y-125729342D02*
X70785714Y-125824580D01*
X70785714Y-125824580D02*
X70833333Y-125872200D01*
X70833333Y-125872200D02*
X70928571Y-125919819D01*
X70928571Y-125919819D02*
X71119047Y-125919819D01*
X71119047Y-125919819D02*
X71214285Y-125872200D01*
X71214285Y-125872200D02*
X71261904Y-125824580D01*
X71261904Y-125824580D02*
X71309523Y-125729342D01*
X71309523Y-125729342D02*
X71309523Y-124919819D01*
X72309523Y-125919819D02*
X71738095Y-125919819D01*
X72023809Y-125919819D02*
X72023809Y-124919819D01*
X72023809Y-124919819D02*
X71928571Y-125062676D01*
X71928571Y-125062676D02*
X71833333Y-125157914D01*
X71833333Y-125157914D02*
X71738095Y-125205533D01*
X86238095Y-124407200D02*
X86380952Y-124454819D01*
X86380952Y-124454819D02*
X86619047Y-124454819D01*
X86619047Y-124454819D02*
X86714285Y-124407200D01*
X86714285Y-124407200D02*
X86761904Y-124359580D01*
X86761904Y-124359580D02*
X86809523Y-124264342D01*
X86809523Y-124264342D02*
X86809523Y-124169104D01*
X86809523Y-124169104D02*
X86761904Y-124073866D01*
X86761904Y-124073866D02*
X86714285Y-124026247D01*
X86714285Y-124026247D02*
X86619047Y-123978628D01*
X86619047Y-123978628D02*
X86428571Y-123931009D01*
X86428571Y-123931009D02*
X86333333Y-123883390D01*
X86333333Y-123883390D02*
X86285714Y-123835771D01*
X86285714Y-123835771D02*
X86238095Y-123740533D01*
X86238095Y-123740533D02*
X86238095Y-123645295D01*
X86238095Y-123645295D02*
X86285714Y-123550057D01*
X86285714Y-123550057D02*
X86333333Y-123502438D01*
X86333333Y-123502438D02*
X86428571Y-123454819D01*
X86428571Y-123454819D02*
X86666666Y-123454819D01*
X86666666Y-123454819D02*
X86809523Y-123502438D01*
X87761904Y-124454819D02*
X87190476Y-124454819D01*
X87476190Y-124454819D02*
X87476190Y-123454819D01*
X87476190Y-123454819D02*
X87380952Y-123597676D01*
X87380952Y-123597676D02*
X87285714Y-123692914D01*
X87285714Y-123692914D02*
X87190476Y-123740533D01*
X56704819Y-101845238D02*
X56228628Y-102178571D01*
X56704819Y-102416666D02*
X55704819Y-102416666D01*
X55704819Y-102416666D02*
X55704819Y-102035714D01*
X55704819Y-102035714D02*
X55752438Y-101940476D01*
X55752438Y-101940476D02*
X55800057Y-101892857D01*
X55800057Y-101892857D02*
X55895295Y-101845238D01*
X55895295Y-101845238D02*
X56038152Y-101845238D01*
X56038152Y-101845238D02*
X56133390Y-101892857D01*
X56133390Y-101892857D02*
X56181009Y-101940476D01*
X56181009Y-101940476D02*
X56228628Y-102035714D01*
X56228628Y-102035714D02*
X56228628Y-102416666D01*
X55704819Y-101559523D02*
X56704819Y-101226190D01*
X56704819Y-101226190D02*
X55704819Y-100892857D01*
X55704819Y-100654761D02*
X55704819Y-100035714D01*
X55704819Y-100035714D02*
X56085771Y-100369047D01*
X56085771Y-100369047D02*
X56085771Y-100226190D01*
X56085771Y-100226190D02*
X56133390Y-100130952D01*
X56133390Y-100130952D02*
X56181009Y-100083333D01*
X56181009Y-100083333D02*
X56276247Y-100035714D01*
X56276247Y-100035714D02*
X56514342Y-100035714D01*
X56514342Y-100035714D02*
X56609580Y-100083333D01*
X56609580Y-100083333D02*
X56657200Y-100130952D01*
X56657200Y-100130952D02*
X56704819Y-100226190D01*
X56704819Y-100226190D02*
X56704819Y-100511904D01*
X56704819Y-100511904D02*
X56657200Y-100607142D01*
X56657200Y-100607142D02*
X56609580Y-100654761D01*
X112761905Y-88154819D02*
X112761905Y-87154819D01*
X112761905Y-87154819D02*
X113000000Y-87154819D01*
X113000000Y-87154819D02*
X113142857Y-87202438D01*
X113142857Y-87202438D02*
X113238095Y-87297676D01*
X113238095Y-87297676D02*
X113285714Y-87392914D01*
X113285714Y-87392914D02*
X113333333Y-87583390D01*
X113333333Y-87583390D02*
X113333333Y-87726247D01*
X113333333Y-87726247D02*
X113285714Y-87916723D01*
X113285714Y-87916723D02*
X113238095Y-88011961D01*
X113238095Y-88011961D02*
X113142857Y-88107200D01*
X113142857Y-88107200D02*
X113000000Y-88154819D01*
X113000000Y-88154819D02*
X112761905Y-88154819D01*
X113666667Y-87154819D02*
X114285714Y-87154819D01*
X114285714Y-87154819D02*
X113952381Y-87535771D01*
X113952381Y-87535771D02*
X114095238Y-87535771D01*
X114095238Y-87535771D02*
X114190476Y-87583390D01*
X114190476Y-87583390D02*
X114238095Y-87631009D01*
X114238095Y-87631009D02*
X114285714Y-87726247D01*
X114285714Y-87726247D02*
X114285714Y-87964342D01*
X114285714Y-87964342D02*
X114238095Y-88059580D01*
X114238095Y-88059580D02*
X114190476Y-88107200D01*
X114190476Y-88107200D02*
X114095238Y-88154819D01*
X114095238Y-88154819D02*
X113809524Y-88154819D01*
X113809524Y-88154819D02*
X113714286Y-88107200D01*
X113714286Y-88107200D02*
X113666667Y-88059580D01*
D11*
%TO.C,J5*%
X53310000Y-99140000D02*
X40490000Y-99140000D01*
X40490000Y-99140000D02*
X40490000Y-106860000D01*
X47800000Y-99800000D02*
X47800000Y-99140000D01*
X44390000Y-99800000D02*
X47800000Y-99800000D01*
X42790000Y-100250000D02*
X42790000Y-105750000D01*
X40490000Y-100250000D02*
X42790000Y-100250000D01*
X53310000Y-100360000D02*
X53310000Y-99140000D01*
X50410000Y-100360000D02*
X53310000Y-100360000D01*
X50410000Y-100640000D02*
X50410000Y-100360000D01*
X47800000Y-100900000D02*
X44390000Y-100900000D01*
X44390000Y-100900000D02*
X44390000Y-99800000D01*
X51400000Y-101350000D02*
X51400000Y-102150000D01*
X47800000Y-101400000D02*
X47800000Y-100900000D01*
X42790000Y-101400000D02*
X47800000Y-101400000D01*
X51000000Y-101750000D02*
X51400000Y-101350000D01*
X51400000Y-102150000D02*
X51000000Y-101750000D01*
X46400000Y-102600000D02*
X46400000Y-103400000D01*
X44600000Y-102600000D02*
X46400000Y-102600000D01*
X46400000Y-103400000D02*
X44600000Y-103400000D01*
X44600000Y-103400000D02*
X44600000Y-102600000D01*
X47800000Y-104600000D02*
X47800000Y-105100000D01*
X42790000Y-104600000D02*
X47800000Y-104600000D01*
X47800000Y-105100000D02*
X44390000Y-105100000D01*
X44390000Y-105100000D02*
X44390000Y-106200000D01*
X53310000Y-105640000D02*
X50410000Y-105640000D01*
X50410000Y-105640000D02*
X50410000Y-105360000D01*
X42790000Y-105750000D02*
X40490000Y-105750000D01*
X47800000Y-106200000D02*
X47800000Y-106860000D01*
X44390000Y-106200000D02*
X47800000Y-106200000D01*
X53310000Y-106860000D02*
X53310000Y-105640000D01*
X40490000Y-106860000D02*
X53310000Y-106860000D01*
%TO.C,U6*%
X102590000Y-128850000D02*
X102590000Y-125090000D01*
X109410000Y-128850000D02*
X109410000Y-125090000D01*
X102590000Y-125090000D02*
X103850000Y-125090000D01*
X109410000Y-125090000D02*
X108150000Y-125090000D01*
X102690000Y-130130000D02*
X102360000Y-130370000D01*
X102360000Y-129890000D01*
X102690000Y-130130000D01*
G36*
X102690000Y-130130000D02*
G01*
X102360000Y-130370000D01*
X102360000Y-129890000D01*
X102690000Y-130130000D01*
G37*
%TO.C,U3*%
X89410000Y-75150000D02*
X89410000Y-78910000D01*
X82590000Y-75150000D02*
X82590000Y-78910000D01*
X89410000Y-78910000D02*
X88150000Y-78910000D01*
X82590000Y-78910000D02*
X83850000Y-78910000D01*
X89640000Y-74110000D02*
X89310000Y-73870000D01*
X89640000Y-73630000D01*
X89640000Y-74110000D01*
G36*
X89640000Y-74110000D02*
G01*
X89310000Y-73870000D01*
X89640000Y-73630000D01*
X89640000Y-74110000D01*
G37*
%TO.C,U2*%
X89300000Y-89630000D02*
X89060000Y-89300000D01*
X89540000Y-89300000D01*
X89300000Y-89630000D01*
G36*
X89300000Y-89630000D02*
G01*
X89060000Y-89300000D01*
X89540000Y-89300000D01*
X89300000Y-89630000D01*
G37*
X92000000Y-98435000D02*
X93950000Y-98435000D01*
X92000000Y-98435000D02*
X90050000Y-98435000D01*
X92000000Y-89565000D02*
X93950000Y-89565000D01*
X92000000Y-89565000D02*
X90050000Y-89565000D01*
%TO.C,R15*%
X102477500Y-147254724D02*
X102477500Y-146745276D01*
X103522500Y-147254724D02*
X103522500Y-146745276D01*
%TO.C,R14*%
X118745276Y-144477500D02*
X119254724Y-144477500D01*
X118745276Y-145522500D02*
X119254724Y-145522500D01*
%TO.C,R13*%
X88745276Y-117477500D02*
X89254724Y-117477500D01*
X88745276Y-118522500D02*
X89254724Y-118522500D01*
%TO.C,R12*%
X107745276Y-93522500D02*
X108254724Y-93522500D01*
X107745276Y-92477500D02*
X108254724Y-92477500D01*
%TO.C,R7*%
X59254724Y-149522500D02*
X58745276Y-149522500D01*
X59254724Y-148477500D02*
X58745276Y-148477500D01*
%TO.C,R6*%
X57842224Y-142522500D02*
X57332776Y-142522500D01*
X57842224Y-141477500D02*
X57332776Y-141477500D01*
%TO.C,R5*%
X60745276Y-136477500D02*
X61254724Y-136477500D01*
X60745276Y-137522500D02*
X61254724Y-137522500D01*
%TO.C,R4*%
X59254724Y-130522500D02*
X58745276Y-130522500D01*
X59254724Y-129477500D02*
X58745276Y-129477500D01*
%TO.C,R3*%
X93477500Y-81254724D02*
X93477500Y-80745276D01*
X94522500Y-81254724D02*
X94522500Y-80745276D01*
%TO.C,R2*%
X108745276Y-83522500D02*
X109254724Y-83522500D01*
X108745276Y-82477500D02*
X109254724Y-82477500D01*
%TO.C,R1*%
X90745276Y-85477500D02*
X91254724Y-85477500D01*
X90745276Y-86522500D02*
X91254724Y-86522500D01*
%TO.C,J6*%
X53310000Y-112240000D02*
X40490000Y-112240000D01*
X40490000Y-112240000D02*
X40490000Y-119960000D01*
X47800000Y-112900000D02*
X47800000Y-112240000D01*
X44390000Y-112900000D02*
X47800000Y-112900000D01*
X42790000Y-113350000D02*
X42790000Y-118850000D01*
X40490000Y-113350000D02*
X42790000Y-113350000D01*
X53310000Y-113460000D02*
X53310000Y-112240000D01*
X50410000Y-113460000D02*
X53310000Y-113460000D01*
X50410000Y-113740000D02*
X50410000Y-113460000D01*
X47800000Y-114000000D02*
X44390000Y-114000000D01*
X44390000Y-114000000D02*
X44390000Y-112900000D01*
X51400000Y-114450000D02*
X51400000Y-115250000D01*
X47800000Y-114500000D02*
X47800000Y-114000000D01*
X42790000Y-114500000D02*
X47800000Y-114500000D01*
X51000000Y-114850000D02*
X51400000Y-114450000D01*
X51400000Y-115250000D02*
X51000000Y-114850000D01*
X46400000Y-115700000D02*
X46400000Y-116500000D01*
X44600000Y-115700000D02*
X46400000Y-115700000D01*
X46400000Y-116500000D02*
X44600000Y-116500000D01*
X44600000Y-116500000D02*
X44600000Y-115700000D01*
X47800000Y-117700000D02*
X47800000Y-118200000D01*
X42790000Y-117700000D02*
X47800000Y-117700000D01*
X47800000Y-118200000D02*
X44390000Y-118200000D01*
X44390000Y-118200000D02*
X44390000Y-119300000D01*
X53310000Y-118740000D02*
X50410000Y-118740000D01*
X50410000Y-118740000D02*
X50410000Y-118460000D01*
X42790000Y-118850000D02*
X40490000Y-118850000D01*
X47800000Y-119300000D02*
X47800000Y-119960000D01*
X44390000Y-119300000D02*
X47800000Y-119300000D01*
X53310000Y-119960000D02*
X53310000Y-118740000D01*
X40490000Y-119960000D02*
X53310000Y-119960000D01*
%TO.C,J2*%
X53410000Y-138640000D02*
X40590000Y-138640000D01*
X40590000Y-138640000D02*
X40590000Y-151360000D01*
X42890000Y-139750000D02*
X42890000Y-150250000D01*
X40590000Y-139750000D02*
X42890000Y-139750000D01*
X53410000Y-139860000D02*
X53410000Y-138640000D01*
X50510000Y-139860000D02*
X53410000Y-139860000D01*
X50510000Y-140140000D02*
X50510000Y-139860000D01*
X47900000Y-140700000D02*
X47900000Y-138640000D01*
X44490000Y-140700000D02*
X47900000Y-140700000D01*
X51500000Y-140850000D02*
X51500000Y-141650000D01*
X51100000Y-141250000D02*
X51500000Y-140850000D01*
X51500000Y-141650000D02*
X51100000Y-141250000D01*
X47900000Y-141800000D02*
X44490000Y-141800000D01*
X44490000Y-141800000D02*
X44490000Y-140700000D01*
X47900000Y-142300000D02*
X47900000Y-141800000D01*
X42890000Y-142300000D02*
X47900000Y-142300000D01*
X46500000Y-144200000D02*
X46500000Y-145800000D01*
X44700000Y-144200000D02*
X46500000Y-144200000D01*
X46500000Y-145800000D02*
X44700000Y-145800000D01*
X44700000Y-145800000D02*
X44700000Y-144200000D01*
X47900000Y-147700000D02*
X47900000Y-148200000D01*
X42890000Y-147700000D02*
X47900000Y-147700000D01*
X47900000Y-148200000D02*
X44490000Y-148200000D01*
X44490000Y-148200000D02*
X44490000Y-149300000D01*
X47900000Y-149300000D02*
X47900000Y-151360000D01*
X44490000Y-149300000D02*
X47900000Y-149300000D01*
X53410000Y-150140000D02*
X50510000Y-150140000D01*
X50510000Y-150140000D02*
X50510000Y-149860000D01*
X42890000Y-150250000D02*
X40590000Y-150250000D01*
X53410000Y-151360000D02*
X53410000Y-150140000D01*
X40590000Y-151360000D02*
X53410000Y-151360000D01*
%TO.C,C18*%
X103146267Y-138510000D02*
X102853733Y-138510000D01*
X103146267Y-137490000D02*
X102853733Y-137490000D01*
%TO.C,C17*%
X103146267Y-134510000D02*
X102853733Y-134510000D01*
X103146267Y-133490000D02*
X102853733Y-133490000D01*
%TO.C,C16*%
X108853733Y-133490000D02*
X109146267Y-133490000D01*
X108853733Y-134510000D02*
X109146267Y-134510000D01*
%TO.C,C15*%
X108853733Y-137490000D02*
X109146267Y-137490000D01*
X108853733Y-138510000D02*
X109146267Y-138510000D01*
%TO.C,C14*%
X116490000Y-114146267D02*
X116490000Y-113853733D01*
X117510000Y-114146267D02*
X117510000Y-113853733D01*
%TO.C,C13*%
X112490000Y-114146267D02*
X112490000Y-113853733D01*
X113510000Y-114146267D02*
X113510000Y-113853733D01*
%TO.C,C12*%
X106490000Y-147146267D02*
X106490000Y-146853733D01*
X107510000Y-147146267D02*
X107510000Y-146853733D01*
%TO.C,C11*%
X112853733Y-144490000D02*
X113146267Y-144490000D01*
X112853733Y-145510000D02*
X113146267Y-145510000D01*
%TO.C,C10*%
X83853733Y-117490000D02*
X84146267Y-117490000D01*
X83853733Y-118510000D02*
X84146267Y-118510000D01*
%TO.C,C9*%
X114853733Y-127510000D02*
X115146267Y-127510000D01*
X114853733Y-126490000D02*
X115146267Y-126490000D01*
%TO.C,C8*%
X91490000Y-67146267D02*
X91490000Y-66853733D01*
X92510000Y-67146267D02*
X92510000Y-66853733D01*
%TO.C,C7*%
X88490000Y-67146267D02*
X88490000Y-66853733D01*
X89510000Y-67146267D02*
X89510000Y-66853733D01*
%TO.C,C6*%
X82490000Y-67146267D02*
X82490000Y-66853733D01*
X83510000Y-67146267D02*
X83510000Y-66853733D01*
%TO.C,C5*%
X78490000Y-67146267D02*
X78490000Y-66853733D01*
X79510000Y-67146267D02*
X79510000Y-66853733D01*
%TO.C,C4*%
X62490000Y-145283767D02*
X62490000Y-144991233D01*
X63510000Y-145283767D02*
X63510000Y-144991233D01*
%TO.C,C3*%
X64490000Y-133146267D02*
X64490000Y-132853733D01*
X65510000Y-133146267D02*
X65510000Y-132853733D01*
%TO.C,C2*%
X55490000Y-136146267D02*
X55490000Y-135853733D01*
X56510000Y-136146267D02*
X56510000Y-135853733D01*
%TO.C,C1*%
X64510000Y-123991233D02*
X64510000Y-124283767D01*
X63490000Y-123991233D02*
X63490000Y-124283767D01*
D12*
%TO.C,S2*%
X113000000Y-149000000D02*
X113000000Y-155000000D01*
X113000000Y-155000000D02*
X119000000Y-155000000D01*
X119000000Y-149000000D02*
X113000000Y-149000000D01*
X119000000Y-155000000D02*
X119000000Y-149000000D01*
D13*
X109850000Y-149750000D02*
G75*
G02*
X109650000Y-149750000I-100000J0D01*
G01*
X109650000Y-149750000D02*
G75*
G02*
X109850000Y-149750000I100000J0D01*
G01*
D11*
%TO.C,RV1*%
X58530000Y-77620000D02*
X63270000Y-77620000D01*
X58530000Y-77620000D02*
X58530000Y-77310000D01*
X63270000Y-77620000D02*
X63270000Y-76510000D01*
X58530000Y-75490000D02*
X58530000Y-75010000D01*
X63270000Y-73990000D02*
X63270000Y-72880000D01*
X58530000Y-73190000D02*
X58530000Y-72880000D01*
X58530000Y-72880000D02*
X63270000Y-72880000D01*
%TO.C,J8*%
X120150000Y-94580000D02*
X122070000Y-94580000D01*
X125785000Y-94580000D02*
X124080000Y-94580000D01*
X122070000Y-85420000D02*
X120150000Y-85420000D01*
X124080000Y-85420000D02*
X125785000Y-85420000D01*
X125785000Y-85420000D02*
X125785000Y-94580000D01*
%TO.C,RV4*%
X58530000Y-116470000D02*
X63270000Y-116470000D01*
X58530000Y-116470000D02*
X58530000Y-116160000D01*
X63270000Y-116470000D02*
X63270000Y-115360000D01*
X58530000Y-114340000D02*
X58530000Y-113860000D01*
X63270000Y-112840000D02*
X63270000Y-111730000D01*
X58530000Y-112040000D02*
X58530000Y-111730000D01*
X58530000Y-111730000D02*
X63270000Y-111730000D01*
%TO.C,Q2*%
X58862500Y-123490000D02*
X58062500Y-123490000D01*
X58862500Y-123490000D02*
X59662500Y-123490000D01*
X58862500Y-126610000D02*
X58062500Y-126610000D01*
X58862500Y-126610000D02*
X59662500Y-126610000D01*
X60402500Y-126890000D02*
X59922500Y-126890000D01*
X60162500Y-126560000D01*
X60402500Y-126890000D01*
G36*
X60402500Y-126890000D02*
G01*
X59922500Y-126890000D01*
X60162500Y-126560000D01*
X60402500Y-126890000D01*
G37*
%TO.C,J4*%
X53160000Y-86390000D02*
X40340000Y-86390000D01*
X40340000Y-86390000D02*
X40340000Y-94110000D01*
X47650000Y-87050000D02*
X47650000Y-86390000D01*
X44240000Y-87050000D02*
X47650000Y-87050000D01*
X42640000Y-87500000D02*
X42640000Y-93000000D01*
X40340000Y-87500000D02*
X42640000Y-87500000D01*
X53160000Y-87610000D02*
X53160000Y-86390000D01*
X50260000Y-87610000D02*
X53160000Y-87610000D01*
X50260000Y-87890000D02*
X50260000Y-87610000D01*
X47650000Y-88150000D02*
X44240000Y-88150000D01*
X44240000Y-88150000D02*
X44240000Y-87050000D01*
X51250000Y-88600000D02*
X51250000Y-89400000D01*
X47650000Y-88650000D02*
X47650000Y-88150000D01*
X42640000Y-88650000D02*
X47650000Y-88650000D01*
X50850000Y-89000000D02*
X51250000Y-88600000D01*
X51250000Y-89400000D02*
X50850000Y-89000000D01*
X46250000Y-89850000D02*
X46250000Y-90650000D01*
X44450000Y-89850000D02*
X46250000Y-89850000D01*
X46250000Y-90650000D02*
X44450000Y-90650000D01*
X44450000Y-90650000D02*
X44450000Y-89850000D01*
X47650000Y-91850000D02*
X47650000Y-92350000D01*
X42640000Y-91850000D02*
X47650000Y-91850000D01*
X47650000Y-92350000D02*
X44240000Y-92350000D01*
X44240000Y-92350000D02*
X44240000Y-93450000D01*
X53160000Y-92890000D02*
X50260000Y-92890000D01*
X50260000Y-92890000D02*
X50260000Y-92610000D01*
X42640000Y-93000000D02*
X40340000Y-93000000D01*
X47650000Y-93450000D02*
X47650000Y-94110000D01*
X44240000Y-93450000D02*
X47650000Y-93450000D01*
X53160000Y-94110000D02*
X53160000Y-92890000D01*
X40340000Y-94110000D02*
X53160000Y-94110000D01*
%TO.C,J3*%
X40590000Y-73140000D02*
X40590000Y-80860000D01*
X40590000Y-74250000D02*
X42890000Y-74250000D01*
X40590000Y-80860000D02*
X53410000Y-80860000D01*
X42890000Y-74250000D02*
X42890000Y-79750000D01*
X42890000Y-75400000D02*
X47900000Y-75400000D01*
X42890000Y-78600000D02*
X47900000Y-78600000D01*
X42890000Y-79750000D02*
X40590000Y-79750000D01*
X44490000Y-73800000D02*
X47900000Y-73800000D01*
X44490000Y-74900000D02*
X44490000Y-73800000D01*
X44490000Y-79100000D02*
X44490000Y-80200000D01*
X44490000Y-80200000D02*
X47900000Y-80200000D01*
X44700000Y-76600000D02*
X46500000Y-76600000D01*
X44700000Y-77400000D02*
X44700000Y-76600000D01*
X46500000Y-76600000D02*
X46500000Y-77400000D01*
X46500000Y-77400000D02*
X44700000Y-77400000D01*
X47900000Y-73800000D02*
X47900000Y-73140000D01*
X47900000Y-74900000D02*
X44490000Y-74900000D01*
X47900000Y-75400000D02*
X47900000Y-74900000D01*
X47900000Y-78600000D02*
X47900000Y-79100000D01*
X47900000Y-79100000D02*
X44490000Y-79100000D01*
X47900000Y-80200000D02*
X47900000Y-80860000D01*
X50510000Y-74360000D02*
X53410000Y-74360000D01*
X50510000Y-74640000D02*
X50510000Y-74360000D01*
X50510000Y-79640000D02*
X50510000Y-79360000D01*
X51100000Y-75750000D02*
X51500000Y-75350000D01*
X51500000Y-75350000D02*
X51500000Y-76150000D01*
X51500000Y-76150000D02*
X51100000Y-75750000D01*
X53410000Y-73140000D02*
X40590000Y-73140000D01*
X53410000Y-74360000D02*
X53410000Y-73140000D01*
X53410000Y-79640000D02*
X50510000Y-79640000D01*
X53410000Y-80860000D02*
X53410000Y-79640000D01*
%TO.C,U5*%
X96900000Y-159605000D02*
X96900000Y-152855000D01*
X96900000Y-159605000D02*
X78900000Y-159605000D01*
X96900000Y-134855000D02*
X96900000Y-134105000D01*
X96900000Y-134105000D02*
X95900000Y-134105000D01*
X78900000Y-159605000D02*
X78900000Y-152855000D01*
X78900000Y-153665000D02*
X96900000Y-153665000D01*
X78900000Y-134855000D02*
X78900000Y-134105000D01*
X78900000Y-134105000D02*
X79900000Y-134105000D01*
%TO.C,D1*%
X112000000Y-97260000D02*
X112000000Y-98280000D01*
X113470000Y-98280000D02*
X110530000Y-98280000D01*
X110530000Y-98280000D02*
X110530000Y-103720000D01*
X110530000Y-102700000D02*
X113470000Y-102700000D01*
X110530000Y-102820000D02*
X113470000Y-102820000D01*
X110530000Y-102940000D02*
X113470000Y-102940000D01*
X113470000Y-103720000D02*
X113470000Y-98280000D01*
X110530000Y-103720000D02*
X113470000Y-103720000D01*
X112000000Y-104740000D02*
X112000000Y-103720000D01*
%TO.C,J1*%
X83880000Y-45980000D02*
X83880000Y-54100000D01*
X83880000Y-59500000D02*
X83880000Y-60720000D01*
X83880000Y-60720000D02*
X85550000Y-60720000D01*
X91450000Y-60720000D02*
X93120000Y-60720000D01*
X93120000Y-45980000D02*
X83880000Y-45980000D01*
X93120000Y-60720000D02*
X93120000Y-45980000D01*
%TO.C,RV2*%
X58530000Y-90620000D02*
X63270000Y-90620000D01*
X58530000Y-90620000D02*
X58530000Y-90310000D01*
X63270000Y-90620000D02*
X63270000Y-89510000D01*
X58530000Y-88490000D02*
X58530000Y-88010000D01*
X63270000Y-86990000D02*
X63270000Y-85880000D01*
X58530000Y-86190000D02*
X58530000Y-85880000D01*
X58530000Y-85880000D02*
X63270000Y-85880000D01*
%TO.C,SW1*%
X122100000Y-114400000D02*
X124400000Y-114400000D01*
X122100000Y-115600000D02*
X122100000Y-114400000D01*
X122100000Y-117400000D02*
X122100000Y-118100000D01*
X122100000Y-119900000D02*
X122100000Y-120600000D01*
X124400000Y-123600000D02*
X122100000Y-123600000D01*
X122100000Y-123600000D02*
X122100000Y-122400000D01*
%TO.C,D2*%
X114400000Y-81500000D02*
X114400000Y-82860000D01*
X113600000Y-81500000D02*
X113600000Y-82860000D01*
X113600000Y-82860000D02*
X114400000Y-82860000D01*
%TO.C,J7*%
X40590000Y-65860000D02*
X53410000Y-65860000D01*
X53410000Y-65860000D02*
X53410000Y-64640000D01*
X44490000Y-65200000D02*
X47900000Y-65200000D01*
X47900000Y-65200000D02*
X47900000Y-65860000D01*
X42890000Y-64750000D02*
X40590000Y-64750000D01*
X50510000Y-64640000D02*
X50510000Y-64360000D01*
X53410000Y-64640000D02*
X50510000Y-64640000D01*
X44490000Y-64100000D02*
X44490000Y-65200000D01*
X47900000Y-64100000D02*
X44490000Y-64100000D01*
X42890000Y-63600000D02*
X47900000Y-63600000D01*
X47900000Y-63600000D02*
X47900000Y-64100000D01*
X44700000Y-62400000D02*
X44700000Y-61600000D01*
X46500000Y-62400000D02*
X44700000Y-62400000D01*
X44700000Y-61600000D02*
X46500000Y-61600000D01*
X46500000Y-61600000D02*
X46500000Y-62400000D01*
X51500000Y-61150000D02*
X51100000Y-60750000D01*
X51100000Y-60750000D02*
X51500000Y-60350000D01*
X42890000Y-60400000D02*
X47900000Y-60400000D01*
X47900000Y-60400000D02*
X47900000Y-59900000D01*
X51500000Y-60350000D02*
X51500000Y-61150000D01*
X44490000Y-59900000D02*
X44490000Y-58800000D01*
X47900000Y-59900000D02*
X44490000Y-59900000D01*
X50510000Y-59640000D02*
X50510000Y-59360000D01*
X50510000Y-59360000D02*
X53410000Y-59360000D01*
X53410000Y-59360000D02*
X53410000Y-58140000D01*
X40590000Y-59250000D02*
X42890000Y-59250000D01*
X42890000Y-59250000D02*
X42890000Y-64750000D01*
X44490000Y-58800000D02*
X47900000Y-58800000D01*
X47900000Y-58800000D02*
X47900000Y-58140000D01*
X40590000Y-58140000D02*
X40590000Y-65860000D01*
X53410000Y-58140000D02*
X40590000Y-58140000D01*
%TO.C,Q1*%
X99320000Y-77840000D02*
X100730000Y-77840000D01*
X99320000Y-80160000D02*
X100730000Y-80160000D01*
X100730000Y-77840000D02*
X100730000Y-78500000D01*
X100730000Y-79500000D02*
X100730000Y-80160000D01*
X98950000Y-77860000D02*
X98710000Y-77530000D01*
X99190000Y-77530000D01*
X98950000Y-77860000D01*
G36*
X98950000Y-77860000D02*
G01*
X98710000Y-77530000D01*
X99190000Y-77530000D01*
X98950000Y-77860000D01*
G37*
%TO.C,U4*%
X71565000Y-94000000D02*
X71565000Y-92050000D01*
X71565000Y-94000000D02*
X71565000Y-95950000D01*
X80435000Y-94000000D02*
X80435000Y-92050000D01*
X80435000Y-94000000D02*
X80435000Y-95950000D01*
X80700000Y-91540000D02*
X80370000Y-91300000D01*
X80700000Y-91060000D01*
X80700000Y-91540000D01*
G36*
X80700000Y-91540000D02*
G01*
X80370000Y-91300000D01*
X80700000Y-91060000D01*
X80700000Y-91540000D01*
G37*
%TO.C,D4*%
X113500000Y-88600000D02*
X114860000Y-88600000D01*
X113500000Y-89400000D02*
X114860000Y-89400000D01*
X114860000Y-89400000D02*
X114860000Y-88600000D01*
%TO.C,U1*%
X71500000Y-126305000D02*
X69550000Y-126305000D01*
X71500000Y-126305000D02*
X73450000Y-126305000D01*
X71500000Y-136425000D02*
X69550000Y-136425000D01*
X71500000Y-136425000D02*
X73450000Y-136425000D01*
X68775000Y-126360000D02*
X68535000Y-126030000D01*
X69015000Y-126030000D01*
X68775000Y-126360000D01*
G36*
X68775000Y-126360000D02*
G01*
X68535000Y-126030000D01*
X69015000Y-126030000D01*
X68775000Y-126360000D01*
G37*
D12*
%TO.C,S1*%
X84000000Y-121000000D02*
X84000000Y-127000000D01*
X84000000Y-127000000D02*
X90000000Y-127000000D01*
X90000000Y-121000000D02*
X84000000Y-121000000D01*
X90000000Y-127000000D02*
X90000000Y-121000000D01*
D13*
X80850000Y-121750000D02*
G75*
G02*
X80650000Y-121750000I-100000J0D01*
G01*
X80650000Y-121750000D02*
G75*
G02*
X80850000Y-121750000I100000J0D01*
G01*
D11*
%TO.C,RV3*%
X58530000Y-103620000D02*
X63270000Y-103620000D01*
X58530000Y-103620000D02*
X58530000Y-103310000D01*
X63270000Y-103620000D02*
X63270000Y-102510000D01*
X58530000Y-101490000D02*
X58530000Y-101010000D01*
X63270000Y-99990000D02*
X63270000Y-98880000D01*
X58530000Y-99190000D02*
X58530000Y-98880000D01*
X58530000Y-98880000D02*
X63270000Y-98880000D01*
%TO.C,D3*%
X113000000Y-86100000D02*
X114360000Y-86100000D01*
X113000000Y-86900000D02*
X114360000Y-86900000D01*
X114360000Y-86900000D02*
X114360000Y-86100000D01*
%TD*%
M02*
