%TF.GenerationSoftware,KiCad,Pcbnew,8.0.6*%
%TF.CreationDate,2024-11-20T22:28:01-08:00*%
%TF.ProjectId,project_rev5,70726f6a-6563-4745-9f72-6576352e6b69,REV5*%
%TF.SameCoordinates,Original*%
%TF.FileFunction,Copper,L2,Bot*%
%TF.FilePolarity,Positive*%
%FSLAX46Y46*%
G04 Gerber Fmt 4.6, Leading zero omitted, Abs format (unit mm)*
G04 Created by KiCad (PCBNEW 8.0.6) date 2024-11-20 22:28:01*
%MOMM*%
%LPD*%
G01*
G04 APERTURE LIST*
G04 Aperture macros list*
%AMRoundRect*
0 Rectangle with rounded corners*
0 $1 Rounding radius*
0 $2 $3 $4 $5 $6 $7 $8 $9 X,Y pos of 4 corners*
0 Add a 4 corners polygon primitive as box body*
4,1,4,$2,$3,$4,$5,$6,$7,$8,$9,$2,$3,0*
0 Add four circle primitives for the rounded corners*
1,1,$1+$1,$2,$3*
1,1,$1+$1,$4,$5*
1,1,$1+$1,$6,$7*
1,1,$1+$1,$8,$9*
0 Add four rect primitives between the rounded corners*
20,1,$1+$1,$2,$3,$4,$5,0*
20,1,$1+$1,$4,$5,$6,$7,0*
20,1,$1+$1,$6,$7,$8,$9,0*
20,1,$1+$1,$8,$9,$2,$3,0*%
G04 Aperture macros list end*
%TA.AperFunction,ComponentPad*%
%ADD10O,2.000000X4.000000*%
%TD*%
%TA.AperFunction,ComponentPad*%
%ADD11O,4.000000X2.000000*%
%TD*%
%TA.AperFunction,ComponentPad*%
%ADD12R,4.500000X2.000000*%
%TD*%
%TA.AperFunction,ComponentPad*%
%ADD13O,2.100000X1.000000*%
%TD*%
%TA.AperFunction,ComponentPad*%
%ADD14O,1.800000X1.000000*%
%TD*%
%TA.AperFunction,ComponentPad*%
%ADD15C,6.400000*%
%TD*%
%TA.AperFunction,ComponentPad*%
%ADD16C,1.500000*%
%TD*%
%TA.AperFunction,ComponentPad*%
%ADD17RoundRect,0.250000X-0.725000X0.600000X-0.725000X-0.600000X0.725000X-0.600000X0.725000X0.600000X0*%
%TD*%
%TA.AperFunction,ComponentPad*%
%ADD18O,1.950000X1.700000*%
%TD*%
%TA.AperFunction,ComponentPad*%
%ADD19R,1.700000X1.700000*%
%TD*%
%TA.AperFunction,ComponentPad*%
%ADD20O,1.700000X1.700000*%
%TD*%
%TA.AperFunction,ViaPad*%
%ADD21C,0.600000*%
%TD*%
%TA.AperFunction,Conductor*%
%ADD22C,0.500000*%
%TD*%
%TA.AperFunction,Conductor*%
%ADD23C,0.200000*%
%TD*%
%TA.AperFunction,Conductor*%
%ADD24C,0.300000*%
%TD*%
G04 APERTURE END LIST*
D10*
%TO.P,J1,3*%
%TO.N,GND*%
X96400000Y-71500000D03*
D11*
%TO.P,J1,2*%
X101100000Y-68500000D03*
D12*
%TO.P,J1,1*%
%TO.N,Net-(J7-Pin_1)*%
X101100000Y-74700000D03*
%TD*%
D13*
%TO.P,J8,S1,SHIELD*%
%TO.N,GND*%
X118645000Y-93320000D03*
D14*
X122825000Y-93320000D03*
D13*
X118645000Y-84680000D03*
D14*
X122825000Y-84680000D03*
%TD*%
D15*
%TO.P,H2,1*%
%TO.N,N/C*%
X120500000Y-72500000D03*
%TD*%
D16*
%TO.P,TP_BOOT1,1,1*%
%TO.N,GPIO0_BOOT*%
X88000000Y-130000000D03*
%TD*%
D17*
%TO.P,J2,1,Pin_1*%
%TO.N,Net-(J2-Pin_1)*%
X49900000Y-136750000D03*
D18*
%TO.P,J2,2,Pin_2*%
%TO.N,GND*%
X49900000Y-139250000D03*
%TO.P,J2,3,Pin_3*%
%TO.N,Net-(J2-Pin_3)*%
X49900000Y-141750000D03*
%TO.P,J2,4,Pin_4*%
%TO.N,Net-(J2-Pin_4)*%
X49900000Y-144250000D03*
%TD*%
D15*
%TO.P,H3,1*%
%TO.N,N/C*%
X120000000Y-149500000D03*
%TD*%
D19*
%TO.P,J12,1,Pin_1*%
%TO.N,GPIO_45*%
X72860000Y-134770000D03*
D20*
%TO.P,J12,2,Pin_2*%
%TO.N,GPIO_48*%
X75400000Y-134770000D03*
%TO.P,J12,3,Pin_3*%
%TO.N,GPIO_47*%
X77940000Y-134770000D03*
%TO.P,J12,4,Pin_4*%
%TO.N,GPIO_21*%
X80480000Y-134770000D03*
%TO.P,J12,5,Pin_5*%
%TO.N,GPIO_14*%
X83020000Y-134770000D03*
%TO.P,J12,6,Pin_6*%
%TO.N,GPIO_13*%
X85560000Y-134770000D03*
%TO.P,J12,7,Pin_7*%
%TO.N,GPIO_12*%
X88100000Y-134770000D03*
%TO.P,J12,8,Pin_8*%
%TO.N,GPIO_11*%
X90640000Y-134770000D03*
%TO.P,J12,9,Pin_9*%
%TO.N,GPIO_10*%
X93180000Y-134770000D03*
%TO.P,J12,10,Pin_10*%
%TO.N,GPIO_09*%
X95720000Y-134770000D03*
%TO.P,J12,11,Pin_11*%
%TO.N,GPIO_46*%
X98260000Y-134770000D03*
%TO.P,J12,12,Pin_12*%
%TO.N,GPIO_03*%
X100800000Y-134770000D03*
%TD*%
D16*
%TO.P,TP_AND1,1,1*%
%TO.N,Net-(R1-Pad1)*%
X83500000Y-107000000D03*
%TD*%
D17*
%TO.P,J4,1,Pin_1*%
%TO.N,Net-(J4-Pin_1)*%
X49900000Y-101250000D03*
D18*
%TO.P,J4,2,Pin_2*%
%TO.N,+5V_WALL*%
X49900000Y-103750000D03*
%TD*%
D17*
%TO.P,J5,1,Pin_1*%
%TO.N,Net-(J5-Pin_1)*%
X49900000Y-111750000D03*
D18*
%TO.P,J5,2,Pin_2*%
%TO.N,+5V_WALL*%
X49900000Y-114250000D03*
%TD*%
D16*
%TO.P,TP_LCELL_VCC1,1,1*%
%TO.N,Net-(J2-Pin_1)*%
X66000000Y-149000000D03*
%TD*%
D19*
%TO.P,J10,1,Pin_1*%
%TO.N,GPIO_08*%
X120940000Y-155000000D03*
D20*
%TO.P,J10,2,Pin_2*%
%TO.N,GPIO_18*%
X118400000Y-155000000D03*
%TO.P,J10,3,Pin_3*%
%TO.N,GPIO_17*%
X115860000Y-155000000D03*
%TO.P,J10,4,Pin_4*%
%TO.N,GPIO_16*%
X113320000Y-155000000D03*
%TO.P,J10,5,Pin_5*%
%TO.N,GPIO_15*%
X110780000Y-155000000D03*
%TO.P,J10,6,Pin_6*%
%TO.N,GPIO_07*%
X108240000Y-155000000D03*
%TO.P,J10,7,Pin_7*%
%TO.N,GPIO_06*%
X105700000Y-155000000D03*
%TO.P,J10,8,Pin_8*%
%TO.N,GPIO_05*%
X103160000Y-155000000D03*
%TO.P,J10,9,Pin_9*%
%TO.N,GPIO_04*%
X100620000Y-155000000D03*
%TD*%
D17*
%TO.P,J3,1,Pin_1*%
%TO.N,Net-(J3-Pin_1)*%
X49900000Y-90750000D03*
D18*
%TO.P,J3,2,Pin_2*%
%TO.N,+5V_WALL*%
X49900000Y-93250000D03*
%TD*%
D16*
%TO.P,TP_PU_EN1,1,1*%
%TO.N,CHIP_PU_EN*%
X108000000Y-148000000D03*
%TD*%
D17*
%TO.P,J6,1,Pin_1*%
%TO.N,Net-(J6-Pin_1)*%
X49800000Y-122250000D03*
D18*
%TO.P,J6,2,Pin_2*%
%TO.N,+5V_WALL*%
X49800000Y-124750000D03*
%TD*%
D15*
%TO.P,H1,1*%
%TO.N,N/C*%
X46000000Y-72000000D03*
%TD*%
%TO.P,H4,1*%
%TO.N,N/C*%
X46000000Y-153500000D03*
%TD*%
D17*
%TO.P,J7,1,Pin_1*%
%TO.N,Net-(J7-Pin_1)*%
X49900000Y-79750000D03*
D18*
%TO.P,J7,2,Pin_2*%
%TO.N,+5V_WALL*%
X49900000Y-82250000D03*
%TD*%
D19*
%TO.P,J11,1,Pin_1*%
%TO.N,GPIO_37*%
X52050000Y-157120000D03*
D20*
%TO.P,J11,2,Pin_2*%
%TO.N,GPIO_38*%
X54590000Y-157120000D03*
%TO.P,J11,3,Pin_3*%
%TO.N,GPIO_39*%
X57130000Y-157120000D03*
%TO.P,J11,4,Pin_4*%
%TO.N,GPIO_40*%
X59670000Y-157120000D03*
%TO.P,J11,5,Pin_5*%
%TO.N,GPIO_41*%
X62210000Y-157120000D03*
%TO.P,J11,6,Pin_6*%
%TO.N,GPIO_42*%
X64750000Y-157120000D03*
%TO.P,J11,7,Pin_7*%
%TO.N,GPIO_44*%
X67290000Y-157120000D03*
%TO.P,J11,8,Pin_8*%
%TO.N,GPIO_43*%
X69830000Y-157120000D03*
%TO.P,J11,9,Pin_9*%
%TO.N,GPIO_02*%
X72370000Y-157120000D03*
%TO.P,J11,10,Pin_10*%
%TO.N,GPIO_01*%
X74910000Y-157120000D03*
%TD*%
D16*
%TO.P,TP_ADC2,1,1*%
%TO.N,Net-(Q2-E)*%
X65000000Y-133500000D03*
%TD*%
D21*
%TO.N,GND*%
X117200000Y-92200000D03*
X117250000Y-85950000D03*
X99000000Y-129500000D03*
X92750000Y-129250000D03*
X58250000Y-94250000D03*
X68000000Y-145000000D03*
X122750000Y-94750000D03*
X118750000Y-94750000D03*
X122750000Y-83250000D03*
X118500000Y-83250000D03*
X109750000Y-89000000D03*
X95500000Y-88750000D03*
X90750000Y-105500000D03*
X76000000Y-101250000D03*
X82000000Y-84750000D03*
X76950000Y-78300000D03*
X70050000Y-78150000D03*
X84500000Y-72000000D03*
X98250000Y-71500000D03*
X117000000Y-69000000D03*
X107000000Y-69000000D03*
X122000000Y-77250000D03*
X114000000Y-80750000D03*
X109500000Y-85000000D03*
X112750000Y-94500000D03*
X114000000Y-98500000D03*
X121000000Y-104250000D03*
X122000000Y-140000000D03*
X109000000Y-129750000D03*
X107750000Y-135500000D03*
X116250000Y-135500000D03*
X103500000Y-143500000D03*
X108000000Y-139250000D03*
X115250000Y-143000000D03*
X98000000Y-157750000D03*
X78000000Y-157750000D03*
X95500000Y-157750000D03*
X80500000Y-157750000D03*
X51750000Y-139250000D03*
X70750000Y-140000000D03*
X64000000Y-131250000D03*
X54000000Y-132500000D03*
X54500000Y-139000000D03*
X58500000Y-125500000D03*
X58250000Y-115000000D03*
X58250000Y-104500000D03*
X115000000Y-112250000D03*
%TO.N,ESP_3.3V*%
X105010000Y-118000000D03*
X118000000Y-116000000D03*
X100080000Y-118000000D03*
X121000000Y-113000000D03*
%TO.N,GND*%
X97000000Y-81000000D03*
X91250000Y-121750000D03*
X45000000Y-110000000D03*
X45000000Y-105000000D03*
X115000000Y-117500000D03*
X65000000Y-80000000D03*
X45000000Y-90000000D03*
X117500000Y-137500000D03*
X124500000Y-80250000D03*
X99000000Y-116000000D03*
X55000000Y-105000000D03*
X69000000Y-108000000D03*
X69000000Y-99000000D03*
X55000000Y-95000000D03*
X117500000Y-132500000D03*
X77500000Y-130000000D03*
X45000000Y-95000000D03*
X90250000Y-89750000D03*
X123000000Y-131000000D03*
X105000000Y-125000000D03*
X82500000Y-142500000D03*
X62000000Y-133500000D03*
X45000000Y-145000000D03*
X85000000Y-130000000D03*
X95000000Y-112500000D03*
X82500000Y-125000000D03*
X105000000Y-130000000D03*
X55000000Y-150000000D03*
X96250000Y-95500000D03*
X96000000Y-128500000D03*
X54000000Y-118000000D03*
X116000000Y-147000000D03*
X100000000Y-126250000D03*
X50000000Y-150000000D03*
X87500000Y-145000000D03*
X80000000Y-108000000D03*
X105000000Y-80000000D03*
X114987482Y-74974842D03*
X55000000Y-80000000D03*
X123000000Y-89000000D03*
X84700000Y-77250000D03*
X105000000Y-147500000D03*
X98000000Y-124000000D03*
X65000000Y-125000000D03*
X45000000Y-140000000D03*
X45000000Y-85000000D03*
X110000000Y-147500000D03*
X65000000Y-105000000D03*
X107500000Y-112500000D03*
X67100000Y-139450000D03*
X105000000Y-90000000D03*
X92500000Y-142500000D03*
X70250000Y-148500000D03*
X67000000Y-119000000D03*
X53000000Y-141000000D03*
X60000000Y-117000000D03*
X90000000Y-85000000D03*
X45000000Y-125000000D03*
X90000000Y-157500000D03*
X107500000Y-105000000D03*
X97000000Y-105000000D03*
X113250000Y-142750000D03*
X114500000Y-107750000D03*
X82500000Y-150000000D03*
X45000000Y-100000000D03*
X55000000Y-85000000D03*
X45000000Y-120000000D03*
X102250000Y-71750000D03*
X90000000Y-80000000D03*
X106000000Y-101000000D03*
X100000000Y-143500000D03*
X45000000Y-130000000D03*
X124000000Y-121000000D03*
X82500000Y-155000000D03*
X85000000Y-152500000D03*
X85250000Y-93000000D03*
X82750000Y-101750000D03*
X105000000Y-135000000D03*
X123000000Y-100000000D03*
X65000000Y-113000000D03*
X120000000Y-97500000D03*
X67500000Y-133250000D03*
X65000000Y-85000000D03*
X44971310Y-134963254D03*
X70000000Y-90000000D03*
%TO.N,+3.3V_WALL*%
X92700000Y-72000000D03*
X92500000Y-76500000D03*
%TO.N,+5VUSB*%
X109000000Y-116500000D03*
X111698858Y-119000000D03*
%TO.N,/controller/VBUS*%
X117000000Y-99500000D03*
X117000000Y-102500000D03*
%TO.N,NFET_3.3V*%
X105500000Y-95500000D03*
X107500000Y-97500000D03*
%TO.N,Net-(R1-Pad1)*%
X91800000Y-96700000D03*
X91800000Y-94700000D03*
%TO.N,GND*%
X84650000Y-80262500D03*
X81650000Y-80262500D03*
%TD*%
D22*
%TO.N,ESP_3.3V*%
X100080000Y-118000000D02*
X105010000Y-118000000D01*
D23*
X118000000Y-116000000D02*
X121000000Y-113000000D01*
%TO.N,GND*%
X96500000Y-158000000D02*
X97000000Y-158000000D01*
%TO.N,+3.3V_WALL*%
X92500000Y-76500000D02*
X92700000Y-76300000D01*
X92500000Y-72200000D02*
X92700000Y-72000000D01*
X92700000Y-76300000D02*
X92700000Y-72000000D01*
%TO.N,+5VUSB*%
X111500000Y-119000000D02*
X111698858Y-119000000D01*
D22*
X109000000Y-116500000D02*
X111500000Y-119000000D01*
%TO.N,/controller/VBUS*%
X117000000Y-99500000D02*
X117000000Y-102500000D01*
%TO.N,NFET_3.3V*%
X105500000Y-95500000D02*
X107500000Y-97500000D01*
D24*
%TO.N,Net-(R1-Pad1)*%
X91800000Y-96700000D02*
X91800000Y-94700000D01*
%TD*%
%TA.AperFunction,Conductor*%
%TO.N,GND*%
G36*
X122083567Y-67038289D02*
G01*
X122416912Y-67096052D01*
X122423825Y-67097589D01*
X122774871Y-67193237D01*
X122781619Y-67195422D01*
X123122099Y-67323752D01*
X123128593Y-67326557D01*
X123455441Y-67486414D01*
X123461651Y-67489823D01*
X123625650Y-67590216D01*
X123771973Y-67679789D01*
X123777846Y-67683777D01*
X124068867Y-67902154D01*
X124074337Y-67906678D01*
X124343462Y-68151517D01*
X124348482Y-68156537D01*
X124593321Y-68425662D01*
X124597845Y-68431132D01*
X124816222Y-68722153D01*
X124820210Y-68728026D01*
X125010172Y-69038341D01*
X125013588Y-69044564D01*
X125173437Y-69371395D01*
X125176252Y-69377912D01*
X125304576Y-69718378D01*
X125306763Y-69725131D01*
X125402408Y-70076168D01*
X125403949Y-70083098D01*
X125461724Y-70416520D01*
X125462828Y-70429330D01*
X125495283Y-155603306D01*
X125494179Y-155616174D01*
X125436441Y-155949393D01*
X125434900Y-155956323D01*
X125339255Y-156307360D01*
X125337068Y-156314113D01*
X125208744Y-156654580D01*
X125205929Y-156661097D01*
X125046081Y-156987928D01*
X125042665Y-156994151D01*
X124852703Y-157304465D01*
X124848715Y-157310338D01*
X124630338Y-157601359D01*
X124625814Y-157606829D01*
X124380975Y-157875955D01*
X124375955Y-157880975D01*
X124106829Y-158125814D01*
X124101359Y-158130338D01*
X123810338Y-158348715D01*
X123804465Y-158352703D01*
X123494151Y-158542665D01*
X123487928Y-158546081D01*
X123161097Y-158705929D01*
X123154580Y-158708744D01*
X122814113Y-158837068D01*
X122807360Y-158839255D01*
X122456323Y-158934900D01*
X122449393Y-158936441D01*
X122116072Y-158994198D01*
X122103233Y-158995302D01*
X43896772Y-158995302D01*
X43883933Y-158994198D01*
X43550606Y-158936440D01*
X43543676Y-158934899D01*
X43192639Y-158839254D01*
X43185886Y-158837067D01*
X42845420Y-158708743D01*
X42838903Y-158705928D01*
X42512072Y-158546080D01*
X42505849Y-158542664D01*
X42195534Y-158352702D01*
X42189661Y-158348714D01*
X41898640Y-158130337D01*
X41893170Y-158125813D01*
X41624045Y-157880974D01*
X41619025Y-157875954D01*
X41547945Y-157797824D01*
X41374186Y-157606829D01*
X41369662Y-157601359D01*
X41151285Y-157310338D01*
X41147297Y-157304465D01*
X41121635Y-157262545D01*
X40957331Y-156994143D01*
X40953919Y-156987927D01*
X40794066Y-156661085D01*
X40791261Y-156654591D01*
X40662931Y-156314111D01*
X40660745Y-156307360D01*
X40657049Y-156293794D01*
X40565098Y-155956317D01*
X40563559Y-155949393D01*
X40562965Y-155945965D01*
X40505819Y-155616169D01*
X40504716Y-155603306D01*
X40505517Y-153500000D01*
X42294422Y-153500000D01*
X42314721Y-153887337D01*
X42375396Y-154270425D01*
X42375397Y-154270427D01*
X42375398Y-154270433D01*
X42416189Y-154422667D01*
X42475788Y-154645094D01*
X42614780Y-155007182D01*
X42614782Y-155007187D01*
X42790874Y-155352788D01*
X43002124Y-155678084D01*
X43002130Y-155678093D01*
X43246215Y-155979511D01*
X43246232Y-155979530D01*
X43520469Y-156253767D01*
X43520478Y-156253775D01*
X43520484Y-156253781D01*
X43520488Y-156253784D01*
X43821906Y-156497869D01*
X43821913Y-156497874D01*
X43821916Y-156497876D01*
X44073253Y-156661096D01*
X44147211Y-156709125D01*
X44492812Y-156885217D01*
X44492817Y-156885219D01*
X44776596Y-156994151D01*
X44854913Y-157024214D01*
X45229567Y-157124602D01*
X45612662Y-157185278D01*
X46000000Y-157205578D01*
X46387338Y-157185278D01*
X46770433Y-157124602D01*
X47145087Y-157024214D01*
X47305466Y-156962650D01*
X47507182Y-156885219D01*
X47507187Y-156885217D01*
X47507189Y-156885215D01*
X47507194Y-156885214D01*
X47852789Y-156709125D01*
X48178084Y-156497876D01*
X48205918Y-156475337D01*
X48353708Y-156355658D01*
X48479516Y-156253781D01*
X48511172Y-156222125D01*
X50699500Y-156222125D01*
X50699500Y-158017862D01*
X50699501Y-158017877D01*
X50705909Y-158077481D01*
X50705909Y-158077483D01*
X50756204Y-158212331D01*
X50842454Y-158327546D01*
X50957669Y-158413796D01*
X51092517Y-158464091D01*
X51152127Y-158470500D01*
X52947872Y-158470499D01*
X53007483Y-158464091D01*
X53142331Y-158413796D01*
X53257546Y-158327546D01*
X53343796Y-158212331D01*
X53394091Y-158077483D01*
X53400500Y-158017873D01*
X53400499Y-158014256D01*
X53418084Y-157965919D01*
X53462628Y-157940191D01*
X53513287Y-157949114D01*
X53537297Y-157971110D01*
X53551505Y-157991401D01*
X53551507Y-157991403D01*
X53551510Y-157991407D01*
X53718595Y-158158492D01*
X53718598Y-158158494D01*
X53718599Y-158158495D01*
X53912170Y-158294035D01*
X53912172Y-158294035D01*
X53912175Y-158294038D01*
X54090401Y-158377145D01*
X54126337Y-158393903D01*
X54354592Y-158455063D01*
X54590000Y-158475659D01*
X54825408Y-158455063D01*
X55053663Y-158393903D01*
X55267830Y-158294035D01*
X55461401Y-158158495D01*
X55628495Y-157991401D01*
X55764035Y-157797830D01*
X55791846Y-157738190D01*
X55828219Y-157701817D01*
X55879463Y-157697333D01*
X55921600Y-157726838D01*
X55928154Y-157738190D01*
X55955961Y-157797824D01*
X56091507Y-157991404D01*
X56258595Y-158158492D01*
X56258598Y-158158494D01*
X56258599Y-158158495D01*
X56452170Y-158294035D01*
X56452172Y-158294035D01*
X56452175Y-158294038D01*
X56630401Y-158377145D01*
X56666337Y-158393903D01*
X56894592Y-158455063D01*
X57130000Y-158475659D01*
X57365408Y-158455063D01*
X57593663Y-158393903D01*
X57807830Y-158294035D01*
X58001401Y-158158495D01*
X58168495Y-157991401D01*
X58304035Y-157797830D01*
X58331846Y-157738190D01*
X58368219Y-157701817D01*
X58419463Y-157697333D01*
X58461600Y-157726838D01*
X58468154Y-157738190D01*
X58495961Y-157797824D01*
X58631507Y-157991404D01*
X58798595Y-158158492D01*
X58798598Y-158158494D01*
X58798599Y-158158495D01*
X58992170Y-158294035D01*
X58992172Y-158294035D01*
X58992175Y-158294038D01*
X59170401Y-158377145D01*
X59206337Y-158393903D01*
X59434592Y-158455063D01*
X59670000Y-158475659D01*
X59905408Y-158455063D01*
X60133663Y-158393903D01*
X60347830Y-158294035D01*
X60541401Y-158158495D01*
X60708495Y-157991401D01*
X60844035Y-157797830D01*
X60871846Y-157738190D01*
X60908219Y-157701817D01*
X60959463Y-157697333D01*
X61001600Y-157726838D01*
X61008154Y-157738190D01*
X61035961Y-157797824D01*
X61171507Y-157991404D01*
X61338595Y-158158492D01*
X61338598Y-158158494D01*
X61338599Y-158158495D01*
X61532170Y-158294035D01*
X61532172Y-158294035D01*
X61532175Y-158294038D01*
X61710401Y-158377145D01*
X61746337Y-158393903D01*
X61974592Y-158455063D01*
X62210000Y-158475659D01*
X62445408Y-158455063D01*
X62673663Y-158393903D01*
X62887830Y-158294035D01*
X63081401Y-158158495D01*
X63248495Y-157991401D01*
X63384035Y-157797830D01*
X63411846Y-157738190D01*
X63448219Y-157701817D01*
X63499463Y-157697333D01*
X63541600Y-157726838D01*
X63548154Y-157738190D01*
X63575961Y-157797824D01*
X63711507Y-157991404D01*
X63878595Y-158158492D01*
X63878598Y-158158494D01*
X63878599Y-158158495D01*
X64072170Y-158294035D01*
X64072172Y-158294035D01*
X64072175Y-158294038D01*
X64250401Y-158377145D01*
X64286337Y-158393903D01*
X64514592Y-158455063D01*
X64750000Y-158475659D01*
X64985408Y-158455063D01*
X65213663Y-158393903D01*
X65427830Y-158294035D01*
X65621401Y-158158495D01*
X65788495Y-157991401D01*
X65924035Y-157797830D01*
X65951846Y-157738190D01*
X65988219Y-157701817D01*
X66039463Y-157697333D01*
X66081600Y-157726838D01*
X66088154Y-157738190D01*
X66115961Y-157797824D01*
X66251507Y-157991404D01*
X66418595Y-158158492D01*
X66418598Y-158158494D01*
X66418599Y-158158495D01*
X66612170Y-158294035D01*
X66612172Y-158294035D01*
X66612175Y-158294038D01*
X66790401Y-158377145D01*
X66826337Y-158393903D01*
X67054592Y-158455063D01*
X67290000Y-158475659D01*
X67525408Y-158455063D01*
X67753663Y-158393903D01*
X67967830Y-158294035D01*
X68161401Y-158158495D01*
X68328495Y-157991401D01*
X68464035Y-157797830D01*
X68491846Y-157738190D01*
X68528219Y-157701817D01*
X68579463Y-157697333D01*
X68621600Y-157726838D01*
X68628154Y-157738190D01*
X68655961Y-157797824D01*
X68791507Y-157991404D01*
X68958595Y-158158492D01*
X68958598Y-158158494D01*
X68958599Y-158158495D01*
X69152170Y-158294035D01*
X69152172Y-158294035D01*
X69152175Y-158294038D01*
X69330401Y-158377145D01*
X69366337Y-158393903D01*
X69594592Y-158455063D01*
X69830000Y-158475659D01*
X70065408Y-158455063D01*
X70293663Y-158393903D01*
X70507830Y-158294035D01*
X70701401Y-158158495D01*
X70868495Y-157991401D01*
X71004035Y-157797830D01*
X71031846Y-157738190D01*
X71068219Y-157701817D01*
X71119463Y-157697333D01*
X71161600Y-157726838D01*
X71168154Y-157738190D01*
X71195961Y-157797824D01*
X71331507Y-157991404D01*
X71498595Y-158158492D01*
X71498598Y-158158494D01*
X71498599Y-158158495D01*
X71692170Y-158294035D01*
X71692172Y-158294035D01*
X71692175Y-158294038D01*
X71870401Y-158377145D01*
X71906337Y-158393903D01*
X72134592Y-158455063D01*
X72370000Y-158475659D01*
X72605408Y-158455063D01*
X72833663Y-158393903D01*
X73047830Y-158294035D01*
X73241401Y-158158495D01*
X73408495Y-157991401D01*
X73544035Y-157797830D01*
X73571846Y-157738190D01*
X73608219Y-157701817D01*
X73659463Y-157697333D01*
X73701600Y-157726838D01*
X73708154Y-157738190D01*
X73735961Y-157797824D01*
X73871507Y-157991404D01*
X74038595Y-158158492D01*
X74038598Y-158158494D01*
X74038599Y-158158495D01*
X74232170Y-158294035D01*
X74232172Y-158294035D01*
X74232175Y-158294038D01*
X74410401Y-158377145D01*
X74446337Y-158393903D01*
X74674592Y-158455063D01*
X74910000Y-158475659D01*
X75145408Y-158455063D01*
X75373663Y-158393903D01*
X75587830Y-158294035D01*
X75781401Y-158158495D01*
X75948495Y-157991401D01*
X76084035Y-157797830D01*
X76183903Y-157583663D01*
X76245063Y-157355408D01*
X76265659Y-157120000D01*
X76245063Y-156884592D01*
X76183903Y-156656337D01*
X76167146Y-156620403D01*
X76084038Y-156442176D01*
X76084035Y-156442173D01*
X76084035Y-156442171D01*
X75948495Y-156248599D01*
X75948494Y-156248598D01*
X75948492Y-156248595D01*
X75781404Y-156081507D01*
X75635746Y-155979516D01*
X75587830Y-155945965D01*
X75587829Y-155945964D01*
X75587824Y-155945961D01*
X75373666Y-155846098D01*
X75373663Y-155846097D01*
X75145408Y-155784937D01*
X75145406Y-155784936D01*
X75145403Y-155784936D01*
X74910000Y-155764341D01*
X74674596Y-155784936D01*
X74446337Y-155846097D01*
X74446333Y-155846098D01*
X74232176Y-155945961D01*
X74038595Y-156081507D01*
X73871507Y-156248595D01*
X73735961Y-156442176D01*
X73708154Y-156501810D01*
X73671781Y-156538183D01*
X73620537Y-156542667D01*
X73578400Y-156513162D01*
X73571846Y-156501810D01*
X73544038Y-156442176D01*
X73544035Y-156442173D01*
X73544035Y-156442171D01*
X73408495Y-156248599D01*
X73408494Y-156248598D01*
X73408492Y-156248595D01*
X73241404Y-156081507D01*
X73095746Y-155979516D01*
X73047830Y-155945965D01*
X73047829Y-155945964D01*
X73047824Y-155945961D01*
X72833666Y-155846098D01*
X72833663Y-155846097D01*
X72605408Y-155784937D01*
X72605406Y-155784936D01*
X72605403Y-155784936D01*
X72370000Y-155764341D01*
X72134596Y-155784936D01*
X71906337Y-155846097D01*
X71906333Y-155846098D01*
X71692176Y-155945961D01*
X71498595Y-156081507D01*
X71331507Y-156248595D01*
X71195961Y-156442176D01*
X71168154Y-156501810D01*
X71131781Y-156538183D01*
X71080537Y-156542667D01*
X71038400Y-156513162D01*
X71031846Y-156501810D01*
X71004038Y-156442176D01*
X71004035Y-156442173D01*
X71004035Y-156442171D01*
X70868495Y-156248599D01*
X70868494Y-156248598D01*
X70868492Y-156248595D01*
X70701404Y-156081507D01*
X70555746Y-155979516D01*
X70507830Y-155945965D01*
X70507829Y-155945964D01*
X70507824Y-155945961D01*
X70293666Y-155846098D01*
X70293663Y-155846097D01*
X70065408Y-155784937D01*
X70065406Y-155784936D01*
X70065403Y-155784936D01*
X69830000Y-155764341D01*
X69594596Y-155784936D01*
X69366337Y-155846097D01*
X69366333Y-155846098D01*
X69152176Y-155945961D01*
X68958595Y-156081507D01*
X68791507Y-156248595D01*
X68655961Y-156442176D01*
X68628154Y-156501810D01*
X68591781Y-156538183D01*
X68540537Y-156542667D01*
X68498400Y-156513162D01*
X68491846Y-156501810D01*
X68464038Y-156442176D01*
X68464035Y-156442173D01*
X68464035Y-156442171D01*
X68328495Y-156248599D01*
X68328494Y-156248598D01*
X68328492Y-156248595D01*
X68161404Y-156081507D01*
X68015746Y-155979516D01*
X67967830Y-155945965D01*
X67967829Y-155945964D01*
X67967824Y-155945961D01*
X67753666Y-155846098D01*
X67753663Y-155846097D01*
X67525408Y-155784937D01*
X67525406Y-155784936D01*
X67525403Y-155784936D01*
X67290000Y-155764341D01*
X67054596Y-155784936D01*
X66826337Y-155846097D01*
X66826333Y-155846098D01*
X66612176Y-155945961D01*
X66418595Y-156081507D01*
X66251507Y-156248595D01*
X66115961Y-156442176D01*
X66088154Y-156501810D01*
X66051781Y-156538183D01*
X66000537Y-156542667D01*
X65958400Y-156513162D01*
X65951846Y-156501810D01*
X65924038Y-156442176D01*
X65924035Y-156442173D01*
X65924035Y-156442171D01*
X65788495Y-156248599D01*
X65788494Y-156248598D01*
X65788492Y-156248595D01*
X65621404Y-156081507D01*
X65475746Y-155979516D01*
X65427830Y-155945965D01*
X65427829Y-155945964D01*
X65427824Y-155945961D01*
X65213666Y-155846098D01*
X65213663Y-155846097D01*
X64985408Y-155784937D01*
X64985406Y-155784936D01*
X64985403Y-155784936D01*
X64750000Y-155764341D01*
X64514596Y-155784936D01*
X64286337Y-155846097D01*
X64286333Y-155846098D01*
X64072176Y-155945961D01*
X63878595Y-156081507D01*
X63711507Y-156248595D01*
X63575961Y-156442176D01*
X63548154Y-156501810D01*
X63511781Y-156538183D01*
X63460537Y-156542667D01*
X63418400Y-156513162D01*
X63411846Y-156501810D01*
X63384038Y-156442176D01*
X63384035Y-156442173D01*
X63384035Y-156442171D01*
X63248495Y-156248599D01*
X63248494Y-156248598D01*
X63248492Y-156248595D01*
X63081404Y-156081507D01*
X62935746Y-155979516D01*
X62887830Y-155945965D01*
X62887829Y-155945964D01*
X62887824Y-155945961D01*
X62673666Y-155846098D01*
X62673663Y-155846097D01*
X62445408Y-155784937D01*
X62445406Y-155784936D01*
X62445403Y-155784936D01*
X62210000Y-155764341D01*
X61974596Y-155784936D01*
X61746337Y-155846097D01*
X61746333Y-155846098D01*
X61532176Y-155945961D01*
X61338595Y-156081507D01*
X61171507Y-156248595D01*
X61035961Y-156442176D01*
X61008154Y-156501810D01*
X60971781Y-156538183D01*
X60920537Y-156542667D01*
X60878400Y-156513162D01*
X60871846Y-156501810D01*
X60844038Y-156442176D01*
X60844035Y-156442173D01*
X60844035Y-156442171D01*
X60708495Y-156248599D01*
X60708494Y-156248598D01*
X60708492Y-156248595D01*
X60541404Y-156081507D01*
X60395746Y-155979516D01*
X60347830Y-155945965D01*
X60347829Y-155945964D01*
X60347824Y-155945961D01*
X60133666Y-155846098D01*
X60133663Y-155846097D01*
X59905408Y-155784937D01*
X59905406Y-155784936D01*
X59905403Y-155784936D01*
X59670000Y-155764341D01*
X59434596Y-155784936D01*
X59206337Y-155846097D01*
X59206333Y-155846098D01*
X58992176Y-155945961D01*
X58798595Y-156081507D01*
X58631507Y-156248595D01*
X58495961Y-156442176D01*
X58468154Y-156501810D01*
X58431781Y-156538183D01*
X58380537Y-156542667D01*
X58338400Y-156513162D01*
X58331846Y-156501810D01*
X58304038Y-156442176D01*
X58304035Y-156442173D01*
X58304035Y-156442171D01*
X58168495Y-156248599D01*
X58168494Y-156248598D01*
X58168492Y-156248595D01*
X58001404Y-156081507D01*
X57855746Y-155979516D01*
X57807830Y-155945965D01*
X57807829Y-155945964D01*
X57807824Y-155945961D01*
X57593666Y-155846098D01*
X57593663Y-155846097D01*
X57365408Y-155784937D01*
X57365406Y-155784936D01*
X57365403Y-155784936D01*
X57130000Y-155764341D01*
X56894596Y-155784936D01*
X56666337Y-155846097D01*
X56666333Y-155846098D01*
X56452176Y-155945961D01*
X56258595Y-156081507D01*
X56091507Y-156248595D01*
X55955961Y-156442176D01*
X55928154Y-156501810D01*
X55891781Y-156538183D01*
X55840537Y-156542667D01*
X55798400Y-156513162D01*
X55791846Y-156501810D01*
X55764038Y-156442176D01*
X55764035Y-156442173D01*
X55764035Y-156442171D01*
X55628495Y-156248599D01*
X55628494Y-156248598D01*
X55628492Y-156248595D01*
X55461404Y-156081507D01*
X55315746Y-155979516D01*
X55267830Y-155945965D01*
X55267829Y-155945964D01*
X55267824Y-155945961D01*
X55053666Y-155846098D01*
X55053663Y-155846097D01*
X54825408Y-155784937D01*
X54825406Y-155784936D01*
X54825403Y-155784936D01*
X54590000Y-155764341D01*
X54354596Y-155784936D01*
X54126337Y-155846097D01*
X54126333Y-155846098D01*
X53912176Y-155945961D01*
X53718595Y-156081507D01*
X53551510Y-156248592D01*
X53551505Y-156248598D01*
X53551505Y-156248599D01*
X53547875Y-156253784D01*
X53537299Y-156268888D01*
X53495161Y-156298392D01*
X53443917Y-156293908D01*
X53407544Y-156257534D01*
X53400499Y-156225754D01*
X53400499Y-156222137D01*
X53400499Y-156222128D01*
X53394091Y-156162517D01*
X53343796Y-156027669D01*
X53257546Y-155912454D01*
X53142331Y-155826204D01*
X53007483Y-155775909D01*
X52947873Y-155769500D01*
X52947869Y-155769500D01*
X51152137Y-155769500D01*
X51152122Y-155769501D01*
X51092516Y-155775909D01*
X51012303Y-155805826D01*
X50957669Y-155826204D01*
X50957668Y-155826204D01*
X50957667Y-155826205D01*
X50957665Y-155826206D01*
X50842454Y-155912454D01*
X50756206Y-156027665D01*
X50756205Y-156027667D01*
X50705909Y-156162515D01*
X50705909Y-156162518D01*
X50699500Y-156222125D01*
X48511172Y-156222125D01*
X48753781Y-155979516D01*
X48945279Y-155743035D01*
X48997869Y-155678093D01*
X48997870Y-155678090D01*
X48997876Y-155678084D01*
X49209125Y-155352789D01*
X49385214Y-155007194D01*
X49387976Y-155000000D01*
X99264341Y-155000000D01*
X99284936Y-155235403D01*
X99284936Y-155235406D01*
X99284937Y-155235408D01*
X99316389Y-155352789D01*
X99346098Y-155463666D01*
X99445961Y-155677824D01*
X99445964Y-155677829D01*
X99445965Y-155677830D01*
X99520962Y-155784937D01*
X99581507Y-155871404D01*
X99748595Y-156038492D01*
X99748598Y-156038494D01*
X99748599Y-156038495D01*
X99942170Y-156174035D01*
X99942172Y-156174035D01*
X99942175Y-156174038D01*
X100113155Y-156253767D01*
X100156337Y-156273903D01*
X100384592Y-156335063D01*
X100620000Y-156355659D01*
X100855408Y-156335063D01*
X101083663Y-156273903D01*
X101297830Y-156174035D01*
X101491401Y-156038495D01*
X101658495Y-155871401D01*
X101794035Y-155677830D01*
X101821846Y-155618190D01*
X101858219Y-155581817D01*
X101909463Y-155577333D01*
X101951600Y-155606838D01*
X101958154Y-155618190D01*
X101985961Y-155677824D01*
X101985964Y-155677829D01*
X101985965Y-155677830D01*
X102060962Y-155784937D01*
X102121507Y-155871404D01*
X102288595Y-156038492D01*
X102288598Y-156038494D01*
X102288599Y-156038495D01*
X102482170Y-156174035D01*
X102482172Y-156174035D01*
X102482175Y-156174038D01*
X102653155Y-156253767D01*
X102696337Y-156273903D01*
X102924592Y-156335063D01*
X103160000Y-156355659D01*
X103395408Y-156335063D01*
X103623663Y-156273903D01*
X103837830Y-156174035D01*
X104031401Y-156038495D01*
X104198495Y-155871401D01*
X104334035Y-155677830D01*
X104361846Y-155618190D01*
X104398219Y-155581817D01*
X104449463Y-155577333D01*
X104491600Y-155606838D01*
X104498154Y-155618190D01*
X104525961Y-155677824D01*
X104525964Y-155677829D01*
X104525965Y-155677830D01*
X104600962Y-155784937D01*
X104661507Y-155871404D01*
X104828595Y-156038492D01*
X104828598Y-156038494D01*
X104828599Y-156038495D01*
X105022170Y-156174035D01*
X105022172Y-156174035D01*
X105022175Y-156174038D01*
X105193155Y-156253767D01*
X105236337Y-156273903D01*
X105464592Y-156335063D01*
X105700000Y-156355659D01*
X105935408Y-156335063D01*
X106163663Y-156273903D01*
X106377830Y-156174035D01*
X106571401Y-156038495D01*
X106738495Y-155871401D01*
X106874035Y-155677830D01*
X106901846Y-155618190D01*
X106938219Y-155581817D01*
X106989463Y-155577333D01*
X107031600Y-155606838D01*
X107038154Y-155618190D01*
X107065961Y-155677824D01*
X107065964Y-155677829D01*
X107065965Y-155677830D01*
X107140962Y-155784937D01*
X107201507Y-155871404D01*
X107368595Y-156038492D01*
X107368598Y-156038494D01*
X107368599Y-156038495D01*
X107562170Y-156174035D01*
X107562172Y-156174035D01*
X107562175Y-156174038D01*
X107733155Y-156253767D01*
X107776337Y-156273903D01*
X108004592Y-156335063D01*
X108240000Y-156355659D01*
X108475408Y-156335063D01*
X108703663Y-156273903D01*
X108917830Y-156174035D01*
X109111401Y-156038495D01*
X109278495Y-155871401D01*
X109414035Y-155677830D01*
X109441846Y-155618190D01*
X109478219Y-155581817D01*
X109529463Y-155577333D01*
X109571600Y-155606838D01*
X109578154Y-155618190D01*
X109605961Y-155677824D01*
X109605964Y-155677829D01*
X109605965Y-155677830D01*
X109680962Y-155784937D01*
X109741507Y-155871404D01*
X109908595Y-156038492D01*
X109908598Y-156038494D01*
X109908599Y-156038495D01*
X110102170Y-156174035D01*
X110102172Y-156174035D01*
X110102175Y-156174038D01*
X110273155Y-156253767D01*
X110316337Y-156273903D01*
X110544592Y-156335063D01*
X110780000Y-156355659D01*
X111015408Y-156335063D01*
X111243663Y-156273903D01*
X111457830Y-156174035D01*
X111651401Y-156038495D01*
X111818495Y-155871401D01*
X111954035Y-155677830D01*
X111981846Y-155618190D01*
X112018219Y-155581817D01*
X112069463Y-155577333D01*
X112111600Y-155606838D01*
X112118154Y-155618190D01*
X112145961Y-155677824D01*
X112145964Y-155677829D01*
X112145965Y-155677830D01*
X112220962Y-155784937D01*
X112281507Y-155871404D01*
X112448595Y-156038492D01*
X112448598Y-156038494D01*
X112448599Y-156038495D01*
X112642170Y-156174035D01*
X112642172Y-156174035D01*
X112642175Y-156174038D01*
X112813155Y-156253767D01*
X112856337Y-156273903D01*
X113084592Y-156335063D01*
X113320000Y-156355659D01*
X113555408Y-156335063D01*
X113783663Y-156273903D01*
X113997830Y-156174035D01*
X114191401Y-156038495D01*
X114358495Y-155871401D01*
X114494035Y-155677830D01*
X114521846Y-155618190D01*
X114558219Y-155581817D01*
X114609463Y-155577333D01*
X114651600Y-155606838D01*
X114658154Y-155618190D01*
X114685961Y-155677824D01*
X114685964Y-155677829D01*
X114685965Y-155677830D01*
X114760962Y-155784937D01*
X114821507Y-155871404D01*
X114988595Y-156038492D01*
X114988598Y-156038494D01*
X114988599Y-156038495D01*
X115182170Y-156174035D01*
X115182172Y-156174035D01*
X115182175Y-156174038D01*
X115353155Y-156253767D01*
X115396337Y-156273903D01*
X115624592Y-156335063D01*
X115860000Y-156355659D01*
X116095408Y-156335063D01*
X116323663Y-156273903D01*
X116537830Y-156174035D01*
X116731401Y-156038495D01*
X116898495Y-155871401D01*
X117034035Y-155677830D01*
X117061846Y-155618190D01*
X117098219Y-155581817D01*
X117149463Y-155577333D01*
X117191600Y-155606838D01*
X117198154Y-155618190D01*
X117225961Y-155677824D01*
X117225964Y-155677829D01*
X117225965Y-155677830D01*
X117300962Y-155784937D01*
X117361507Y-155871404D01*
X117528595Y-156038492D01*
X117528598Y-156038494D01*
X117528599Y-156038495D01*
X117722170Y-156174035D01*
X117722172Y-156174035D01*
X117722175Y-156174038D01*
X117893155Y-156253767D01*
X117936337Y-156273903D01*
X118164592Y-156335063D01*
X118400000Y-156355659D01*
X118635408Y-156335063D01*
X118863663Y-156273903D01*
X119077830Y-156174035D01*
X119271401Y-156038495D01*
X119438495Y-155871401D01*
X119452700Y-155851113D01*
X119494834Y-155821608D01*
X119546078Y-155826089D01*
X119582453Y-155862461D01*
X119589500Y-155894232D01*
X119589500Y-155897855D01*
X119589501Y-155897877D01*
X119591213Y-155913802D01*
X119595909Y-155957483D01*
X119646204Y-156092331D01*
X119732454Y-156207546D01*
X119847669Y-156293796D01*
X119982517Y-156344091D01*
X120042127Y-156350500D01*
X121837872Y-156350499D01*
X121897483Y-156344091D01*
X122032331Y-156293796D01*
X122147546Y-156207546D01*
X122233796Y-156092331D01*
X122284091Y-155957483D01*
X122290500Y-155897873D01*
X122290499Y-154102128D01*
X122284091Y-154042517D01*
X122233796Y-153907669D01*
X122147546Y-153792454D01*
X122032331Y-153706204D01*
X121897483Y-153655909D01*
X121837873Y-153649500D01*
X121837869Y-153649500D01*
X120042137Y-153649500D01*
X120042122Y-153649501D01*
X119982516Y-153655909D01*
X119902303Y-153685826D01*
X119847669Y-153706204D01*
X119847668Y-153706204D01*
X119847667Y-153706205D01*
X119847665Y-153706206D01*
X119732454Y-153792454D01*
X119646206Y-153907665D01*
X119646205Y-153907667D01*
X119595909Y-154042515D01*
X119595909Y-154042518D01*
X119589500Y-154102125D01*
X119589500Y-154105753D01*
X119571907Y-154154091D01*
X119527358Y-154179811D01*
X119476700Y-154170878D01*
X119452700Y-154148886D01*
X119438492Y-154128595D01*
X119271404Y-153961507D01*
X119077824Y-153825961D01*
X118863666Y-153726098D01*
X118863663Y-153726097D01*
X118635408Y-153664937D01*
X118635406Y-153664936D01*
X118635403Y-153664936D01*
X118400000Y-153644341D01*
X118164596Y-153664936D01*
X117936337Y-153726097D01*
X117936333Y-153726098D01*
X117722176Y-153825961D01*
X117528595Y-153961507D01*
X117361507Y-154128595D01*
X117225961Y-154322176D01*
X117198154Y-154381810D01*
X117161781Y-154418183D01*
X117110537Y-154422667D01*
X117068400Y-154393162D01*
X117061846Y-154381810D01*
X117034038Y-154322176D01*
X117034035Y-154322173D01*
X117034035Y-154322171D01*
X116898495Y-154128599D01*
X116898494Y-154128598D01*
X116898492Y-154128595D01*
X116731404Y-153961507D01*
X116537824Y-153825961D01*
X116323666Y-153726098D01*
X116323663Y-153726097D01*
X116095408Y-153664937D01*
X116095406Y-153664936D01*
X116095403Y-153664936D01*
X115860000Y-153644341D01*
X115624596Y-153664936D01*
X115396337Y-153726097D01*
X115396333Y-153726098D01*
X115182176Y-153825961D01*
X114988595Y-153961507D01*
X114821507Y-154128595D01*
X114685961Y-154322176D01*
X114658154Y-154381810D01*
X114621781Y-154418183D01*
X114570537Y-154422667D01*
X114528400Y-154393162D01*
X114521846Y-154381810D01*
X114494038Y-154322176D01*
X114494035Y-154322173D01*
X114494035Y-154322171D01*
X114358495Y-154128599D01*
X114358494Y-154128598D01*
X114358492Y-154128595D01*
X114191404Y-153961507D01*
X113997824Y-153825961D01*
X113783666Y-153726098D01*
X113783663Y-153726097D01*
X113555408Y-153664937D01*
X113555406Y-153664936D01*
X113555403Y-153664936D01*
X113320000Y-153644341D01*
X113084596Y-153664936D01*
X112856337Y-153726097D01*
X112856333Y-153726098D01*
X112642176Y-153825961D01*
X112448595Y-153961507D01*
X112281507Y-154128595D01*
X112145961Y-154322176D01*
X112118154Y-154381810D01*
X112081781Y-154418183D01*
X112030537Y-154422667D01*
X111988400Y-154393162D01*
X111981846Y-154381810D01*
X111954038Y-154322176D01*
X111954035Y-154322173D01*
X111954035Y-154322171D01*
X111818495Y-154128599D01*
X111818494Y-154128598D01*
X111818492Y-154128595D01*
X111651404Y-153961507D01*
X111457824Y-153825961D01*
X111243666Y-153726098D01*
X111243663Y-153726097D01*
X111015408Y-153664937D01*
X111015406Y-153664936D01*
X111015403Y-153664936D01*
X110780000Y-153644341D01*
X110544596Y-153664936D01*
X110316337Y-153726097D01*
X110316333Y-153726098D01*
X110102176Y-153825961D01*
X109908595Y-153961507D01*
X109741507Y-154128595D01*
X109605961Y-154322176D01*
X109578154Y-154381810D01*
X109541781Y-154418183D01*
X109490537Y-154422667D01*
X109448400Y-154393162D01*
X109441846Y-154381810D01*
X109414038Y-154322176D01*
X109414035Y-154322173D01*
X109414035Y-154322171D01*
X109278495Y-154128599D01*
X109278494Y-154128598D01*
X109278492Y-154128595D01*
X109111404Y-153961507D01*
X108917824Y-153825961D01*
X108703666Y-153726098D01*
X108703663Y-153726097D01*
X108475408Y-153664937D01*
X108475406Y-153664936D01*
X108475403Y-153664936D01*
X108240000Y-153644341D01*
X108004596Y-153664936D01*
X107776337Y-153726097D01*
X107776333Y-153726098D01*
X107562176Y-153825961D01*
X107368595Y-153961507D01*
X107201507Y-154128595D01*
X107065961Y-154322176D01*
X107038154Y-154381810D01*
X107001781Y-154418183D01*
X106950537Y-154422667D01*
X106908400Y-154393162D01*
X106901846Y-154381810D01*
X106874038Y-154322176D01*
X106874035Y-154322173D01*
X106874035Y-154322171D01*
X106738495Y-154128599D01*
X106738494Y-154128598D01*
X106738492Y-154128595D01*
X106571404Y-153961507D01*
X106377824Y-153825961D01*
X106163666Y-153726098D01*
X106163663Y-153726097D01*
X105935408Y-153664937D01*
X105935406Y-153664936D01*
X105935403Y-153664936D01*
X105700000Y-153644341D01*
X105464596Y-153664936D01*
X105236337Y-153726097D01*
X105236333Y-153726098D01*
X105022176Y-153825961D01*
X104828595Y-153961507D01*
X104661507Y-154128595D01*
X104525961Y-154322176D01*
X104498154Y-154381810D01*
X104461781Y-154418183D01*
X104410537Y-154422667D01*
X104368400Y-154393162D01*
X104361846Y-154381810D01*
X104334038Y-154322176D01*
X104334035Y-154322173D01*
X104334035Y-154322171D01*
X104198495Y-154128599D01*
X104198494Y-154128598D01*
X104198492Y-154128595D01*
X104031404Y-153961507D01*
X103837824Y-153825961D01*
X103623666Y-153726098D01*
X103623663Y-153726097D01*
X103395408Y-153664937D01*
X103395406Y-153664936D01*
X103395403Y-153664936D01*
X103160000Y-153644341D01*
X102924596Y-153664936D01*
X102696337Y-153726097D01*
X102696333Y-153726098D01*
X102482176Y-153825961D01*
X102288595Y-153961507D01*
X102121507Y-154128595D01*
X101985961Y-154322176D01*
X101958154Y-154381810D01*
X101921781Y-154418183D01*
X101870537Y-154422667D01*
X101828400Y-154393162D01*
X101821846Y-154381810D01*
X101794038Y-154322176D01*
X101794035Y-154322173D01*
X101794035Y-154322171D01*
X101658495Y-154128599D01*
X101658494Y-154128598D01*
X101658492Y-154128595D01*
X101491404Y-153961507D01*
X101297824Y-153825961D01*
X101083666Y-153726098D01*
X101083663Y-153726097D01*
X100855408Y-153664937D01*
X100855406Y-153664936D01*
X100855403Y-153664936D01*
X100620000Y-153644341D01*
X100384596Y-153664936D01*
X100156337Y-153726097D01*
X100156333Y-153726098D01*
X99942176Y-153825961D01*
X99748595Y-153961507D01*
X99581507Y-154128595D01*
X99445961Y-154322176D01*
X99346098Y-154536333D01*
X99346097Y-154536337D01*
X99284936Y-154764596D01*
X99264341Y-155000000D01*
X49387976Y-155000000D01*
X49524214Y-154645087D01*
X49624602Y-154270433D01*
X49685278Y-153887338D01*
X49705578Y-153500000D01*
X49685278Y-153112662D01*
X49624602Y-152729567D01*
X49524214Y-152354913D01*
X49485388Y-152253767D01*
X49385219Y-151992817D01*
X49385217Y-151992812D01*
X49209125Y-151647211D01*
X49017925Y-151352789D01*
X48997876Y-151321916D01*
X48997874Y-151321913D01*
X48997869Y-151321906D01*
X48753784Y-151020488D01*
X48753781Y-151020484D01*
X48753775Y-151020478D01*
X48753767Y-151020469D01*
X48479530Y-150746232D01*
X48479520Y-150746223D01*
X48479516Y-150746219D01*
X48468481Y-150737283D01*
X48178093Y-150502130D01*
X48178084Y-150502124D01*
X47852788Y-150290874D01*
X47507187Y-150114782D01*
X47507182Y-150114780D01*
X47145094Y-149975788D01*
X47092151Y-149961602D01*
X46770433Y-149875398D01*
X46770427Y-149875397D01*
X46770425Y-149875396D01*
X46387337Y-149814721D01*
X46000000Y-149794422D01*
X45612662Y-149814721D01*
X45229574Y-149875396D01*
X45229572Y-149875397D01*
X45229570Y-149875397D01*
X45229567Y-149875398D01*
X44966211Y-149945963D01*
X44854905Y-149975788D01*
X44492817Y-150114780D01*
X44492812Y-150114782D01*
X44147211Y-150290874D01*
X43821915Y-150502124D01*
X43821906Y-150502130D01*
X43520488Y-150746215D01*
X43520469Y-150746232D01*
X43246232Y-151020469D01*
X43246215Y-151020488D01*
X43002130Y-151321906D01*
X43002124Y-151321915D01*
X42790874Y-151647211D01*
X42614782Y-151992812D01*
X42614780Y-151992817D01*
X42475788Y-152354905D01*
X42475786Y-152354913D01*
X42380876Y-152709125D01*
X42375397Y-152729572D01*
X42375396Y-152729574D01*
X42314721Y-153112662D01*
X42294422Y-153500000D01*
X40505517Y-153500000D01*
X40507231Y-149000000D01*
X64744723Y-149000000D01*
X64763792Y-149217972D01*
X64763792Y-149217975D01*
X64763793Y-149217977D01*
X64773788Y-149255277D01*
X64820425Y-149429329D01*
X64820426Y-149429333D01*
X64912894Y-149627633D01*
X65038397Y-149806871D01*
X65038408Y-149806884D01*
X65193115Y-149961591D01*
X65193128Y-149961602D01*
X65213388Y-149975788D01*
X65372361Y-150087102D01*
X65372363Y-150087102D01*
X65372366Y-150087105D01*
X65537394Y-150164058D01*
X65570670Y-150179575D01*
X65782023Y-150236207D01*
X66000000Y-150255277D01*
X66217977Y-150236207D01*
X66429330Y-150179575D01*
X66627639Y-150087102D01*
X66806877Y-149961598D01*
X66961598Y-149806877D01*
X67087102Y-149627639D01*
X67146621Y-149500000D01*
X116294422Y-149500000D01*
X116314721Y-149887337D01*
X116375396Y-150270425D01*
X116375397Y-150270427D01*
X116375398Y-150270433D01*
X116437481Y-150502130D01*
X116475788Y-150645094D01*
X116614780Y-151007182D01*
X116614782Y-151007187D01*
X116790874Y-151352788D01*
X117002124Y-151678084D01*
X117002130Y-151678093D01*
X117246215Y-151979511D01*
X117246232Y-151979530D01*
X117520469Y-152253767D01*
X117520478Y-152253775D01*
X117520484Y-152253781D01*
X117520488Y-152253784D01*
X117821906Y-152497869D01*
X117821913Y-152497874D01*
X117821916Y-152497876D01*
X118147211Y-152709125D01*
X118492812Y-152885217D01*
X118492817Y-152885219D01*
X118854905Y-153024211D01*
X118854913Y-153024214D01*
X119229567Y-153124602D01*
X119612662Y-153185278D01*
X120000000Y-153205578D01*
X120387338Y-153185278D01*
X120770433Y-153124602D01*
X121145087Y-153024214D01*
X121305466Y-152962650D01*
X121507182Y-152885219D01*
X121507187Y-152885217D01*
X121507189Y-152885215D01*
X121507194Y-152885214D01*
X121852789Y-152709125D01*
X122178084Y-152497876D01*
X122479516Y-152253781D01*
X122753781Y-151979516D01*
X122997876Y-151678084D01*
X123209125Y-151352789D01*
X123385214Y-151007194D01*
X123524214Y-150645087D01*
X123624602Y-150270433D01*
X123685278Y-149887338D01*
X123705578Y-149500000D01*
X123685278Y-149112662D01*
X123624602Y-148729567D01*
X123524214Y-148354913D01*
X123471649Y-148217977D01*
X123385219Y-147992817D01*
X123385217Y-147992812D01*
X123209125Y-147647211D01*
X122997875Y-147321915D01*
X122997869Y-147321906D01*
X122797442Y-147074400D01*
X122753781Y-147020484D01*
X122753775Y-147020478D01*
X122753767Y-147020469D01*
X122479530Y-146746232D01*
X122479520Y-146746223D01*
X122479516Y-146746219D01*
X122468481Y-146737283D01*
X122178093Y-146502130D01*
X122178084Y-146502124D01*
X121852788Y-146290874D01*
X121507187Y-146114782D01*
X121507182Y-146114780D01*
X121145094Y-145975788D01*
X121145087Y-145975786D01*
X120770433Y-145875398D01*
X120770427Y-145875397D01*
X120770425Y-145875396D01*
X120387337Y-145814721D01*
X120000000Y-145794422D01*
X119612662Y-145814721D01*
X119229574Y-145875396D01*
X119229572Y-145875397D01*
X119229570Y-145875397D01*
X119229567Y-145875398D01*
X118966211Y-145945963D01*
X118854905Y-145975788D01*
X118492817Y-146114780D01*
X118492812Y-146114782D01*
X118147211Y-146290874D01*
X117821915Y-146502124D01*
X117821906Y-146502130D01*
X117520488Y-146746215D01*
X117520469Y-146746232D01*
X117246232Y-147020469D01*
X117246215Y-147020488D01*
X117002130Y-147321906D01*
X117002124Y-147321915D01*
X116790874Y-147647211D01*
X116614782Y-147992812D01*
X116614780Y-147992817D01*
X116475788Y-148354905D01*
X116471109Y-148372367D01*
X116402710Y-148627639D01*
X116375397Y-148729572D01*
X116375396Y-148729574D01*
X116314721Y-149112662D01*
X116294422Y-149500000D01*
X67146621Y-149500000D01*
X67179575Y-149429330D01*
X67236207Y-149217977D01*
X67255277Y-149000000D01*
X67236207Y-148782023D01*
X67179575Y-148570670D01*
X67164059Y-148537396D01*
X67087105Y-148372367D01*
X67087102Y-148372364D01*
X67087102Y-148372362D01*
X66961598Y-148193123D01*
X66961597Y-148193122D01*
X66961595Y-148193119D01*
X66806884Y-148038408D01*
X66806871Y-148038397D01*
X66752034Y-148000000D01*
X106744723Y-148000000D01*
X106763792Y-148217972D01*
X106763792Y-148217975D01*
X106763793Y-148217977D01*
X106805162Y-148372367D01*
X106820425Y-148429329D01*
X106820426Y-148429333D01*
X106912894Y-148627633D01*
X107038397Y-148806871D01*
X107038408Y-148806884D01*
X107193115Y-148961591D01*
X107193128Y-148961602D01*
X107282560Y-149024222D01*
X107372361Y-149087102D01*
X107372363Y-149087102D01*
X107372366Y-149087105D01*
X107537394Y-149164058D01*
X107570670Y-149179575D01*
X107782023Y-149236207D01*
X108000000Y-149255277D01*
X108217977Y-149236207D01*
X108429330Y-149179575D01*
X108627639Y-149087102D01*
X108806877Y-148961598D01*
X108961598Y-148806877D01*
X109087102Y-148627639D01*
X109179575Y-148429330D01*
X109236207Y-148217977D01*
X109255277Y-148000000D01*
X109236207Y-147782023D01*
X109179575Y-147570670D01*
X109164059Y-147537396D01*
X109087105Y-147372367D01*
X109087102Y-147372364D01*
X109087102Y-147372362D01*
X108961598Y-147193123D01*
X108961597Y-147193122D01*
X108961595Y-147193119D01*
X108806884Y-147038408D01*
X108806871Y-147038397D01*
X108627633Y-146912894D01*
X108429333Y-146820426D01*
X108429331Y-146820425D01*
X108429330Y-146820425D01*
X108217977Y-146763793D01*
X108217975Y-146763792D01*
X108217972Y-146763792D01*
X108000000Y-146744723D01*
X107782027Y-146763792D01*
X107570670Y-146820425D01*
X107570666Y-146820426D01*
X107372367Y-146912894D01*
X107193119Y-147038404D01*
X107038404Y-147193119D01*
X106912894Y-147372367D01*
X106820426Y-147570666D01*
X106820425Y-147570670D01*
X106763792Y-147782027D01*
X106744723Y-148000000D01*
X66752034Y-148000000D01*
X66627633Y-147912894D01*
X66429333Y-147820426D01*
X66429331Y-147820425D01*
X66429330Y-147820425D01*
X66217977Y-147763793D01*
X66217975Y-147763792D01*
X66217972Y-147763792D01*
X66000000Y-147744723D01*
X65782027Y-147763792D01*
X65570670Y-147820425D01*
X65570666Y-147820426D01*
X65372367Y-147912894D01*
X65193119Y-148038404D01*
X65038404Y-148193119D01*
X64912894Y-148372367D01*
X64820426Y-148570666D01*
X64820425Y-148570670D01*
X64763792Y-148782027D01*
X64744723Y-149000000D01*
X40507231Y-149000000D01*
X40512146Y-136099991D01*
X48424500Y-136099991D01*
X48424500Y-136099996D01*
X48424500Y-136099997D01*
X48424500Y-137400003D01*
X48435001Y-137502798D01*
X48490186Y-137669334D01*
X48582286Y-137818654D01*
X48582291Y-137818660D01*
X48706339Y-137942708D01*
X48706345Y-137942713D01*
X48781005Y-137988763D01*
X48855666Y-138034814D01*
X49022203Y-138089999D01*
X49124991Y-138100500D01*
X49652276Y-138100499D01*
X49700613Y-138118092D01*
X49726333Y-138162641D01*
X49717400Y-138213299D01*
X49677995Y-138246364D01*
X49666946Y-138249454D01*
X49482614Y-138286121D01*
X49482611Y-138286122D01*
X49300187Y-138361684D01*
X49136001Y-138471389D01*
X48996389Y-138611001D01*
X48886684Y-138775187D01*
X48811121Y-138957613D01*
X48802690Y-138999999D01*
X48802690Y-139000000D01*
X49495854Y-139000000D01*
X49457370Y-139066657D01*
X49425000Y-139187465D01*
X49425000Y-139312535D01*
X49457370Y-139433343D01*
X49495854Y-139500000D01*
X48802690Y-139500000D01*
X48811121Y-139542386D01*
X48886684Y-139724812D01*
X48996389Y-139888998D01*
X49136001Y-140028610D01*
X49300187Y-140138315D01*
X49482611Y-140213877D01*
X49482614Y-140213878D01*
X49671609Y-140251472D01*
X49715585Y-140278158D01*
X49732120Y-140326868D01*
X49713476Y-140374810D01*
X49668702Y-140399501D01*
X49458764Y-140432752D01*
X49458752Y-140432755D01*
X49256598Y-140498439D01*
X49256590Y-140498442D01*
X49256588Y-140498443D01*
X49256584Y-140498444D01*
X49256584Y-140498445D01*
X49067179Y-140594951D01*
X48895215Y-140719889D01*
X48895202Y-140719900D01*
X48744900Y-140870202D01*
X48744889Y-140870215D01*
X48619951Y-141042179D01*
X48523445Y-141231584D01*
X48523439Y-141231598D01*
X48457755Y-141433752D01*
X48457752Y-141433764D01*
X48424500Y-141643710D01*
X48424500Y-141856289D01*
X48457752Y-142066235D01*
X48457754Y-142066243D01*
X48523443Y-142268412D01*
X48523445Y-142268415D01*
X48619951Y-142457820D01*
X48744889Y-142629784D01*
X48744900Y-142629797D01*
X48895202Y-142780099D01*
X48895215Y-142780110D01*
X49067181Y-142905049D01*
X49067184Y-142905051D01*
X49091739Y-142917562D01*
X49122030Y-142932997D01*
X49157111Y-142970617D01*
X49159803Y-143021987D01*
X49128845Y-143063068D01*
X49122030Y-143067003D01*
X49067181Y-143094950D01*
X48895215Y-143219889D01*
X48895202Y-143219900D01*
X48744900Y-143370202D01*
X48744889Y-143370215D01*
X48619951Y-143542179D01*
X48523445Y-143731584D01*
X48523439Y-143731598D01*
X48457755Y-143933752D01*
X48457752Y-143933764D01*
X48424500Y-144143710D01*
X48424500Y-144356289D01*
X48457752Y-144566235D01*
X48457754Y-144566243D01*
X48523443Y-144768412D01*
X48523445Y-144768415D01*
X48619951Y-144957820D01*
X48744889Y-145129784D01*
X48744900Y-145129797D01*
X48895202Y-145280099D01*
X48895215Y-145280110D01*
X49067179Y-145405048D01*
X49067181Y-145405049D01*
X49067184Y-145405051D01*
X49256588Y-145501557D01*
X49458757Y-145567246D01*
X49668713Y-145600500D01*
X49668717Y-145600500D01*
X50131283Y-145600500D01*
X50131287Y-145600500D01*
X50341243Y-145567246D01*
X50543412Y-145501557D01*
X50732816Y-145405051D01*
X50904792Y-145280104D01*
X51055104Y-145129792D01*
X51180051Y-144957816D01*
X51276557Y-144768412D01*
X51342246Y-144566243D01*
X51375500Y-144356287D01*
X51375500Y-144143713D01*
X51342246Y-143933757D01*
X51276557Y-143731588D01*
X51180051Y-143542184D01*
X51180049Y-143542181D01*
X51180048Y-143542179D01*
X51055110Y-143370215D01*
X51055099Y-143370202D01*
X50904797Y-143219900D01*
X50904784Y-143219889D01*
X50732829Y-143094957D01*
X50732821Y-143094952D01*
X50732816Y-143094949D01*
X50677967Y-143067002D01*
X50642887Y-143029383D01*
X50640195Y-142978014D01*
X50671152Y-142936932D01*
X50677957Y-142933002D01*
X50732816Y-142905051D01*
X50732826Y-142905043D01*
X50732829Y-142905042D01*
X50904784Y-142780110D01*
X50904785Y-142780108D01*
X50904792Y-142780104D01*
X51055104Y-142629792D01*
X51180051Y-142457816D01*
X51276557Y-142268412D01*
X51342246Y-142066243D01*
X51375500Y-141856287D01*
X51375500Y-141643713D01*
X51342246Y-141433757D01*
X51276557Y-141231588D01*
X51180051Y-141042184D01*
X51180049Y-141042181D01*
X51180048Y-141042179D01*
X51055110Y-140870215D01*
X51055099Y-140870202D01*
X50904797Y-140719900D01*
X50904784Y-140719889D01*
X50732820Y-140594951D01*
X50718657Y-140587735D01*
X50543412Y-140498443D01*
X50543405Y-140498440D01*
X50543401Y-140498439D01*
X50341247Y-140432755D01*
X50341235Y-140432752D01*
X50131297Y-140399501D01*
X50086307Y-140374562D01*
X50067872Y-140326539D01*
X50084620Y-140277902D01*
X50128390Y-140251472D01*
X50317386Y-140213878D01*
X50317388Y-140213877D01*
X50499812Y-140138315D01*
X50663998Y-140028610D01*
X50803610Y-139888998D01*
X50913315Y-139724812D01*
X50988878Y-139542386D01*
X50997309Y-139500000D01*
X50304146Y-139500000D01*
X50342630Y-139433343D01*
X50375000Y-139312535D01*
X50375000Y-139187465D01*
X50342630Y-139066657D01*
X50304146Y-139000000D01*
X50997310Y-139000000D01*
X50997309Y-138999999D01*
X50988878Y-138957613D01*
X50913315Y-138775187D01*
X50803610Y-138611001D01*
X50663998Y-138471389D01*
X50499812Y-138361684D01*
X50317388Y-138286122D01*
X50317385Y-138286121D01*
X50133051Y-138249454D01*
X50089074Y-138222768D01*
X50072540Y-138174058D01*
X50091184Y-138126116D01*
X50136283Y-138101374D01*
X50147717Y-138100499D01*
X50675008Y-138100499D01*
X50777797Y-138089999D01*
X50944334Y-138034814D01*
X51093656Y-137942712D01*
X51217712Y-137818656D01*
X51309814Y-137669334D01*
X51364999Y-137502797D01*
X51375500Y-137400009D01*
X51375499Y-136099992D01*
X51364999Y-135997203D01*
X51309814Y-135830666D01*
X51246171Y-135727483D01*
X51217713Y-135681345D01*
X51217708Y-135681339D01*
X51093660Y-135557291D01*
X51093654Y-135557286D01*
X50944334Y-135465186D01*
X50777798Y-135410001D01*
X50764948Y-135408688D01*
X50675009Y-135399500D01*
X50675002Y-135399500D01*
X49124996Y-135399500D01*
X49022201Y-135410001D01*
X48855665Y-135465186D01*
X48706345Y-135557286D01*
X48706339Y-135557291D01*
X48582291Y-135681339D01*
X48582286Y-135681345D01*
X48490186Y-135830665D01*
X48435001Y-135997201D01*
X48435001Y-135997203D01*
X48424500Y-136099991D01*
X40512146Y-136099991D01*
X40513137Y-133500000D01*
X63744723Y-133500000D01*
X63763792Y-133717972D01*
X63763792Y-133717975D01*
X63763793Y-133717977D01*
X63812189Y-133898592D01*
X63820425Y-133929329D01*
X63820426Y-133929333D01*
X63912894Y-134127633D01*
X64038397Y-134306871D01*
X64038408Y-134306884D01*
X64193115Y-134461591D01*
X64193128Y-134461602D01*
X64282560Y-134524222D01*
X64372361Y-134587102D01*
X64372363Y-134587102D01*
X64372366Y-134587105D01*
X64537394Y-134664058D01*
X64570670Y-134679575D01*
X64782023Y-134736207D01*
X65000000Y-134755277D01*
X65217977Y-134736207D01*
X65429330Y-134679575D01*
X65627639Y-134587102D01*
X65806877Y-134461598D01*
X65961598Y-134306877D01*
X66087102Y-134127639D01*
X66088176Y-134125337D01*
X66172777Y-133943908D01*
X66179575Y-133929330D01*
X66194903Y-133872125D01*
X71509500Y-133872125D01*
X71509500Y-135667862D01*
X71509501Y-135667877D01*
X71510949Y-135681344D01*
X71515909Y-135727483D01*
X71566204Y-135862331D01*
X71652454Y-135977546D01*
X71767669Y-136063796D01*
X71902517Y-136114091D01*
X71962127Y-136120500D01*
X73757872Y-136120499D01*
X73817483Y-136114091D01*
X73952331Y-136063796D01*
X74067546Y-135977546D01*
X74153796Y-135862331D01*
X74204091Y-135727483D01*
X74210500Y-135667873D01*
X74210499Y-135664256D01*
X74228084Y-135615919D01*
X74272628Y-135590191D01*
X74323287Y-135599114D01*
X74347297Y-135621110D01*
X74361505Y-135641401D01*
X74361507Y-135641403D01*
X74361510Y-135641407D01*
X74528595Y-135808492D01*
X74528598Y-135808494D01*
X74528599Y-135808495D01*
X74722170Y-135944035D01*
X74722172Y-135944035D01*
X74722175Y-135944038D01*
X74900401Y-136027145D01*
X74936337Y-136043903D01*
X75164592Y-136105063D01*
X75400000Y-136125659D01*
X75635408Y-136105063D01*
X75863663Y-136043903D01*
X76077830Y-135944035D01*
X76271401Y-135808495D01*
X76438495Y-135641401D01*
X76574035Y-135447830D01*
X76591675Y-135410001D01*
X76601846Y-135388190D01*
X76638219Y-135351817D01*
X76689463Y-135347333D01*
X76731600Y-135376838D01*
X76738154Y-135388190D01*
X76765961Y-135447824D01*
X76765964Y-135447829D01*
X76765965Y-135447830D01*
X76856325Y-135576877D01*
X76901507Y-135641404D01*
X77068595Y-135808492D01*
X77068598Y-135808494D01*
X77068599Y-135808495D01*
X77262170Y-135944035D01*
X77262172Y-135944035D01*
X77262175Y-135944038D01*
X77440401Y-136027145D01*
X77476337Y-136043903D01*
X77704592Y-136105063D01*
X77940000Y-136125659D01*
X78175408Y-136105063D01*
X78403663Y-136043903D01*
X78617830Y-135944035D01*
X78811401Y-135808495D01*
X78978495Y-135641401D01*
X79114035Y-135447830D01*
X79131675Y-135410001D01*
X79141846Y-135388190D01*
X79178219Y-135351817D01*
X79229463Y-135347333D01*
X79271600Y-135376838D01*
X79278154Y-135388190D01*
X79305961Y-135447824D01*
X79305964Y-135447829D01*
X79305965Y-135447830D01*
X79396325Y-135576877D01*
X79441507Y-135641404D01*
X79608595Y-135808492D01*
X79608598Y-135808494D01*
X79608599Y-135808495D01*
X79802170Y-135944035D01*
X79802172Y-135944035D01*
X79802175Y-135944038D01*
X79980401Y-136027145D01*
X80016337Y-136043903D01*
X80244592Y-136105063D01*
X80480000Y-136125659D01*
X80715408Y-136105063D01*
X80943663Y-136043903D01*
X81157830Y-135944035D01*
X81351401Y-135808495D01*
X81518495Y-135641401D01*
X81654035Y-135447830D01*
X81671675Y-135410001D01*
X81681846Y-135388190D01*
X81718219Y-135351817D01*
X81769463Y-135347333D01*
X81811600Y-135376838D01*
X81818154Y-135388190D01*
X81845961Y-135447824D01*
X81845964Y-135447829D01*
X81845965Y-135447830D01*
X81936325Y-135576877D01*
X81981507Y-135641404D01*
X82148595Y-135808492D01*
X82148598Y-135808494D01*
X82148599Y-135808495D01*
X82342170Y-135944035D01*
X82342172Y-135944035D01*
X82342175Y-135944038D01*
X82520401Y-136027145D01*
X82556337Y-136043903D01*
X82784592Y-136105063D01*
X83020000Y-136125659D01*
X83255408Y-136105063D01*
X83483663Y-136043903D01*
X83697830Y-135944035D01*
X83891401Y-135808495D01*
X84058495Y-135641401D01*
X84194035Y-135447830D01*
X84211675Y-135410001D01*
X84221846Y-135388190D01*
X84258219Y-135351817D01*
X84309463Y-135347333D01*
X84351600Y-135376838D01*
X84358154Y-135388190D01*
X84385961Y-135447824D01*
X84385964Y-135447829D01*
X84385965Y-135447830D01*
X84476325Y-135576877D01*
X84521507Y-135641404D01*
X84688595Y-135808492D01*
X84688598Y-135808494D01*
X84688599Y-135808495D01*
X84882170Y-135944035D01*
X84882172Y-135944035D01*
X84882175Y-135944038D01*
X85060401Y-136027145D01*
X85096337Y-136043903D01*
X85324592Y-136105063D01*
X85560000Y-136125659D01*
X85795408Y-136105063D01*
X86023663Y-136043903D01*
X86237830Y-135944035D01*
X86431401Y-135808495D01*
X86598495Y-135641401D01*
X86734035Y-135447830D01*
X86751675Y-135410001D01*
X86761846Y-135388190D01*
X86798219Y-135351817D01*
X86849463Y-135347333D01*
X86891600Y-135376838D01*
X86898154Y-135388190D01*
X86925961Y-135447824D01*
X86925964Y-135447829D01*
X86925965Y-135447830D01*
X87016325Y-135576877D01*
X87061507Y-135641404D01*
X87228595Y-135808492D01*
X87228598Y-135808494D01*
X87228599Y-135808495D01*
X87422170Y-135944035D01*
X87422172Y-135944035D01*
X87422175Y-135944038D01*
X87600401Y-136027145D01*
X87636337Y-136043903D01*
X87864592Y-136105063D01*
X88100000Y-136125659D01*
X88335408Y-136105063D01*
X88563663Y-136043903D01*
X88777830Y-135944035D01*
X88971401Y-135808495D01*
X89138495Y-135641401D01*
X89274035Y-135447830D01*
X89291675Y-135410001D01*
X89301846Y-135388190D01*
X89338219Y-135351817D01*
X89389463Y-135347333D01*
X89431600Y-135376838D01*
X89438154Y-135388190D01*
X89465961Y-135447824D01*
X89465964Y-135447829D01*
X89465965Y-135447830D01*
X89556325Y-135576877D01*
X89601507Y-135641404D01*
X89768595Y-135808492D01*
X89768598Y-135808494D01*
X89768599Y-135808495D01*
X89962170Y-135944035D01*
X89962172Y-135944035D01*
X89962175Y-135944038D01*
X90140401Y-136027145D01*
X90176337Y-136043903D01*
X90404592Y-136105063D01*
X90640000Y-136125659D01*
X90875408Y-136105063D01*
X91103663Y-136043903D01*
X91317830Y-135944035D01*
X91511401Y-135808495D01*
X91678495Y-135641401D01*
X91814035Y-135447830D01*
X91831675Y-135410001D01*
X91841846Y-135388190D01*
X91878219Y-135351817D01*
X91929463Y-135347333D01*
X91971600Y-135376838D01*
X91978154Y-135388190D01*
X92005961Y-135447824D01*
X92005964Y-135447829D01*
X92005965Y-135447830D01*
X92096325Y-135576877D01*
X92141507Y-135641404D01*
X92308595Y-135808492D01*
X92308598Y-135808494D01*
X92308599Y-135808495D01*
X92502170Y-135944035D01*
X92502172Y-135944035D01*
X92502175Y-135944038D01*
X92680401Y-136027145D01*
X92716337Y-136043903D01*
X92944592Y-136105063D01*
X93180000Y-136125659D01*
X93415408Y-136105063D01*
X93643663Y-136043903D01*
X93857830Y-135944035D01*
X94051401Y-135808495D01*
X94218495Y-135641401D01*
X94354035Y-135447830D01*
X94371675Y-135410001D01*
X94381846Y-135388190D01*
X94418219Y-135351817D01*
X94469463Y-135347333D01*
X94511600Y-135376838D01*
X94518154Y-135388190D01*
X94545961Y-135447824D01*
X94545964Y-135447829D01*
X94545965Y-135447830D01*
X94636325Y-135576877D01*
X94681507Y-135641404D01*
X94848595Y-135808492D01*
X94848598Y-135808494D01*
X94848599Y-135808495D01*
X95042170Y-135944035D01*
X95042172Y-135944035D01*
X95042175Y-135944038D01*
X95220401Y-136027145D01*
X95256337Y-136043903D01*
X95484592Y-136105063D01*
X95720000Y-136125659D01*
X95955408Y-136105063D01*
X96183663Y-136043903D01*
X96397830Y-135944035D01*
X96591401Y-135808495D01*
X96758495Y-135641401D01*
X96894035Y-135447830D01*
X96911675Y-135410001D01*
X96921846Y-135388190D01*
X96958219Y-135351817D01*
X97009463Y-135347333D01*
X97051600Y-135376838D01*
X97058154Y-135388190D01*
X97085961Y-135447824D01*
X97085964Y-135447829D01*
X97085965Y-135447830D01*
X97176325Y-135576877D01*
X97221507Y-135641404D01*
X97388595Y-135808492D01*
X97388598Y-135808494D01*
X97388599Y-135808495D01*
X97582170Y-135944035D01*
X97582172Y-135944035D01*
X97582175Y-135944038D01*
X97760401Y-136027145D01*
X97796337Y-136043903D01*
X98024592Y-136105063D01*
X98260000Y-136125659D01*
X98495408Y-136105063D01*
X98723663Y-136043903D01*
X98937830Y-135944035D01*
X99131401Y-135808495D01*
X99298495Y-135641401D01*
X99434035Y-135447830D01*
X99451675Y-135410001D01*
X99461846Y-135388190D01*
X99498219Y-135351817D01*
X99549463Y-135347333D01*
X99591600Y-135376838D01*
X99598154Y-135388190D01*
X99625961Y-135447824D01*
X99625964Y-135447829D01*
X99625965Y-135447830D01*
X99716325Y-135576877D01*
X99761507Y-135641404D01*
X99928595Y-135808492D01*
X99928598Y-135808494D01*
X99928599Y-135808495D01*
X100122170Y-135944035D01*
X100122172Y-135944035D01*
X100122175Y-135944038D01*
X100300401Y-136027145D01*
X100336337Y-136043903D01*
X100564592Y-136105063D01*
X100800000Y-136125659D01*
X101035408Y-136105063D01*
X101263663Y-136043903D01*
X101477830Y-135944035D01*
X101671401Y-135808495D01*
X101838495Y-135641401D01*
X101974035Y-135447830D01*
X102073903Y-135233663D01*
X102135063Y-135005408D01*
X102155659Y-134770000D01*
X102135063Y-134534592D01*
X102073903Y-134306337D01*
X102057146Y-134270403D01*
X101974038Y-134092176D01*
X101974035Y-134092173D01*
X101974035Y-134092171D01*
X101838495Y-133898599D01*
X101838494Y-133898598D01*
X101838492Y-133898595D01*
X101671404Y-133731507D01*
X101477824Y-133595961D01*
X101263666Y-133496098D01*
X101263663Y-133496097D01*
X101035408Y-133434937D01*
X101035406Y-133434936D01*
X101035403Y-133434936D01*
X100800000Y-133414341D01*
X100564596Y-133434936D01*
X100336337Y-133496097D01*
X100336333Y-133496098D01*
X100122176Y-133595961D01*
X99928595Y-133731507D01*
X99761507Y-133898595D01*
X99625961Y-134092176D01*
X99598154Y-134151810D01*
X99561781Y-134188183D01*
X99510537Y-134192667D01*
X99468400Y-134163162D01*
X99461846Y-134151810D01*
X99434038Y-134092176D01*
X99434035Y-134092173D01*
X99434035Y-134092171D01*
X99298495Y-133898599D01*
X99298494Y-133898598D01*
X99298492Y-133898595D01*
X99131404Y-133731507D01*
X98937824Y-133595961D01*
X98723666Y-133496098D01*
X98723663Y-133496097D01*
X98495408Y-133434937D01*
X98495406Y-133434936D01*
X98495403Y-133434936D01*
X98260000Y-133414341D01*
X98024596Y-133434936D01*
X97796337Y-133496097D01*
X97796333Y-133496098D01*
X97582176Y-133595961D01*
X97388595Y-133731507D01*
X97221507Y-133898595D01*
X97085961Y-134092176D01*
X97058154Y-134151810D01*
X97021781Y-134188183D01*
X96970537Y-134192667D01*
X96928400Y-134163162D01*
X96921846Y-134151810D01*
X96894038Y-134092176D01*
X96894035Y-134092173D01*
X96894035Y-134092171D01*
X96758495Y-133898599D01*
X96758494Y-133898598D01*
X96758492Y-133898595D01*
X96591404Y-133731507D01*
X96397824Y-133595961D01*
X96183666Y-133496098D01*
X96183663Y-133496097D01*
X95955408Y-133434937D01*
X95955406Y-133434936D01*
X95955403Y-133434936D01*
X95720000Y-133414341D01*
X95484596Y-133434936D01*
X95256337Y-133496097D01*
X95256333Y-133496098D01*
X95042176Y-133595961D01*
X94848595Y-133731507D01*
X94681507Y-133898595D01*
X94545961Y-134092176D01*
X94518154Y-134151810D01*
X94481781Y-134188183D01*
X94430537Y-134192667D01*
X94388400Y-134163162D01*
X94381846Y-134151810D01*
X94354038Y-134092176D01*
X94354035Y-134092173D01*
X94354035Y-134092171D01*
X94218495Y-133898599D01*
X94218494Y-133898598D01*
X94218492Y-133898595D01*
X94051404Y-133731507D01*
X93857824Y-133595961D01*
X93643666Y-133496098D01*
X93643663Y-133496097D01*
X93415408Y-133434937D01*
X93415406Y-133434936D01*
X93415403Y-133434936D01*
X93180000Y-133414341D01*
X92944596Y-133434936D01*
X92716337Y-133496097D01*
X92716333Y-133496098D01*
X92502176Y-133595961D01*
X92308595Y-133731507D01*
X92141507Y-133898595D01*
X92005961Y-134092176D01*
X91978154Y-134151810D01*
X91941781Y-134188183D01*
X91890537Y-134192667D01*
X91848400Y-134163162D01*
X91841846Y-134151810D01*
X91814038Y-134092176D01*
X91814035Y-134092173D01*
X91814035Y-134092171D01*
X91678495Y-133898599D01*
X91678494Y-133898598D01*
X91678492Y-133898595D01*
X91511404Y-133731507D01*
X91317824Y-133595961D01*
X91103666Y-133496098D01*
X91103663Y-133496097D01*
X90875408Y-133434937D01*
X90875406Y-133434936D01*
X90875403Y-133434936D01*
X90640000Y-133414341D01*
X90404596Y-133434936D01*
X90176337Y-133496097D01*
X90176333Y-133496098D01*
X89962176Y-133595961D01*
X89768595Y-133731507D01*
X89601507Y-133898595D01*
X89465961Y-134092176D01*
X89438154Y-134151810D01*
X89401781Y-134188183D01*
X89350537Y-134192667D01*
X89308400Y-134163162D01*
X89301846Y-134151810D01*
X89274038Y-134092176D01*
X89274035Y-134092173D01*
X89274035Y-134092171D01*
X89138495Y-133898599D01*
X89138494Y-133898598D01*
X89138492Y-133898595D01*
X88971404Y-133731507D01*
X88777824Y-133595961D01*
X88563666Y-133496098D01*
X88563663Y-133496097D01*
X88335408Y-133434937D01*
X88335406Y-133434936D01*
X88335403Y-133434936D01*
X88100000Y-133414341D01*
X87864596Y-133434936D01*
X87636337Y-133496097D01*
X87636333Y-133496098D01*
X87422176Y-133595961D01*
X87228595Y-133731507D01*
X87061507Y-133898595D01*
X86925961Y-134092176D01*
X86898154Y-134151810D01*
X86861781Y-134188183D01*
X86810537Y-134192667D01*
X86768400Y-134163162D01*
X86761846Y-134151810D01*
X86734038Y-134092176D01*
X86734035Y-134092173D01*
X86734035Y-134092171D01*
X86598495Y-133898599D01*
X86598494Y-133898598D01*
X86598492Y-133898595D01*
X86431404Y-133731507D01*
X86237824Y-133595961D01*
X86023666Y-133496098D01*
X86023663Y-133496097D01*
X85795408Y-133434937D01*
X85795406Y-133434936D01*
X85795403Y-133434936D01*
X85560000Y-133414341D01*
X85324596Y-133434936D01*
X85096337Y-133496097D01*
X85096333Y-133496098D01*
X84882176Y-133595961D01*
X84688595Y-133731507D01*
X84521507Y-133898595D01*
X84385961Y-134092176D01*
X84358154Y-134151810D01*
X84321781Y-134188183D01*
X84270537Y-134192667D01*
X84228400Y-134163162D01*
X84221846Y-134151810D01*
X84194038Y-134092176D01*
X84194035Y-134092173D01*
X84194035Y-134092171D01*
X84058495Y-133898599D01*
X84058494Y-133898598D01*
X84058492Y-133898595D01*
X83891404Y-133731507D01*
X83697824Y-133595961D01*
X83483666Y-133496098D01*
X83483663Y-133496097D01*
X83255408Y-133434937D01*
X83255406Y-133434936D01*
X83255403Y-133434936D01*
X83020000Y-133414341D01*
X82784596Y-133434936D01*
X82556337Y-133496097D01*
X82556333Y-133496098D01*
X82342176Y-133595961D01*
X82148595Y-133731507D01*
X81981507Y-133898595D01*
X81845961Y-134092176D01*
X81818154Y-134151810D01*
X81781781Y-134188183D01*
X81730537Y-134192667D01*
X81688400Y-134163162D01*
X81681846Y-134151810D01*
X81654038Y-134092176D01*
X81654035Y-134092173D01*
X81654035Y-134092171D01*
X81518495Y-133898599D01*
X81518494Y-133898598D01*
X81518492Y-133898595D01*
X81351404Y-133731507D01*
X81157824Y-133595961D01*
X80943666Y-133496098D01*
X80943663Y-133496097D01*
X80715408Y-133434937D01*
X80715406Y-133434936D01*
X80715403Y-133434936D01*
X80480000Y-133414341D01*
X80244596Y-133434936D01*
X80016337Y-133496097D01*
X80016333Y-133496098D01*
X79802176Y-133595961D01*
X79608595Y-133731507D01*
X79441507Y-133898595D01*
X79305961Y-134092176D01*
X79278154Y-134151810D01*
X79241781Y-134188183D01*
X79190537Y-134192667D01*
X79148400Y-134163162D01*
X79141846Y-134151810D01*
X79114038Y-134092176D01*
X79114035Y-134092173D01*
X79114035Y-134092171D01*
X78978495Y-133898599D01*
X78978494Y-133898598D01*
X78978492Y-133898595D01*
X78811404Y-133731507D01*
X78617824Y-133595961D01*
X78403666Y-133496098D01*
X78403663Y-133496097D01*
X78175408Y-133434937D01*
X78175406Y-133434936D01*
X78175403Y-133434936D01*
X77940000Y-133414341D01*
X77704596Y-133434936D01*
X77476337Y-133496097D01*
X77476333Y-133496098D01*
X77262176Y-133595961D01*
X77068595Y-133731507D01*
X76901507Y-133898595D01*
X76765961Y-134092176D01*
X76738154Y-134151810D01*
X76701781Y-134188183D01*
X76650537Y-134192667D01*
X76608400Y-134163162D01*
X76601846Y-134151810D01*
X76574038Y-134092176D01*
X76574035Y-134092173D01*
X76574035Y-134092171D01*
X76438495Y-133898599D01*
X76438494Y-133898598D01*
X76438492Y-133898595D01*
X76271404Y-133731507D01*
X76077824Y-133595961D01*
X75863666Y-133496098D01*
X75863663Y-133496097D01*
X75635408Y-133434937D01*
X75635406Y-133434936D01*
X75635403Y-133434936D01*
X75400000Y-133414341D01*
X75164596Y-133434936D01*
X74936337Y-133496097D01*
X74936333Y-133496098D01*
X74722176Y-133595961D01*
X74528595Y-133731507D01*
X74361510Y-133898592D01*
X74347299Y-133918888D01*
X74305161Y-133948392D01*
X74253917Y-133943908D01*
X74217544Y-133907534D01*
X74210499Y-133875754D01*
X74210499Y-133872137D01*
X74210499Y-133872128D01*
X74204091Y-133812517D01*
X74153796Y-133677669D01*
X74067546Y-133562454D01*
X73952331Y-133476204D01*
X73817483Y-133425909D01*
X73757873Y-133419500D01*
X73757869Y-133419500D01*
X71962137Y-133419500D01*
X71962122Y-133419501D01*
X71902516Y-133425909D01*
X71822303Y-133455826D01*
X71767669Y-133476204D01*
X71767668Y-133476204D01*
X71767667Y-133476205D01*
X71767665Y-133476206D01*
X71652454Y-133562454D01*
X71566206Y-133677665D01*
X71566205Y-133677667D01*
X71515909Y-133812515D01*
X71515909Y-133812518D01*
X71509500Y-133872125D01*
X66194903Y-133872125D01*
X66236207Y-133717977D01*
X66255277Y-133500000D01*
X66236207Y-133282023D01*
X66179575Y-133070670D01*
X66164059Y-133037396D01*
X66087105Y-132872367D01*
X66087102Y-132872364D01*
X66087102Y-132872362D01*
X65961598Y-132693123D01*
X65961597Y-132693122D01*
X65961595Y-132693119D01*
X65806884Y-132538408D01*
X65806871Y-132538397D01*
X65627633Y-132412894D01*
X65429333Y-132320426D01*
X65429331Y-132320425D01*
X65429330Y-132320425D01*
X65217977Y-132263793D01*
X65217975Y-132263792D01*
X65217972Y-132263792D01*
X65000000Y-132244723D01*
X64782027Y-132263792D01*
X64570670Y-132320425D01*
X64570666Y-132320426D01*
X64372367Y-132412894D01*
X64193119Y-132538404D01*
X64038404Y-132693119D01*
X63912894Y-132872367D01*
X63820426Y-133070666D01*
X63820425Y-133070670D01*
X63763792Y-133282027D01*
X63744723Y-133500000D01*
X40513137Y-133500000D01*
X40514471Y-130000000D01*
X86744723Y-130000000D01*
X86763792Y-130217972D01*
X86820425Y-130429329D01*
X86820426Y-130429333D01*
X86912894Y-130627633D01*
X87038397Y-130806871D01*
X87038408Y-130806884D01*
X87193115Y-130961591D01*
X87193128Y-130961602D01*
X87282560Y-131024222D01*
X87372361Y-131087102D01*
X87372363Y-131087102D01*
X87372366Y-131087105D01*
X87537394Y-131164058D01*
X87570670Y-131179575D01*
X87782023Y-131236207D01*
X88000000Y-131255277D01*
X88217977Y-131236207D01*
X88429330Y-131179575D01*
X88627639Y-131087102D01*
X88806877Y-130961598D01*
X88961598Y-130806877D01*
X89087102Y-130627639D01*
X89179575Y-130429330D01*
X89236207Y-130217977D01*
X89255277Y-130000000D01*
X89236207Y-129782023D01*
X89179575Y-129570670D01*
X89164059Y-129537396D01*
X89087105Y-129372367D01*
X89087102Y-129372364D01*
X89087102Y-129372362D01*
X88961598Y-129193123D01*
X88961597Y-129193122D01*
X88961595Y-129193119D01*
X88806884Y-129038408D01*
X88806871Y-129038397D01*
X88627633Y-128912894D01*
X88429333Y-128820426D01*
X88429331Y-128820425D01*
X88429330Y-128820425D01*
X88217977Y-128763793D01*
X88217975Y-128763792D01*
X88217972Y-128763792D01*
X88000000Y-128744723D01*
X87782027Y-128763792D01*
X87570670Y-128820425D01*
X87570666Y-128820426D01*
X87372367Y-128912894D01*
X87193119Y-129038404D01*
X87038404Y-129193119D01*
X86912894Y-129372367D01*
X86820426Y-129570666D01*
X86820425Y-129570670D01*
X86763792Y-129782027D01*
X86744723Y-130000000D01*
X40514471Y-130000000D01*
X40517671Y-121599991D01*
X48324500Y-121599991D01*
X48324500Y-121599996D01*
X48324500Y-121599997D01*
X48324500Y-122900003D01*
X48335001Y-123002798D01*
X48390186Y-123169334D01*
X48482286Y-123318654D01*
X48482291Y-123318660D01*
X48606339Y-123442708D01*
X48606345Y-123442713D01*
X48755664Y-123534813D01*
X48755666Y-123534814D01*
X48818678Y-123555694D01*
X48859028Y-123587597D01*
X48869430Y-123637974D01*
X48845017Y-123683252D01*
X48839226Y-123687914D01*
X48795210Y-123719893D01*
X48795202Y-123719900D01*
X48644900Y-123870202D01*
X48644889Y-123870215D01*
X48519951Y-124042179D01*
X48423445Y-124231584D01*
X48423439Y-124231598D01*
X48357755Y-124433752D01*
X48357752Y-124433764D01*
X48324500Y-124643710D01*
X48324500Y-124856289D01*
X48357752Y-125066235D01*
X48357754Y-125066243D01*
X48423443Y-125268412D01*
X48423445Y-125268415D01*
X48519951Y-125457820D01*
X48644889Y-125629784D01*
X48644900Y-125629797D01*
X48795202Y-125780099D01*
X48795215Y-125780110D01*
X48967179Y-125905048D01*
X48967181Y-125905049D01*
X48967184Y-125905051D01*
X49156588Y-126001557D01*
X49358757Y-126067246D01*
X49568713Y-126100500D01*
X49568717Y-126100500D01*
X50031283Y-126100500D01*
X50031287Y-126100500D01*
X50241243Y-126067246D01*
X50443412Y-126001557D01*
X50632816Y-125905051D01*
X50804792Y-125780104D01*
X50955104Y-125629792D01*
X51080051Y-125457816D01*
X51176557Y-125268412D01*
X51242246Y-125066243D01*
X51275500Y-124856287D01*
X51275500Y-124643713D01*
X51242246Y-124433757D01*
X51176557Y-124231588D01*
X51080051Y-124042184D01*
X51080049Y-124042181D01*
X51080048Y-124042179D01*
X50955110Y-123870215D01*
X50955099Y-123870202D01*
X50804797Y-123719900D01*
X50804784Y-123719889D01*
X50760774Y-123687914D01*
X50732009Y-123645269D01*
X50737386Y-123594111D01*
X50774388Y-123558377D01*
X50781301Y-123555700D01*
X50844334Y-123534814D01*
X50993656Y-123442712D01*
X51117712Y-123318656D01*
X51209814Y-123169334D01*
X51264999Y-123002797D01*
X51275500Y-122900009D01*
X51275500Y-122331007D01*
X123299500Y-122331007D01*
X123299500Y-122468993D01*
X123326420Y-122604328D01*
X123379225Y-122731811D01*
X123455886Y-122846542D01*
X123455888Y-122846544D01*
X123455890Y-122846547D01*
X123553452Y-122944109D01*
X123553455Y-122944111D01*
X123553458Y-122944114D01*
X123668189Y-123020775D01*
X123795672Y-123073580D01*
X123877165Y-123089790D01*
X123931005Y-123100500D01*
X123931007Y-123100500D01*
X124068995Y-123100500D01*
X124113901Y-123091566D01*
X124204328Y-123073580D01*
X124331811Y-123020775D01*
X124446542Y-122944114D01*
X124544114Y-122846542D01*
X124620775Y-122731811D01*
X124673580Y-122604328D01*
X124700500Y-122468993D01*
X124700500Y-122331007D01*
X124673580Y-122195672D01*
X124620775Y-122068189D01*
X124544114Y-121953458D01*
X124544111Y-121953455D01*
X124544109Y-121953452D01*
X124446547Y-121855890D01*
X124446544Y-121855888D01*
X124446542Y-121855886D01*
X124331811Y-121779225D01*
X124331809Y-121779224D01*
X124204331Y-121726421D01*
X124204329Y-121726420D01*
X124068995Y-121699500D01*
X124068993Y-121699500D01*
X123931007Y-121699500D01*
X123931005Y-121699500D01*
X123795670Y-121726420D01*
X123795668Y-121726421D01*
X123668190Y-121779224D01*
X123553455Y-121855888D01*
X123553452Y-121855890D01*
X123455890Y-121953452D01*
X123455888Y-121953455D01*
X123379224Y-122068190D01*
X123326421Y-122195668D01*
X123326420Y-122195670D01*
X123326420Y-122195672D01*
X123299500Y-122331007D01*
X51275500Y-122331007D01*
X51275499Y-121599992D01*
X51264999Y-121497203D01*
X51209814Y-121330666D01*
X51117712Y-121181344D01*
X51117708Y-121181339D01*
X50993660Y-121057291D01*
X50993654Y-121057286D01*
X50844334Y-120965186D01*
X50677798Y-120910001D01*
X50664948Y-120908688D01*
X50575009Y-120899500D01*
X50575002Y-120899500D01*
X49024996Y-120899500D01*
X48922201Y-120910001D01*
X48755665Y-120965186D01*
X48606345Y-121057286D01*
X48606339Y-121057291D01*
X48482291Y-121181339D01*
X48482286Y-121181345D01*
X48390186Y-121330665D01*
X48335001Y-121497201D01*
X48335001Y-121497203D01*
X48324500Y-121599991D01*
X40517671Y-121599991D01*
X40519043Y-117999999D01*
X99274435Y-117999999D01*
X99274435Y-118000000D01*
X99294631Y-118179252D01*
X99294633Y-118179260D01*
X99350502Y-118338923D01*
X99354211Y-118349522D01*
X99428607Y-118467923D01*
X99450185Y-118502264D01*
X99577735Y-118629814D01*
X99577737Y-118629815D01*
X99577738Y-118629816D01*
X99730478Y-118725789D01*
X99900745Y-118785368D01*
X100020248Y-118798832D01*
X100079999Y-118805565D01*
X100080000Y-118805565D01*
X100080001Y-118805565D01*
X100124813Y-118800515D01*
X100259255Y-118785368D01*
X100346842Y-118754720D01*
X100371679Y-118750500D01*
X104718321Y-118750500D01*
X104743158Y-118754720D01*
X104830745Y-118785368D01*
X104950248Y-118798832D01*
X105009999Y-118805565D01*
X105010000Y-118805565D01*
X105010001Y-118805565D01*
X105054813Y-118800515D01*
X105189255Y-118785368D01*
X105359522Y-118725789D01*
X105512262Y-118629816D01*
X105639816Y-118502262D01*
X105735789Y-118349522D01*
X105795368Y-118179255D01*
X105815565Y-118000000D01*
X105795368Y-117820745D01*
X105735789Y-117650478D01*
X105639816Y-117497738D01*
X105639815Y-117497737D01*
X105639814Y-117497735D01*
X105512264Y-117370185D01*
X105477923Y-117348607D01*
X105359522Y-117274211D01*
X105348923Y-117270502D01*
X105189260Y-117214633D01*
X105189252Y-117214631D01*
X105010001Y-117194435D01*
X105009999Y-117194435D01*
X104830747Y-117214631D01*
X104830739Y-117214633D01*
X104743158Y-117245280D01*
X104718321Y-117249500D01*
X100371679Y-117249500D01*
X100346842Y-117245280D01*
X100259260Y-117214633D01*
X100259252Y-117214631D01*
X100080001Y-117194435D01*
X100079999Y-117194435D01*
X99900747Y-117214631D01*
X99900739Y-117214633D01*
X99730480Y-117274210D01*
X99577735Y-117370185D01*
X99450185Y-117497735D01*
X99354210Y-117650480D01*
X99294633Y-117820739D01*
X99294631Y-117820747D01*
X99274435Y-117999999D01*
X40519043Y-117999999D01*
X40519615Y-116499999D01*
X108194435Y-116499999D01*
X108194435Y-116500000D01*
X108214631Y-116679252D01*
X108214633Y-116679260D01*
X108258830Y-116805565D01*
X108274211Y-116849522D01*
X108348607Y-116967923D01*
X108370185Y-117002264D01*
X108497735Y-117129814D01*
X108497737Y-117129815D01*
X108497738Y-117129816D01*
X108650478Y-117225789D01*
X108655722Y-117227624D01*
X108684063Y-117245431D01*
X111021577Y-119582946D01*
X111021582Y-119582950D01*
X111021584Y-119582952D01*
X111091720Y-119629814D01*
X111144504Y-119665083D01*
X111144505Y-119665083D01*
X111144506Y-119665084D01*
X111281084Y-119721656D01*
X111281085Y-119721657D01*
X111281086Y-119721657D01*
X111281088Y-119721658D01*
X111406708Y-119746645D01*
X111416860Y-119749416D01*
X111519603Y-119785368D01*
X111639106Y-119798832D01*
X111698857Y-119805565D01*
X111698858Y-119805565D01*
X111698859Y-119805565D01*
X111743671Y-119800515D01*
X111878113Y-119785368D01*
X112048380Y-119725789D01*
X112201120Y-119629816D01*
X112328674Y-119502262D01*
X112424647Y-119349522D01*
X112484226Y-119179255D01*
X112504423Y-119000000D01*
X112484226Y-118820745D01*
X112424647Y-118650478D01*
X112328674Y-118497738D01*
X112328673Y-118497737D01*
X112328672Y-118497735D01*
X112201122Y-118370185D01*
X112166781Y-118348607D01*
X112048380Y-118274211D01*
X112027184Y-118266794D01*
X111878114Y-118214632D01*
X111789180Y-118204611D01*
X111744426Y-118183058D01*
X109745431Y-116184063D01*
X109727623Y-116155721D01*
X109725789Y-116150478D01*
X109631237Y-115999999D01*
X117194435Y-115999999D01*
X117194435Y-116000000D01*
X117214631Y-116179252D01*
X117214633Y-116179260D01*
X117257057Y-116300500D01*
X117274211Y-116349522D01*
X117348607Y-116467923D01*
X117370185Y-116502264D01*
X117497735Y-116629814D01*
X117497737Y-116629815D01*
X117497738Y-116629816D01*
X117650478Y-116725789D01*
X117820745Y-116785368D01*
X117940248Y-116798832D01*
X117999999Y-116805565D01*
X118000000Y-116805565D01*
X118000001Y-116805565D01*
X118044813Y-116800515D01*
X118179255Y-116785368D01*
X118349522Y-116725789D01*
X118502262Y-116629816D01*
X118629816Y-116502262D01*
X118725789Y-116349522D01*
X118785368Y-116179255D01*
X118797073Y-116075360D01*
X118818624Y-116030609D01*
X119318228Y-115531005D01*
X123299500Y-115531005D01*
X123299500Y-115668994D01*
X123326420Y-115804329D01*
X123326421Y-115804331D01*
X123333220Y-115820745D01*
X123379225Y-115931811D01*
X123455886Y-116046542D01*
X123455888Y-116046544D01*
X123455890Y-116046547D01*
X123553452Y-116144109D01*
X123553455Y-116144111D01*
X123553458Y-116144114D01*
X123668189Y-116220775D01*
X123795672Y-116273580D01*
X123877165Y-116289790D01*
X123931005Y-116300500D01*
X123931007Y-116300500D01*
X124068995Y-116300500D01*
X124113901Y-116291566D01*
X124204328Y-116273580D01*
X124331811Y-116220775D01*
X124446542Y-116144114D01*
X124544114Y-116046542D01*
X124620775Y-115931811D01*
X124673580Y-115804328D01*
X124700500Y-115668993D01*
X124700500Y-115531007D01*
X124694641Y-115501554D01*
X124689790Y-115477165D01*
X124673580Y-115395672D01*
X124620775Y-115268189D01*
X124544114Y-115153458D01*
X124544111Y-115153455D01*
X124544109Y-115153452D01*
X124446547Y-115055890D01*
X124446544Y-115055888D01*
X124446542Y-115055886D01*
X124331811Y-114979225D01*
X124280125Y-114957816D01*
X124204331Y-114926421D01*
X124204329Y-114926420D01*
X124068995Y-114899500D01*
X124068993Y-114899500D01*
X123931007Y-114899500D01*
X123931005Y-114899500D01*
X123795670Y-114926420D01*
X123795668Y-114926421D01*
X123668190Y-114979224D01*
X123553455Y-115055888D01*
X123553452Y-115055890D01*
X123455890Y-115153452D01*
X123455888Y-115153455D01*
X123379224Y-115268190D01*
X123326421Y-115395668D01*
X123326420Y-115395670D01*
X123299500Y-115531005D01*
X119318228Y-115531005D01*
X121030610Y-113818624D01*
X121075361Y-113797073D01*
X121179255Y-113785368D01*
X121349522Y-113725789D01*
X121502262Y-113629816D01*
X121629816Y-113502262D01*
X121725789Y-113349522D01*
X121785368Y-113179255D01*
X121805565Y-113000000D01*
X121785368Y-112820745D01*
X121784638Y-112818660D01*
X121777950Y-112799547D01*
X121725789Y-112650478D01*
X121629816Y-112497738D01*
X121629815Y-112497737D01*
X121629814Y-112497735D01*
X121502264Y-112370185D01*
X121467923Y-112348607D01*
X121349522Y-112274211D01*
X121338923Y-112270502D01*
X121179260Y-112214633D01*
X121179252Y-112214631D01*
X121000001Y-112194435D01*
X120999999Y-112194435D01*
X120820747Y-112214631D01*
X120820739Y-112214633D01*
X120650480Y-112274210D01*
X120497735Y-112370185D01*
X120370185Y-112497735D01*
X120274210Y-112650480D01*
X120214633Y-112820739D01*
X120214631Y-112820747D01*
X120202926Y-112924635D01*
X120181373Y-112969389D01*
X117969390Y-115181373D01*
X117924636Y-115202926D01*
X117820747Y-115214631D01*
X117820739Y-115214633D01*
X117650480Y-115274210D01*
X117650478Y-115274210D01*
X117650478Y-115274211D01*
X117641090Y-115280110D01*
X117497735Y-115370185D01*
X117370185Y-115497735D01*
X117274210Y-115650480D01*
X117214633Y-115820739D01*
X117214631Y-115820747D01*
X117194435Y-115999999D01*
X109631237Y-115999999D01*
X109629816Y-115997738D01*
X109629815Y-115997737D01*
X109629814Y-115997735D01*
X109502264Y-115870185D01*
X109467923Y-115848607D01*
X109349522Y-115774211D01*
X109338923Y-115770502D01*
X109179260Y-115714633D01*
X109179252Y-115714631D01*
X109000001Y-115694435D01*
X108999999Y-115694435D01*
X108820747Y-115714631D01*
X108820739Y-115714633D01*
X108650480Y-115774210D01*
X108497735Y-115870185D01*
X108370185Y-115997735D01*
X108274210Y-116150480D01*
X108214633Y-116320739D01*
X108214631Y-116320747D01*
X108194435Y-116499999D01*
X40519615Y-116499999D01*
X40521672Y-111099991D01*
X48424500Y-111099991D01*
X48424500Y-111099996D01*
X48424500Y-111099997D01*
X48424500Y-112400003D01*
X48435001Y-112502798D01*
X48490186Y-112669334D01*
X48582286Y-112818654D01*
X48582291Y-112818660D01*
X48706339Y-112942708D01*
X48706345Y-112942713D01*
X48799223Y-113000000D01*
X48855666Y-113034814D01*
X48918678Y-113055694D01*
X48959028Y-113087597D01*
X48969430Y-113137974D01*
X48945017Y-113183252D01*
X48939226Y-113187914D01*
X48895210Y-113219893D01*
X48895202Y-113219900D01*
X48744900Y-113370202D01*
X48744889Y-113370215D01*
X48619951Y-113542179D01*
X48523445Y-113731584D01*
X48523439Y-113731598D01*
X48457755Y-113933752D01*
X48457752Y-113933764D01*
X48424500Y-114143710D01*
X48424500Y-114356289D01*
X48457752Y-114566235D01*
X48457754Y-114566243D01*
X48523443Y-114768412D01*
X48612735Y-114943657D01*
X48619951Y-114957820D01*
X48744889Y-115129784D01*
X48744900Y-115129797D01*
X48895202Y-115280099D01*
X48895215Y-115280110D01*
X49067179Y-115405048D01*
X49067181Y-115405049D01*
X49067184Y-115405051D01*
X49256588Y-115501557D01*
X49458757Y-115567246D01*
X49668713Y-115600500D01*
X49668717Y-115600500D01*
X50131283Y-115600500D01*
X50131287Y-115600500D01*
X50341243Y-115567246D01*
X50543412Y-115501557D01*
X50732816Y-115405051D01*
X50904792Y-115280104D01*
X51055104Y-115129792D01*
X51108800Y-115055886D01*
X51180048Y-114957820D01*
X51180047Y-114957820D01*
X51180051Y-114957816D01*
X51276557Y-114768412D01*
X51342246Y-114566243D01*
X51375500Y-114356287D01*
X51375500Y-114143713D01*
X51342246Y-113933757D01*
X51276557Y-113731588D01*
X51180051Y-113542184D01*
X51180049Y-113542181D01*
X51180048Y-113542179D01*
X51055110Y-113370215D01*
X51055099Y-113370202D01*
X50904797Y-113219900D01*
X50904784Y-113219889D01*
X50860774Y-113187914D01*
X50832009Y-113145269D01*
X50837386Y-113094111D01*
X50874388Y-113058377D01*
X50881301Y-113055700D01*
X50944334Y-113034814D01*
X51093656Y-112942712D01*
X51217712Y-112818656D01*
X51309814Y-112669334D01*
X51364999Y-112502797D01*
X51375500Y-112400009D01*
X51375499Y-111099992D01*
X51364999Y-110997203D01*
X51309814Y-110830666D01*
X51217712Y-110681344D01*
X51217708Y-110681339D01*
X51093660Y-110557291D01*
X51093654Y-110557286D01*
X50944334Y-110465186D01*
X50777798Y-110410001D01*
X50764948Y-110408688D01*
X50675009Y-110399500D01*
X50675002Y-110399500D01*
X49124996Y-110399500D01*
X49022201Y-110410001D01*
X48855665Y-110465186D01*
X48706345Y-110557286D01*
X48706339Y-110557291D01*
X48582291Y-110681339D01*
X48582286Y-110681345D01*
X48490186Y-110830665D01*
X48435001Y-110997201D01*
X48435001Y-110997203D01*
X48424500Y-111099991D01*
X40521672Y-111099991D01*
X40523234Y-107000000D01*
X82244723Y-107000000D01*
X82263792Y-107217972D01*
X82320425Y-107429329D01*
X82320426Y-107429333D01*
X82412894Y-107627633D01*
X82538397Y-107806871D01*
X82538408Y-107806884D01*
X82693115Y-107961591D01*
X82693128Y-107961602D01*
X82782560Y-108024222D01*
X82872361Y-108087102D01*
X82872363Y-108087102D01*
X82872366Y-108087105D01*
X83037394Y-108164058D01*
X83070670Y-108179575D01*
X83282023Y-108236207D01*
X83500000Y-108255277D01*
X83717977Y-108236207D01*
X83929330Y-108179575D01*
X84127639Y-108087102D01*
X84306877Y-107961598D01*
X84461598Y-107806877D01*
X84587102Y-107627639D01*
X84679575Y-107429330D01*
X84736207Y-107217977D01*
X84755277Y-107000000D01*
X84736207Y-106782023D01*
X84679575Y-106570670D01*
X84664059Y-106537396D01*
X84587105Y-106372367D01*
X84587102Y-106372364D01*
X84587102Y-106372362D01*
X84461598Y-106193123D01*
X84461597Y-106193122D01*
X84461595Y-106193119D01*
X84306884Y-106038408D01*
X84306871Y-106038397D01*
X84127633Y-105912894D01*
X83929333Y-105820426D01*
X83929331Y-105820425D01*
X83929330Y-105820425D01*
X83717977Y-105763793D01*
X83717975Y-105763792D01*
X83717972Y-105763792D01*
X83500000Y-105744723D01*
X83282027Y-105763792D01*
X83070670Y-105820425D01*
X83070666Y-105820426D01*
X82872367Y-105912894D01*
X82693119Y-106038404D01*
X82538404Y-106193119D01*
X82412894Y-106372367D01*
X82320426Y-106570666D01*
X82320425Y-106570670D01*
X82263792Y-106782027D01*
X82244723Y-107000000D01*
X40523234Y-107000000D01*
X40525673Y-100599991D01*
X48424500Y-100599991D01*
X48424500Y-100599996D01*
X48424500Y-100599997D01*
X48424500Y-101900003D01*
X48435001Y-102002798D01*
X48490186Y-102169334D01*
X48582286Y-102318654D01*
X48582291Y-102318660D01*
X48706339Y-102442708D01*
X48706345Y-102442713D01*
X48799223Y-102500000D01*
X48855666Y-102534814D01*
X48918678Y-102555694D01*
X48959028Y-102587597D01*
X48969430Y-102637974D01*
X48945017Y-102683252D01*
X48939226Y-102687914D01*
X48895210Y-102719893D01*
X48895202Y-102719900D01*
X48744900Y-102870202D01*
X48744889Y-102870215D01*
X48619951Y-103042179D01*
X48523445Y-103231584D01*
X48523439Y-103231598D01*
X48457755Y-103433752D01*
X48457752Y-103433764D01*
X48424500Y-103643710D01*
X48424500Y-103856289D01*
X48457752Y-104066235D01*
X48457754Y-104066243D01*
X48523443Y-104268412D01*
X48523445Y-104268415D01*
X48619951Y-104457820D01*
X48744889Y-104629784D01*
X48744900Y-104629797D01*
X48895202Y-104780099D01*
X48895215Y-104780110D01*
X49067179Y-104905048D01*
X49067181Y-104905049D01*
X49067184Y-104905051D01*
X49256588Y-105001557D01*
X49458757Y-105067246D01*
X49668713Y-105100500D01*
X49668717Y-105100500D01*
X50131283Y-105100500D01*
X50131287Y-105100500D01*
X50341243Y-105067246D01*
X50543412Y-105001557D01*
X50732816Y-104905051D01*
X50904792Y-104780104D01*
X51055104Y-104629792D01*
X51180051Y-104457816D01*
X51276557Y-104268412D01*
X51342246Y-104066243D01*
X51375500Y-103856287D01*
X51375500Y-103643713D01*
X51342246Y-103433757D01*
X51276557Y-103231588D01*
X51180051Y-103042184D01*
X51180049Y-103042181D01*
X51180048Y-103042179D01*
X51055110Y-102870215D01*
X51055099Y-102870202D01*
X50904797Y-102719900D01*
X50904784Y-102719889D01*
X50860774Y-102687914D01*
X50832009Y-102645269D01*
X50837386Y-102594111D01*
X50874388Y-102558377D01*
X50881301Y-102555700D01*
X50944334Y-102534814D01*
X51093656Y-102442712D01*
X51217712Y-102318656D01*
X51309814Y-102169334D01*
X51364999Y-102002797D01*
X51375500Y-101900009D01*
X51375499Y-100599992D01*
X51364999Y-100497203D01*
X51309814Y-100330666D01*
X51217712Y-100181344D01*
X51217708Y-100181339D01*
X51093660Y-100057291D01*
X51093654Y-100057286D01*
X50944334Y-99965186D01*
X50777798Y-99910001D01*
X50764948Y-99908688D01*
X50675009Y-99899500D01*
X50675002Y-99899500D01*
X49124996Y-99899500D01*
X49022201Y-99910001D01*
X48855665Y-99965186D01*
X48706345Y-100057286D01*
X48706339Y-100057291D01*
X48582291Y-100181339D01*
X48582286Y-100181345D01*
X48490186Y-100330665D01*
X48435001Y-100497201D01*
X48435001Y-100497203D01*
X48424500Y-100599991D01*
X40525673Y-100599991D01*
X40526092Y-99499999D01*
X116194435Y-99499999D01*
X116194435Y-99500000D01*
X116214631Y-99679252D01*
X116214633Y-99679260D01*
X116245280Y-99766842D01*
X116249500Y-99791679D01*
X116249500Y-102208320D01*
X116245280Y-102233157D01*
X116214633Y-102320739D01*
X116214631Y-102320747D01*
X116194435Y-102499999D01*
X116194435Y-102500000D01*
X116214631Y-102679252D01*
X116214633Y-102679260D01*
X116228854Y-102719900D01*
X116274211Y-102849522D01*
X116348607Y-102967923D01*
X116370185Y-103002264D01*
X116497735Y-103129814D01*
X116497737Y-103129815D01*
X116497738Y-103129816D01*
X116650478Y-103225789D01*
X116820745Y-103285368D01*
X116940248Y-103298832D01*
X116999999Y-103305565D01*
X117000000Y-103305565D01*
X117000001Y-103305565D01*
X117044813Y-103300515D01*
X117179255Y-103285368D01*
X117349522Y-103225789D01*
X117502262Y-103129816D01*
X117629816Y-103002262D01*
X117725789Y-102849522D01*
X117785368Y-102679255D01*
X117805565Y-102500000D01*
X117785368Y-102320745D01*
X117784638Y-102318660D01*
X117754720Y-102233157D01*
X117750500Y-102208320D01*
X117750500Y-99791679D01*
X117754720Y-99766842D01*
X117785366Y-99679260D01*
X117785368Y-99679255D01*
X117805565Y-99500000D01*
X117785368Y-99320745D01*
X117725789Y-99150478D01*
X117629816Y-98997738D01*
X117629815Y-98997737D01*
X117629814Y-98997735D01*
X117502264Y-98870185D01*
X117467923Y-98848607D01*
X117349522Y-98774211D01*
X117338923Y-98770502D01*
X117179260Y-98714633D01*
X117179252Y-98714631D01*
X117000001Y-98694435D01*
X116999999Y-98694435D01*
X116820747Y-98714631D01*
X116820739Y-98714633D01*
X116650480Y-98774210D01*
X116497735Y-98870185D01*
X116370185Y-98997735D01*
X116274210Y-99150480D01*
X116214633Y-99320739D01*
X116214631Y-99320747D01*
X116194435Y-99499999D01*
X40526092Y-99499999D01*
X40527921Y-94699999D01*
X90994435Y-94699999D01*
X90994435Y-94700000D01*
X91014631Y-94879252D01*
X91014633Y-94879260D01*
X91056090Y-94997735D01*
X91074211Y-95049522D01*
X91137974Y-95150999D01*
X91149500Y-95191008D01*
X91149500Y-96208990D01*
X91137974Y-96248999D01*
X91074211Y-96350476D01*
X91074211Y-96350477D01*
X91014633Y-96520739D01*
X91014631Y-96520747D01*
X90994435Y-96699999D01*
X90994435Y-96700000D01*
X91014631Y-96879252D01*
X91014633Y-96879260D01*
X91056090Y-96997735D01*
X91074211Y-97049522D01*
X91137646Y-97150478D01*
X91170185Y-97202264D01*
X91297735Y-97329814D01*
X91297737Y-97329815D01*
X91297738Y-97329816D01*
X91450478Y-97425789D01*
X91620745Y-97485368D01*
X91740248Y-97498832D01*
X91799999Y-97505565D01*
X91800000Y-97505565D01*
X91800001Y-97505565D01*
X91849400Y-97499999D01*
X91979255Y-97485368D01*
X92149522Y-97425789D01*
X92302262Y-97329816D01*
X92429816Y-97202262D01*
X92525789Y-97049522D01*
X92585368Y-96879255D01*
X92605565Y-96700000D01*
X92585368Y-96520745D01*
X92525789Y-96350478D01*
X92462026Y-96248999D01*
X92450500Y-96208990D01*
X92450500Y-95499999D01*
X104694435Y-95499999D01*
X104694435Y-95500000D01*
X104714631Y-95679252D01*
X104714633Y-95679260D01*
X104770502Y-95838923D01*
X104774211Y-95849522D01*
X104848607Y-95967923D01*
X104870185Y-96002264D01*
X104997735Y-96129814D01*
X104997737Y-96129815D01*
X104997738Y-96129816D01*
X105150478Y-96225789D01*
X105150481Y-96225790D01*
X105155725Y-96227625D01*
X105184063Y-96245431D01*
X106754567Y-97815934D01*
X106772372Y-97844268D01*
X106774211Y-97849522D01*
X106852567Y-97974226D01*
X106870185Y-98002264D01*
X106997735Y-98129814D01*
X106997737Y-98129815D01*
X106997738Y-98129816D01*
X107150478Y-98225789D01*
X107320745Y-98285368D01*
X107440248Y-98298832D01*
X107499999Y-98305565D01*
X107500000Y-98305565D01*
X107500001Y-98305565D01*
X107544813Y-98300515D01*
X107679255Y-98285368D01*
X107849522Y-98225789D01*
X108002262Y-98129816D01*
X108129816Y-98002262D01*
X108225789Y-97849522D01*
X108285368Y-97679255D01*
X108305565Y-97500000D01*
X108285368Y-97320745D01*
X108225789Y-97150478D01*
X108129816Y-96997738D01*
X108129815Y-96997737D01*
X108129814Y-96997735D01*
X108002264Y-96870185D01*
X107974226Y-96852567D01*
X107849522Y-96774211D01*
X107849517Y-96774209D01*
X107844268Y-96772372D01*
X107815934Y-96754567D01*
X106245431Y-95184063D01*
X106227625Y-95155725D01*
X106225790Y-95150481D01*
X106225789Y-95150478D01*
X106129816Y-94997738D01*
X106129815Y-94997737D01*
X106129814Y-94997735D01*
X106002264Y-94870185D01*
X105967923Y-94848607D01*
X105849522Y-94774211D01*
X105838923Y-94770502D01*
X105679260Y-94714633D01*
X105679252Y-94714631D01*
X105500001Y-94694435D01*
X105499999Y-94694435D01*
X105320747Y-94714631D01*
X105320739Y-94714633D01*
X105150480Y-94774210D01*
X104997735Y-94870185D01*
X104870185Y-94997735D01*
X104774210Y-95150480D01*
X104714633Y-95320739D01*
X104714631Y-95320747D01*
X104694435Y-95499999D01*
X92450500Y-95499999D01*
X92450500Y-95191008D01*
X92462026Y-95150999D01*
X92525789Y-95049522D01*
X92585368Y-94879255D01*
X92605565Y-94700000D01*
X92585368Y-94520745D01*
X92525789Y-94350478D01*
X92429816Y-94197738D01*
X92429815Y-94197737D01*
X92429814Y-94197735D01*
X92302264Y-94070185D01*
X92267923Y-94048607D01*
X92149522Y-93974211D01*
X92138923Y-93970502D01*
X91979260Y-93914633D01*
X91979252Y-93914631D01*
X91800001Y-93894435D01*
X91799999Y-93894435D01*
X91620747Y-93914631D01*
X91620739Y-93914633D01*
X91450480Y-93974210D01*
X91297735Y-94070185D01*
X91170185Y-94197735D01*
X91074210Y-94350480D01*
X91014633Y-94520739D01*
X91014631Y-94520747D01*
X90994435Y-94699999D01*
X40527921Y-94699999D01*
X40529674Y-90099991D01*
X48424500Y-90099991D01*
X48424500Y-90099996D01*
X48424500Y-90099997D01*
X48424500Y-91400003D01*
X48435001Y-91502798D01*
X48490186Y-91669334D01*
X48582286Y-91818654D01*
X48582291Y-91818660D01*
X48706339Y-91942708D01*
X48706345Y-91942713D01*
X48855664Y-92034813D01*
X48855666Y-92034814D01*
X48918678Y-92055694D01*
X48959028Y-92087597D01*
X48969430Y-92137974D01*
X48945017Y-92183252D01*
X48939226Y-92187914D01*
X48895210Y-92219893D01*
X48895202Y-92219900D01*
X48744900Y-92370202D01*
X48744889Y-92370215D01*
X48619951Y-92542179D01*
X48523445Y-92731584D01*
X48523439Y-92731598D01*
X48457755Y-92933752D01*
X48457752Y-92933764D01*
X48424500Y-93143710D01*
X48424500Y-93356289D01*
X48457752Y-93566235D01*
X48457755Y-93566247D01*
X48512874Y-93735886D01*
X48523443Y-93768412D01*
X48587655Y-93894435D01*
X48619951Y-93957820D01*
X48744889Y-94129784D01*
X48744900Y-94129797D01*
X48895202Y-94280099D01*
X48895215Y-94280110D01*
X49067179Y-94405048D01*
X49067181Y-94405049D01*
X49067184Y-94405051D01*
X49256588Y-94501557D01*
X49458757Y-94567246D01*
X49668713Y-94600500D01*
X49668717Y-94600500D01*
X50131283Y-94600500D01*
X50131287Y-94600500D01*
X50341243Y-94567246D01*
X50543412Y-94501557D01*
X50732816Y-94405051D01*
X50904792Y-94280104D01*
X51055104Y-94129792D01*
X51098412Y-94070184D01*
X51180048Y-93957820D01*
X51180047Y-93957820D01*
X51180051Y-93957816D01*
X51276557Y-93768412D01*
X51342246Y-93566243D01*
X51375500Y-93356287D01*
X51375500Y-93143713D01*
X51363825Y-93070000D01*
X117492400Y-93070000D01*
X117928012Y-93070000D01*
X117910795Y-93079940D01*
X117854940Y-93135795D01*
X117815444Y-93204204D01*
X117795000Y-93280504D01*
X117795000Y-93359496D01*
X117815444Y-93435796D01*
X117854940Y-93504205D01*
X117910795Y-93560060D01*
X117928012Y-93570000D01*
X117492400Y-93570000D01*
X117516851Y-93629029D01*
X117588244Y-93735877D01*
X117588252Y-93735886D01*
X117679113Y-93826747D01*
X117679122Y-93826755D01*
X117785970Y-93898148D01*
X117904698Y-93947327D01*
X117904699Y-93947328D01*
X118030743Y-93972400D01*
X118395000Y-93972400D01*
X118395000Y-93620000D01*
X118895000Y-93620000D01*
X118895000Y-93972400D01*
X119259257Y-93972400D01*
X119385300Y-93947328D01*
X119385301Y-93947327D01*
X119504029Y-93898148D01*
X119610877Y-93826755D01*
X119610886Y-93826747D01*
X119701747Y-93735886D01*
X119701755Y-93735877D01*
X119773148Y-93629029D01*
X119797600Y-93570000D01*
X119361988Y-93570000D01*
X119379205Y-93560060D01*
X119435060Y-93504205D01*
X119474556Y-93435796D01*
X119495000Y-93359496D01*
X119495000Y-93280504D01*
X119474556Y-93204204D01*
X119435060Y-93135795D01*
X119379205Y-93079940D01*
X119361988Y-93070000D01*
X119797600Y-93070000D01*
X121822400Y-93070000D01*
X122258012Y-93070000D01*
X122240795Y-93079940D01*
X122184940Y-93135795D01*
X122145444Y-93204204D01*
X122125000Y-93280504D01*
X122125000Y-93359496D01*
X122145444Y-93435796D01*
X122184940Y-93504205D01*
X122240795Y-93560060D01*
X122258012Y-93570000D01*
X121822400Y-93570000D01*
X121846851Y-93629029D01*
X121918244Y-93735877D01*
X121918252Y-93735886D01*
X122009113Y-93826747D01*
X122009122Y-93826755D01*
X122115970Y-93898148D01*
X122234698Y-93947327D01*
X122234699Y-93947328D01*
X122360743Y-93972400D01*
X122575000Y-93972400D01*
X122575000Y-93620000D01*
X123075000Y-93620000D01*
X123075000Y-93972400D01*
X123289257Y-93972400D01*
X123415300Y-93947328D01*
X123415301Y-93947327D01*
X123534029Y-93898148D01*
X123640877Y-93826755D01*
X123640886Y-93826747D01*
X123731747Y-93735886D01*
X123731755Y-93735877D01*
X123803148Y-93629029D01*
X123827600Y-93570000D01*
X123391988Y-93570000D01*
X123409205Y-93560060D01*
X123465060Y-93504205D01*
X123504556Y-93435796D01*
X123525000Y-93359496D01*
X123525000Y-93280504D01*
X123504556Y-93204204D01*
X123465060Y-93135795D01*
X123409205Y-93079940D01*
X123391988Y-93070000D01*
X123827600Y-93070000D01*
X123803148Y-93010970D01*
X123731755Y-92904122D01*
X123731747Y-92904113D01*
X123640886Y-92813252D01*
X123640877Y-92813244D01*
X123534029Y-92741851D01*
X123415301Y-92692672D01*
X123415300Y-92692671D01*
X123289257Y-92667600D01*
X123075000Y-92667600D01*
X123075000Y-93020000D01*
X122575000Y-93020000D01*
X122575000Y-92667600D01*
X122360743Y-92667600D01*
X122234699Y-92692671D01*
X122234698Y-92692672D01*
X122115970Y-92741851D01*
X122009122Y-92813244D01*
X122009113Y-92813252D01*
X121918252Y-92904113D01*
X121918244Y-92904122D01*
X121846851Y-93010970D01*
X121822400Y-93070000D01*
X119797600Y-93070000D01*
X119773148Y-93010970D01*
X119701755Y-92904122D01*
X119701747Y-92904113D01*
X119610886Y-92813252D01*
X119610877Y-92813244D01*
X119504029Y-92741851D01*
X119385301Y-92692672D01*
X119385300Y-92692671D01*
X119259257Y-92667600D01*
X118895000Y-92667600D01*
X118895000Y-93020000D01*
X118395000Y-93020000D01*
X118395000Y-92667600D01*
X118030743Y-92667600D01*
X117904699Y-92692671D01*
X117904698Y-92692672D01*
X117785970Y-92741851D01*
X117679122Y-92813244D01*
X117679113Y-92813252D01*
X117588252Y-92904113D01*
X117588244Y-92904122D01*
X117516851Y-93010970D01*
X117492400Y-93070000D01*
X51363825Y-93070000D01*
X51342246Y-92933757D01*
X51276557Y-92731588D01*
X51180051Y-92542184D01*
X51180049Y-92542181D01*
X51180048Y-92542179D01*
X51055110Y-92370215D01*
X51055099Y-92370202D01*
X50904797Y-92219900D01*
X50904784Y-92219889D01*
X50860774Y-92187914D01*
X50832009Y-92145269D01*
X50837386Y-92094111D01*
X50874388Y-92058377D01*
X50881301Y-92055700D01*
X50944334Y-92034814D01*
X51093656Y-91942712D01*
X51217712Y-91818656D01*
X51220439Y-91814234D01*
X118569500Y-91814234D01*
X118569500Y-91965766D01*
X118593596Y-92055693D01*
X118608719Y-92112134D01*
X118608722Y-92112142D01*
X118684484Y-92243365D01*
X118791634Y-92350515D01*
X118922857Y-92426277D01*
X118922860Y-92426278D01*
X118922865Y-92426281D01*
X119069234Y-92465500D01*
X119069237Y-92465500D01*
X119220763Y-92465500D01*
X119220766Y-92465500D01*
X119367135Y-92426281D01*
X119498365Y-92350515D01*
X119605515Y-92243365D01*
X119681281Y-92112135D01*
X119720500Y-91965766D01*
X119720500Y-91814234D01*
X119681281Y-91667865D01*
X119681278Y-91667860D01*
X119681277Y-91667857D01*
X119605515Y-91536634D01*
X119498365Y-91429484D01*
X119367142Y-91353722D01*
X119367136Y-91353720D01*
X119367135Y-91353719D01*
X119220766Y-91314500D01*
X119069234Y-91314500D01*
X118922865Y-91353719D01*
X118922857Y-91353722D01*
X118791634Y-91429484D01*
X118684484Y-91536634D01*
X118608722Y-91667857D01*
X118608719Y-91667865D01*
X118569500Y-91814234D01*
X51220439Y-91814234D01*
X51309814Y-91669334D01*
X51364999Y-91502797D01*
X51375500Y-91400009D01*
X51375499Y-90099992D01*
X51364999Y-89997203D01*
X51309814Y-89830666D01*
X51217712Y-89681344D01*
X51217708Y-89681339D01*
X51093660Y-89557291D01*
X51093654Y-89557286D01*
X50944334Y-89465186D01*
X50777798Y-89410001D01*
X50764948Y-89408688D01*
X50675009Y-89399500D01*
X50675002Y-89399500D01*
X49124996Y-89399500D01*
X49022201Y-89410001D01*
X48855665Y-89465186D01*
X48706345Y-89557286D01*
X48706339Y-89557291D01*
X48582291Y-89681339D01*
X48582286Y-89681345D01*
X48490186Y-89830665D01*
X48435001Y-89997201D01*
X48435001Y-89997203D01*
X48424500Y-90099991D01*
X40529674Y-90099991D01*
X40531223Y-86034234D01*
X118569500Y-86034234D01*
X118569500Y-86185766D01*
X118608719Y-86332134D01*
X118608722Y-86332142D01*
X118684484Y-86463365D01*
X118791634Y-86570515D01*
X118922857Y-86646277D01*
X118922860Y-86646278D01*
X118922865Y-86646281D01*
X119069234Y-86685500D01*
X119069237Y-86685500D01*
X119220763Y-86685500D01*
X119220766Y-86685500D01*
X119367135Y-86646281D01*
X119498365Y-86570515D01*
X119605515Y-86463365D01*
X119681281Y-86332135D01*
X119720500Y-86185766D01*
X119720500Y-86034234D01*
X119681281Y-85887865D01*
X119681278Y-85887860D01*
X119681277Y-85887857D01*
X119605515Y-85756634D01*
X119498365Y-85649484D01*
X119367142Y-85573722D01*
X119367136Y-85573720D01*
X119367135Y-85573719D01*
X119220766Y-85534500D01*
X119069234Y-85534500D01*
X118922865Y-85573719D01*
X118922857Y-85573722D01*
X118791634Y-85649484D01*
X118684484Y-85756634D01*
X118608722Y-85887857D01*
X118608719Y-85887865D01*
X118569500Y-86034234D01*
X40531223Y-86034234D01*
X40531834Y-84430000D01*
X117492400Y-84430000D01*
X117928012Y-84430000D01*
X117910795Y-84439940D01*
X117854940Y-84495795D01*
X117815444Y-84564204D01*
X117795000Y-84640504D01*
X117795000Y-84719496D01*
X117815444Y-84795796D01*
X117854940Y-84864205D01*
X117910795Y-84920060D01*
X117928012Y-84930000D01*
X117492400Y-84930000D01*
X117516851Y-84989029D01*
X117588244Y-85095877D01*
X117588252Y-85095886D01*
X117679113Y-85186747D01*
X117679122Y-85186755D01*
X117785970Y-85258148D01*
X117904698Y-85307327D01*
X117904699Y-85307328D01*
X118030743Y-85332400D01*
X118395000Y-85332400D01*
X118395000Y-84980000D01*
X118895000Y-84980000D01*
X118895000Y-85332400D01*
X119259257Y-85332400D01*
X119385300Y-85307328D01*
X119385301Y-85307327D01*
X119504029Y-85258148D01*
X119610877Y-85186755D01*
X119610886Y-85186747D01*
X119701747Y-85095886D01*
X119701755Y-85095877D01*
X119773148Y-84989029D01*
X119797600Y-84930000D01*
X119361988Y-84930000D01*
X119379205Y-84920060D01*
X119435060Y-84864205D01*
X119474556Y-84795796D01*
X119495000Y-84719496D01*
X119495000Y-84640504D01*
X119474556Y-84564204D01*
X119435060Y-84495795D01*
X119379205Y-84439940D01*
X119361988Y-84430000D01*
X119797600Y-84430000D01*
X121822400Y-84430000D01*
X122258012Y-84430000D01*
X122240795Y-84439940D01*
X122184940Y-84495795D01*
X122145444Y-84564204D01*
X122125000Y-84640504D01*
X122125000Y-84719496D01*
X122145444Y-84795796D01*
X122184940Y-84864205D01*
X122240795Y-84920060D01*
X122258012Y-84930000D01*
X121822400Y-84930000D01*
X121846851Y-84989029D01*
X121918244Y-85095877D01*
X121918252Y-85095886D01*
X122009113Y-85186747D01*
X122009122Y-85186755D01*
X122115970Y-85258148D01*
X122234698Y-85307327D01*
X122234699Y-85307328D01*
X122360743Y-85332400D01*
X122575000Y-85332400D01*
X122575000Y-84980000D01*
X123075000Y-84980000D01*
X123075000Y-85332400D01*
X123289257Y-85332400D01*
X123415300Y-85307328D01*
X123415301Y-85307327D01*
X123534029Y-85258148D01*
X123640877Y-85186755D01*
X123640886Y-85186747D01*
X123731747Y-85095886D01*
X123731755Y-85095877D01*
X123803148Y-84989029D01*
X123827600Y-84930000D01*
X123391988Y-84930000D01*
X123409205Y-84920060D01*
X123465060Y-84864205D01*
X123504556Y-84795796D01*
X123525000Y-84719496D01*
X123525000Y-84640504D01*
X123504556Y-84564204D01*
X123465060Y-84495795D01*
X123409205Y-84439940D01*
X123391988Y-84430000D01*
X123827600Y-84430000D01*
X123803148Y-84370970D01*
X123731755Y-84264122D01*
X123731747Y-84264113D01*
X123640886Y-84173252D01*
X123640877Y-84173244D01*
X123534029Y-84101851D01*
X123415301Y-84052672D01*
X123415300Y-84052671D01*
X123289257Y-84027600D01*
X123075000Y-84027600D01*
X123075000Y-84380000D01*
X122575000Y-84380000D01*
X122575000Y-84027600D01*
X122360743Y-84027600D01*
X122234699Y-84052671D01*
X122234698Y-84052672D01*
X122115970Y-84101851D01*
X122009122Y-84173244D01*
X122009113Y-84173252D01*
X121918252Y-84264113D01*
X121918244Y-84264122D01*
X121846851Y-84370970D01*
X121822400Y-84430000D01*
X119797600Y-84430000D01*
X119773148Y-84370970D01*
X119701755Y-84264122D01*
X119701747Y-84264113D01*
X119610886Y-84173252D01*
X119610877Y-84173244D01*
X119504029Y-84101851D01*
X119385301Y-84052672D01*
X119385300Y-84052671D01*
X119259257Y-84027600D01*
X118895000Y-84027600D01*
X118895000Y-84380000D01*
X118395000Y-84380000D01*
X118395000Y-84027600D01*
X118030743Y-84027600D01*
X117904699Y-84052671D01*
X117904698Y-84052672D01*
X117785970Y-84101851D01*
X117679122Y-84173244D01*
X117679113Y-84173252D01*
X117588252Y-84264113D01*
X117588244Y-84264122D01*
X117516851Y-84370970D01*
X117492400Y-84430000D01*
X40531834Y-84430000D01*
X40533865Y-79099991D01*
X48424500Y-79099991D01*
X48424500Y-79099996D01*
X48424500Y-79099997D01*
X48424500Y-80400003D01*
X48435001Y-80502798D01*
X48490186Y-80669334D01*
X48582286Y-80818654D01*
X48582291Y-80818660D01*
X48706339Y-80942708D01*
X48706345Y-80942713D01*
X48855664Y-81034813D01*
X48855666Y-81034814D01*
X48918678Y-81055694D01*
X48959028Y-81087597D01*
X48969430Y-81137974D01*
X48945017Y-81183252D01*
X48939226Y-81187914D01*
X48895210Y-81219893D01*
X48895202Y-81219900D01*
X48744900Y-81370202D01*
X48744889Y-81370215D01*
X48619951Y-81542179D01*
X48523445Y-81731584D01*
X48523439Y-81731598D01*
X48457755Y-81933752D01*
X48457752Y-81933764D01*
X48424500Y-82143710D01*
X48424500Y-82356289D01*
X48457752Y-82566235D01*
X48457754Y-82566243D01*
X48523443Y-82768412D01*
X48523445Y-82768415D01*
X48619951Y-82957820D01*
X48744889Y-83129784D01*
X48744900Y-83129797D01*
X48895202Y-83280099D01*
X48895215Y-83280110D01*
X49067179Y-83405048D01*
X49067181Y-83405049D01*
X49067184Y-83405051D01*
X49256588Y-83501557D01*
X49458757Y-83567246D01*
X49668713Y-83600500D01*
X49668717Y-83600500D01*
X50131283Y-83600500D01*
X50131287Y-83600500D01*
X50341243Y-83567246D01*
X50543412Y-83501557D01*
X50732816Y-83405051D01*
X50904792Y-83280104D01*
X51055104Y-83129792D01*
X51180051Y-82957816D01*
X51276557Y-82768412D01*
X51342246Y-82566243D01*
X51375500Y-82356287D01*
X51375500Y-82143713D01*
X51342246Y-81933757D01*
X51276557Y-81731588D01*
X51180051Y-81542184D01*
X51180049Y-81542181D01*
X51180048Y-81542179D01*
X51055110Y-81370215D01*
X51055099Y-81370202D01*
X50904797Y-81219900D01*
X50904784Y-81219889D01*
X50860774Y-81187914D01*
X50832009Y-81145269D01*
X50837386Y-81094111D01*
X50874388Y-81058377D01*
X50881301Y-81055700D01*
X50944334Y-81034814D01*
X51093656Y-80942712D01*
X51217712Y-80818656D01*
X51309814Y-80669334D01*
X51364999Y-80502797D01*
X51375500Y-80400009D01*
X51375499Y-79099992D01*
X51364999Y-78997203D01*
X51309814Y-78830666D01*
X51217712Y-78681344D01*
X51217708Y-78681339D01*
X51093660Y-78557291D01*
X51093654Y-78557286D01*
X50944334Y-78465186D01*
X50777798Y-78410001D01*
X50764948Y-78408688D01*
X50675009Y-78399500D01*
X50675002Y-78399500D01*
X49124996Y-78399500D01*
X49022201Y-78410001D01*
X48855665Y-78465186D01*
X48706345Y-78557286D01*
X48706339Y-78557291D01*
X48582291Y-78681339D01*
X48582286Y-78681345D01*
X48490186Y-78830665D01*
X48435001Y-78997201D01*
X48435001Y-78997203D01*
X48424500Y-79099991D01*
X40533865Y-79099991D01*
X40534856Y-76499999D01*
X91694435Y-76499999D01*
X91694435Y-76500000D01*
X91714631Y-76679252D01*
X91714633Y-76679260D01*
X91770502Y-76838923D01*
X91774211Y-76849522D01*
X91848607Y-76967923D01*
X91870185Y-77002264D01*
X91997735Y-77129814D01*
X91997737Y-77129815D01*
X91997738Y-77129816D01*
X92150478Y-77225789D01*
X92320745Y-77285368D01*
X92440248Y-77298832D01*
X92499999Y-77305565D01*
X92500000Y-77305565D01*
X92500001Y-77305565D01*
X92544813Y-77300515D01*
X92679255Y-77285368D01*
X92849522Y-77225789D01*
X93002262Y-77129816D01*
X93129816Y-77002262D01*
X93225789Y-76849522D01*
X93285368Y-76679255D01*
X93305565Y-76500000D01*
X93296065Y-76415692D01*
X93298156Y-76387806D01*
X93300500Y-76379059D01*
X93300501Y-76379057D01*
X93300501Y-76220942D01*
X93300501Y-76216340D01*
X93300500Y-76216322D01*
X93300500Y-73652125D01*
X98349500Y-73652125D01*
X98349500Y-75747862D01*
X98349501Y-75747877D01*
X98355776Y-75806242D01*
X98355909Y-75807483D01*
X98406204Y-75942331D01*
X98492454Y-76057546D01*
X98607669Y-76143796D01*
X98742517Y-76194091D01*
X98802127Y-76200500D01*
X103397872Y-76200499D01*
X103457483Y-76194091D01*
X103592331Y-76143796D01*
X103707546Y-76057546D01*
X103793796Y-75942331D01*
X103844091Y-75807483D01*
X103850500Y-75747873D01*
X103850499Y-73652128D01*
X103844091Y-73592517D01*
X103793796Y-73457669D01*
X103707546Y-73342454D01*
X103620812Y-73277525D01*
X103592334Y-73256206D01*
X103592332Y-73256205D01*
X103592331Y-73256204D01*
X103457483Y-73205909D01*
X103397873Y-73199500D01*
X103397869Y-73199500D01*
X98802137Y-73199500D01*
X98802122Y-73199501D01*
X98742516Y-73205909D01*
X98662303Y-73235826D01*
X98607669Y-73256204D01*
X98607668Y-73256204D01*
X98607667Y-73256205D01*
X98607665Y-73256206D01*
X98492454Y-73342454D01*
X98406206Y-73457665D01*
X98406205Y-73457667D01*
X98355909Y-73592515D01*
X98355909Y-73592518D01*
X98349500Y-73652125D01*
X93300500Y-73652125D01*
X93300500Y-72562726D01*
X93318093Y-72514388D01*
X93322517Y-72509560D01*
X93329816Y-72502262D01*
X93425789Y-72349522D01*
X93485368Y-72179255D01*
X93505565Y-72000000D01*
X93485368Y-71820745D01*
X93425789Y-71650478D01*
X93329816Y-71497738D01*
X93329815Y-71497737D01*
X93329814Y-71497735D01*
X93202264Y-71370185D01*
X93167923Y-71348607D01*
X93049522Y-71274211D01*
X93038923Y-71270502D01*
X92879260Y-71214633D01*
X92879252Y-71214631D01*
X92700001Y-71194435D01*
X92699999Y-71194435D01*
X92520747Y-71214631D01*
X92520739Y-71214633D01*
X92350480Y-71274210D01*
X92197735Y-71370185D01*
X92070185Y-71497735D01*
X91974210Y-71650480D01*
X91914633Y-71820739D01*
X91914631Y-71820747D01*
X91894435Y-71999999D01*
X91894435Y-72000002D01*
X91903933Y-72084307D01*
X91901845Y-72112183D01*
X91899499Y-72120941D01*
X91899499Y-72120943D01*
X91899499Y-72279057D01*
X91940423Y-72431784D01*
X91940423Y-72431786D01*
X92019479Y-72568714D01*
X92019480Y-72568715D01*
X92019481Y-72568716D01*
X92077474Y-72626709D01*
X92099214Y-72673328D01*
X92099500Y-72679883D01*
X92099500Y-75764680D01*
X92081907Y-75813018D01*
X92064309Y-75828353D01*
X91997739Y-75870182D01*
X91997737Y-75870183D01*
X91870185Y-75997735D01*
X91832604Y-76057546D01*
X91778412Y-76143793D01*
X91774210Y-76150480D01*
X91714633Y-76320739D01*
X91714631Y-76320747D01*
X91694435Y-76499999D01*
X40534856Y-76499999D01*
X40536570Y-72000000D01*
X42294422Y-72000000D01*
X42314721Y-72387337D01*
X42375396Y-72770425D01*
X42375397Y-72770427D01*
X42375398Y-72770433D01*
X42475786Y-73145087D01*
X42475788Y-73145094D01*
X42614780Y-73507182D01*
X42614782Y-73507187D01*
X42790874Y-73852788D01*
X43002124Y-74178084D01*
X43002130Y-74178093D01*
X43246215Y-74479511D01*
X43246232Y-74479530D01*
X43520469Y-74753767D01*
X43520478Y-74753775D01*
X43520484Y-74753781D01*
X43520488Y-74753784D01*
X43821906Y-74997869D01*
X43821913Y-74997874D01*
X43821916Y-74997876D01*
X44147211Y-75209125D01*
X44492812Y-75385217D01*
X44492817Y-75385219D01*
X44786300Y-75497876D01*
X44854913Y-75524214D01*
X45229567Y-75624602D01*
X45612662Y-75685278D01*
X46000000Y-75705578D01*
X46387338Y-75685278D01*
X46770433Y-75624602D01*
X47145087Y-75524214D01*
X47305466Y-75462650D01*
X47507182Y-75385219D01*
X47507187Y-75385217D01*
X47507189Y-75385215D01*
X47507194Y-75385214D01*
X47852789Y-75209125D01*
X48178084Y-74997876D01*
X48200740Y-74979530D01*
X48243035Y-74945279D01*
X48479516Y-74753781D01*
X48753781Y-74479516D01*
X48997876Y-74178084D01*
X49209125Y-73852789D01*
X49385214Y-73507194D01*
X49393497Y-73485618D01*
X49483660Y-73250733D01*
X49524214Y-73145087D01*
X49624602Y-72770433D01*
X49685278Y-72387338D01*
X49705578Y-72000000D01*
X49685278Y-71612662D01*
X49624602Y-71229567D01*
X49524214Y-70854913D01*
X49444485Y-70647211D01*
X49385219Y-70492817D01*
X49385217Y-70492812D01*
X49346776Y-70417368D01*
X49342666Y-70409301D01*
X95247600Y-70409301D01*
X95247600Y-71250000D01*
X95900000Y-71250000D01*
X95900000Y-71750000D01*
X95247600Y-71750000D01*
X95247600Y-72590698D01*
X95275974Y-72769846D01*
X95275977Y-72769858D01*
X95332029Y-72942370D01*
X95414381Y-73103991D01*
X95520995Y-73250733D01*
X95521007Y-73250747D01*
X95649252Y-73378992D01*
X95649266Y-73379004D01*
X95796008Y-73485618D01*
X95957630Y-73567970D01*
X96130141Y-73624023D01*
X96150000Y-73627168D01*
X96150000Y-72933012D01*
X96207007Y-72965925D01*
X96334174Y-73000000D01*
X96465826Y-73000000D01*
X96592993Y-72965925D01*
X96650000Y-72933012D01*
X96650000Y-73627167D01*
X96669857Y-73624023D01*
X96669858Y-73624023D01*
X96842369Y-73567970D01*
X97003991Y-73485618D01*
X97150733Y-73379004D01*
X97150747Y-73378992D01*
X97278992Y-73250747D01*
X97279004Y-73250733D01*
X97385618Y-73103991D01*
X97467970Y-72942370D01*
X97524022Y-72769858D01*
X97524025Y-72769846D01*
X97552399Y-72590698D01*
X97552400Y-72590691D01*
X97552400Y-72500000D01*
X116794422Y-72500000D01*
X116814721Y-72887337D01*
X116875396Y-73270425D01*
X116875397Y-73270427D01*
X116875398Y-73270433D01*
X116970985Y-73627168D01*
X116975788Y-73645094D01*
X117114780Y-74007182D01*
X117114782Y-74007187D01*
X117290874Y-74352788D01*
X117502124Y-74678084D01*
X117502130Y-74678093D01*
X117746215Y-74979511D01*
X117746232Y-74979530D01*
X118020469Y-75253767D01*
X118020478Y-75253775D01*
X118020484Y-75253781D01*
X118020488Y-75253784D01*
X118321906Y-75497869D01*
X118321913Y-75497874D01*
X118321916Y-75497876D01*
X118362473Y-75524214D01*
X118647211Y-75709125D01*
X118992812Y-75885217D01*
X118992817Y-75885219D01*
X119354905Y-76024211D01*
X119354913Y-76024214D01*
X119729567Y-76124602D01*
X120112662Y-76185278D01*
X120500000Y-76205578D01*
X120887338Y-76185278D01*
X121270433Y-76124602D01*
X121645087Y-76024214D01*
X121805466Y-75962650D01*
X122007182Y-75885219D01*
X122007187Y-75885217D01*
X122007189Y-75885215D01*
X122007194Y-75885214D01*
X122352789Y-75709125D01*
X122678084Y-75497876D01*
X122979516Y-75253781D01*
X123253781Y-74979516D01*
X123497876Y-74678084D01*
X123709125Y-74352789D01*
X123885214Y-74007194D01*
X124024214Y-73645087D01*
X124124602Y-73270433D01*
X124185278Y-72887338D01*
X124205578Y-72500000D01*
X124185278Y-72112662D01*
X124124602Y-71729567D01*
X124024214Y-71354913D01*
X124024211Y-71354905D01*
X123885219Y-70992817D01*
X123885217Y-70992812D01*
X123709125Y-70647211D01*
X123559862Y-70417366D01*
X123497876Y-70321916D01*
X123497874Y-70321913D01*
X123497869Y-70321906D01*
X123253784Y-70020488D01*
X123253781Y-70020484D01*
X123253775Y-70020478D01*
X123253767Y-70020469D01*
X122979530Y-69746232D01*
X122979520Y-69746223D01*
X122979516Y-69746219D01*
X122945133Y-69718376D01*
X122678093Y-69502130D01*
X122678084Y-69502124D01*
X122352788Y-69290874D01*
X122007187Y-69114782D01*
X122007182Y-69114780D01*
X121645094Y-68975788D01*
X121608285Y-68965925D01*
X121270433Y-68875398D01*
X121270427Y-68875397D01*
X121270425Y-68875396D01*
X120887337Y-68814721D01*
X120500000Y-68794422D01*
X120112662Y-68814721D01*
X119729574Y-68875396D01*
X119729572Y-68875397D01*
X119729570Y-68875397D01*
X119729567Y-68875398D01*
X119479624Y-68942370D01*
X119354905Y-68975788D01*
X118992817Y-69114780D01*
X118992812Y-69114782D01*
X118647211Y-69290874D01*
X118321915Y-69502124D01*
X118321906Y-69502130D01*
X118020488Y-69746215D01*
X118020469Y-69746232D01*
X117746232Y-70020469D01*
X117746215Y-70020488D01*
X117502130Y-70321906D01*
X117502124Y-70321915D01*
X117290874Y-70647211D01*
X117114782Y-70992812D01*
X117114780Y-70992817D01*
X116975788Y-71354905D01*
X116875397Y-71729572D01*
X116875396Y-71729574D01*
X116814721Y-72112662D01*
X116794422Y-72500000D01*
X97552400Y-72500000D01*
X97552400Y-71750000D01*
X96900000Y-71750000D01*
X96900000Y-71250000D01*
X97552400Y-71250000D01*
X97552400Y-70409308D01*
X97552399Y-70409301D01*
X97524025Y-70230153D01*
X97524022Y-70230141D01*
X97467970Y-70057629D01*
X97385618Y-69896008D01*
X97279004Y-69749266D01*
X97278992Y-69749252D01*
X97150747Y-69621007D01*
X97150733Y-69620995D01*
X97003991Y-69514381D01*
X96842370Y-69432029D01*
X96669854Y-69375976D01*
X96669850Y-69375975D01*
X96650000Y-69372830D01*
X96650000Y-70066988D01*
X96592993Y-70034075D01*
X96465826Y-70000000D01*
X96334174Y-70000000D01*
X96207007Y-70034075D01*
X96150000Y-70066988D01*
X96150000Y-69372831D01*
X96149999Y-69372830D01*
X96130149Y-69375975D01*
X96130145Y-69375976D01*
X95957629Y-69432029D01*
X95796008Y-69514381D01*
X95649266Y-69620995D01*
X95649252Y-69621007D01*
X95521007Y-69749252D01*
X95520995Y-69749266D01*
X95414381Y-69896008D01*
X95332029Y-70057629D01*
X95275977Y-70230141D01*
X95275974Y-70230153D01*
X95247600Y-70409301D01*
X49342666Y-70409301D01*
X49209125Y-70147211D01*
X48997876Y-69821916D01*
X48997874Y-69821913D01*
X48997869Y-69821906D01*
X48753784Y-69520488D01*
X48753781Y-69520484D01*
X48753775Y-69520478D01*
X48753767Y-69520469D01*
X48479530Y-69246232D01*
X48479520Y-69246223D01*
X48479516Y-69246219D01*
X48468481Y-69237283D01*
X48178093Y-69002130D01*
X48178084Y-69002124D01*
X47852788Y-68790874D01*
X47507187Y-68614782D01*
X47507182Y-68614780D01*
X47145094Y-68475788D01*
X47145087Y-68475786D01*
X46770433Y-68375398D01*
X46770427Y-68375397D01*
X46770425Y-68375396D01*
X46387337Y-68314721D01*
X46000000Y-68294422D01*
X45612662Y-68314721D01*
X45229574Y-68375396D01*
X45229572Y-68375397D01*
X45229570Y-68375397D01*
X45229567Y-68375398D01*
X44966211Y-68445963D01*
X44854905Y-68475788D01*
X44492817Y-68614780D01*
X44492812Y-68614782D01*
X44147211Y-68790874D01*
X43821915Y-69002124D01*
X43821906Y-69002130D01*
X43520488Y-69246215D01*
X43520469Y-69246232D01*
X43246232Y-69520469D01*
X43246215Y-69520488D01*
X43002130Y-69821906D01*
X43002124Y-69821915D01*
X42790874Y-70147211D01*
X42614782Y-70492812D01*
X42614780Y-70492817D01*
X42475788Y-70854905D01*
X42375397Y-71229572D01*
X42375396Y-71229574D01*
X42314721Y-71612662D01*
X42294422Y-72000000D01*
X40536570Y-72000000D01*
X40537168Y-70429322D01*
X40538272Y-70416520D01*
X40596050Y-70083086D01*
X40597589Y-70076168D01*
X40693237Y-69725120D01*
X40695419Y-69718384D01*
X40823754Y-69377891D01*
X40826552Y-69371412D01*
X40986412Y-69044556D01*
X40989821Y-69038346D01*
X41179793Y-68728016D01*
X41183770Y-68722160D01*
X41402157Y-68431125D01*
X41406672Y-68425666D01*
X41566487Y-68249999D01*
X98972830Y-68249999D01*
X98972831Y-68250000D01*
X99666988Y-68250000D01*
X99634075Y-68307007D01*
X99600000Y-68434174D01*
X99600000Y-68565826D01*
X99634075Y-68692993D01*
X99666988Y-68750000D01*
X98972831Y-68750000D01*
X98975975Y-68769850D01*
X98975976Y-68769854D01*
X99032029Y-68942370D01*
X99114381Y-69103991D01*
X99220995Y-69250733D01*
X99221007Y-69250747D01*
X99349252Y-69378992D01*
X99349266Y-69379004D01*
X99496008Y-69485618D01*
X99657629Y-69567970D01*
X99830141Y-69624022D01*
X99830153Y-69624025D01*
X100009301Y-69652399D01*
X100009308Y-69652400D01*
X100850000Y-69652400D01*
X100850000Y-69000000D01*
X101350000Y-69000000D01*
X101350000Y-69652400D01*
X102190692Y-69652400D01*
X102190698Y-69652399D01*
X102369846Y-69624025D01*
X102369858Y-69624022D01*
X102542370Y-69567970D01*
X102703991Y-69485618D01*
X102850733Y-69379004D01*
X102850747Y-69378992D01*
X102978992Y-69250747D01*
X102979004Y-69250733D01*
X103085618Y-69103991D01*
X103167970Y-68942370D01*
X103224023Y-68769854D01*
X103224024Y-68769850D01*
X103227169Y-68750000D01*
X102533012Y-68750000D01*
X102565925Y-68692993D01*
X102600000Y-68565826D01*
X102600000Y-68434174D01*
X102565925Y-68307007D01*
X102533012Y-68250000D01*
X103227169Y-68250000D01*
X103227169Y-68249999D01*
X103224024Y-68230149D01*
X103224023Y-68230145D01*
X103167970Y-68057629D01*
X103085618Y-67896008D01*
X102979004Y-67749266D01*
X102978992Y-67749252D01*
X102850747Y-67621007D01*
X102850733Y-67620995D01*
X102703991Y-67514381D01*
X102542370Y-67432029D01*
X102369858Y-67375977D01*
X102369846Y-67375974D01*
X102190698Y-67347600D01*
X101350000Y-67347600D01*
X101350000Y-68000000D01*
X100850000Y-68000000D01*
X100850000Y-67347600D01*
X100009301Y-67347600D01*
X99830153Y-67375974D01*
X99830141Y-67375977D01*
X99657629Y-67432029D01*
X99496008Y-67514381D01*
X99349266Y-67620995D01*
X99349252Y-67621007D01*
X99221007Y-67749252D01*
X99220995Y-67749266D01*
X99114381Y-67896008D01*
X99032029Y-68057629D01*
X98975976Y-68230145D01*
X98975975Y-68230149D01*
X98972830Y-68249999D01*
X41566487Y-68249999D01*
X41651528Y-68156523D01*
X41656523Y-68151528D01*
X41925666Y-67906672D01*
X41931130Y-67902154D01*
X42222160Y-67683770D01*
X42228024Y-67679789D01*
X42538346Y-67489821D01*
X42544556Y-67486412D01*
X42871412Y-67326552D01*
X42877891Y-67323754D01*
X43218384Y-67195419D01*
X43225120Y-67193237D01*
X43576178Y-67097586D01*
X43583086Y-67096050D01*
X43916417Y-67038290D01*
X43929254Y-67037187D01*
X122070752Y-67037187D01*
X122083567Y-67038289D01*
G37*
%TD.AperFunction*%
%TD*%
M02*
