%TF.GenerationSoftware,KiCad,Pcbnew,8.0.6*%
%TF.CreationDate,2024-11-20T22:28:01-08:00*%
%TF.ProjectId,project_rev5,70726f6a-6563-4745-9f72-6576352e6b69,REV5*%
%TF.SameCoordinates,Original*%
%TF.FileFunction,Legend,Bot*%
%TF.FilePolarity,Positive*%
%FSLAX46Y46*%
G04 Gerber Fmt 4.6, Leading zero omitted, Abs format (unit mm)*
G04 Created by KiCad (PCBNEW 8.0.6) date 2024-11-20 22:28:01*
%MOMM*%
%LPD*%
G01*
G04 APERTURE LIST*
G04 Aperture macros list*
%AMRoundRect*
0 Rectangle with rounded corners*
0 $1 Rounding radius*
0 $2 $3 $4 $5 $6 $7 $8 $9 X,Y pos of 4 corners*
0 Add a 4 corners polygon primitive as box body*
4,1,4,$2,$3,$4,$5,$6,$7,$8,$9,$2,$3,0*
0 Add four circle primitives for the rounded corners*
1,1,$1+$1,$2,$3*
1,1,$1+$1,$4,$5*
1,1,$1+$1,$6,$7*
1,1,$1+$1,$8,$9*
0 Add four rect primitives between the rounded corners*
20,1,$1+$1,$2,$3,$4,$5,0*
20,1,$1+$1,$4,$5,$6,$7,0*
20,1,$1+$1,$6,$7,$8,$9,0*
20,1,$1+$1,$8,$9,$2,$3,0*%
G04 Aperture macros list end*
%ADD10O,2.000000X4.000000*%
%ADD11O,4.000000X2.000000*%
%ADD12R,4.500000X2.000000*%
%ADD13C,0.900000*%
%ADD14C,0.650000*%
%ADD15O,2.100000X1.000000*%
%ADD16O,1.800000X1.000000*%
%ADD17C,6.400000*%
%ADD18C,1.500000*%
%ADD19RoundRect,0.250000X-0.725000X0.600000X-0.725000X-0.600000X0.725000X-0.600000X0.725000X0.600000X0*%
%ADD20O,1.950000X1.700000*%
%ADD21R,1.700000X1.700000*%
%ADD22O,1.700000X1.700000*%
G04 APERTURE END LIST*
%LPC*%
D10*
%TO.C,J1*%
X96400000Y-71500000D03*
D11*
X101100000Y-68500000D03*
D12*
X101100000Y-74700000D03*
%TD*%
D13*
%TO.C,SW4*%
X124000000Y-122400000D03*
X124000000Y-115600000D03*
%TD*%
D14*
%TO.C,J8*%
X119145000Y-91890000D03*
X119145000Y-86110000D03*
D15*
X118645000Y-93320000D03*
D16*
X122825000Y-93320000D03*
D15*
X118645000Y-84680000D03*
D16*
X122825000Y-84680000D03*
%TD*%
D17*
%TO.C,H2*%
X120500000Y-72500000D03*
%TD*%
D18*
%TO.C,TP_BOOT1*%
X88000000Y-130000000D03*
%TD*%
D19*
%TO.C,J2*%
X49900000Y-136750000D03*
D20*
X49900000Y-139250000D03*
X49900000Y-141750000D03*
X49900000Y-144250000D03*
%TD*%
D17*
%TO.C,H3*%
X120000000Y-149500000D03*
%TD*%
D21*
%TO.C,J12*%
X72860000Y-134770000D03*
D22*
X75400000Y-134770000D03*
X77940000Y-134770000D03*
X80480000Y-134770000D03*
X83020000Y-134770000D03*
X85560000Y-134770000D03*
X88100000Y-134770000D03*
X90640000Y-134770000D03*
X93180000Y-134770000D03*
X95720000Y-134770000D03*
X98260000Y-134770000D03*
X100800000Y-134770000D03*
%TD*%
D18*
%TO.C,TP_AND1*%
X83500000Y-107000000D03*
%TD*%
D19*
%TO.C,J4*%
X49900000Y-101250000D03*
D20*
X49900000Y-103750000D03*
%TD*%
D19*
%TO.C,J5*%
X49900000Y-111750000D03*
D20*
X49900000Y-114250000D03*
%TD*%
D18*
%TO.C,TP_LCELL_VCC1*%
X66000000Y-149000000D03*
%TD*%
D21*
%TO.C,J10*%
X120940000Y-155000000D03*
D22*
X118400000Y-155000000D03*
X115860000Y-155000000D03*
X113320000Y-155000000D03*
X110780000Y-155000000D03*
X108240000Y-155000000D03*
X105700000Y-155000000D03*
X103160000Y-155000000D03*
X100620000Y-155000000D03*
%TD*%
D19*
%TO.C,J3*%
X49900000Y-90750000D03*
D20*
X49900000Y-93250000D03*
%TD*%
D18*
%TO.C,TP_PU_EN1*%
X108000000Y-148000000D03*
%TD*%
D19*
%TO.C,J6*%
X49800000Y-122250000D03*
D20*
X49800000Y-124750000D03*
%TD*%
D17*
%TO.C,H1*%
X46000000Y-72000000D03*
%TD*%
%TO.C,H4*%
X46000000Y-153500000D03*
%TD*%
D19*
%TO.C,J7*%
X49900000Y-79750000D03*
D20*
X49900000Y-82250000D03*
%TD*%
D21*
%TO.C,J11*%
X52050000Y-157120000D03*
D22*
X54590000Y-157120000D03*
X57130000Y-157120000D03*
X59670000Y-157120000D03*
X62210000Y-157120000D03*
X64750000Y-157120000D03*
X67290000Y-157120000D03*
X69830000Y-157120000D03*
X72370000Y-157120000D03*
X74910000Y-157120000D03*
%TD*%
D18*
%TO.C,TP_ADC2*%
X65000000Y-133500000D03*
%TD*%
%LPD*%
M02*
