%TF.GenerationSoftware,KiCad,Pcbnew,8.0.6*%
%TF.CreationDate,2024-11-20T22:28:01-08:00*%
%TF.ProjectId,project_rev5,70726f6a-6563-4745-9f72-6576352e6b69,REV5*%
%TF.SameCoordinates,Original*%
%TF.FileFunction,Paste,Top*%
%TF.FilePolarity,Positive*%
%FSLAX46Y46*%
G04 Gerber Fmt 4.6, Leading zero omitted, Abs format (unit mm)*
G04 Created by KiCad (PCBNEW 8.0.6) date 2024-11-20 22:28:01*
%MOMM*%
%LPD*%
G01*
G04 APERTURE LIST*
G04 Aperture macros list*
%AMRoundRect*
0 Rectangle with rounded corners*
0 $1 Rounding radius*
0 $2 $3 $4 $5 $6 $7 $8 $9 X,Y pos of 4 corners*
0 Add a 4 corners polygon primitive as box body*
4,1,4,$2,$3,$4,$5,$6,$7,$8,$9,$2,$3,0*
0 Add four circle primitives for the rounded corners*
1,1,$1+$1,$2,$3*
1,1,$1+$1,$4,$5*
1,1,$1+$1,$6,$7*
1,1,$1+$1,$8,$9*
0 Add four rect primitives between the rounded corners*
20,1,$1+$1,$2,$3,$4,$5,0*
20,1,$1+$1,$4,$5,$6,$7,0*
20,1,$1+$1,$6,$7,$8,$9,0*
20,1,$1+$1,$8,$9,$2,$3,0*%
G04 Aperture macros list end*
%ADD10RoundRect,0.250000X1.000000X-0.375000X1.000000X0.375000X-1.000000X0.375000X-1.000000X-0.375000X0*%
%ADD11RoundRect,0.237500X-0.237500X0.250000X-0.237500X-0.250000X0.237500X-0.250000X0.237500X0.250000X0*%
%ADD12RoundRect,0.237500X0.250000X0.237500X-0.250000X0.237500X-0.250000X-0.237500X0.250000X-0.237500X0*%
%ADD13RoundRect,0.150000X0.425000X-0.150000X0.425000X0.150000X-0.425000X0.150000X-0.425000X-0.150000X0*%
%ADD14RoundRect,0.075000X0.500000X-0.075000X0.500000X0.075000X-0.500000X0.075000X-0.500000X-0.075000X0*%
%ADD15O,2.100000X1.000000*%
%ADD16O,1.800000X1.000000*%
%ADD17RoundRect,0.237500X0.237500X-0.300000X0.237500X0.300000X-0.237500X0.300000X-0.237500X-0.300000X0*%
%ADD18RoundRect,0.237500X-0.250000X-0.237500X0.250000X-0.237500X0.250000X0.237500X-0.250000X0.237500X0*%
%ADD19RoundRect,0.218750X0.256250X-0.218750X0.256250X0.218750X-0.256250X0.218750X-0.256250X-0.218750X0*%
%ADD20R,1.200000X1.200000*%
%ADD21R,1.500000X1.600000*%
%ADD22RoundRect,0.218750X-0.218750X-0.256250X0.218750X-0.256250X0.218750X0.256250X-0.218750X0.256250X0*%
%ADD23RoundRect,0.150000X0.512500X0.150000X-0.512500X0.150000X-0.512500X-0.150000X0.512500X-0.150000X0*%
%ADD24RoundRect,0.237500X0.237500X-0.250000X0.237500X0.250000X-0.237500X0.250000X-0.237500X-0.250000X0*%
%ADD25RoundRect,0.218750X-0.256250X0.218750X-0.256250X-0.218750X0.256250X-0.218750X0.256250X0.218750X0*%
%ADD26RoundRect,0.375000X-0.375000X0.625000X-0.375000X-0.625000X0.375000X-0.625000X0.375000X0.625000X0*%
%ADD27RoundRect,0.500000X-1.400000X0.500000X-1.400000X-0.500000X1.400000X-0.500000X1.400000X0.500000X0*%
%ADD28R,0.660400X1.041400*%
%ADD29RoundRect,0.237500X-0.237500X0.300000X-0.237500X-0.300000X0.237500X-0.300000X0.237500X0.300000X0*%
%ADD30R,1.500000X0.900000*%
%ADD31R,0.900000X1.500000*%
%ADD32R,0.900000X0.900000*%
%ADD33R,1.041400X0.660400*%
%ADD34RoundRect,0.225000X-0.225000X-0.375000X0.225000X-0.375000X0.225000X0.375000X-0.225000X0.375000X0*%
%ADD35R,3.400000X1.800000*%
%ADD36RoundRect,0.062500X-0.062500X0.117500X-0.062500X-0.117500X0.062500X-0.117500X0.062500X0.117500X0*%
%ADD37RoundRect,0.150000X-0.825000X-0.150000X0.825000X-0.150000X0.825000X0.150000X-0.825000X0.150000X0*%
%ADD38RoundRect,0.237500X-0.300000X-0.237500X0.300000X-0.237500X0.300000X0.237500X-0.300000X0.237500X0*%
%ADD39RoundRect,0.112500X-0.237500X0.112500X-0.237500X-0.112500X0.237500X-0.112500X0.237500X0.112500X0*%
%ADD40RoundRect,0.150000X-0.150000X0.825000X-0.150000X-0.825000X0.150000X-0.825000X0.150000X0.825000X0*%
%ADD41RoundRect,0.062500X-0.117500X-0.062500X0.117500X-0.062500X0.117500X0.062500X-0.117500X0.062500X0*%
%ADD42RoundRect,0.150000X-0.850000X-0.150000X0.850000X-0.150000X0.850000X0.150000X-0.850000X0.150000X0*%
%ADD43RoundRect,0.375000X0.375000X-0.625000X0.375000X0.625000X-0.375000X0.625000X-0.375000X-0.625000X0*%
%ADD44RoundRect,0.500000X1.400000X-0.500000X1.400000X0.500000X-1.400000X0.500000X-1.400000X-0.500000X0*%
%ADD45RoundRect,0.237500X0.300000X0.237500X-0.300000X0.237500X-0.300000X-0.237500X0.300000X-0.237500X0*%
%ADD46RoundRect,0.062500X0.062500X-0.117500X0.062500X0.117500X-0.062500X0.117500X-0.062500X-0.117500X0*%
G04 APERTURE END LIST*
D10*
%TO.C,SW4*%
X121250000Y-121500000D03*
X121250000Y-119000000D03*
X121250000Y-116500000D03*
%TD*%
D11*
%TO.C,R19*%
X121000000Y-109087500D03*
X121000000Y-110912500D03*
%TD*%
D12*
%TO.C,R7*%
X57412500Y-147500000D03*
X55587500Y-147500000D03*
%TD*%
D13*
%TO.C,J8*%
X118070000Y-92200000D03*
X118070000Y-91400000D03*
D14*
X118070000Y-90250000D03*
X118070000Y-89250000D03*
X118070000Y-88750000D03*
X118070000Y-87750000D03*
D13*
X118070000Y-86600000D03*
X118070000Y-85800000D03*
X118070000Y-85800000D03*
X118070000Y-86600000D03*
D14*
X118070000Y-87250000D03*
X118070000Y-88250000D03*
X118070000Y-89750000D03*
X118070000Y-90750000D03*
D13*
X118070000Y-91400000D03*
X118070000Y-92200000D03*
D15*
X118645000Y-93320000D03*
D16*
X122825000Y-93320000D03*
D15*
X118645000Y-84680000D03*
D16*
X122825000Y-84680000D03*
%TD*%
D12*
%TO.C,R9*%
X100782500Y-83140000D03*
X98957500Y-83140000D03*
%TD*%
D17*
%TO.C,C3*%
X60770000Y-142042500D03*
X60770000Y-140317500D03*
%TD*%
D18*
%TO.C,R14*%
X120587500Y-143110000D03*
X122412500Y-143110000D03*
%TD*%
D19*
%TO.C,D6*%
X122000000Y-139055000D03*
X122000000Y-137480000D03*
%TD*%
D20*
%TO.C,RV1*%
X58300000Y-90900000D03*
D21*
X61550000Y-91900000D03*
D20*
X58300000Y-92900000D03*
%TD*%
D22*
%TO.C,D5*%
X85572500Y-72000000D03*
X87147500Y-72000000D03*
%TD*%
D20*
%TO.C,RV4*%
X58400000Y-122100000D03*
D21*
X61650000Y-123100000D03*
D20*
X58400000Y-124100000D03*
%TD*%
D17*
%TO.C,C8*%
X84750000Y-81487500D03*
X84750000Y-83212500D03*
%TD*%
%TO.C,C5*%
X72300000Y-83112500D03*
X72300000Y-81387500D03*
%TD*%
D23*
%TO.C,Q2*%
X60137500Y-130450000D03*
X60137500Y-128550000D03*
X57862500Y-129500000D03*
%TD*%
D17*
%TO.C,C7*%
X81750000Y-83212500D03*
X81750000Y-81487500D03*
%TD*%
D24*
%TO.C,R21*%
X122000000Y-135000000D03*
X122000000Y-133175000D03*
%TD*%
D12*
%TO.C,R11*%
X71312500Y-129800000D03*
X69487500Y-129800000D03*
%TD*%
D25*
%TO.C,D8*%
X121000000Y-105212500D03*
X121000000Y-106787500D03*
%TD*%
D12*
%TO.C,R17*%
X75022500Y-141740000D03*
X73197500Y-141740000D03*
%TD*%
D26*
%TO.C,U3*%
X82125000Y-86675000D03*
X79825000Y-86675000D03*
D27*
X79825000Y-92975000D03*
D26*
X77525000Y-86675000D03*
%TD*%
D28*
%TO.C,SW3*%
X105575000Y-141425000D03*
X105575000Y-145575000D03*
X103425000Y-141425000D03*
X103425000Y-145575000D03*
%TD*%
D29*
%TO.C,C9*%
X121220000Y-126390000D03*
X121220000Y-128115000D03*
%TD*%
D30*
%TO.C,U5*%
X96650000Y-157760000D03*
X96650000Y-156490000D03*
X96650000Y-155220000D03*
X96650000Y-153950000D03*
X96650000Y-152680000D03*
X96650000Y-151410000D03*
X96650000Y-150140000D03*
X96650000Y-148870000D03*
X96650000Y-147600000D03*
X96650000Y-146330000D03*
X96650000Y-145060000D03*
X96650000Y-143790000D03*
X96650000Y-142520000D03*
X96650000Y-141250000D03*
D31*
X94885000Y-140000000D03*
X93615000Y-140000000D03*
X92345000Y-140000000D03*
X91075000Y-140000000D03*
X89805000Y-140000000D03*
X88535000Y-140000000D03*
X87265000Y-140000000D03*
X85995000Y-140000000D03*
X84725000Y-140000000D03*
X83455000Y-140000000D03*
X82185000Y-140000000D03*
X80915000Y-140000000D03*
D30*
X79150000Y-141250000D03*
X79150000Y-142520000D03*
X79150000Y-143790000D03*
X79150000Y-145060000D03*
X79150000Y-146330000D03*
X79150000Y-147600000D03*
X79150000Y-148870000D03*
X79150000Y-150140000D03*
X79150000Y-151410000D03*
X79150000Y-152680000D03*
X79150000Y-153950000D03*
X79150000Y-155220000D03*
X79150000Y-156490000D03*
X79150000Y-157760000D03*
D32*
X90800000Y-151440000D03*
X90800000Y-150040000D03*
X90800000Y-148640000D03*
X90800000Y-148640000D03*
X89400000Y-151440000D03*
X89400000Y-151440000D03*
X89400000Y-150040000D03*
X89400000Y-148640000D03*
X88000000Y-151440000D03*
X88000000Y-150040000D03*
X88000000Y-148640000D03*
%TD*%
D17*
%TO.C,C12*%
X113550000Y-146800000D03*
X113550000Y-145075000D03*
%TD*%
%TO.C,C14*%
X117000000Y-114862500D03*
X117000000Y-113137500D03*
%TD*%
%TO.C,C1*%
X64000000Y-130362500D03*
X64000000Y-128637500D03*
%TD*%
D33*
%TO.C,SW2*%
X93825000Y-127225000D03*
X97975000Y-127225000D03*
X93825000Y-129375000D03*
X97975000Y-129375000D03*
%TD*%
D24*
%TO.C,R2*%
X114000000Y-97412500D03*
X114000000Y-95587500D03*
%TD*%
D34*
%TO.C,D1*%
X110350000Y-105000000D03*
X113650000Y-105000000D03*
%TD*%
D24*
%TO.C,R1*%
X91750000Y-93475000D03*
X91750000Y-91650000D03*
%TD*%
D35*
%TO.C,TP1*%
X109500000Y-69000000D03*
%TD*%
D20*
%TO.C,RV2*%
X58200000Y-101400000D03*
D21*
X61450000Y-102400000D03*
D20*
X58200000Y-103400000D03*
%TD*%
D24*
%TO.C,R3*%
X95250000Y-91518750D03*
X95250000Y-89693750D03*
%TD*%
D12*
%TO.C,R6*%
X57312500Y-143500000D03*
X55487500Y-143500000D03*
%TD*%
D11*
%TO.C,R22*%
X98900000Y-97575000D03*
X98900000Y-99400000D03*
%TD*%
D36*
%TO.C,D2*%
X114000000Y-82420000D03*
X114000000Y-81580000D03*
%TD*%
D12*
%TO.C,R16*%
X74902500Y-144940000D03*
X73077500Y-144940000D03*
%TD*%
D24*
%TO.C,R15*%
X110140000Y-144962500D03*
X110140000Y-143137500D03*
%TD*%
D37*
%TO.C,U2*%
X89275000Y-97940000D03*
X89275000Y-99210000D03*
X89275000Y-100480000D03*
X89275000Y-101750000D03*
X89275000Y-103020000D03*
X89275000Y-104290000D03*
X89275000Y-105560000D03*
X94225000Y-105560000D03*
X94225000Y-104290000D03*
X94225000Y-103020000D03*
X94225000Y-101750000D03*
X94225000Y-100480000D03*
X94225000Y-99210000D03*
X94225000Y-97940000D03*
%TD*%
D17*
%TO.C,C6*%
X76300000Y-83112500D03*
X76300000Y-81387500D03*
%TD*%
D25*
%TO.C,D7*%
X121000000Y-77337500D03*
X121000000Y-78912500D03*
%TD*%
D17*
%TO.C,C4*%
X61000000Y-146362500D03*
X61000000Y-144637500D03*
%TD*%
D35*
%TO.C,TP2*%
X114500000Y-69000000D03*
%TD*%
D18*
%TO.C,R13*%
X97487500Y-121800000D03*
X99312500Y-121800000D03*
%TD*%
D38*
%TO.C,C15*%
X113357500Y-139390000D03*
X115082500Y-139390000D03*
%TD*%
D17*
%TO.C,C2*%
X53000000Y-132362500D03*
X53000000Y-130637500D03*
%TD*%
D18*
%TO.C,R8*%
X110587500Y-85000000D03*
X112412500Y-85000000D03*
%TD*%
D17*
%TO.C,C13*%
X113000000Y-114862500D03*
X113000000Y-113137500D03*
%TD*%
D39*
%TO.C,Q1*%
X99100000Y-86950000D03*
X99100000Y-88250000D03*
X101100000Y-87600000D03*
%TD*%
D11*
%TO.C,R18*%
X121000000Y-80500000D03*
X121000000Y-82325000D03*
%TD*%
D38*
%TO.C,C16*%
X113357500Y-135390000D03*
X115082500Y-135390000D03*
%TD*%
D40*
%TO.C,U4*%
X79810000Y-98025000D03*
X78540000Y-98025000D03*
X77270000Y-98025000D03*
X76000000Y-98025000D03*
X74730000Y-98025000D03*
X73460000Y-98025000D03*
X72190000Y-98025000D03*
X72190000Y-102975000D03*
X73460000Y-102975000D03*
X74730000Y-102975000D03*
X76000000Y-102975000D03*
X77270000Y-102975000D03*
X78540000Y-102975000D03*
X79810000Y-102975000D03*
%TD*%
D41*
%TO.C,D4*%
X111420000Y-89000000D03*
X110580000Y-89000000D03*
%TD*%
D18*
%TO.C,R12*%
X106097500Y-117890000D03*
X107922500Y-117890000D03*
%TD*%
%TO.C,R20*%
X89615000Y-72000000D03*
X91440000Y-72000000D03*
%TD*%
D42*
%TO.C,U1*%
X64390000Y-137410000D03*
X64390000Y-138680000D03*
X64390000Y-139950000D03*
X64390000Y-141220000D03*
X64390000Y-142490000D03*
X64390000Y-143760000D03*
X64390000Y-145030000D03*
X64390000Y-146300000D03*
X69390000Y-146300000D03*
X69390000Y-145030000D03*
X69390000Y-143760000D03*
X69390000Y-142490000D03*
X69390000Y-141220000D03*
X69390000Y-139950000D03*
X69390000Y-138680000D03*
X69390000Y-137410000D03*
%TD*%
D24*
%TO.C,R10*%
X101100000Y-94212500D03*
X101100000Y-92387500D03*
%TD*%
D43*
%TO.C,U6*%
X108920000Y-131540000D03*
X111220000Y-131540000D03*
D44*
X111220000Y-125240000D03*
D43*
X113520000Y-131540000D03*
%TD*%
D45*
%TO.C,C17*%
X110720000Y-135390000D03*
X108995000Y-135390000D03*
%TD*%
%TO.C,C18*%
X110720000Y-139390000D03*
X108995000Y-139390000D03*
%TD*%
D24*
%TO.C,R4*%
X55700000Y-135700000D03*
X55700000Y-133875000D03*
%TD*%
D18*
%TO.C,R5*%
X55587500Y-139000000D03*
X57412500Y-139000000D03*
%TD*%
D20*
%TO.C,RV3*%
X58100000Y-111700000D03*
D21*
X61350000Y-112700000D03*
D20*
X58100000Y-113700000D03*
%TD*%
D38*
%TO.C,C11*%
X116217500Y-143000000D03*
X117942500Y-143000000D03*
%TD*%
%TO.C,C10*%
X92537500Y-121800000D03*
X94262500Y-121800000D03*
%TD*%
D46*
%TO.C,D3*%
X113000000Y-93080000D03*
X113000000Y-93920000D03*
%TD*%
M02*
