M48
; DRILL file {KiCad 8.0.6} date 2024-11-20T22:29:05-0800
; FORMAT={-:-/ absolute / inch / decimal}
; #@! TF.CreationDate,2024-11-20T22:29:05-08:00
; #@! TF.GenerationSoftware,Kicad,Pcbnew,8.0.6
; #@! TF.FileFunction,Plated,1,2,PTH
FMAT,2
INCH
; #@! TA.AperFunction,Plated,PTH,ViaDrill
T1C0.0118
; #@! TA.AperFunction,Plated,PTH,ComponentDrill
T2C0.0236
; #@! TA.AperFunction,Plated,PTH,ComponentDrill
T3C0.0276
; #@! TA.AperFunction,Plated,PTH,ComponentDrill
T4C0.0374
; #@! TA.AperFunction,Plated,PTH,ComponentDrill
T5C0.0394
; #@! TA.AperFunction,Plated,PTH,ComponentDrill
T6C0.1260
%
G90
G05
T1
X1.7705Y-5.3135
X1.7717Y-3.3465
X1.7717Y-3.5433
X1.7717Y-3.7402
X1.7717Y-3.937
X1.7717Y-4.1339
X1.7717Y-4.3307
X1.7717Y-4.7244
X1.7717Y-4.9213
X1.7717Y-5.1181
X1.7717Y-5.5118
X1.7717Y-5.7087
X1.9685Y-5.9055
X2.0374Y-5.4823
X2.0866Y-5.5512
X2.126Y-4.6457
X2.126Y-5.2165
X2.1457Y-5.4724
X2.1654Y-3.1496
X2.1654Y-3.3465
X2.1654Y-3.7402
X2.1654Y-4.1339
X2.1654Y-5.9055
X2.2933Y-3.7106
X2.2933Y-4.1142
X2.2933Y-4.5276
X2.3031Y-4.9409
X2.3622Y-4.6063
X2.4409Y-5.2559
X2.5197Y-5.1673
X2.5591Y-3.1496
X2.5591Y-3.3465
X2.5591Y-4.1339
X2.5591Y-4.4488
X2.5591Y-4.9213
X2.6378Y-4.685
X2.6417Y-5.4902
X2.6575Y-5.2461
X2.6772Y-5.7087
X2.7165Y-3.8976
X2.7165Y-4.252
X2.7559Y-3.5433
X2.7579Y-3.0768
X2.7657Y-5.8465
X2.7854Y-5.5118
X2.9921Y-3.9862
X3.0295Y-3.0827
X3.0512Y-5.1181
X3.0709Y-6.2106
X3.1496Y-4.252
X3.1693Y-6.2106
X3.2146Y-3.1599
X3.2283Y-3.3366
X3.248Y-4.9213
X3.248Y-5.6102
X3.248Y-5.9055
X3.248Y-6.1024
X3.2579Y-4.0059
X3.3268Y-2.8346
X3.3327Y-3.1599
X3.3346Y-3.0413
X3.3465Y-5.1181
X3.3465Y-6.0039
X3.3563Y-3.6614
X3.4449Y-5.7087
X3.5433Y-3.1496
X3.5433Y-3.3465
X3.5433Y-6.2008
X3.5531Y-3.5335
X3.5728Y-4.1535
X3.5925Y-4.7933
X3.6142Y-3.7283
X3.6142Y-3.8071
X3.6417Y-3.0118
X3.6417Y-5.6102
X3.6496Y-2.8346
X3.6516Y-5.0886
X3.7402Y-4.4291
X3.7598Y-3.4941
X3.7598Y-6.2106
X3.7795Y-5.0591
X3.7894Y-3.7598
X3.8189Y-3.189
X3.8189Y-4.1339
X3.8583Y-4.8819
X3.8583Y-6.2106
X3.8681Y-2.815
X3.8976Y-4.5669
X3.8976Y-5.0984
X3.937Y-4.9705
X3.937Y-5.6496
X3.9402Y-4.6457
X4.0256Y-2.8248
X4.0748Y-5.6496
X4.1339Y-3.1496
X4.1339Y-3.5433
X4.1339Y-4.9213
X4.1339Y-5.1181
X4.1339Y-5.315
X4.1339Y-5.8071
X4.1343Y-4.6457
X4.1535Y-3.7598
X4.1732Y-3.9764
X4.2126Y-2.7165
X4.2323Y-3.8386
X4.2323Y-4.1339
X4.2323Y-4.4291
X4.2421Y-5.3346
X4.252Y-5.4823
X4.2913Y-4.5866
X4.2913Y-5.1083
X4.311Y-3.3465
X4.3209Y-3.5039
X4.3307Y-5.8071
X4.3976Y-4.685
X4.439Y-3.7205
X4.4587Y-5.6201
X4.4882Y-3.1791
X4.4882Y-3.878
X4.5079Y-4.2421
X4.5271Y-2.9518
X4.5276Y-4.4193
X4.5276Y-4.626
X4.5374Y-5.6299
X4.5669Y-5.7874
X4.5768Y-5.3346
X4.6063Y-2.7165
X4.6063Y-3.9173
X4.6063Y-4.0354
X4.6142Y-3.6299
X4.6161Y-3.3839
X4.626Y-5.2165
X4.626Y-5.4134
X4.6457Y-4.5669
X4.6654Y-3.2776
X4.6752Y-3.7303
X4.7244Y-3.8386
X4.7638Y-4.1043
X4.7638Y-4.4488
X4.8031Y-3.0413
X4.8031Y-5.5118
X4.8327Y-3.2776
X4.8327Y-3.7303
X4.8425Y-3.5039
X4.8425Y-3.937
X4.8425Y-5.1575
X4.8819Y-4.7638
X4.9016Y-3.1594
T3
X2.5591Y-5.2559
X2.5984Y-5.8661
X3.2874Y-4.2126
X3.4646Y-5.1181
X4.252Y-5.8268
T4
X1.9606Y-4.813
X1.9606Y-4.9114
X1.9646Y-3.1398
X1.9646Y-3.2382
X1.9646Y-3.5728
X1.9646Y-3.6713
X1.9646Y-3.9862
X1.9646Y-4.0846
X1.9646Y-4.3996
X1.9646Y-4.498
X1.9646Y-5.3839
X1.9646Y-5.4823
X1.9646Y-5.5807
X1.9646Y-5.6791
T5
X2.0492Y-6.1858
X2.1492Y-6.1858
X2.2492Y-6.1858
X2.3492Y-6.1858
X2.4492Y-6.1858
X2.5492Y-6.1858
X2.6492Y-6.1858
X2.7492Y-6.1858
X2.8492Y-6.1858
X2.8685Y-5.3059
X2.9492Y-6.1858
X2.9685Y-5.3059
X3.0685Y-5.3059
X3.1685Y-5.3059
X3.2685Y-5.3059
X3.3685Y-5.3059
X3.4685Y-5.3059
X3.5685Y-5.3059
X3.6685Y-5.3059
X3.7685Y-5.3059
X3.8685Y-5.3059
X3.9614Y-6.1024
X3.9685Y-5.3059
X4.0614Y-6.1024
X4.1614Y-6.1024
X4.2614Y-6.1024
X4.3614Y-6.1024
X4.4614Y-6.1024
X4.5614Y-6.1024
X4.6614Y-6.1024
X4.7614Y-6.1024
T6
X1.811Y-2.8346
X1.811Y-6.0433
X4.7244Y-5.8858
X4.7441Y-2.8543
T2
G00X4.6494Y-3.3339
M15
G01X4.6927Y-3.3339
M16
G05
G00X4.6494Y-3.674
M15
G01X4.6927Y-3.674
M16
G05
G00X4.8199Y-3.3339
M15
G01X4.8514Y-3.3339
M16
G05
G00X4.8199Y-3.674
M15
G01X4.8514Y-3.674
M16
G05
T5
G00X3.7953Y-2.7756
M15
G01X3.7953Y-2.8543
M16
G05
G00X4.0197Y-2.6969
M15
G01X3.9409Y-2.6969
M16
G05
G00X4.0295Y-2.9409
M15
G01X3.9311Y-2.9409
M16
G05
M30
