%TF.GenerationSoftware,KiCad,Pcbnew,8.0.6*%
%TF.CreationDate,2024-11-14T02:25:25-08:00*%
%TF.ProjectId,project1,70726f6a-6563-4743-912e-6b696361645f,REV1*%
%TF.SameCoordinates,Original*%
%TF.FileFunction,Soldermask,Top*%
%TF.FilePolarity,Negative*%
%FSLAX46Y46*%
G04 Gerber Fmt 4.6, Leading zero omitted, Abs format (unit mm)*
G04 Created by KiCad (PCBNEW 8.0.6) date 2024-11-14 02:25:25*
%MOMM*%
%LPD*%
G01*
G04 APERTURE LIST*
G04 Aperture macros list*
%AMRoundRect*
0 Rectangle with rounded corners*
0 $1 Rounding radius*
0 $2 $3 $4 $5 $6 $7 $8 $9 X,Y pos of 4 corners*
0 Add a 4 corners polygon primitive as box body*
4,1,4,$2,$3,$4,$5,$6,$7,$8,$9,$2,$3,0*
0 Add four circle primitives for the rounded corners*
1,1,$1+$1,$2,$3*
1,1,$1+$1,$4,$5*
1,1,$1+$1,$6,$7*
1,1,$1+$1,$8,$9*
0 Add four rect primitives between the rounded corners*
20,1,$1+$1,$2,$3,$4,$5,0*
20,1,$1+$1,$4,$5,$6,$7,0*
20,1,$1+$1,$6,$7,$8,$9,0*
20,1,$1+$1,$8,$9,$2,$3,0*%
G04 Aperture macros list end*
%ADD10RoundRect,0.250000X-0.725000X0.600000X-0.725000X-0.600000X0.725000X-0.600000X0.725000X0.600000X0*%
%ADD11O,1.950000X1.700000*%
%ADD12RoundRect,0.375000X0.375000X-0.625000X0.375000X0.625000X-0.375000X0.625000X-0.375000X-0.625000X0*%
%ADD13RoundRect,0.500000X1.400000X-0.500000X1.400000X0.500000X-1.400000X0.500000X-1.400000X-0.500000X0*%
%ADD14RoundRect,0.375000X-0.375000X0.625000X-0.375000X-0.625000X0.375000X-0.625000X0.375000X0.625000X0*%
%ADD15RoundRect,0.500000X-1.400000X0.500000X-1.400000X-0.500000X1.400000X-0.500000X1.400000X0.500000X0*%
%ADD16RoundRect,0.150000X-0.825000X-0.150000X0.825000X-0.150000X0.825000X0.150000X-0.825000X0.150000X0*%
%ADD17RoundRect,0.237500X0.237500X-0.250000X0.237500X0.250000X-0.237500X0.250000X-0.237500X-0.250000X0*%
%ADD18RoundRect,0.237500X-0.250000X-0.237500X0.250000X-0.237500X0.250000X0.237500X-0.250000X0.237500X0*%
%ADD19RoundRect,0.237500X0.250000X0.237500X-0.250000X0.237500X-0.250000X-0.237500X0.250000X-0.237500X0*%
%ADD20RoundRect,0.237500X0.300000X0.237500X-0.300000X0.237500X-0.300000X-0.237500X0.300000X-0.237500X0*%
%ADD21RoundRect,0.237500X-0.300000X-0.237500X0.300000X-0.237500X0.300000X0.237500X-0.300000X0.237500X0*%
%ADD22RoundRect,0.237500X0.237500X-0.300000X0.237500X0.300000X-0.237500X0.300000X-0.237500X-0.300000X0*%
%ADD23RoundRect,0.237500X-0.237500X0.300000X-0.237500X-0.300000X0.237500X-0.300000X0.237500X0.300000X0*%
%ADD24RoundRect,0.102000X-1.050000X-0.700000X1.050000X-0.700000X1.050000X0.700000X-1.050000X0.700000X0*%
%ADD25RoundRect,0.250000X0.400000X-0.400000X0.400000X0.400000X-0.400000X0.400000X-0.400000X-0.400000X0*%
%ADD26RoundRect,0.250000X0.400000X-0.750000X0.400000X0.750000X-0.400000X0.750000X-0.400000X-0.750000X0*%
%ADD27C,0.650000*%
%ADD28R,1.240000X0.600000*%
%ADD29R,1.240000X0.300000*%
%ADD30O,2.100000X1.000000*%
%ADD31O,1.800000X1.000000*%
%ADD32RoundRect,0.150000X0.512500X0.150000X-0.512500X0.150000X-0.512500X-0.150000X0.512500X-0.150000X0*%
%ADD33R,1.500000X0.900000*%
%ADD34R,0.900000X1.500000*%
%ADD35R,0.900000X0.900000*%
%ADD36O,2.200000X2.200000*%
%ADD37R,2.200000X2.200000*%
%ADD38R,4.500000X2.000000*%
%ADD39O,4.000000X2.000000*%
%ADD40O,2.000000X4.000000*%
%ADD41RoundRect,0.250000X1.000000X-0.375000X1.000000X0.375000X-1.000000X0.375000X-1.000000X-0.375000X0*%
%ADD42C,0.900000*%
%ADD43RoundRect,0.062500X-0.062500X0.117500X-0.062500X-0.117500X0.062500X-0.117500X0.062500X0.117500X0*%
%ADD44RoundRect,0.112500X-0.237500X0.112500X-0.237500X-0.112500X0.237500X-0.112500X0.237500X0.112500X0*%
%ADD45RoundRect,0.150000X-0.150000X0.825000X-0.150000X-0.825000X0.150000X-0.825000X0.150000X0.825000X0*%
%ADD46RoundRect,0.062500X-0.117500X-0.062500X0.117500X-0.062500X0.117500X0.062500X-0.117500X0.062500X0*%
%ADD47RoundRect,0.150000X-0.850000X-0.150000X0.850000X-0.150000X0.850000X0.150000X-0.850000X0.150000X0*%
G04 APERTURE END LIST*
D10*
%TO.C,J5*%
X49800000Y-101750000D03*
D11*
X49800000Y-104250000D03*
%TD*%
D12*
%TO.C,U6*%
X103700000Y-130150000D03*
X106000000Y-130150000D03*
D13*
X106000000Y-123850000D03*
D12*
X108300000Y-130150000D03*
%TD*%
D14*
%TO.C,U3*%
X88300000Y-73850000D03*
X86000000Y-73850000D03*
D15*
X86000000Y-80150000D03*
D14*
X83700000Y-73850000D03*
%TD*%
D16*
%TO.C,U2*%
X94475000Y-90190000D03*
X94475000Y-91460000D03*
X94475000Y-92730000D03*
X94475000Y-94000000D03*
X94475000Y-95270000D03*
X94475000Y-96540000D03*
X94475000Y-97810000D03*
X89525000Y-97810000D03*
X89525000Y-96540000D03*
X89525000Y-95270000D03*
X89525000Y-94000000D03*
X89525000Y-92730000D03*
X89525000Y-91460000D03*
X89525000Y-90190000D03*
%TD*%
D17*
%TO.C,R15*%
X103000000Y-147912500D03*
X103000000Y-146087500D03*
%TD*%
D18*
%TO.C,R14*%
X118087500Y-145000000D03*
X119912500Y-145000000D03*
%TD*%
%TO.C,R13*%
X88087500Y-118000000D03*
X89912500Y-118000000D03*
%TD*%
%TO.C,R12*%
X108912500Y-93000000D03*
X107087500Y-93000000D03*
%TD*%
D19*
%TO.C,R7*%
X59912500Y-149000000D03*
X58087500Y-149000000D03*
%TD*%
%TO.C,R6*%
X58500000Y-142000000D03*
X56675000Y-142000000D03*
%TD*%
D18*
%TO.C,R5*%
X60087500Y-137000000D03*
X61912500Y-137000000D03*
%TD*%
D19*
%TO.C,R4*%
X59912500Y-130000000D03*
X58087500Y-130000000D03*
%TD*%
D17*
%TO.C,R3*%
X94000000Y-81912500D03*
X94000000Y-80087500D03*
%TD*%
D18*
%TO.C,R2*%
X109912500Y-83000000D03*
X108087500Y-83000000D03*
%TD*%
%TO.C,R1*%
X90087500Y-86000000D03*
X91912500Y-86000000D03*
%TD*%
D10*
%TO.C,J6*%
X49800000Y-114850000D03*
D11*
X49800000Y-117350000D03*
%TD*%
D10*
%TO.C,J2*%
X49900000Y-141250000D03*
D11*
X49900000Y-143750000D03*
X49900000Y-146250000D03*
X49900000Y-148750000D03*
%TD*%
D20*
%TO.C,C18*%
X103862500Y-138000000D03*
X102137500Y-138000000D03*
%TD*%
%TO.C,C17*%
X103862500Y-134000000D03*
X102137500Y-134000000D03*
%TD*%
D21*
%TO.C,C16*%
X108137500Y-134000000D03*
X109862500Y-134000000D03*
%TD*%
%TO.C,C15*%
X108137500Y-138000000D03*
X109862500Y-138000000D03*
%TD*%
D22*
%TO.C,C14*%
X117000000Y-114862500D03*
X117000000Y-113137500D03*
%TD*%
%TO.C,C13*%
X113000000Y-114862500D03*
X113000000Y-113137500D03*
%TD*%
%TO.C,C12*%
X107000000Y-147862500D03*
X107000000Y-146137500D03*
%TD*%
D21*
%TO.C,C11*%
X112137500Y-145000000D03*
X113862500Y-145000000D03*
%TD*%
%TO.C,C10*%
X83137500Y-118000000D03*
X84862500Y-118000000D03*
%TD*%
%TO.C,C9*%
X115862500Y-127000000D03*
X114137500Y-127000000D03*
%TD*%
D22*
%TO.C,C8*%
X92000000Y-67862500D03*
X92000000Y-66137500D03*
%TD*%
%TO.C,C7*%
X89000000Y-67862500D03*
X89000000Y-66137500D03*
%TD*%
%TO.C,C6*%
X83000000Y-67862500D03*
X83000000Y-66137500D03*
%TD*%
%TO.C,C5*%
X79000000Y-67862500D03*
X79000000Y-66137500D03*
%TD*%
%TO.C,C4*%
X63000000Y-146000000D03*
X63000000Y-144275000D03*
%TD*%
%TO.C,C3*%
X65000000Y-133862500D03*
X65000000Y-132137500D03*
%TD*%
%TO.C,C2*%
X56000000Y-136862500D03*
X56000000Y-135137500D03*
%TD*%
D23*
%TO.C,C1*%
X64000000Y-123275000D03*
X64000000Y-125000000D03*
%TD*%
D24*
%TO.C,S2*%
X111450000Y-149750000D03*
X111450000Y-154250000D03*
X120550000Y-149750000D03*
X120550000Y-154250000D03*
%TD*%
D25*
%TO.C,RV1*%
X58150000Y-76400000D03*
D26*
X63650000Y-75250000D03*
D25*
X58150000Y-74100000D03*
%TD*%
D27*
%TO.C,J8*%
X119395000Y-92890000D03*
X119395000Y-87110000D03*
D28*
X118275000Y-93200000D03*
X118275000Y-92400000D03*
D29*
X118275000Y-91250000D03*
X118275000Y-90250000D03*
X118275000Y-89750000D03*
X118275000Y-88750000D03*
D28*
X118275000Y-87600000D03*
X118275000Y-86800000D03*
X118275000Y-86800000D03*
X118275000Y-87600000D03*
D29*
X118275000Y-88250000D03*
X118275000Y-89250000D03*
X118275000Y-90750000D03*
X118275000Y-91750000D03*
D28*
X118275000Y-92400000D03*
X118275000Y-93200000D03*
D30*
X118875000Y-94320000D03*
D31*
X123075000Y-94320000D03*
D30*
X118875000Y-85680000D03*
D31*
X123075000Y-85680000D03*
%TD*%
D25*
%TO.C,RV4*%
X58150000Y-115250000D03*
D26*
X63650000Y-114100000D03*
D25*
X58150000Y-112950000D03*
%TD*%
D32*
%TO.C,Q2*%
X60000000Y-126000000D03*
X60000000Y-124100000D03*
X57725000Y-125050000D03*
%TD*%
D10*
%TO.C,J4*%
X49650000Y-89000000D03*
D11*
X49650000Y-91500000D03*
%TD*%
D10*
%TO.C,J3*%
X49900000Y-75750000D03*
D11*
X49900000Y-78250000D03*
%TD*%
D33*
%TO.C,U5*%
X96650000Y-152115000D03*
X96650000Y-150845000D03*
X96650000Y-149575000D03*
X96650000Y-148305000D03*
X96650000Y-147035000D03*
X96650000Y-145765000D03*
X96650000Y-144495000D03*
X96650000Y-143225000D03*
X96650000Y-141955000D03*
X96650000Y-140685000D03*
X96650000Y-139415000D03*
X96650000Y-138145000D03*
X96650000Y-136875000D03*
X96650000Y-135605000D03*
D34*
X94885000Y-134355000D03*
X93615000Y-134355000D03*
X92345000Y-134355000D03*
X91075000Y-134355000D03*
X89805000Y-134355000D03*
X88535000Y-134355000D03*
X87265000Y-134355000D03*
X85995000Y-134355000D03*
X84725000Y-134355000D03*
X83455000Y-134355000D03*
X82185000Y-134355000D03*
X80915000Y-134355000D03*
D33*
X79150000Y-135605000D03*
X79150000Y-136875000D03*
X79150000Y-138145000D03*
X79150000Y-139415000D03*
X79150000Y-140685000D03*
X79150000Y-141955000D03*
X79150000Y-143225000D03*
X79150000Y-144495000D03*
X79150000Y-145765000D03*
X79150000Y-147035000D03*
X79150000Y-148305000D03*
X79150000Y-149575000D03*
X79150000Y-150845000D03*
X79150000Y-152115000D03*
D35*
X90800000Y-145795000D03*
X90800000Y-144395000D03*
X90800000Y-142995000D03*
X90800000Y-142995000D03*
X89400000Y-145795000D03*
X89400000Y-145795000D03*
X89400000Y-144395000D03*
X89400000Y-142995000D03*
X88000000Y-145795000D03*
X88000000Y-144395000D03*
X88000000Y-142995000D03*
%TD*%
D36*
%TO.C,D1*%
X112000000Y-95920000D03*
D37*
X112000000Y-106080000D03*
%TD*%
D38*
%TO.C,J1*%
X88500000Y-60000000D03*
D39*
X88500000Y-53800000D03*
D40*
X83800000Y-56800000D03*
%TD*%
D25*
%TO.C,RV2*%
X58150000Y-89400000D03*
D26*
X63650000Y-88250000D03*
D25*
X58150000Y-87100000D03*
%TD*%
D41*
%TO.C,SW1*%
X121250000Y-116500000D03*
X121250000Y-119000000D03*
X121250000Y-121500000D03*
D42*
X124000000Y-115600000D03*
X124000000Y-122400000D03*
%TD*%
D43*
%TO.C,D2*%
X114000000Y-81580000D03*
X114000000Y-82420000D03*
%TD*%
D10*
%TO.C,J7*%
X49900000Y-60750000D03*
D11*
X49900000Y-63250000D03*
%TD*%
D44*
%TO.C,Q1*%
X99000000Y-78350000D03*
X99000000Y-79650000D03*
X101000000Y-79000000D03*
%TD*%
D45*
%TO.C,U4*%
X79810000Y-91525000D03*
X78540000Y-91525000D03*
X77270000Y-91525000D03*
X76000000Y-91525000D03*
X74730000Y-91525000D03*
X73460000Y-91525000D03*
X72190000Y-91525000D03*
X72190000Y-96475000D03*
X73460000Y-96475000D03*
X74730000Y-96475000D03*
X76000000Y-96475000D03*
X77270000Y-96475000D03*
X78540000Y-96475000D03*
X79810000Y-96475000D03*
%TD*%
D46*
%TO.C,D4*%
X113580000Y-89000000D03*
X114420000Y-89000000D03*
%TD*%
D47*
%TO.C,U1*%
X69000000Y-126920000D03*
X69000000Y-128190000D03*
X69000000Y-129460000D03*
X69000000Y-130730000D03*
X69000000Y-132000000D03*
X69000000Y-133270000D03*
X69000000Y-134540000D03*
X69000000Y-135810000D03*
X74000000Y-135810000D03*
X74000000Y-134540000D03*
X74000000Y-133270000D03*
X74000000Y-132000000D03*
X74000000Y-130730000D03*
X74000000Y-129460000D03*
X74000000Y-128190000D03*
X74000000Y-126920000D03*
%TD*%
D24*
%TO.C,S1*%
X82450000Y-121750000D03*
X82450000Y-126250000D03*
X91550000Y-121750000D03*
X91550000Y-126250000D03*
%TD*%
D25*
%TO.C,RV3*%
X58150000Y-102400000D03*
D26*
X63650000Y-101250000D03*
D25*
X58150000Y-100100000D03*
%TD*%
D46*
%TO.C,D3*%
X113080000Y-86500000D03*
X113920000Y-86500000D03*
%TD*%
M02*
