%TF.GenerationSoftware,KiCad,Pcbnew,8.0.6*%
%TF.CreationDate,2024-11-14T02:25:25-08:00*%
%TF.ProjectId,project1,70726f6a-6563-4743-912e-6b696361645f,REV1*%
%TF.SameCoordinates,Original*%
%TF.FileFunction,Copper,L1,Top*%
%TF.FilePolarity,Positive*%
%FSLAX46Y46*%
G04 Gerber Fmt 4.6, Leading zero omitted, Abs format (unit mm)*
G04 Created by KiCad (PCBNEW 8.0.6) date 2024-11-14 02:25:25*
%MOMM*%
%LPD*%
G01*
G04 APERTURE LIST*
G04 Aperture macros list*
%AMRoundRect*
0 Rectangle with rounded corners*
0 $1 Rounding radius*
0 $2 $3 $4 $5 $6 $7 $8 $9 X,Y pos of 4 corners*
0 Add a 4 corners polygon primitive as box body*
4,1,4,$2,$3,$4,$5,$6,$7,$8,$9,$2,$3,0*
0 Add four circle primitives for the rounded corners*
1,1,$1+$1,$2,$3*
1,1,$1+$1,$4,$5*
1,1,$1+$1,$6,$7*
1,1,$1+$1,$8,$9*
0 Add four rect primitives between the rounded corners*
20,1,$1+$1,$2,$3,$4,$5,0*
20,1,$1+$1,$4,$5,$6,$7,0*
20,1,$1+$1,$6,$7,$8,$9,0*
20,1,$1+$1,$8,$9,$2,$3,0*%
G04 Aperture macros list end*
%TA.AperFunction,NonConductor*%
%ADD10C,0.200000*%
%TD*%
%ADD11C,0.300000*%
%TA.AperFunction,NonConductor*%
%ADD12C,0.300000*%
%TD*%
%TA.AperFunction,ComponentPad*%
%ADD13RoundRect,0.250000X-0.725000X0.600000X-0.725000X-0.600000X0.725000X-0.600000X0.725000X0.600000X0*%
%TD*%
%TA.AperFunction,ComponentPad*%
%ADD14O,1.950000X1.700000*%
%TD*%
%TA.AperFunction,SMDPad,CuDef*%
%ADD15RoundRect,0.375000X0.375000X-0.625000X0.375000X0.625000X-0.375000X0.625000X-0.375000X-0.625000X0*%
%TD*%
%TA.AperFunction,SMDPad,CuDef*%
%ADD16RoundRect,0.500000X1.400000X-0.500000X1.400000X0.500000X-1.400000X0.500000X-1.400000X-0.500000X0*%
%TD*%
%TA.AperFunction,SMDPad,CuDef*%
%ADD17RoundRect,0.375000X-0.375000X0.625000X-0.375000X-0.625000X0.375000X-0.625000X0.375000X0.625000X0*%
%TD*%
%TA.AperFunction,SMDPad,CuDef*%
%ADD18RoundRect,0.500000X-1.400000X0.500000X-1.400000X-0.500000X1.400000X-0.500000X1.400000X0.500000X0*%
%TD*%
%TA.AperFunction,SMDPad,CuDef*%
%ADD19RoundRect,0.150000X-0.825000X-0.150000X0.825000X-0.150000X0.825000X0.150000X-0.825000X0.150000X0*%
%TD*%
%TA.AperFunction,SMDPad,CuDef*%
%ADD20RoundRect,0.237500X0.237500X-0.250000X0.237500X0.250000X-0.237500X0.250000X-0.237500X-0.250000X0*%
%TD*%
%TA.AperFunction,SMDPad,CuDef*%
%ADD21RoundRect,0.237500X-0.250000X-0.237500X0.250000X-0.237500X0.250000X0.237500X-0.250000X0.237500X0*%
%TD*%
%TA.AperFunction,SMDPad,CuDef*%
%ADD22RoundRect,0.237500X0.250000X0.237500X-0.250000X0.237500X-0.250000X-0.237500X0.250000X-0.237500X0*%
%TD*%
%TA.AperFunction,SMDPad,CuDef*%
%ADD23RoundRect,0.237500X0.300000X0.237500X-0.300000X0.237500X-0.300000X-0.237500X0.300000X-0.237500X0*%
%TD*%
%TA.AperFunction,SMDPad,CuDef*%
%ADD24RoundRect,0.237500X-0.300000X-0.237500X0.300000X-0.237500X0.300000X0.237500X-0.300000X0.237500X0*%
%TD*%
%TA.AperFunction,SMDPad,CuDef*%
%ADD25RoundRect,0.237500X0.237500X-0.300000X0.237500X0.300000X-0.237500X0.300000X-0.237500X-0.300000X0*%
%TD*%
%TA.AperFunction,SMDPad,CuDef*%
%ADD26RoundRect,0.237500X-0.237500X0.300000X-0.237500X-0.300000X0.237500X-0.300000X0.237500X0.300000X0*%
%TD*%
%TA.AperFunction,SMDPad,CuDef*%
%ADD27R,2.100000X1.400000*%
%TD*%
%TA.AperFunction,SMDPad,CuDef*%
%ADD28RoundRect,0.250000X0.400000X-0.400000X0.400000X0.400000X-0.400000X0.400000X-0.400000X-0.400000X0*%
%TD*%
%TA.AperFunction,SMDPad,CuDef*%
%ADD29RoundRect,0.250000X0.400000X-0.750000X0.400000X0.750000X-0.400000X0.750000X-0.400000X-0.750000X0*%
%TD*%
%TA.AperFunction,SMDPad,CuDef*%
%ADD30R,1.240000X0.600000*%
%TD*%
%TA.AperFunction,SMDPad,CuDef*%
%ADD31R,1.240000X0.300000*%
%TD*%
%TA.AperFunction,ComponentPad*%
%ADD32O,2.100000X1.000000*%
%TD*%
%TA.AperFunction,ComponentPad*%
%ADD33O,1.800000X1.000000*%
%TD*%
%TA.AperFunction,SMDPad,CuDef*%
%ADD34RoundRect,0.150000X0.512500X0.150000X-0.512500X0.150000X-0.512500X-0.150000X0.512500X-0.150000X0*%
%TD*%
%TA.AperFunction,SMDPad,CuDef*%
%ADD35R,1.500000X0.900000*%
%TD*%
%TA.AperFunction,SMDPad,CuDef*%
%ADD36R,0.900000X1.500000*%
%TD*%
%TA.AperFunction,SMDPad,CuDef*%
%ADD37R,0.900000X0.900000*%
%TD*%
%TA.AperFunction,ComponentPad*%
%ADD38O,2.200000X2.200000*%
%TD*%
%TA.AperFunction,ComponentPad*%
%ADD39R,2.200000X2.200000*%
%TD*%
%TA.AperFunction,ComponentPad*%
%ADD40R,4.500000X2.000000*%
%TD*%
%TA.AperFunction,ComponentPad*%
%ADD41O,4.000000X2.000000*%
%TD*%
%TA.AperFunction,ComponentPad*%
%ADD42O,2.000000X4.000000*%
%TD*%
%TA.AperFunction,SMDPad,CuDef*%
%ADD43RoundRect,0.250000X1.000000X-0.375000X1.000000X0.375000X-1.000000X0.375000X-1.000000X-0.375000X0*%
%TD*%
%TA.AperFunction,SMDPad,CuDef*%
%ADD44RoundRect,0.062500X-0.062500X0.117500X-0.062500X-0.117500X0.062500X-0.117500X0.062500X0.117500X0*%
%TD*%
%TA.AperFunction,SMDPad,CuDef*%
%ADD45RoundRect,0.112500X-0.237500X0.112500X-0.237500X-0.112500X0.237500X-0.112500X0.237500X0.112500X0*%
%TD*%
%TA.AperFunction,SMDPad,CuDef*%
%ADD46RoundRect,0.150000X-0.150000X0.825000X-0.150000X-0.825000X0.150000X-0.825000X0.150000X0.825000X0*%
%TD*%
%TA.AperFunction,SMDPad,CuDef*%
%ADD47RoundRect,0.062500X-0.117500X-0.062500X0.117500X-0.062500X0.117500X0.062500X-0.117500X0.062500X0*%
%TD*%
%TA.AperFunction,SMDPad,CuDef*%
%ADD48RoundRect,0.150000X-0.850000X-0.150000X0.850000X-0.150000X0.850000X0.150000X-0.850000X0.150000X0*%
%TD*%
%TA.AperFunction,ViaPad*%
%ADD49C,0.600000*%
%TD*%
%TA.AperFunction,Conductor*%
%ADD50C,0.200000*%
%TD*%
G04 APERTURE END LIST*
D10*
X37500000Y-122000000D02*
X77000000Y-122000000D01*
X77000000Y-158000000D01*
X37500000Y-158000000D01*
X37500000Y-122000000D01*
D11*
D12*
X25054510Y-70515114D02*
X24554510Y-70515114D01*
X24554510Y-71300828D02*
X24554510Y-69800828D01*
X24554510Y-69800828D02*
X25268796Y-69800828D01*
X26054510Y-71300828D02*
X25911653Y-71229400D01*
X25911653Y-71229400D02*
X25840224Y-71157971D01*
X25840224Y-71157971D02*
X25768796Y-71015114D01*
X25768796Y-71015114D02*
X25768796Y-70586542D01*
X25768796Y-70586542D02*
X25840224Y-70443685D01*
X25840224Y-70443685D02*
X25911653Y-70372257D01*
X25911653Y-70372257D02*
X26054510Y-70300828D01*
X26054510Y-70300828D02*
X26268796Y-70300828D01*
X26268796Y-70300828D02*
X26411653Y-70372257D01*
X26411653Y-70372257D02*
X26483082Y-70443685D01*
X26483082Y-70443685D02*
X26554510Y-70586542D01*
X26554510Y-70586542D02*
X26554510Y-71015114D01*
X26554510Y-71015114D02*
X26483082Y-71157971D01*
X26483082Y-71157971D02*
X26411653Y-71229400D01*
X26411653Y-71229400D02*
X26268796Y-71300828D01*
X26268796Y-71300828D02*
X26054510Y-71300828D01*
X27197367Y-71300828D02*
X27197367Y-70300828D01*
X27197367Y-70586542D02*
X27268796Y-70443685D01*
X27268796Y-70443685D02*
X27340225Y-70372257D01*
X27340225Y-70372257D02*
X27483082Y-70300828D01*
X27483082Y-70300828D02*
X27625939Y-70300828D01*
X28768796Y-71229400D02*
X28625938Y-71300828D01*
X28625938Y-71300828D02*
X28340224Y-71300828D01*
X28340224Y-71300828D02*
X28197367Y-71229400D01*
X28197367Y-71229400D02*
X28125938Y-71157971D01*
X28125938Y-71157971D02*
X28054510Y-71015114D01*
X28054510Y-71015114D02*
X28054510Y-70586542D01*
X28054510Y-70586542D02*
X28125938Y-70443685D01*
X28125938Y-70443685D02*
X28197367Y-70372257D01*
X28197367Y-70372257D02*
X28340224Y-70300828D01*
X28340224Y-70300828D02*
X28625938Y-70300828D01*
X28625938Y-70300828D02*
X28768796Y-70372257D01*
X29983081Y-71229400D02*
X29840224Y-71300828D01*
X29840224Y-71300828D02*
X29554510Y-71300828D01*
X29554510Y-71300828D02*
X29411652Y-71229400D01*
X29411652Y-71229400D02*
X29340224Y-71086542D01*
X29340224Y-71086542D02*
X29340224Y-70515114D01*
X29340224Y-70515114D02*
X29411652Y-70372257D01*
X29411652Y-70372257D02*
X29554510Y-70300828D01*
X29554510Y-70300828D02*
X29840224Y-70300828D01*
X29840224Y-70300828D02*
X29983081Y-70372257D01*
X29983081Y-70372257D02*
X30054510Y-70515114D01*
X30054510Y-70515114D02*
X30054510Y-70657971D01*
X30054510Y-70657971D02*
X29340224Y-70800828D01*
X31768795Y-71229400D02*
X31983081Y-71300828D01*
X31983081Y-71300828D02*
X32340223Y-71300828D01*
X32340223Y-71300828D02*
X32483081Y-71229400D01*
X32483081Y-71229400D02*
X32554509Y-71157971D01*
X32554509Y-71157971D02*
X32625938Y-71015114D01*
X32625938Y-71015114D02*
X32625938Y-70872257D01*
X32625938Y-70872257D02*
X32554509Y-70729400D01*
X32554509Y-70729400D02*
X32483081Y-70657971D01*
X32483081Y-70657971D02*
X32340223Y-70586542D01*
X32340223Y-70586542D02*
X32054509Y-70515114D01*
X32054509Y-70515114D02*
X31911652Y-70443685D01*
X31911652Y-70443685D02*
X31840223Y-70372257D01*
X31840223Y-70372257D02*
X31768795Y-70229400D01*
X31768795Y-70229400D02*
X31768795Y-70086542D01*
X31768795Y-70086542D02*
X31840223Y-69943685D01*
X31840223Y-69943685D02*
X31911652Y-69872257D01*
X31911652Y-69872257D02*
X32054509Y-69800828D01*
X32054509Y-69800828D02*
X32411652Y-69800828D01*
X32411652Y-69800828D02*
X32625938Y-69872257D01*
X33840223Y-71229400D02*
X33697366Y-71300828D01*
X33697366Y-71300828D02*
X33411652Y-71300828D01*
X33411652Y-71300828D02*
X33268794Y-71229400D01*
X33268794Y-71229400D02*
X33197366Y-71086542D01*
X33197366Y-71086542D02*
X33197366Y-70515114D01*
X33197366Y-70515114D02*
X33268794Y-70372257D01*
X33268794Y-70372257D02*
X33411652Y-70300828D01*
X33411652Y-70300828D02*
X33697366Y-70300828D01*
X33697366Y-70300828D02*
X33840223Y-70372257D01*
X33840223Y-70372257D02*
X33911652Y-70515114D01*
X33911652Y-70515114D02*
X33911652Y-70657971D01*
X33911652Y-70657971D02*
X33197366Y-70800828D01*
X34554508Y-70300828D02*
X34554508Y-71300828D01*
X34554508Y-70443685D02*
X34625937Y-70372257D01*
X34625937Y-70372257D02*
X34768794Y-70300828D01*
X34768794Y-70300828D02*
X34983080Y-70300828D01*
X34983080Y-70300828D02*
X35125937Y-70372257D01*
X35125937Y-70372257D02*
X35197366Y-70515114D01*
X35197366Y-70515114D02*
X35197366Y-71300828D01*
X35840223Y-71229400D02*
X35983080Y-71300828D01*
X35983080Y-71300828D02*
X36268794Y-71300828D01*
X36268794Y-71300828D02*
X36411651Y-71229400D01*
X36411651Y-71229400D02*
X36483080Y-71086542D01*
X36483080Y-71086542D02*
X36483080Y-71015114D01*
X36483080Y-71015114D02*
X36411651Y-70872257D01*
X36411651Y-70872257D02*
X36268794Y-70800828D01*
X36268794Y-70800828D02*
X36054509Y-70800828D01*
X36054509Y-70800828D02*
X35911651Y-70729400D01*
X35911651Y-70729400D02*
X35840223Y-70586542D01*
X35840223Y-70586542D02*
X35840223Y-70515114D01*
X35840223Y-70515114D02*
X35911651Y-70372257D01*
X35911651Y-70372257D02*
X36054509Y-70300828D01*
X36054509Y-70300828D02*
X36268794Y-70300828D01*
X36268794Y-70300828D02*
X36411651Y-70372257D01*
X37340223Y-71300828D02*
X37197366Y-71229400D01*
X37197366Y-71229400D02*
X37125937Y-71157971D01*
X37125937Y-71157971D02*
X37054509Y-71015114D01*
X37054509Y-71015114D02*
X37054509Y-70586542D01*
X37054509Y-70586542D02*
X37125937Y-70443685D01*
X37125937Y-70443685D02*
X37197366Y-70372257D01*
X37197366Y-70372257D02*
X37340223Y-70300828D01*
X37340223Y-70300828D02*
X37554509Y-70300828D01*
X37554509Y-70300828D02*
X37697366Y-70372257D01*
X37697366Y-70372257D02*
X37768795Y-70443685D01*
X37768795Y-70443685D02*
X37840223Y-70586542D01*
X37840223Y-70586542D02*
X37840223Y-71015114D01*
X37840223Y-71015114D02*
X37768795Y-71157971D01*
X37768795Y-71157971D02*
X37697366Y-71229400D01*
X37697366Y-71229400D02*
X37554509Y-71300828D01*
X37554509Y-71300828D02*
X37340223Y-71300828D01*
X38483080Y-71300828D02*
X38483080Y-70300828D01*
X38483080Y-70586542D02*
X38554509Y-70443685D01*
X38554509Y-70443685D02*
X38625938Y-70372257D01*
X38625938Y-70372257D02*
X38768795Y-70300828D01*
X38768795Y-70300828D02*
X38911652Y-70300828D01*
X39340223Y-71229400D02*
X39483080Y-71300828D01*
X39483080Y-71300828D02*
X39768794Y-71300828D01*
X39768794Y-71300828D02*
X39911651Y-71229400D01*
X39911651Y-71229400D02*
X39983080Y-71086542D01*
X39983080Y-71086542D02*
X39983080Y-71015114D01*
X39983080Y-71015114D02*
X39911651Y-70872257D01*
X39911651Y-70872257D02*
X39768794Y-70800828D01*
X39768794Y-70800828D02*
X39554509Y-70800828D01*
X39554509Y-70800828D02*
X39411651Y-70729400D01*
X39411651Y-70729400D02*
X39340223Y-70586542D01*
X39340223Y-70586542D02*
X39340223Y-70515114D01*
X39340223Y-70515114D02*
X39411651Y-70372257D01*
X39411651Y-70372257D02*
X39554509Y-70300828D01*
X39554509Y-70300828D02*
X39768794Y-70300828D01*
X39768794Y-70300828D02*
X39911651Y-70372257D01*
D11*
D12*
X85554510Y-44300828D02*
X85554510Y-42800828D01*
X85554510Y-42800828D02*
X86125939Y-42800828D01*
X86125939Y-42800828D02*
X86268796Y-42872257D01*
X86268796Y-42872257D02*
X86340225Y-42943685D01*
X86340225Y-42943685D02*
X86411653Y-43086542D01*
X86411653Y-43086542D02*
X86411653Y-43300828D01*
X86411653Y-43300828D02*
X86340225Y-43443685D01*
X86340225Y-43443685D02*
X86268796Y-43515114D01*
X86268796Y-43515114D02*
X86125939Y-43586542D01*
X86125939Y-43586542D02*
X85554510Y-43586542D01*
X87268796Y-44300828D02*
X87125939Y-44229400D01*
X87125939Y-44229400D02*
X87054510Y-44157971D01*
X87054510Y-44157971D02*
X86983082Y-44015114D01*
X86983082Y-44015114D02*
X86983082Y-43586542D01*
X86983082Y-43586542D02*
X87054510Y-43443685D01*
X87054510Y-43443685D02*
X87125939Y-43372257D01*
X87125939Y-43372257D02*
X87268796Y-43300828D01*
X87268796Y-43300828D02*
X87483082Y-43300828D01*
X87483082Y-43300828D02*
X87625939Y-43372257D01*
X87625939Y-43372257D02*
X87697368Y-43443685D01*
X87697368Y-43443685D02*
X87768796Y-43586542D01*
X87768796Y-43586542D02*
X87768796Y-44015114D01*
X87768796Y-44015114D02*
X87697368Y-44157971D01*
X87697368Y-44157971D02*
X87625939Y-44229400D01*
X87625939Y-44229400D02*
X87483082Y-44300828D01*
X87483082Y-44300828D02*
X87268796Y-44300828D01*
X88268796Y-43300828D02*
X88554511Y-44300828D01*
X88554511Y-44300828D02*
X88840225Y-43586542D01*
X88840225Y-43586542D02*
X89125939Y-44300828D01*
X89125939Y-44300828D02*
X89411653Y-43300828D01*
X90554511Y-44229400D02*
X90411654Y-44300828D01*
X90411654Y-44300828D02*
X90125940Y-44300828D01*
X90125940Y-44300828D02*
X89983082Y-44229400D01*
X89983082Y-44229400D02*
X89911654Y-44086542D01*
X89911654Y-44086542D02*
X89911654Y-43515114D01*
X89911654Y-43515114D02*
X89983082Y-43372257D01*
X89983082Y-43372257D02*
X90125940Y-43300828D01*
X90125940Y-43300828D02*
X90411654Y-43300828D01*
X90411654Y-43300828D02*
X90554511Y-43372257D01*
X90554511Y-43372257D02*
X90625940Y-43515114D01*
X90625940Y-43515114D02*
X90625940Y-43657971D01*
X90625940Y-43657971D02*
X89911654Y-43800828D01*
X91268796Y-44300828D02*
X91268796Y-43300828D01*
X91268796Y-43586542D02*
X91340225Y-43443685D01*
X91340225Y-43443685D02*
X91411654Y-43372257D01*
X91411654Y-43372257D02*
X91554511Y-43300828D01*
X91554511Y-43300828D02*
X91697368Y-43300828D01*
D11*
D12*
X16768796Y-127300828D02*
X16054510Y-127300828D01*
X16054510Y-127300828D02*
X16054510Y-125800828D01*
X17483082Y-127300828D02*
X17340225Y-127229400D01*
X17340225Y-127229400D02*
X17268796Y-127157971D01*
X17268796Y-127157971D02*
X17197368Y-127015114D01*
X17197368Y-127015114D02*
X17197368Y-126586542D01*
X17197368Y-126586542D02*
X17268796Y-126443685D01*
X17268796Y-126443685D02*
X17340225Y-126372257D01*
X17340225Y-126372257D02*
X17483082Y-126300828D01*
X17483082Y-126300828D02*
X17697368Y-126300828D01*
X17697368Y-126300828D02*
X17840225Y-126372257D01*
X17840225Y-126372257D02*
X17911654Y-126443685D01*
X17911654Y-126443685D02*
X17983082Y-126586542D01*
X17983082Y-126586542D02*
X17983082Y-127015114D01*
X17983082Y-127015114D02*
X17911654Y-127157971D01*
X17911654Y-127157971D02*
X17840225Y-127229400D01*
X17840225Y-127229400D02*
X17697368Y-127300828D01*
X17697368Y-127300828D02*
X17483082Y-127300828D01*
X19268797Y-127300828D02*
X19268797Y-126515114D01*
X19268797Y-126515114D02*
X19197368Y-126372257D01*
X19197368Y-126372257D02*
X19054511Y-126300828D01*
X19054511Y-126300828D02*
X18768797Y-126300828D01*
X18768797Y-126300828D02*
X18625939Y-126372257D01*
X19268797Y-127229400D02*
X19125939Y-127300828D01*
X19125939Y-127300828D02*
X18768797Y-127300828D01*
X18768797Y-127300828D02*
X18625939Y-127229400D01*
X18625939Y-127229400D02*
X18554511Y-127086542D01*
X18554511Y-127086542D02*
X18554511Y-126943685D01*
X18554511Y-126943685D02*
X18625939Y-126800828D01*
X18625939Y-126800828D02*
X18768797Y-126729400D01*
X18768797Y-126729400D02*
X19125939Y-126729400D01*
X19125939Y-126729400D02*
X19268797Y-126657971D01*
X20625940Y-127300828D02*
X20625940Y-125800828D01*
X20625940Y-127229400D02*
X20483082Y-127300828D01*
X20483082Y-127300828D02*
X20197368Y-127300828D01*
X20197368Y-127300828D02*
X20054511Y-127229400D01*
X20054511Y-127229400D02*
X19983082Y-127157971D01*
X19983082Y-127157971D02*
X19911654Y-127015114D01*
X19911654Y-127015114D02*
X19911654Y-126586542D01*
X19911654Y-126586542D02*
X19983082Y-126443685D01*
X19983082Y-126443685D02*
X20054511Y-126372257D01*
X20054511Y-126372257D02*
X20197368Y-126300828D01*
X20197368Y-126300828D02*
X20483082Y-126300828D01*
X20483082Y-126300828D02*
X20625940Y-126372257D01*
X23340225Y-127157971D02*
X23268797Y-127229400D01*
X23268797Y-127229400D02*
X23054511Y-127300828D01*
X23054511Y-127300828D02*
X22911654Y-127300828D01*
X22911654Y-127300828D02*
X22697368Y-127229400D01*
X22697368Y-127229400D02*
X22554511Y-127086542D01*
X22554511Y-127086542D02*
X22483082Y-126943685D01*
X22483082Y-126943685D02*
X22411654Y-126657971D01*
X22411654Y-126657971D02*
X22411654Y-126443685D01*
X22411654Y-126443685D02*
X22483082Y-126157971D01*
X22483082Y-126157971D02*
X22554511Y-126015114D01*
X22554511Y-126015114D02*
X22697368Y-125872257D01*
X22697368Y-125872257D02*
X22911654Y-125800828D01*
X22911654Y-125800828D02*
X23054511Y-125800828D01*
X23054511Y-125800828D02*
X23268797Y-125872257D01*
X23268797Y-125872257D02*
X23340225Y-125943685D01*
X24554511Y-127229400D02*
X24411654Y-127300828D01*
X24411654Y-127300828D02*
X24125940Y-127300828D01*
X24125940Y-127300828D02*
X23983082Y-127229400D01*
X23983082Y-127229400D02*
X23911654Y-127086542D01*
X23911654Y-127086542D02*
X23911654Y-126515114D01*
X23911654Y-126515114D02*
X23983082Y-126372257D01*
X23983082Y-126372257D02*
X24125940Y-126300828D01*
X24125940Y-126300828D02*
X24411654Y-126300828D01*
X24411654Y-126300828D02*
X24554511Y-126372257D01*
X24554511Y-126372257D02*
X24625940Y-126515114D01*
X24625940Y-126515114D02*
X24625940Y-126657971D01*
X24625940Y-126657971D02*
X23911654Y-126800828D01*
X25483082Y-127300828D02*
X25340225Y-127229400D01*
X25340225Y-127229400D02*
X25268796Y-127086542D01*
X25268796Y-127086542D02*
X25268796Y-125800828D01*
X26268796Y-127300828D02*
X26125939Y-127229400D01*
X26125939Y-127229400D02*
X26054510Y-127086542D01*
X26054510Y-127086542D02*
X26054510Y-125800828D01*
X28840224Y-127157971D02*
X28768796Y-127229400D01*
X28768796Y-127229400D02*
X28554510Y-127300828D01*
X28554510Y-127300828D02*
X28411653Y-127300828D01*
X28411653Y-127300828D02*
X28197367Y-127229400D01*
X28197367Y-127229400D02*
X28054510Y-127086542D01*
X28054510Y-127086542D02*
X27983081Y-126943685D01*
X27983081Y-126943685D02*
X27911653Y-126657971D01*
X27911653Y-126657971D02*
X27911653Y-126443685D01*
X27911653Y-126443685D02*
X27983081Y-126157971D01*
X27983081Y-126157971D02*
X28054510Y-126015114D01*
X28054510Y-126015114D02*
X28197367Y-125872257D01*
X28197367Y-125872257D02*
X28411653Y-125800828D01*
X28411653Y-125800828D02*
X28554510Y-125800828D01*
X28554510Y-125800828D02*
X28768796Y-125872257D01*
X28768796Y-125872257D02*
X28840224Y-125943685D01*
X29697367Y-127300828D02*
X29554510Y-127229400D01*
X29554510Y-127229400D02*
X29483081Y-127157971D01*
X29483081Y-127157971D02*
X29411653Y-127015114D01*
X29411653Y-127015114D02*
X29411653Y-126586542D01*
X29411653Y-126586542D02*
X29483081Y-126443685D01*
X29483081Y-126443685D02*
X29554510Y-126372257D01*
X29554510Y-126372257D02*
X29697367Y-126300828D01*
X29697367Y-126300828D02*
X29911653Y-126300828D01*
X29911653Y-126300828D02*
X30054510Y-126372257D01*
X30054510Y-126372257D02*
X30125939Y-126443685D01*
X30125939Y-126443685D02*
X30197367Y-126586542D01*
X30197367Y-126586542D02*
X30197367Y-127015114D01*
X30197367Y-127015114D02*
X30125939Y-127157971D01*
X30125939Y-127157971D02*
X30054510Y-127229400D01*
X30054510Y-127229400D02*
X29911653Y-127300828D01*
X29911653Y-127300828D02*
X29697367Y-127300828D01*
X30840224Y-126300828D02*
X30840224Y-127300828D01*
X30840224Y-126443685D02*
X30911653Y-126372257D01*
X30911653Y-126372257D02*
X31054510Y-126300828D01*
X31054510Y-126300828D02*
X31268796Y-126300828D01*
X31268796Y-126300828D02*
X31411653Y-126372257D01*
X31411653Y-126372257D02*
X31483082Y-126515114D01*
X31483082Y-126515114D02*
X31483082Y-127300828D01*
X32197367Y-126300828D02*
X32197367Y-127300828D01*
X32197367Y-126443685D02*
X32268796Y-126372257D01*
X32268796Y-126372257D02*
X32411653Y-126300828D01*
X32411653Y-126300828D02*
X32625939Y-126300828D01*
X32625939Y-126300828D02*
X32768796Y-126372257D01*
X32768796Y-126372257D02*
X32840225Y-126515114D01*
X32840225Y-126515114D02*
X32840225Y-127300828D01*
X34125939Y-127229400D02*
X33983082Y-127300828D01*
X33983082Y-127300828D02*
X33697368Y-127300828D01*
X33697368Y-127300828D02*
X33554510Y-127229400D01*
X33554510Y-127229400D02*
X33483082Y-127086542D01*
X33483082Y-127086542D02*
X33483082Y-126515114D01*
X33483082Y-126515114D02*
X33554510Y-126372257D01*
X33554510Y-126372257D02*
X33697368Y-126300828D01*
X33697368Y-126300828D02*
X33983082Y-126300828D01*
X33983082Y-126300828D02*
X34125939Y-126372257D01*
X34125939Y-126372257D02*
X34197368Y-126515114D01*
X34197368Y-126515114D02*
X34197368Y-126657971D01*
X34197368Y-126657971D02*
X33483082Y-126800828D01*
X35483082Y-127229400D02*
X35340224Y-127300828D01*
X35340224Y-127300828D02*
X35054510Y-127300828D01*
X35054510Y-127300828D02*
X34911653Y-127229400D01*
X34911653Y-127229400D02*
X34840224Y-127157971D01*
X34840224Y-127157971D02*
X34768796Y-127015114D01*
X34768796Y-127015114D02*
X34768796Y-126586542D01*
X34768796Y-126586542D02*
X34840224Y-126443685D01*
X34840224Y-126443685D02*
X34911653Y-126372257D01*
X34911653Y-126372257D02*
X35054510Y-126300828D01*
X35054510Y-126300828D02*
X35340224Y-126300828D01*
X35340224Y-126300828D02*
X35483082Y-126372257D01*
X35911653Y-126300828D02*
X36483081Y-126300828D01*
X36125938Y-125800828D02*
X36125938Y-127086542D01*
X36125938Y-127086542D02*
X36197367Y-127229400D01*
X36197367Y-127229400D02*
X36340224Y-127300828D01*
X36340224Y-127300828D02*
X36483081Y-127300828D01*
D13*
%TO.P,J5,1,Pin_1*%
%TO.N,Net-(J5-Pin_1)*%
X49800000Y-101750000D03*
D14*
%TO.P,J5,2,Pin_2*%
%TO.N,+5V_WALL*%
X49800000Y-104250000D03*
%TD*%
D15*
%TO.P,U6,1,GND*%
%TO.N,GND*%
X103700000Y-130150000D03*
%TO.P,U6,2,VO*%
%TO.N,ESP_3.3V*%
X106000000Y-130150000D03*
D16*
X106000000Y-123850000D03*
D15*
%TO.P,U6,3,VI*%
%TO.N,+5VUSB*%
X108300000Y-130150000D03*
%TD*%
D17*
%TO.P,U3,1,GND*%
%TO.N,GND*%
X88300000Y-73850000D03*
%TO.P,U3,2,VO*%
%TO.N,+3.3V_WALL*%
X86000000Y-73850000D03*
D18*
X86000000Y-80150000D03*
D17*
%TO.P,U3,3,VI*%
%TO.N,+5V_WALL*%
X83700000Y-73850000D03*
%TD*%
D19*
%TO.P,U2,14,VCC*%
%TO.N,+5V_WALL*%
X94475000Y-90190000D03*
%TO.P,U2,13*%
%TO.N,unconnected-(U2-Pad13)*%
X94475000Y-91460000D03*
%TO.P,U2,12*%
%TO.N,unconnected-(U2-Pad12)*%
X94475000Y-92730000D03*
%TO.P,U2,11*%
%TO.N,N/C*%
X94475000Y-94000000D03*
%TO.P,U2,10*%
%TO.N,unconnected-(U2-Pad10)*%
X94475000Y-95270000D03*
%TO.P,U2,9*%
%TO.N,unconnected-(U2-Pad9)*%
X94475000Y-96540000D03*
%TO.P,U2,8*%
%TO.N,unconnected-(U2-Pad8)*%
X94475000Y-97810000D03*
%TO.P,U2,7,GND*%
%TO.N,GND*%
X89525000Y-97810000D03*
%TO.P,U2,6*%
%TO.N,Net-(R1-Pad1)*%
X89525000Y-96540000D03*
%TO.P,U2,5*%
%TO.N,Net-(U4D--)*%
X89525000Y-95270000D03*
%TO.P,U2,4*%
%TO.N,Net-(U4C--)*%
X89525000Y-94000000D03*
%TO.P,U2,3*%
%TO.N,N/C*%
X89525000Y-92730000D03*
%TO.P,U2,2*%
%TO.N,Net-(U4B--)*%
X89525000Y-91460000D03*
%TO.P,U2,1*%
%TO.N,Net-(U4A--)*%
X89525000Y-90190000D03*
%TD*%
D20*
%TO.P,R15,1*%
%TO.N,CHIP_PU_EN*%
X103000000Y-147912500D03*
%TO.P,R15,2*%
%TO.N,ESP_3.3V*%
X103000000Y-146087500D03*
%TD*%
D21*
%TO.P,R14,1*%
%TO.N,CHIP_PU_EN*%
X118087500Y-145000000D03*
%TO.P,R14,2*%
%TO.N,ESP_3.3V*%
X119912500Y-145000000D03*
%TD*%
%TO.P,R13,1*%
%TO.N,GPIO0_BOOT*%
X88087500Y-118000000D03*
%TO.P,R13,2*%
%TO.N,ESP_3.3V*%
X89912500Y-118000000D03*
%TD*%
%TO.P,R12,2*%
%TO.N,Net-(J8-CC1)*%
X108912500Y-93000000D03*
%TO.P,R12,1*%
%TO.N,GND*%
X107087500Y-93000000D03*
%TD*%
D22*
%TO.P,R7,1*%
%TO.N,Net-(U1-INA+)*%
X59912500Y-149000000D03*
%TO.P,R7,2*%
%TO.N,Net-(J2-Pin_4)*%
X58087500Y-149000000D03*
%TD*%
%TO.P,R6,1*%
%TO.N,Net-(U1-INA-)*%
X58500000Y-142000000D03*
%TO.P,R6,2*%
%TO.N,Net-(J2-Pin_3)*%
X56675000Y-142000000D03*
%TD*%
D21*
%TO.P,R5,1*%
%TO.N,GND*%
X60087500Y-137000000D03*
%TO.P,R5,2*%
%TO.N,Net-(U1-VFB)*%
X61912500Y-137000000D03*
%TD*%
D22*
%TO.P,R4,1*%
%TO.N,Net-(U1-VFB)*%
X59912500Y-130000000D03*
%TO.P,R4,2*%
%TO.N,Net-(J2-Pin_1)*%
X58087500Y-130000000D03*
%TD*%
D20*
%TO.P,R3,1*%
%TO.N,Net-(Q1-G)*%
X94000000Y-81912500D03*
%TO.P,R3,2*%
%TO.N,GND*%
X94000000Y-80087500D03*
%TD*%
D21*
%TO.P,R2,2*%
%TO.N,Net-(J8-CC2)*%
X109912500Y-83000000D03*
%TO.P,R2,1*%
%TO.N,GND*%
X108087500Y-83000000D03*
%TD*%
%TO.P,R1,1*%
%TO.N,Net-(R1-Pad1)*%
X90087500Y-86000000D03*
%TO.P,R1,2*%
%TO.N,Net-(Q1-G)*%
X91912500Y-86000000D03*
%TD*%
D13*
%TO.P,J6,1,Pin_1*%
%TO.N,Net-(J6-Pin_1)*%
X49800000Y-114850000D03*
D14*
%TO.P,J6,2,Pin_2*%
%TO.N,+5V_WALL*%
X49800000Y-117350000D03*
%TD*%
D13*
%TO.P,J2,1,Pin_1*%
%TO.N,Net-(J2-Pin_1)*%
X49900000Y-141250000D03*
D14*
%TO.P,J2,2,Pin_2*%
%TO.N,GND*%
X49900000Y-143750000D03*
%TO.P,J2,3,Pin_3*%
%TO.N,Net-(J2-Pin_3)*%
X49900000Y-146250000D03*
%TO.P,J2,4,Pin_4*%
%TO.N,Net-(J2-Pin_4)*%
X49900000Y-148750000D03*
%TD*%
D23*
%TO.P,C18,1*%
%TO.N,ESP_3.3V*%
X103862500Y-138000000D03*
%TO.P,C18,2*%
%TO.N,GND*%
X102137500Y-138000000D03*
%TD*%
%TO.P,C17,1*%
%TO.N,ESP_3.3V*%
X103862500Y-134000000D03*
%TO.P,C17,2*%
%TO.N,GND*%
X102137500Y-134000000D03*
%TD*%
D24*
%TO.P,C16,1*%
%TO.N,+5VUSB*%
X108137500Y-134000000D03*
%TO.P,C16,2*%
%TO.N,GND*%
X109862500Y-134000000D03*
%TD*%
%TO.P,C15,1*%
%TO.N,+5VUSB*%
X108137500Y-138000000D03*
%TO.P,C15,2*%
%TO.N,GND*%
X109862500Y-138000000D03*
%TD*%
D25*
%TO.P,C14,1*%
%TO.N,ESP_3.3V*%
X117000000Y-114862500D03*
%TO.P,C14,2*%
%TO.N,GND*%
X117000000Y-113137500D03*
%TD*%
%TO.P,C13,1*%
%TO.N,ESP_3.3V*%
X113000000Y-114862500D03*
%TO.P,C13,2*%
%TO.N,GND*%
X113000000Y-113137500D03*
%TD*%
%TO.P,C12,1*%
%TO.N,GND*%
X107000000Y-147862500D03*
%TO.P,C12,2*%
%TO.N,CHIP_PU_EN*%
X107000000Y-146137500D03*
%TD*%
D24*
%TO.P,C11,1*%
%TO.N,GND*%
X112137500Y-145000000D03*
%TO.P,C11,2*%
%TO.N,CHIP_PU_EN*%
X113862500Y-145000000D03*
%TD*%
%TO.P,C10,1*%
%TO.N,GND*%
X83137500Y-118000000D03*
%TO.P,C10,2*%
%TO.N,GPIO0_BOOT*%
X84862500Y-118000000D03*
%TD*%
%TO.P,C9,2*%
%TO.N,+5VUSB*%
X115862500Y-127000000D03*
%TO.P,C9,1*%
%TO.N,GND*%
X114137500Y-127000000D03*
%TD*%
D25*
%TO.P,C8,1*%
%TO.N,+3.3V_WALL*%
X92000000Y-67862500D03*
%TO.P,C8,2*%
%TO.N,GND*%
X92000000Y-66137500D03*
%TD*%
%TO.P,C7,1*%
%TO.N,+3.3V_WALL*%
X89000000Y-67862500D03*
%TO.P,C7,2*%
%TO.N,GND*%
X89000000Y-66137500D03*
%TD*%
%TO.P,C6,1*%
%TO.N,+5V_WALL*%
X83000000Y-67862500D03*
%TO.P,C6,2*%
%TO.N,GND*%
X83000000Y-66137500D03*
%TD*%
%TO.P,C5,1*%
%TO.N,+5V_WALL*%
X79000000Y-67862500D03*
%TO.P,C5,2*%
%TO.N,GND*%
X79000000Y-66137500D03*
%TD*%
%TO.P,C4,1*%
%TO.N,Net-(U1-INA+)*%
X63000000Y-146000000D03*
%TO.P,C4,2*%
%TO.N,Net-(U1-INA-)*%
X63000000Y-144275000D03*
%TD*%
%TO.P,C3,1*%
%TO.N,Net-(U1-VBG)*%
X65000000Y-133862500D03*
%TO.P,C3,2*%
%TO.N,GND*%
X65000000Y-132137500D03*
%TD*%
%TO.P,C2,1*%
%TO.N,GND*%
X56000000Y-136862500D03*
%TO.P,C2,2*%
%TO.N,Net-(J2-Pin_1)*%
X56000000Y-135137500D03*
%TD*%
D26*
%TO.P,C1,1*%
%TO.N,GND*%
X64000000Y-123275000D03*
%TO.P,C1,2*%
%TO.N,ESP_3.3V*%
X64000000Y-125000000D03*
%TD*%
D27*
%TO.P,S2,1*%
%TO.N,CHIP_PU_EN*%
X111450000Y-149750000D03*
%TO.P,S2,2*%
%TO.N,GND*%
X111450000Y-154250000D03*
%TO.P,S2,3*%
%TO.N,CHIP_PU_EN*%
X120550000Y-149750000D03*
%TO.P,S2,4*%
%TO.N,GND*%
X120550000Y-154250000D03*
%TD*%
D28*
%TO.P,RV1,1,1*%
%TO.N,Net-(J3-Pin_1)*%
X58150000Y-76400000D03*
D29*
%TO.P,RV1,2,2*%
%TO.N,Net-(U4A-+)*%
X63650000Y-75250000D03*
D28*
%TO.P,RV1,3,3*%
%TO.N,GND*%
X58150000Y-74100000D03*
%TD*%
D30*
%TO.P,J8,A1,GND*%
%TO.N,GND*%
X118275000Y-93200000D03*
%TO.P,J8,A4,VBUS*%
%TO.N,Net-(D1-A)*%
X118275000Y-92400000D03*
D31*
%TO.P,J8,A5,CC1*%
%TO.N,Net-(J8-CC1)*%
X118275000Y-91250000D03*
%TO.P,J8,A6,D+*%
%TO.N,Net-(D4-A1)*%
X118275000Y-90250000D03*
%TO.P,J8,A7,D-*%
%TO.N,Net-(D3-A1)*%
X118275000Y-89750000D03*
%TO.P,J8,A8,SBU1*%
%TO.N,unconnected-(J8-SBU1-PadA8)*%
X118275000Y-88750000D03*
D30*
%TO.P,J8,A9,VBUS*%
%TO.N,Net-(D1-A)*%
X118275000Y-87600000D03*
%TO.P,J8,A12,GND*%
%TO.N,GND*%
X118275000Y-86800000D03*
%TO.P,J8,B1,GND*%
X118275000Y-86800000D03*
%TO.P,J8,B4,VBUS*%
%TO.N,Net-(D1-A)*%
X118275000Y-87600000D03*
D31*
%TO.P,J8,B5,CC2*%
%TO.N,Net-(J8-CC2)*%
X118275000Y-88250000D03*
%TO.P,J8,B6,D+*%
%TO.N,Net-(D4-A1)*%
X118275000Y-89250000D03*
%TO.P,J8,B7,D-*%
%TO.N,Net-(D3-A1)*%
X118275000Y-90750000D03*
%TO.P,J8,B8,SBU2*%
%TO.N,unconnected-(J8-SBU2-PadB8)*%
X118275000Y-91750000D03*
D30*
%TO.P,J8,B9,VBUS*%
%TO.N,Net-(D1-A)*%
X118275000Y-92400000D03*
%TO.P,J8,B12,GND*%
%TO.N,GND*%
X118275000Y-93200000D03*
D32*
%TO.P,J8,S1,SHIELD*%
X118875000Y-94320000D03*
D33*
X123075000Y-94320000D03*
D32*
X118875000Y-85680000D03*
D33*
X123075000Y-85680000D03*
%TD*%
D28*
%TO.P,RV4,1,1*%
%TO.N,Net-(J6-Pin_1)*%
X58150000Y-115250000D03*
D29*
%TO.P,RV4,2,2*%
%TO.N,Net-(U4D-+)*%
X63650000Y-114100000D03*
D28*
%TO.P,RV4,3,3*%
%TO.N,GND*%
X58150000Y-112950000D03*
%TD*%
D34*
%TO.P,Q2,1,E*%
%TO.N,ESP_3.3V*%
X60000000Y-126000000D03*
%TO.P,Q2,2,B*%
%TO.N,Net-(Q2-B)*%
X60000000Y-124100000D03*
%TO.P,Q2,3,C*%
%TO.N,Net-(J2-Pin_1)*%
X57725000Y-125050000D03*
%TD*%
D13*
%TO.P,J4,1,Pin_1*%
%TO.N,Net-(J4-Pin_1)*%
X49650000Y-89000000D03*
D14*
%TO.P,J4,2,Pin_2*%
%TO.N,+5V_WALL*%
X49650000Y-91500000D03*
%TD*%
D13*
%TO.P,J3,1,Pin_1*%
%TO.N,Net-(J3-Pin_1)*%
X49900000Y-75750000D03*
D14*
%TO.P,J3,2,Pin_2*%
%TO.N,+5V_WALL*%
X49900000Y-78250000D03*
%TD*%
D35*
%TO.P,U5,1,GND*%
%TO.N,GND*%
X96650000Y-152115000D03*
%TO.P,U5,2,3V3*%
%TO.N,Net-(SW1-B)*%
X96650000Y-150845000D03*
%TO.P,U5,3,EN*%
%TO.N,CHIP_PU_EN*%
X96650000Y-149575000D03*
%TO.P,U5,4,GPIO4*%
%TO.N,unconnected-(U5-GPIO4-Pad4)*%
X96650000Y-148305000D03*
%TO.P,U5,5,GPIO5*%
%TO.N,unconnected-(U5-GPIO5-Pad5)*%
X96650000Y-147035000D03*
%TO.P,U5,6,GPIO6*%
%TO.N,unconnected-(U5-GPIO6-Pad6)*%
X96650000Y-145765000D03*
%TO.P,U5,7,GPIO7*%
%TO.N,unconnected-(U5-GPIO7-Pad7)*%
X96650000Y-144495000D03*
%TO.P,U5,8,GPIO15*%
%TO.N,unconnected-(U5-GPIO15-Pad8)*%
X96650000Y-143225000D03*
%TO.P,U5,9,GPIO16*%
%TO.N,unconnected-(U5-GPIO16-Pad9)*%
X96650000Y-141955000D03*
%TO.P,U5,10,GPIO17*%
%TO.N,unconnected-(U5-GPIO17-Pad10)*%
X96650000Y-140685000D03*
%TO.P,U5,11,GPIO18/CLK_OUT3*%
%TO.N,unconnected-(U5-GPIO18{slash}CLK_OUT3-Pad11)*%
X96650000Y-139415000D03*
%TO.P,U5,12,GPIO8*%
%TO.N,unconnected-(U5-GPIO8-Pad12)*%
X96650000Y-138145000D03*
%TO.P,U5,13,GPIO19/USB_D-*%
%TO.N,Net-(D3-A1)*%
X96650000Y-136875000D03*
%TO.P,U5,14,GPIO20/USB_D+*%
%TO.N,Net-(D4-A1)*%
X96650000Y-135605000D03*
D36*
%TO.P,U5,15,GPIO3*%
%TO.N,unconnected-(U5-GPIO3-Pad15)*%
X94885000Y-134355000D03*
%TO.P,U5,16,GPIO46*%
%TO.N,unconnected-(U5-GPIO46-Pad16)*%
X93615000Y-134355000D03*
%TO.P,U5,17,GPIO9*%
%TO.N,unconnected-(U5-GPIO9-Pad17)*%
X92345000Y-134355000D03*
%TO.P,U5,18,GPIO10*%
%TO.N,unconnected-(U5-GPIO10-Pad18)*%
X91075000Y-134355000D03*
%TO.P,U5,19,GPIO11*%
%TO.N,unconnected-(U5-GPIO11-Pad19)*%
X89805000Y-134355000D03*
%TO.P,U5,20,GPIO12*%
%TO.N,unconnected-(U5-GPIO12-Pad20)*%
X88535000Y-134355000D03*
%TO.P,U5,21,GPIO13*%
%TO.N,unconnected-(U5-GPIO13-Pad21)*%
X87265000Y-134355000D03*
%TO.P,U5,22,GPIO14*%
%TO.N,unconnected-(U5-GPIO14-Pad22)*%
X85995000Y-134355000D03*
%TO.P,U5,23,GPIO21*%
%TO.N,unconnected-(U5-GPIO21-Pad23)*%
X84725000Y-134355000D03*
%TO.P,U5,24,GPIO47/SPICLK_P*%
%TO.N,unconnected-(U5-GPIO47{slash}SPICLK_P-Pad24)*%
X83455000Y-134355000D03*
%TO.P,U5,25,GPIO48/SPICLK_N*%
%TO.N,unconnected-(U5-GPIO48{slash}SPICLK_N-Pad25)*%
X82185000Y-134355000D03*
%TO.P,U5,26,GPIO45*%
%TO.N,unconnected-(U5-GPIO45-Pad26)*%
X80915000Y-134355000D03*
D35*
%TO.P,U5,27,GPIO0/BOOT*%
%TO.N,GPIO0_BOOT*%
X79150000Y-135605000D03*
%TO.P,U5,28,SPIIO6/GPIO35*%
%TO.N,GPIO_35*%
X79150000Y-136875000D03*
%TO.P,U5,29,SPIIO7/GPIO36*%
%TO.N,GPIO_36*%
X79150000Y-138145000D03*
%TO.P,U5,30,SPIDQS/GPIO37*%
%TO.N,unconnected-(U5-SPIDQS{slash}GPIO37-Pad30)*%
X79150000Y-139415000D03*
%TO.P,U5,31,GPIO38*%
%TO.N,unconnected-(U5-GPIO38-Pad31)*%
X79150000Y-140685000D03*
%TO.P,U5,32,MTCK/GPIO39/CLK_OUT3/SUBSPICS1*%
%TO.N,unconnected-(U5-MTCK{slash}GPIO39{slash}CLK_OUT3{slash}SUBSPICS1-Pad32)*%
X79150000Y-141955000D03*
%TO.P,U5,33,MTDO/GPIO40/CLK_OUT2*%
%TO.N,unconnected-(U5-MTDO{slash}GPIO40{slash}CLK_OUT2-Pad33)*%
X79150000Y-143225000D03*
%TO.P,U5,34,MTDI/GPIO41/CLK_OUT1*%
%TO.N,unconnected-(U5-MTDI{slash}GPIO41{slash}CLK_OUT1-Pad34)*%
X79150000Y-144495000D03*
%TO.P,U5,35,MTMS/GPIO42*%
%TO.N,unconnected-(U5-MTMS{slash}GPIO42-Pad35)*%
X79150000Y-145765000D03*
%TO.P,U5,36,U0RXD/GPIO44/CLK_OUT2*%
%TO.N,unconnected-(U5-U0RXD{slash}GPIO44{slash}CLK_OUT2-Pad36)*%
X79150000Y-147035000D03*
%TO.P,U5,37,U0TXD/GPIO43/CLK_OUT1*%
%TO.N,unconnected-(U5-U0TXD{slash}GPIO43{slash}CLK_OUT1-Pad37)*%
X79150000Y-148305000D03*
%TO.P,U5,38,GPIO2*%
%TO.N,unconnected-(U5-GPIO2-Pad38)*%
X79150000Y-149575000D03*
%TO.P,U5,39,GPIO1*%
%TO.N,unconnected-(U5-GPIO1-Pad39)*%
X79150000Y-150845000D03*
%TO.P,U5,40,GND*%
%TO.N,GND*%
X79150000Y-152115000D03*
D37*
%TO.P,U5,41,GND*%
X90800000Y-145795000D03*
X90800000Y-144395000D03*
X90800000Y-142995000D03*
X90800000Y-142995000D03*
X89400000Y-145795000D03*
X89400000Y-145795000D03*
X89400000Y-144395000D03*
X89400000Y-142995000D03*
X88000000Y-145795000D03*
X88000000Y-144395000D03*
X88000000Y-142995000D03*
%TD*%
D38*
%TO.P,D1,2,A*%
%TO.N,Net-(D1-A)*%
X112000000Y-95920000D03*
D39*
%TO.P,D1,1,K*%
%TO.N,+5VUSB*%
X112000000Y-106080000D03*
%TD*%
D40*
%TO.P,J1,1*%
%TO.N,Net-(J7-Pin_1)*%
X88500000Y-60000000D03*
D41*
%TO.P,J1,2*%
%TO.N,GND*%
X88500000Y-53800000D03*
D42*
%TO.P,J1,3*%
X83800000Y-56800000D03*
%TD*%
D28*
%TO.P,RV2,1,1*%
%TO.N,Net-(J4-Pin_1)*%
X58150000Y-89400000D03*
D29*
%TO.P,RV2,2,2*%
%TO.N,Net-(U4B-+)*%
X63650000Y-88250000D03*
D28*
%TO.P,RV2,3,3*%
%TO.N,GND*%
X58150000Y-87100000D03*
%TD*%
D43*
%TO.P,SW1,3,A*%
%TO.N,ESP_3.3V*%
X121250000Y-116500000D03*
%TO.P,SW1,2,C*%
%TO.N,NFET_3.3V*%
X121250000Y-119000000D03*
%TO.P,SW1,1,B*%
%TO.N,Net-(SW1-B)*%
X121250000Y-121500000D03*
%TD*%
D44*
%TO.P,D2,2,A2*%
%TO.N,GND*%
X114000000Y-81580000D03*
%TO.P,D2,1,A1*%
%TO.N,Net-(D1-A)*%
X114000000Y-82420000D03*
%TD*%
D13*
%TO.P,J7,1,Pin_1*%
%TO.N,Net-(J7-Pin_1)*%
X49900000Y-60750000D03*
D14*
%TO.P,J7,2,Pin_2*%
%TO.N,+5V_WALL*%
X49900000Y-63250000D03*
%TD*%
D45*
%TO.P,Q1,1,D*%
%TO.N,+3.3V_WALL*%
X99000000Y-78350000D03*
%TO.P,Q1,2,G*%
%TO.N,Net-(Q1-G)*%
X99000000Y-79650000D03*
%TO.P,Q1,3,S*%
%TO.N,NFET_3.3V*%
X101000000Y-79000000D03*
%TD*%
D46*
%TO.P,U4,1*%
%TO.N,Net-(U4A--)*%
X79810000Y-91525000D03*
%TO.P,U4,2,-*%
X78540000Y-91525000D03*
%TO.P,U4,3,+*%
%TO.N,Net-(U4A-+)*%
X77270000Y-91525000D03*
%TO.P,U4,4,V+*%
%TO.N,+5V_WALL*%
X76000000Y-91525000D03*
%TO.P,U4,5,+*%
%TO.N,Net-(U4B-+)*%
X74730000Y-91525000D03*
%TO.P,U4,6,-*%
%TO.N,Net-(U4B--)*%
X73460000Y-91525000D03*
%TO.P,U4,7*%
X72190000Y-91525000D03*
%TO.P,U4,8*%
%TO.N,Net-(U4C--)*%
X72190000Y-96475000D03*
%TO.P,U4,9,-*%
X73460000Y-96475000D03*
%TO.P,U4,10,+*%
%TO.N,Net-(U4C-+)*%
X74730000Y-96475000D03*
%TO.P,U4,11,V-*%
%TO.N,GND*%
X76000000Y-96475000D03*
%TO.P,U4,12,+*%
%TO.N,Net-(U4D-+)*%
X77270000Y-96475000D03*
%TO.P,U4,13,-*%
%TO.N,Net-(U4D--)*%
X78540000Y-96475000D03*
%TO.P,U4,14*%
X79810000Y-96475000D03*
%TD*%
D47*
%TO.P,D4,2,A2*%
%TO.N,GND*%
X113580000Y-89000000D03*
%TO.P,D4,1,A1*%
%TO.N,Net-(D4-A1)*%
X114420000Y-89000000D03*
%TD*%
D48*
%TO.P,U1,1,VSUP*%
%TO.N,ESP_3.3V*%
X69000000Y-126920000D03*
%TO.P,U1,2,BASE*%
%TO.N,Net-(Q2-B)*%
X69000000Y-128190000D03*
%TO.P,U1,3,AVDD*%
%TO.N,Net-(J2-Pin_1)*%
X69000000Y-129460000D03*
%TO.P,U1,4,VFB*%
%TO.N,Net-(U1-VFB)*%
X69000000Y-130730000D03*
%TO.P,U1,5,AGND*%
%TO.N,GND*%
X69000000Y-132000000D03*
%TO.P,U1,6,VBG*%
%TO.N,Net-(U1-VBG)*%
X69000000Y-133270000D03*
%TO.P,U1,7,INA-*%
%TO.N,Net-(U1-INA-)*%
X69000000Y-134540000D03*
%TO.P,U1,8,INA+*%
%TO.N,Net-(U1-INA+)*%
X69000000Y-135810000D03*
%TO.P,U1,9,INB-*%
%TO.N,GND*%
X74000000Y-135810000D03*
%TO.P,U1,10,INB+*%
X74000000Y-134540000D03*
%TO.P,U1,11,PD_SCK*%
%TO.N,GPIO_36*%
X74000000Y-133270000D03*
%TO.P,U1,12,DOUT*%
%TO.N,GPIO_35*%
X74000000Y-132000000D03*
%TO.P,U1,13,XO*%
%TO.N,unconnected-(U1-XO-Pad13)*%
X74000000Y-130730000D03*
%TO.P,U1,14,XI*%
%TO.N,GND*%
X74000000Y-129460000D03*
%TO.P,U1,15,RATE*%
X74000000Y-128190000D03*
%TO.P,U1,16,DVDD*%
%TO.N,ESP_3.3V*%
X74000000Y-126920000D03*
%TD*%
D27*
%TO.P,S1,1*%
%TO.N,GPIO0_BOOT*%
X82450000Y-121750000D03*
%TO.P,S1,2*%
%TO.N,GND*%
X82450000Y-126250000D03*
%TO.P,S1,3*%
%TO.N,GPIO0_BOOT*%
X91550000Y-121750000D03*
%TO.P,S1,4*%
%TO.N,GND*%
X91550000Y-126250000D03*
%TD*%
D28*
%TO.P,RV3,1,1*%
%TO.N,Net-(J5-Pin_1)*%
X58150000Y-102400000D03*
D29*
%TO.P,RV3,2,2*%
%TO.N,Net-(U4C-+)*%
X63650000Y-101250000D03*
D28*
%TO.P,RV3,3,3*%
%TO.N,GND*%
X58150000Y-100100000D03*
%TD*%
D47*
%TO.P,D3,2,A2*%
%TO.N,GND*%
X113080000Y-86500000D03*
%TO.P,D3,1,A1*%
%TO.N,Net-(D3-A1)*%
X113920000Y-86500000D03*
%TD*%
D49*
%TO.N,GND*%
X106500000Y-83000000D03*
%TD*%
D50*
%TO.N,GND*%
X108087500Y-83000000D02*
X106500000Y-83000000D01*
%TO.N,Net-(D4-A1)*%
X115670000Y-90250000D02*
X118275000Y-90250000D01*
X114420000Y-89000000D02*
X115670000Y-90250000D01*
X119195000Y-90200000D02*
X119145000Y-90250000D01*
X119145000Y-90250000D02*
X118275000Y-90250000D01*
X119145000Y-89250000D02*
X119195000Y-89300000D01*
X119195000Y-89300000D02*
X119195000Y-90200000D01*
X118275000Y-89250000D02*
X119145000Y-89250000D01*
%TO.N,ESP_3.3V*%
X106000000Y-114000000D02*
X106000000Y-123850000D01*
X106500000Y-113500000D02*
X106000000Y-114000000D01*
X106500000Y-106000000D02*
X106500000Y-113500000D01*
X109000000Y-103500000D02*
X106500000Y-106000000D01*
X114000000Y-103500000D02*
X109000000Y-103500000D01*
X114500000Y-104000000D02*
X114000000Y-103500000D01*
X114500000Y-113362500D02*
X114500000Y-104000000D01*
X113000000Y-114862500D02*
X114500000Y-113362500D01*
%TO.N,+3.3V_WALL*%
X86000000Y-73850000D02*
X86000000Y-80150000D01*
%TO.N,ESP_3.3V*%
X106000000Y-123850000D02*
X106000000Y-130150000D01*
%TO.N,+5VUSB*%
X115500000Y-129000000D02*
X110000000Y-129000000D01*
X115862500Y-128637500D02*
X115500000Y-129000000D01*
X115862500Y-127000000D02*
X115862500Y-128637500D01*
%TO.N,ESP_3.3V*%
X103862500Y-144862500D02*
X103862500Y-138000000D01*
X103000000Y-146000000D02*
X104000000Y-145000000D01*
X104000000Y-145000000D02*
X103862500Y-144862500D01*
X103000000Y-146087500D02*
X103000000Y-146000000D01*
%TO.N,CHIP_PU_EN*%
X110637500Y-146137500D02*
X112250000Y-147750000D01*
X107000000Y-146137500D02*
X110637500Y-146137500D01*
X113000000Y-147000000D02*
X112250000Y-147750000D01*
X112250000Y-147750000D02*
X111450000Y-148550000D01*
X101337500Y-149575000D02*
X96650000Y-149575000D01*
X103000000Y-147912500D02*
X101337500Y-149575000D01*
%TO.N,Net-(SW1-B)*%
X123000000Y-123250000D02*
X121250000Y-121500000D01*
X121000000Y-157500000D02*
X123000000Y-155500000D01*
X107000000Y-157500000D02*
X121000000Y-157500000D01*
X100345000Y-150845000D02*
X107000000Y-157500000D01*
X96650000Y-150845000D02*
X100345000Y-150845000D01*
X123000000Y-155500000D02*
X123000000Y-123250000D01*
%TO.N,GPIO_35*%
X77375000Y-136875000D02*
X79150000Y-136875000D01*
X76500000Y-133000000D02*
X76500000Y-136000000D01*
X76500000Y-136000000D02*
X77375000Y-136875000D01*
X75500000Y-132000000D02*
X76500000Y-133000000D01*
X74000000Y-132000000D02*
X75500000Y-132000000D01*
%TO.N,GPIO_36*%
X76100000Y-136165686D02*
X78079314Y-138145000D01*
X76100000Y-133500000D02*
X76100000Y-136165686D01*
X78079314Y-138145000D02*
X79150000Y-138145000D01*
X75870000Y-133270000D02*
X76100000Y-133500000D01*
X74000000Y-133270000D02*
X75870000Y-133270000D01*
%TO.N,Net-(Q2-B)*%
X58500000Y-125578052D02*
X58539026Y-125539026D01*
X58539026Y-125539026D02*
X58560974Y-125539026D01*
X58500000Y-126500000D02*
X58500000Y-125578052D01*
X58560974Y-125539026D02*
X60000000Y-124100000D01*
X60190000Y-128190000D02*
X58500000Y-126500000D01*
X69000000Y-128190000D02*
X60190000Y-128190000D01*
%TO.N,Net-(J2-Pin_1)*%
X56000000Y-126775000D02*
X57725000Y-125050000D01*
X56000000Y-127912500D02*
X56000000Y-126775000D01*
X58087500Y-130000000D02*
X56000000Y-127912500D01*
%TO.N,ESP_3.3V*%
X106000000Y-122000000D02*
X106000000Y-123850000D01*
X99000000Y-115000000D02*
X106000000Y-122000000D01*
X80000000Y-115000000D02*
X99000000Y-115000000D01*
X75000000Y-120000000D02*
X80000000Y-115000000D01*
X75000000Y-125920000D02*
X75000000Y-120000000D01*
X74000000Y-126920000D02*
X75000000Y-125920000D01*
%TO.N,Net-(U1-VBG)*%
X65592500Y-133270000D02*
X65000000Y-133862500D01*
X69000000Y-133270000D02*
X65592500Y-133270000D01*
%TO.N,Net-(U1-VFB)*%
X63182500Y-130730000D02*
X61912500Y-132000000D01*
X69000000Y-130730000D02*
X63182500Y-130730000D01*
%TO.N,Net-(U1-INA-)*%
X68185000Y-134540000D02*
X60725000Y-142000000D01*
X69000000Y-134540000D02*
X68185000Y-134540000D01*
%TO.N,Net-(U1-INA+)*%
X65000000Y-146000000D02*
X63000000Y-146000000D01*
X69000000Y-135810000D02*
X69000000Y-142000000D01*
X69000000Y-142000000D02*
X65000000Y-146000000D01*
%TO.N,GPIO0_BOOT*%
X78000000Y-134455000D02*
X79150000Y-135605000D01*
X78000000Y-125000000D02*
X78000000Y-134455000D01*
X81250000Y-121750000D02*
X78000000Y-125000000D01*
X82450000Y-121750000D02*
X81250000Y-121750000D01*
%TO.N,NFET_3.3V*%
X122800000Y-117450000D02*
X121250000Y-119000000D01*
X122800000Y-105800000D02*
X122800000Y-117450000D01*
X102000000Y-92000000D02*
X111000000Y-101000000D01*
X111000000Y-101000000D02*
X118000000Y-101000000D01*
X102000000Y-80000000D02*
X102000000Y-92000000D01*
X101000000Y-79000000D02*
X102000000Y-80000000D01*
X118000000Y-101000000D02*
X122800000Y-105800000D01*
%TO.N,ESP_3.3V*%
X100150000Y-118000000D02*
X106000000Y-123850000D01*
X89912500Y-118000000D02*
X100150000Y-118000000D01*
X74000000Y-126920000D02*
X69000000Y-126920000D01*
X65920000Y-126920000D02*
X64000000Y-125000000D01*
X69000000Y-126920000D02*
X65920000Y-126920000D01*
X64000000Y-125000000D02*
X61000000Y-125000000D01*
X61000000Y-125000000D02*
X60000000Y-126000000D01*
%TO.N,Net-(J2-Pin_1)*%
X59000000Y-129087500D02*
X58087500Y-130000000D01*
X68540000Y-129000000D02*
X59000000Y-129000000D01*
X59000000Y-129000000D02*
X59000000Y-129087500D01*
X69000000Y-129460000D02*
X68540000Y-129000000D01*
X56000000Y-132087500D02*
X58087500Y-130000000D01*
X56000000Y-135137500D02*
X56000000Y-132087500D01*
%TO.N,Net-(U1-VFB)*%
X61912500Y-132000000D02*
X59912500Y-130000000D01*
X61912500Y-137000000D02*
X61912500Y-132000000D01*
%TO.N,Net-(J2-Pin_1)*%
X49900000Y-141237500D02*
X56000000Y-135137500D01*
X49900000Y-141250000D02*
X49900000Y-141237500D01*
%TO.N,Net-(U1-INA-)*%
X60725000Y-142000000D02*
X63000000Y-144275000D01*
X58500000Y-142000000D02*
X60725000Y-142000000D01*
%TO.N,Net-(J2-Pin_3)*%
X52425000Y-146250000D02*
X56675000Y-142000000D01*
X49900000Y-146250000D02*
X52425000Y-146250000D01*
%TO.N,Net-(U1-INA+)*%
X60000000Y-149000000D02*
X63000000Y-146000000D01*
X59912500Y-149000000D02*
X60000000Y-149000000D01*
%TO.N,Net-(J2-Pin_4)*%
X57837500Y-148750000D02*
X58087500Y-149000000D01*
X49900000Y-148750000D02*
X57837500Y-148750000D01*
%TO.N,+5VUSB*%
X108300000Y-133837500D02*
X108137500Y-134000000D01*
X108300000Y-130150000D02*
X108300000Y-133837500D01*
X108137500Y-134000000D02*
X108137500Y-138000000D01*
%TO.N,ESP_3.3V*%
X106000000Y-131862500D02*
X103862500Y-134000000D01*
X106000000Y-130150000D02*
X106000000Y-131862500D01*
X103862500Y-138000000D02*
X103862500Y-134000000D01*
%TO.N,CHIP_PU_EN*%
X104775000Y-146137500D02*
X103000000Y-147912500D01*
X107000000Y-146137500D02*
X104775000Y-146137500D01*
%TO.N,ESP_3.3V*%
X116637500Y-116500000D02*
X115000000Y-114862500D01*
X121250000Y-116500000D02*
X116637500Y-116500000D01*
X113000000Y-114862500D02*
X115000000Y-114862500D01*
X115000000Y-114862500D02*
X117000000Y-114862500D01*
%TO.N,+5VUSB*%
X109450000Y-129000000D02*
X108300000Y-130150000D01*
X110000000Y-108000000D02*
X110000000Y-129000000D01*
X111920000Y-106080000D02*
X110000000Y-108000000D01*
X110000000Y-129000000D02*
X109450000Y-129000000D01*
X112000000Y-106080000D02*
X111920000Y-106080000D01*
%TO.N,Net-(D1-A)*%
X115520000Y-92400000D02*
X118275000Y-92400000D01*
X112000000Y-95920000D02*
X115520000Y-92400000D01*
%TO.N,Net-(J8-CC1)*%
X110662500Y-91250000D02*
X118275000Y-91250000D01*
X108912500Y-93000000D02*
X110662500Y-91250000D01*
%TO.N,Net-(D1-A)*%
X117455000Y-87600000D02*
X118275000Y-87600000D01*
X117355000Y-87500000D02*
X117455000Y-87600000D01*
X117355000Y-85775000D02*
X117355000Y-87500000D01*
X114000000Y-82420000D02*
X117355000Y-85775000D01*
%TO.N,Net-(J8-CC2)*%
X115000000Y-85000000D02*
X115000000Y-85845000D01*
X113000000Y-83000000D02*
X115000000Y-85000000D01*
X115000000Y-85845000D02*
X117405000Y-88250000D01*
X117405000Y-88250000D02*
X118275000Y-88250000D01*
X109912500Y-83000000D02*
X113000000Y-83000000D01*
%TO.N,Net-(U4D--)*%
X78540000Y-96475000D02*
X79810000Y-96475000D01*
%TO.N,Net-(U4D-+)*%
X72000000Y-106000000D02*
X71000000Y-107000000D01*
X70750000Y-107000000D02*
X63650000Y-114100000D01*
X72000000Y-102719999D02*
X72000000Y-106000000D01*
X71000000Y-107000000D02*
X70750000Y-107000000D01*
X77270000Y-97449999D02*
X72000000Y-102719999D01*
X77270000Y-96475000D02*
X77270000Y-97449999D01*
%TO.N,Net-(U4C--)*%
X72190000Y-96475000D02*
X73460000Y-96475000D01*
X73460000Y-95500001D02*
X73460000Y-96475000D01*
X74090001Y-94870000D02*
X73460000Y-95500001D01*
X87870000Y-94000000D02*
X87000000Y-94870000D01*
X87000000Y-94870000D02*
X74090001Y-94870000D01*
X89525000Y-94000000D02*
X87870000Y-94000000D01*
%TO.N,Net-(U4D--)*%
X81015000Y-95270000D02*
X79810000Y-96475000D01*
X89525000Y-95270000D02*
X81015000Y-95270000D01*
%TO.N,Net-(R1-Pad1)*%
X91000000Y-95410552D02*
X91000000Y-86912500D01*
X91000000Y-86912500D02*
X90087500Y-86000000D01*
X89525000Y-96540000D02*
X89870552Y-96540000D01*
X89870552Y-96540000D02*
X91000000Y-95410552D01*
%TO.N,+5V_WALL*%
X76850000Y-73850000D02*
X83700000Y-73850000D01*
X73000000Y-70000000D02*
X76850000Y-73850000D01*
X62000000Y-70000000D02*
X73000000Y-70000000D01*
X61000000Y-71000000D02*
X62000000Y-70000000D01*
X62000000Y-80000000D02*
X61000000Y-79000000D01*
X72000000Y-80000000D02*
X62000000Y-80000000D01*
X76000000Y-84000000D02*
X72000000Y-80000000D01*
X61000000Y-79000000D02*
X61000000Y-71000000D01*
X76000000Y-91525000D02*
X76000000Y-84000000D01*
%TO.N,Net-(U4A--)*%
X78540000Y-91525000D02*
X79810000Y-91525000D01*
%TO.N,Net-(U4B--)*%
X86000000Y-94000000D02*
X75000000Y-94000000D01*
X73460000Y-92460000D02*
X73460000Y-91525000D01*
X87010001Y-93000000D02*
X87000000Y-93000000D01*
X75000000Y-94000000D02*
X73460000Y-92460000D01*
X87000000Y-93000000D02*
X86000000Y-94000000D01*
X88550001Y-91460000D02*
X87010001Y-93000000D01*
X89525000Y-91460000D02*
X88550001Y-91460000D01*
%TO.N,Net-(U4A--)*%
X81145000Y-90190000D02*
X79810000Y-91525000D01*
X89525000Y-90190000D02*
X81145000Y-90190000D01*
%TO.N,Net-(U4A-+)*%
X77270000Y-82270000D02*
X77270000Y-91525000D01*
X71000000Y-76000000D02*
X77270000Y-82270000D01*
X63650000Y-75250000D02*
X64400000Y-76000000D01*
X64400000Y-76000000D02*
X71000000Y-76000000D01*
%TO.N,Net-(U4B-+)*%
X74730000Y-90730000D02*
X74730000Y-91525000D01*
X72000000Y-88000000D02*
X74730000Y-90730000D01*
X71750000Y-88250000D02*
X72000000Y-88000000D01*
X63650000Y-88250000D02*
X71750000Y-88250000D01*
%TO.N,Net-(U4C-+)*%
X74730000Y-98270000D02*
X74730000Y-96475000D01*
X71000000Y-102000000D02*
X74730000Y-98270000D01*
X64400000Y-102000000D02*
X71000000Y-102000000D01*
X63650000Y-101250000D02*
X64400000Y-102000000D01*
%TO.N,Net-(J6-Pin_1)*%
X57750000Y-114850000D02*
X58150000Y-115250000D01*
X49800000Y-114850000D02*
X57750000Y-114850000D01*
%TO.N,Net-(J5-Pin_1)*%
X57500000Y-101750000D02*
X58150000Y-102400000D01*
X49800000Y-101750000D02*
X57500000Y-101750000D01*
%TO.N,Net-(J4-Pin_1)*%
X57750000Y-89000000D02*
X58150000Y-89400000D01*
X49650000Y-89000000D02*
X57750000Y-89000000D01*
%TO.N,Net-(J3-Pin_1)*%
X57500000Y-75750000D02*
X58150000Y-76400000D01*
X49900000Y-75750000D02*
X57500000Y-75750000D01*
%TO.N,Net-(Q1-G)*%
X91912500Y-84000000D02*
X94000000Y-81912500D01*
X91912500Y-86000000D02*
X91912500Y-84000000D01*
X96737500Y-81912500D02*
X99000000Y-79650000D01*
X94000000Y-81912500D02*
X96737500Y-81912500D01*
%TO.N,+3.3V_WALL*%
X93350000Y-78350000D02*
X99000000Y-78350000D01*
X93000000Y-78000000D02*
X93350000Y-78350000D01*
X90850000Y-80150000D02*
X93000000Y-78000000D01*
X86000000Y-80150000D02*
X90850000Y-80150000D01*
X89000000Y-67862500D02*
X92000000Y-67862500D01*
X86000000Y-70862500D02*
X89000000Y-67862500D01*
X86000000Y-73850000D02*
X86000000Y-70862500D01*
%TO.N,+5V_WALL*%
X83000000Y-67862500D02*
X79000000Y-67862500D01*
X83700000Y-73850000D02*
X83700000Y-68562500D01*
X83700000Y-68562500D02*
X83000000Y-67862500D01*
X48000000Y-115550000D02*
X49800000Y-117350000D01*
X48000000Y-106050000D02*
X48000000Y-115550000D01*
X49800000Y-104250000D02*
X48000000Y-106050000D01*
X48000000Y-93000000D02*
X48000000Y-104000000D01*
X48000000Y-104000000D02*
X48250000Y-104250000D01*
X49650000Y-91500000D02*
X49500000Y-91500000D01*
X49500000Y-91500000D02*
X48000000Y-93000000D01*
X48250000Y-104250000D02*
X49800000Y-104250000D01*
X49150000Y-91000000D02*
X49650000Y-91500000D01*
X48000000Y-91000000D02*
X49150000Y-91000000D01*
X48000000Y-80000000D02*
X48000000Y-91000000D01*
X49750000Y-78250000D02*
X48000000Y-80000000D01*
X49900000Y-78250000D02*
X49750000Y-78250000D01*
X47000000Y-75350000D02*
X49900000Y-78250000D01*
X47000000Y-65000000D02*
X47000000Y-75350000D01*
X48750000Y-63250000D02*
X47000000Y-65000000D01*
X49900000Y-63250000D02*
X48750000Y-63250000D01*
%TO.N,GPIO0_BOOT*%
X86500000Y-118000000D02*
X86500000Y-120000000D01*
X86500000Y-120000000D02*
X91000000Y-120000000D01*
X83000000Y-120000000D02*
X86500000Y-120000000D01*
X86500000Y-118000000D02*
X88087500Y-118000000D01*
X84862500Y-118000000D02*
X86500000Y-118000000D01*
X91550000Y-120550000D02*
X91550000Y-121750000D01*
X91000000Y-120000000D02*
X91550000Y-120550000D01*
X82450000Y-120550000D02*
X83000000Y-120000000D01*
X82450000Y-121750000D02*
X82450000Y-120550000D01*
%TO.N,CHIP_PU_EN*%
X116000000Y-145000000D02*
X116000000Y-147000000D01*
X116000000Y-147000000D02*
X113000000Y-147000000D01*
X116000000Y-145000000D02*
X118087500Y-145000000D01*
X113862500Y-145000000D02*
X116000000Y-145000000D01*
X120000000Y-147000000D02*
X116000000Y-147000000D01*
X111450000Y-148550000D02*
X111450000Y-149750000D01*
X120550000Y-149750000D02*
X120550000Y-147550000D01*
X120550000Y-147550000D02*
X120000000Y-147000000D01*
%TO.N,ESP_3.3V*%
X69087501Y-126595000D02*
X70087500Y-126595000D01*
%TO.N,Net-(J7-Pin_1)*%
X88500000Y-60000000D02*
X50650000Y-60000000D01*
X50650000Y-60000000D02*
X49900000Y-60750000D01*
%TO.N,Net-(D3-A1)*%
X113920000Y-86500000D02*
X114080000Y-86500000D01*
X114080000Y-86500000D02*
X117330000Y-89750000D01*
X117330000Y-89750000D02*
X118275000Y-89750000D01*
%TD*%
M02*
