M48
; DRILL file {KiCad 8.0.6} date 2024-11-14T02:25:44-0800
; FORMAT={-:-/ absolute / inch / decimal}
; #@! TF.CreationDate,2024-11-14T02:25:44-08:00
; #@! TF.GenerationSoftware,Kicad,Pcbnew,8.0.6
; #@! TF.FileFunction,Plated,1,2,PTH
FMAT,2
INCH
; #@! TA.AperFunction,Plated,PTH,ViaDrill
T1C0.0118
; #@! TA.AperFunction,Plated,PTH,ComponentDrill
T2C0.0236
; #@! TA.AperFunction,Plated,PTH,ComponentDrill
T3C0.0374
; #@! TA.AperFunction,Plated,PTH,ComponentDrill
T4C0.0394
; #@! TA.AperFunction,Plated,PTH,ComponentDrill
T5C0.0433
%
G90
G05
T1
X4.1929Y-3.2677
T3
X1.9547Y-3.5039
X1.9547Y-3.6024
X1.9606Y-4.0059
X1.9606Y-4.1043
X1.9606Y-4.5217
X1.9606Y-4.6201
X1.9646Y-2.3917
X1.9646Y-2.4902
X1.9646Y-2.9823
X1.9646Y-3.0807
X1.9646Y-5.561
X1.9646Y-5.6594
X1.9646Y-5.7579
X1.9646Y-5.8563
T5
X4.4094Y-3.7764
X4.4094Y-4.1764
T2
G00X4.6585Y-3.3732
M15
G01X4.7018Y-3.3732
M16
G05
G00X4.6585Y-3.7134
M15
G01X4.7018Y-3.7134
M16
G05
G00X4.8297Y-3.3732
M15
G01X4.8612Y-3.3732
M16
G05
G00X4.8297Y-3.7134
M15
G01X4.8612Y-3.7134
M16
G05
T4
G00X3.2992Y-2.1969
M15
G01X3.2992Y-2.2756
M16
G05
G00X3.5236Y-2.1181
M15
G01X3.4449Y-2.1181
M16
G05
G00X3.5335Y-2.3622
M15
G01X3.435Y-2.3622
M16
G05
M30
